M48
; DRILL file KiCad 10.0.6 date 2026-10-06T22:04:52
; FORMAT={-:-/ absolute / metric / decimal}
; #@! TF.CreationDate,2026-10-06T22:04:52+02:00
; #@! TF.GenerationSoftware,Kicad,Pcbnew,10.0.6
; #@! TF.FileFunction,Plated,1,4,PTH
FMAT,2
METRIC
; #@! TA.AperFunction,Plated,PTH,ViaDrill
T1C0.300
; #@! TA.AperFunction,Plated,PTH,ComponentDrill
T2C0.920
; #@! TA.AperFunction,Plated,PTH,ComponentDrill
T3C1.000
; #@! TA.AperFunction,Plated,PTH,ComponentDrill
T4C1.100
; #@! TA.AperFunction,Plated,PTH,ComponentDrill
T5C2.500
%
G90
G05
T1
X18.05Y33.0
X18.4Y29.575
X18.4Y27.925
X19.2Y20.95
X21.05Y14.5
X21.5Y19.05
X21.95Y33.0
X22.1Y20.0
X22.5Y27.925
X22.55Y31.25
X22.55Y26.25
X22.55Y23.5
X22.95Y12.0
X24.95Y15.9
X25.45Y32.25
X25.45Y27.3
X25.45Y22.5
X26.4Y28.25
X27.999Y20.807
X28.25Y34.55
X28.39Y19.165
X28.55Y42.905
X28.55Y41.635
X28.55Y40.365
X28.55Y39.095
X28.969Y21.281
X29.25Y37.45
X30.05Y45.0
X30.207Y25.69
X30.612Y26.952
X30.7Y33.85
X31.526Y26.4
X31.75Y25.092
X32.8Y22.2
X32.955Y25.717
X33.95Y45.0
X34.292Y29.661
X34.75Y18.85
X34.892Y27.75
X34.901Y25.679
X35.5Y42.905
X35.5Y41.635
X35.756Y39.731
X35.8Y21.75
X36.075Y22.582
X37.55Y34.0
X37.673Y18.784
X37.85Y30.95
X38.0Y43.087
X38.0Y39.087
X38.05Y23.0
X39.038Y44.936
X39.45Y31.9
X39.55Y41.0
X40.95Y24.0
X41.1Y37.0
X41.1Y33.05
X42.0Y45.0
X43.35Y41.0
X43.8Y39.4
X45.9Y29.0
X46.25Y41.0
X47.05Y37.0
X50.2Y29.0
X50.95Y37.0
X52.45Y41.0
X54.0Y40.0
X56.062Y13.0
X61.4Y43.0
T2
X53.0Y30.0
X53.0Y27.5
X55.0Y30.0
X55.0Y27.5
T3
X39.0Y15.0
X39.0Y12.46
X39.0Y9.92
X46.0Y49.0
X48.54Y49.0
X51.08Y49.0
X53.62Y49.0
X56.16Y49.0
T4
X12.0Y18.0
X12.0Y15.46
X12.0Y12.92
X12.0Y10.38
X12.0Y7.84
X14.54Y18.0
X14.54Y15.46
X14.54Y12.92
X14.54Y10.38
X14.54Y7.84
X28.0Y10.0
X28.0Y5.5
X34.5Y10.0
X34.5Y5.5
T5
X57.71Y34.77
X57.71Y22.73
M30
