%TF.GenerationSoftware,KiCad,Pcbnew,10.0.6*%
%TF.CreationDate,2026-10-08T10:22:32+02:00*%
%TF.ProjectId,plytka-nosna,706c7974-6b61-42d6-9e6f-736e612e6b69,N1*%
%TF.SameCoordinates,Original*%
%TF.FileFunction,Paste,Top*%
%TF.FilePolarity,Positive*%
%FSLAX46Y46*%
G04 Gerber Fmt 4.6, Leading zero omitted, Abs format (unit mm)*
G04 Created by KiCad (PCBNEW 10.0.6) date 2026-10-08 10:22:32*
%MOMM*%
%LPD*%
G01*
G04 APERTURE LIST*
G04 Aperture macros list*
%AMRoundRect*
0 Rectangle with rounded corners*
0 $1 Rounding radius*
0 $2 $3 $4 $5 $6 $7 $8 $9 X,Y pos of 4 corners*
0 Add a 4 corners polygon primitive as box body*
4,1,4,$2,$3,$4,$5,$6,$7,$8,$9,$2,$3,0*
0 Add four circle primitives for the rounded corners*
1,1,$1+$1,$2,$3*
1,1,$1+$1,$4,$5*
1,1,$1+$1,$6,$7*
1,1,$1+$1,$8,$9*
0 Add four rect primitives between the rounded corners*
20,1,$1+$1,$2,$3,$4,$5,0*
20,1,$1+$1,$4,$5,$6,$7,0*
20,1,$1+$1,$6,$7,$8,$9,0*
20,1,$1+$1,$8,$9,$2,$3,0*%
G04 Aperture macros list end*
%ADD10RoundRect,0.250000X0.475000X-0.250000X0.475000X0.250000X-0.475000X0.250000X-0.475000X-0.250000X0*%
%ADD11RoundRect,0.250000X-0.262500X-0.450000X0.262500X-0.450000X0.262500X0.450000X-0.262500X0.450000X0*%
%ADD12RoundRect,0.250000X0.450000X-0.262500X0.450000X0.262500X-0.450000X0.262500X-0.450000X-0.262500X0*%
%ADD13RoundRect,0.150000X-0.587500X-0.150000X0.587500X-0.150000X0.587500X0.150000X-0.587500X0.150000X0*%
%ADD14RoundRect,0.250000X-0.312500X-0.625000X0.312500X-0.625000X0.312500X0.625000X-0.312500X0.625000X0*%
%ADD15R,0.300000X1.300000*%
%ADD16R,1.800000X2.200000*%
%ADD17RoundRect,0.225000X0.225000X0.375000X-0.225000X0.375000X-0.225000X-0.375000X0.225000X-0.375000X0*%
%ADD18RoundRect,0.162500X-0.650000X-0.162500X0.650000X-0.162500X0.650000X0.162500X-0.650000X0.162500X0*%
G04 APERTURE END LIST*
D10*
%TO.C,C1*%
X148000000Y42050000D03*
X148000000Y43950000D03*
%TD*%
D11*
%TO.C,R3*%
X57087500Y21000000D03*
X58912500Y21000000D03*
%TD*%
D12*
%TO.C,R15*%
X163000000Y17087500D03*
X163000000Y18912500D03*
%TD*%
D10*
%TO.C,C7*%
X50500000Y47530000D03*
X50500000Y49430000D03*
%TD*%
D11*
%TO.C,R8*%
X61087500Y39000000D03*
X62912500Y39000000D03*
%TD*%
%TO.C,R7*%
X45087500Y39000000D03*
X46912500Y39000000D03*
%TD*%
D12*
%TO.C,R13*%
X27000000Y47567500D03*
X27000000Y49392500D03*
%TD*%
%TO.C,R4*%
X63000000Y15087500D03*
X63000000Y16912500D03*
%TD*%
D10*
%TO.C,C2*%
X151000000Y42050000D03*
X151000000Y43950000D03*
%TD*%
D11*
%TO.C,R5*%
X13087500Y39000000D03*
X14912500Y39000000D03*
%TD*%
%TO.C,R16*%
X18587500Y19000000D03*
X20412500Y19000000D03*
%TD*%
%TO.C,R14*%
X157587500Y18000000D03*
X159412500Y18000000D03*
%TD*%
%TO.C,R10*%
X27337500Y19000000D03*
X29162500Y19000000D03*
%TD*%
D10*
%TO.C,C4*%
X32000000Y47530000D03*
X32000000Y49430000D03*
%TD*%
D13*
%TO.C,Q1*%
X57062500Y16950000D03*
X57062500Y15050000D03*
X58937500Y16000000D03*
%TD*%
D12*
%TO.C,R11*%
X148000000Y37087500D03*
X148000000Y38912500D03*
%TD*%
%TO.C,R12*%
X151000000Y37087500D03*
X151000000Y38912500D03*
%TD*%
D10*
%TO.C,C5*%
X165500000Y17050000D03*
X165500000Y18950000D03*
%TD*%
D14*
%TO.C,R2*%
X44537500Y19000000D03*
X47462500Y19000000D03*
%TD*%
D15*
%TO.C,J7*%
X42250000Y44630000D03*
X41750000Y44630000D03*
X41250000Y44630000D03*
X40750000Y44630000D03*
X40250000Y44630000D03*
X39750000Y44630000D03*
X39250000Y44630000D03*
X38750000Y44630000D03*
X38250000Y44630000D03*
X37750000Y44630000D03*
D16*
X44150000Y47880000D03*
X35850000Y47880000D03*
%TD*%
D11*
%TO.C,R18*%
X78087500Y19120000D03*
X79912500Y19120000D03*
%TD*%
%TO.C,R9*%
X13087500Y19000000D03*
X14912500Y19000000D03*
%TD*%
%TO.C,R1*%
X36387500Y16500000D03*
X38212500Y16500000D03*
%TD*%
D12*
%TO.C,R19*%
X53000000Y47567500D03*
X53000000Y49392500D03*
%TD*%
D10*
%TO.C,C3*%
X92500000Y87050000D03*
X92500000Y88950000D03*
%TD*%
D11*
%TO.C,R6*%
X29087500Y39000000D03*
X30912500Y39000000D03*
%TD*%
D17*
%TO.C,D2*%
X53650000Y19000000D03*
X50350000Y19000000D03*
%TD*%
D10*
%TO.C,C6*%
X48000000Y47530000D03*
X48000000Y49430000D03*
%TD*%
D12*
%TO.C,R17*%
X158300000Y69587500D03*
X158300000Y71412500D03*
%TD*%
D18*
%TO.C,U1*%
X82412500Y89905000D03*
X82412500Y88635000D03*
X82412500Y87365000D03*
X82412500Y86095000D03*
X89587500Y86095000D03*
X89587500Y87365000D03*
X89587500Y88635000D03*
X89587500Y89905000D03*
%TD*%
D13*
%TO.C,D3*%
X162562500Y13450000D03*
X162562500Y11550000D03*
X164437500Y12500000D03*
%TD*%
D11*
%TO.C,R20*%
X85087500Y81500000D03*
X86912500Y81500000D03*
%TD*%
M02*
