%TF.GenerationSoftware,KiCad,Pcbnew,10.0.6*%
%TF.CreationDate,2026-10-06T22:04:53+02:00*%
%TF.ProjectId,radio-usb-controller,72616469-6f2d-4757-9362-2d636f6e7472,R01.3*%
%TF.SameCoordinates,Original*%
%TF.FileFunction,Paste,Top*%
%TF.FilePolarity,Positive*%
%FSLAX46Y46*%
G04 Gerber Fmt 4.6, Leading zero omitted, Abs format (unit mm)*
G04 Created by KiCad (PCBNEW 10.0.6) date 2026-10-06 22:04:53*
%MOMM*%
%LPD*%
G01*
G04 APERTURE LIST*
G04 Aperture macros list*
%AMRoundRect*
0 Rectangle with rounded corners*
0 $1 Rounding radius*
0 $2 $3 $4 $5 $6 $7 $8 $9 X,Y pos of 4 corners*
0 Add a 4 corners polygon primitive as box body*
4,1,4,$2,$3,$4,$5,$6,$7,$8,$9,$2,$3,0*
0 Add four circle primitives for the rounded corners*
1,1,$1+$1,$2,$3*
1,1,$1+$1,$4,$5*
1,1,$1+$1,$6,$7*
1,1,$1+$1,$8,$9*
0 Add four rect primitives between the rounded corners*
20,1,$1+$1,$2,$3,$4,$5,0*
20,1,$1+$1,$4,$5,$6,$7,0*
20,1,$1+$1,$6,$7,$8,$9,0*
20,1,$1+$1,$8,$9,$2,$3,0*%
G04 Aperture macros list end*
%ADD10RoundRect,0.250000X-0.250000X-0.475000X0.250000X-0.475000X0.250000X0.475000X-0.250000X0.475000X0*%
%ADD11RoundRect,0.250000X0.250000X0.475000X-0.250000X0.475000X-0.250000X-0.475000X0.250000X-0.475000X0*%
%ADD12RoundRect,0.250000X0.450000X-0.262500X0.450000X0.262500X-0.450000X0.262500X-0.450000X-0.262500X0*%
%ADD13RoundRect,0.250000X-0.262500X-0.450000X0.262500X-0.450000X0.262500X0.450000X-0.262500X0.450000X0*%
%ADD14RoundRect,0.250000X0.475000X-0.250000X0.475000X0.250000X-0.475000X0.250000X-0.475000X-0.250000X0*%
%ADD15RoundRect,0.250000X-0.400000X-0.300000X0.400000X-0.300000X0.400000X0.300000X-0.400000X0.300000X0*%
%ADD16RoundRect,0.250000X-0.475000X0.250000X-0.475000X-0.250000X0.475000X-0.250000X0.475000X0.250000X0*%
%ADD17RoundRect,0.150000X0.512500X0.150000X-0.512500X0.150000X-0.512500X-0.150000X0.512500X-0.150000X0*%
%ADD18RoundRect,0.075000X-0.662500X-0.075000X0.662500X-0.075000X0.662500X0.075000X-0.662500X0.075000X0*%
%ADD19RoundRect,0.075000X-0.075000X-0.662500X0.075000X-0.662500X0.075000X0.662500X-0.075000X0.662500X0*%
%ADD20RoundRect,0.250000X0.262500X0.450000X-0.262500X0.450000X-0.262500X-0.450000X0.262500X-0.450000X0*%
%ADD21RoundRect,0.150000X-0.825000X-0.150000X0.825000X-0.150000X0.825000X0.150000X-0.825000X0.150000X0*%
%ADD22RoundRect,0.243750X-0.243750X-0.456250X0.243750X-0.456250X0.243750X0.456250X-0.243750X0.456250X0*%
%ADD23RoundRect,0.150000X-0.512500X-0.150000X0.512500X-0.150000X0.512500X0.150000X-0.512500X0.150000X0*%
%ADD24RoundRect,0.250000X-0.450000X0.262500X-0.450000X-0.262500X0.450000X-0.262500X0.450000X0.262500X0*%
%ADD25RoundRect,0.150000X-0.587500X-0.150000X0.587500X-0.150000X0.587500X0.150000X-0.587500X0.150000X0*%
%ADD26RoundRect,0.270000X0.630000X0.630000X-0.630000X0.630000X-0.630000X-0.630000X0.630000X-0.630000X0*%
G04 APERTURE END LIST*
D10*
%TO.C,C4*%
X37550000Y33000000D03*
X39450000Y33000000D03*
%TD*%
D11*
%TO.C,C7*%
X25450000Y26250000D03*
X23550000Y26250000D03*
%TD*%
D12*
%TO.C,R10*%
X37000000Y39087500D03*
X37000000Y40912500D03*
%TD*%
D13*
%TO.C,R12*%
X51087500Y12000000D03*
X52912500Y12000000D03*
%TD*%
D12*
%TO.C,R11*%
X37000000Y43087500D03*
X37000000Y44912500D03*
%TD*%
%TO.C,R7*%
X32700000Y20087500D03*
X32700000Y21912500D03*
%TD*%
D14*
%TO.C,C13*%
X20500000Y19050000D03*
X20500000Y20950000D03*
%TD*%
D13*
%TO.C,R6*%
X24087500Y37000000D03*
X25912500Y37000000D03*
%TD*%
D10*
%TO.C,C9*%
X38050000Y24000000D03*
X39950000Y24000000D03*
%TD*%
D15*
%TO.C,Y1*%
X19450000Y27925000D03*
X21550000Y27925000D03*
X21550000Y29575000D03*
X19450000Y29575000D03*
%TD*%
D16*
%TO.C,C3*%
X34750000Y21750000D03*
X34750000Y19850000D03*
%TD*%
D11*
%TO.C,C6*%
X25450000Y31250000D03*
X23550000Y31250000D03*
%TD*%
D17*
%TO.C,U2*%
X47137500Y40050000D03*
X47137500Y41000000D03*
X47137500Y41950000D03*
X44862500Y41950000D03*
X44862500Y40050000D03*
%TD*%
D10*
%TO.C,C11*%
X31050000Y45000000D03*
X32950000Y45000000D03*
%TD*%
D13*
%TO.C,R9*%
X20087500Y12000000D03*
X21912500Y12000000D03*
%TD*%
D18*
%TO.C,U1*%
X27837500Y30750000D03*
X27837500Y30250000D03*
X27837500Y29750000D03*
X27837500Y29250000D03*
X27837500Y28750000D03*
X27837500Y28250000D03*
X27837500Y27750000D03*
X27837500Y27250000D03*
X27837500Y26750000D03*
X27837500Y26250000D03*
X27837500Y25750000D03*
X27837500Y25250000D03*
D19*
X29250000Y23837500D03*
X29750000Y23837500D03*
X30250000Y23837500D03*
X30750000Y23837500D03*
X31250000Y23837500D03*
X31750000Y23837500D03*
X32250000Y23837500D03*
X32750000Y23837500D03*
X33250000Y23837500D03*
X33750000Y23837500D03*
X34250000Y23837500D03*
X34750000Y23837500D03*
D18*
X36162500Y25250000D03*
X36162500Y25750000D03*
X36162500Y26250000D03*
X36162500Y26750000D03*
X36162500Y27250000D03*
X36162500Y27750000D03*
X36162500Y28250000D03*
X36162500Y28750000D03*
X36162500Y29250000D03*
X36162500Y29750000D03*
X36162500Y30250000D03*
X36162500Y30750000D03*
D19*
X34750000Y32162500D03*
X34250000Y32162500D03*
X33750000Y32162500D03*
X33250000Y32162500D03*
X32750000Y32162500D03*
X32250000Y32162500D03*
X31750000Y32162500D03*
X31250000Y32162500D03*
X30750000Y32162500D03*
X30250000Y32162500D03*
X29750000Y32162500D03*
X29250000Y32162500D03*
%TD*%
D20*
%TO.C,R2*%
X40912500Y28000000D03*
X39087500Y28000000D03*
%TD*%
D10*
%TO.C,C14*%
X48050000Y37000000D03*
X49950000Y37000000D03*
%TD*%
D13*
%TO.C,R4*%
X42087500Y37000000D03*
X43912500Y37000000D03*
%TD*%
D20*
%TO.C,R1*%
X40912500Y30000000D03*
X39087500Y30000000D03*
%TD*%
D21*
%TO.C,U4*%
X29525000Y42905000D03*
X29525000Y41635000D03*
X29525000Y40365000D03*
X29525000Y39095000D03*
X34475000Y39095000D03*
X34475000Y40365000D03*
X34475000Y41635000D03*
X34475000Y42905000D03*
%TD*%
D22*
%TO.C,D1*%
X56062500Y12000000D03*
X57937500Y12000000D03*
%TD*%
D14*
%TO.C,C5*%
X29250000Y34550000D03*
X29250000Y36450000D03*
%TD*%
D10*
%TO.C,C12*%
X23050000Y17000000D03*
X24950000Y17000000D03*
%TD*%
%TO.C,C1*%
X49550000Y41000000D03*
X51450000Y41000000D03*
%TD*%
D23*
%TO.C,U3*%
X46862500Y29950000D03*
X46862500Y29000000D03*
X46862500Y28050000D03*
X49137500Y28050000D03*
X49137500Y29000000D03*
X49137500Y29950000D03*
%TD*%
D13*
%TO.C,R8*%
X22087500Y14500000D03*
X23912500Y14500000D03*
%TD*%
D10*
%TO.C,C10*%
X19050000Y33000000D03*
X20950000Y33000000D03*
%TD*%
D24*
%TO.C,R3*%
X46000000Y33412500D03*
X46000000Y31587500D03*
%TD*%
D11*
%TO.C,C2*%
X42450000Y41000000D03*
X40550000Y41000000D03*
%TD*%
D13*
%TO.C,R5*%
X23087500Y20000000D03*
X24912500Y20000000D03*
%TD*%
D25*
%TO.C,Q1*%
X42062500Y34950000D03*
X42062500Y33050000D03*
X43937500Y34000000D03*
%TD*%
D11*
%TO.C,C8*%
X25450000Y23500000D03*
X23550000Y23500000D03*
%TD*%
D26*
%TO.C,F1*%
X61400000Y43000000D03*
X58600000Y43000000D03*
%TD*%
M02*
