M48
; DRILL file KiCad 10.0.6 date 2026-10-07T23:03:52
; FORMAT={-:-/ absolute / metric / decimal}
; #@! TF.CreationDate,2026-10-07T23:03:52+02:00
; #@! TF.GenerationSoftware,Kicad,Pcbnew,10.0.6
; #@! TF.FileFunction,Plated,1,2,PTH
FMAT,2
METRIC
; #@! TA.AperFunction,Plated,PTH,ViaDrill
T1C0.400
; #@! TA.AperFunction,Plated,PTH,ComponentDrill
T2C0.650
; #@! TA.AperFunction,Plated,PTH,ComponentDrill
T3C0.900
; #@! TA.AperFunction,Plated,PTH,ComponentDrill
T4C1.000
; #@! TA.AperFunction,Plated,PTH,ComponentDrill
T5C1.200
; #@! TA.AperFunction,Plated,PTH,ComponentDrill
T6C1.300
; #@! TA.AperFunction,Plated,PTH,ComponentDrill
T7C1.850
%
G90
G05
T1
X17.604Y18.019
X21.35Y18.019
X26.536Y20.188
X26.909Y87.005
X28.106Y39.982
X42.926Y91.185
X43.527Y17.829
X45.63Y20.094
X51.236Y19.886
X51.945Y87.005
X56.139Y14.127
X59.77Y22.078
X60.739Y31.781
X62.04Y17.872
X72.52Y44.623
X75.91Y75.051
X76.237Y43.279
X79.356Y41.998
X80.056Y75.051
X83.828Y50.87
X85.079Y83.424
X85.787Y40.644
X85.818Y66.579
X88.464Y44.362
X90.802Y31.821
X91.629Y58.488
X93.066Y52.006
X94.549Y53.022
X96.425Y60.821
X106.808Y12.508
X110.265Y11.04
X110.523Y47.757
X113.02Y19.717
X113.849Y62.401
X116.976Y62.476
X117.4Y36.15
X119.605Y24.95
X119.605Y11.36
X120.316Y40.057
X120.649Y10.594
X121.514Y37.801
X131.212Y76.164
X141.796Y61.537
X145.573Y35.302
X145.731Y34.29
X149.694Y37.087
X152.385Y44.399
X153.474Y41.25
X159.412Y19.324
X161.227Y12.067
X166.888Y17.243
T2
X109.857Y45.04
X109.857Y43.77
X109.857Y42.5
X109.857Y41.23
X109.857Y39.96
X109.857Y38.69
X109.857Y37.42
X109.857Y36.15
X109.857Y34.88
X109.857Y33.61
X111.127Y45.04
X111.127Y43.77
X111.127Y42.5
X111.127Y41.23
X111.127Y39.96
X111.127Y38.69
X111.127Y37.42
X111.127Y36.15
X111.127Y34.88
X111.127Y33.61
X140.337Y45.04
X140.337Y43.77
X140.337Y42.5
X140.337Y41.23
X140.337Y39.96
X140.337Y38.69
X140.337Y37.42
X140.337Y36.15
X140.337Y34.88
X140.337Y33.61
X141.607Y45.04
X141.607Y43.77
X141.607Y42.5
X141.607Y41.23
X141.607Y39.96
X141.607Y38.69
X141.607Y37.42
X141.607Y36.15
X141.607Y34.88
X141.607Y33.61
T3
X36.0Y11.0
X38.54Y11.0
T4
X25.0Y13.25
X25.0Y8.75
X29.59Y94.46
X31.5Y13.25
X31.5Y8.75
X32.13Y94.46
X34.67Y94.46
X37.21Y94.46
X39.75Y94.46
X42.29Y94.46
X44.83Y94.46
X46.0Y11.0
X47.37Y94.46
X49.91Y94.46
X52.5Y11.0
X70.6Y20.0
X70.6Y17.46
X74.77Y62.3
X74.77Y59.76
X74.77Y57.22
X74.77Y54.68
X74.77Y52.14
X74.77Y49.6
X74.77Y47.06
X74.77Y44.52
X74.77Y41.98
X74.77Y39.44
X74.77Y36.9
X74.77Y34.36
X74.77Y31.82
X74.77Y29.28
X74.77Y26.74
X74.77Y24.2
X74.77Y21.66
X74.77Y19.12
X74.77Y16.58
X74.77Y14.04
X74.77Y11.5
X74.77Y8.96
X76.04Y80.76
X78.58Y80.76
X81.12Y80.76
X83.66Y80.76
X86.2Y80.76
X88.74Y80.76
X89.0Y73.5
X91.28Y80.76
X91.54Y73.5
X93.82Y80.76
X96.36Y80.76
X97.63Y62.3
X97.63Y59.76
X97.63Y57.22
X97.63Y54.68
X97.63Y52.14
X97.63Y49.6
X97.63Y47.06
X97.63Y44.52
X97.63Y41.98
X97.63Y39.44
X97.63Y36.9
X97.63Y34.36
X97.63Y31.82
X97.63Y29.28
X97.63Y26.74
X97.63Y24.2
X97.63Y21.66
X97.63Y19.12
X97.63Y16.58
X97.63Y14.04
X97.63Y11.5
X97.63Y8.96
X105.0Y9.0
X107.54Y9.0
X110.08Y9.0
X112.62Y9.0
X115.16Y9.0
X117.7Y9.0
X120.216Y74.46
X120.24Y9.0
X122.756Y74.46
X122.78Y9.0
X125.296Y74.46
X125.32Y9.0
X127.836Y74.46
X129.36Y26.2
X130.376Y74.46
X131.9Y26.2
X132.916Y74.46
X134.44Y26.2
X135.456Y74.46
X136.98Y26.2
X137.996Y74.46
X139.52Y26.2
X140.536Y74.46
X142.06Y26.2
X143.076Y74.46
X144.6Y26.2
X147.0Y33.0
X147.14Y74.46
X147.14Y26.2
X149.54Y33.0
X149.68Y74.46
X152.22Y74.46
X152.22Y26.2
X154.76Y74.46
X154.76Y26.2
X157.3Y74.46
X157.3Y26.2
X159.84Y74.46
X159.84Y26.2
X162.38Y74.46
X162.38Y26.2
X164.92Y74.46
X164.92Y26.2
T5
X7.75Y32.5
X7.75Y27.5
X20.25Y32.5
X20.25Y27.5
X23.75Y32.5
X23.75Y27.5
X36.25Y32.5
X36.25Y27.5
X39.75Y32.5
X39.75Y27.5
X52.25Y32.5
X52.25Y27.5
X55.75Y32.5
X55.75Y27.5
X68.25Y32.5
X68.25Y27.5
T6
X150.0Y8.0
X155.08Y8.0
T7
X9.3Y11.0
X14.0Y11.0
X18.7Y11.0
M30
