M48
; DRILL file KiCad 10.0.6 date 2026-10-08T16:01:45
; FORMAT={-:-/ absolute / metric / decimal}
; #@! TF.CreationDate,2026-10-08T16:01:45+02:00
; #@! TF.GenerationSoftware,Kicad,Pcbnew,10.0.6
; #@! TF.FileFunction,Plated,1,2,PTH
FMAT,2
METRIC
; #@! TA.AperFunction,Plated,PTH,ViaDrill
T1C0.400
; #@! TA.AperFunction,Plated,PTH,ComponentDrill
T2C0.650
; #@! TA.AperFunction,Plated,PTH,ComponentDrill
T3C0.900
; #@! TA.AperFunction,Plated,PTH,ComponentDrill
T4C1.000
; #@! TA.AperFunction,Plated,PTH,ComponentDrill
T5C1.200
; #@! TA.AperFunction,Plated,PTH,ComponentDrill
T6C1.300
; #@! TA.AperFunction,Plated,PTH,ComponentDrill
T7C1.850
%
G90
G05
T1
X15.894Y39.982
X29.586Y49.392
X32.0Y46.427
X33.378Y48.407
X40.234Y46.809
X41.035Y43.369
X41.25Y46.358
X42.933Y45.607
X47.598Y46.39
X51.236Y19.886
X51.968Y21.0
X54.752Y43.401
X56.139Y14.127
X60.086Y35.31
X61.168Y48.116
X62.04Y17.872
X63.111Y45.476
X66.418Y50.105
X66.781Y45.562
X67.468Y22.653
X71.622Y34.927
X77.168Y22.984
X79.603Y41.459
X80.203Y40.615
X84.868Y58.583
X88.121Y84.812
X88.179Y56.043
X88.813Y83.43
X89.587Y85.163
X91.379Y34.36
X92.063Y82.688
X93.838Y88.95
X93.997Y51.46
X99.873Y42.514
X100.748Y54.218
X101.632Y43.768
X104.792Y25.408
X108.702Y32.634
X110.522Y62.527
X110.611Y63.98
X111.28Y26.613
X112.007Y25.898
X112.126Y58.201
X112.486Y39.645
X114.854Y66.18
X115.699Y61.918
X116.97Y35.162
X117.801Y30.007
X122.78Y27.894
X123.995Y33.401
X134.949Y67.689
X137.542Y48.369
X137.895Y30.562
X138.587Y32.634
X141.916Y31.639
X147.671Y35.902
X149.558Y37.6
X150.021Y36.108
X152.384Y44.4
X153.972Y48.074
X156.615Y17.027
X159.412Y19.324
T2
X109.857Y45.04
X109.857Y43.77
X109.857Y42.5
X109.857Y41.23
X109.857Y39.96
X109.857Y38.69
X109.857Y37.42
X109.857Y36.15
X109.857Y34.88
X109.857Y33.61
X111.127Y45.04
X111.127Y43.77
X111.127Y42.5
X111.127Y41.23
X111.127Y39.96
X111.127Y38.69
X111.127Y37.42
X111.127Y36.15
X111.127Y34.88
X111.127Y33.61
X140.337Y45.04
X140.337Y43.77
X140.337Y42.5
X140.337Y41.23
X140.337Y39.96
X140.337Y38.69
X140.337Y37.42
X140.337Y36.15
X140.337Y34.88
X140.337Y33.61
X141.607Y45.04
X141.607Y43.77
X141.607Y42.5
X141.607Y41.23
X141.607Y39.96
X141.607Y38.69
X141.607Y37.42
X141.607Y36.15
X141.607Y34.88
X141.607Y33.61
T3
X36.0Y11.0
X38.54Y11.0
T4
X25.0Y13.25
X25.0Y8.75
X31.5Y13.25
X31.5Y8.75
X46.0Y11.0
X52.5Y11.0
X70.6Y20.0
X70.6Y17.46
X74.77Y62.3
X74.77Y59.76
X74.77Y57.22
X74.77Y54.68
X74.77Y52.14
X74.77Y49.6
X74.77Y47.06
X74.77Y44.52
X74.77Y41.98
X74.77Y39.44
X74.77Y36.9
X74.77Y34.36
X74.77Y31.82
X74.77Y29.28
X74.77Y26.74
X74.77Y24.2
X74.77Y21.66
X74.77Y19.12
X74.77Y16.58
X74.77Y14.04
X74.77Y11.5
X74.77Y8.96
X89.0Y73.5
X91.54Y73.5
X97.63Y62.3
X97.63Y59.76
X97.63Y57.22
X97.63Y54.68
X97.63Y52.14
X97.63Y49.6
X97.63Y47.06
X97.63Y44.52
X97.63Y41.98
X97.63Y39.44
X97.63Y36.9
X97.63Y34.36
X97.63Y31.82
X97.63Y29.28
X97.63Y26.74
X97.63Y24.2
X97.63Y21.66
X97.63Y19.12
X97.63Y16.58
X97.63Y14.04
X97.63Y11.5
X97.63Y8.96
X105.0Y9.0
X107.54Y9.0
X110.08Y9.0
X112.62Y9.0
X115.16Y9.0
X117.7Y9.0
X120.216Y74.46
X120.24Y9.0
X122.756Y74.46
X122.78Y9.0
X125.296Y74.46
X125.32Y9.0
X127.836Y74.46
X129.36Y26.2
X130.376Y74.46
X131.0Y12.0
X131.9Y26.2
X132.916Y74.46
X133.54Y12.0
X134.44Y26.2
X135.456Y74.46
X136.98Y26.2
X137.996Y74.46
X139.52Y26.2
X140.536Y74.46
X142.06Y26.2
X143.076Y74.46
X144.6Y26.2
X147.14Y74.46
X147.14Y26.2
X149.68Y74.46
X152.22Y74.46
X152.22Y26.2
X154.76Y74.46
X154.76Y26.2
X157.3Y74.46
X157.3Y26.2
X159.84Y74.46
X159.84Y26.2
X162.38Y74.46
X162.38Y26.2
X164.92Y74.46
X164.92Y26.2
T5
X7.75Y32.5
X7.75Y27.5
X20.25Y32.5
X20.25Y27.5
X23.75Y32.5
X23.75Y27.5
X36.25Y32.5
X36.25Y27.5
X39.75Y32.5
X39.75Y27.5
X52.25Y32.5
X52.25Y27.5
X55.75Y32.5
X55.75Y27.5
X68.25Y32.5
X68.25Y27.5
T6
X150.0Y8.0
X155.08Y8.0
T7
X9.3Y11.0
X14.0Y11.0
X18.7Y11.0
M30
