M48
; DRILL file KiCad 10.0.6 date 2026-10-08T11:34:48
; FORMAT={-:-/ absolute / metric / decimal}
; #@! TF.CreationDate,2026-10-08T11:34:48+02:00
; #@! TF.GenerationSoftware,Kicad,Pcbnew,10.0.6
; #@! TF.FileFunction,Plated,1,2,PTH
FMAT,2
METRIC
; #@! TA.AperFunction,Plated,PTH,ViaDrill
T1C0.400
; #@! TA.AperFunction,Plated,PTH,ComponentDrill
T2C0.650
; #@! TA.AperFunction,Plated,PTH,ComponentDrill
T3C0.900
; #@! TA.AperFunction,Plated,PTH,ComponentDrill
T4C1.000
; #@! TA.AperFunction,Plated,PTH,ComponentDrill
T5C1.200
; #@! TA.AperFunction,Plated,PTH,ComponentDrill
T6C1.300
; #@! TA.AperFunction,Plated,PTH,ComponentDrill
T7C1.850
%
G90
G05
T1
X15.894Y39.982
X17.604Y18.019
X21.35Y18.019
X27.99Y53.49
X29.586Y49.392
X32.0Y46.427
X35.108Y43.323
X36.487Y44.59
X40.742Y43.376
X41.383Y41.014
X41.75Y43.361
X43.439Y17.902
X44.263Y58.583
X48.0Y46.399
X51.236Y19.886
X53.332Y40.501
X56.484Y14.127
X58.834Y24.501
X60.107Y39.981
X60.295Y22.843
X60.977Y23.947
X62.04Y17.872
X70.273Y47.506
X76.766Y37.389
X77.929Y35.052
X81.754Y46.881
X82.456Y85.155
X85.001Y29.492
X86.518Y80.186
X86.914Y53.383
X88.177Y63.01
X88.639Y44.288
X89.587Y85.162
X92.024Y58.511
X93.838Y88.95
X105.802Y15.31
X106.474Y45.901
X110.443Y55.87
X111.547Y28.032
X111.884Y25.409
X112.923Y61.294
X113.827Y39.087
X116.984Y34.11
X117.087Y62.464
X117.979Y60.149
X117.979Y36.039
X123.278Y46.484
X123.39Y15.31
X123.91Y47.27
X124.492Y52.127
X129.014Y77.542
X140.041Y17.873
X143.79Y35.615
X146.662Y36.512
X149.558Y37.6
X152.385Y44.399
X156.615Y17.027
X159.412Y19.324
X161.227Y12.067
T2
X109.857Y45.04
X109.857Y43.77
X109.857Y42.5
X109.857Y41.23
X109.857Y39.96
X109.857Y38.69
X109.857Y37.42
X109.857Y36.15
X109.857Y34.88
X109.857Y33.61
X111.127Y45.04
X111.127Y43.77
X111.127Y42.5
X111.127Y41.23
X111.127Y39.96
X111.127Y38.69
X111.127Y37.42
X111.127Y36.15
X111.127Y34.88
X111.127Y33.61
X140.337Y45.04
X140.337Y43.77
X140.337Y42.5
X140.337Y41.23
X140.337Y39.96
X140.337Y38.69
X140.337Y37.42
X140.337Y36.15
X140.337Y34.88
X140.337Y33.61
X141.607Y45.04
X141.607Y43.77
X141.607Y42.5
X141.607Y41.23
X141.607Y39.96
X141.607Y38.69
X141.607Y37.42
X141.607Y36.15
X141.607Y34.88
X141.607Y33.61
T3
X36.0Y11.0
X38.54Y11.0
T4
X25.0Y13.25
X25.0Y8.75
X31.5Y13.25
X31.5Y8.75
X46.0Y11.0
X52.5Y11.0
X70.6Y20.0
X70.6Y17.46
X74.77Y62.3
X74.77Y59.76
X74.77Y57.22
X74.77Y54.68
X74.77Y52.14
X74.77Y49.6
X74.77Y47.06
X74.77Y44.52
X74.77Y41.98
X74.77Y39.44
X74.77Y36.9
X74.77Y34.36
X74.77Y31.82
X74.77Y29.28
X74.77Y26.74
X74.77Y24.2
X74.77Y21.66
X74.77Y19.12
X74.77Y16.58
X74.77Y14.04
X74.77Y11.5
X74.77Y8.96
X89.0Y73.5
X91.54Y73.5
X97.63Y62.3
X97.63Y59.76
X97.63Y57.22
X97.63Y54.68
X97.63Y52.14
X97.63Y49.6
X97.63Y47.06
X97.63Y44.52
X97.63Y41.98
X97.63Y39.44
X97.63Y36.9
X97.63Y34.36
X97.63Y31.82
X97.63Y29.28
X97.63Y26.74
X97.63Y24.2
X97.63Y21.66
X97.63Y19.12
X97.63Y16.58
X97.63Y14.04
X97.63Y11.5
X97.63Y8.96
X105.0Y9.0
X107.54Y9.0
X110.08Y9.0
X112.62Y9.0
X115.16Y9.0
X117.7Y9.0
X120.216Y74.46
X120.24Y9.0
X122.756Y74.46
X122.78Y9.0
X125.296Y74.46
X125.32Y9.0
X127.836Y74.46
X129.36Y26.2
X130.376Y74.46
X131.0Y12.0
X131.9Y26.2
X132.916Y74.46
X133.54Y12.0
X134.44Y26.2
X135.456Y74.46
X136.98Y26.2
X137.996Y74.46
X139.52Y26.2
X140.536Y74.46
X142.06Y26.2
X143.076Y74.46
X144.6Y26.2
X147.14Y74.46
X147.14Y26.2
X149.68Y74.46
X152.22Y74.46
X152.22Y26.2
X154.76Y74.46
X154.76Y26.2
X157.3Y74.46
X157.3Y26.2
X159.84Y74.46
X159.84Y26.2
X162.38Y74.46
X162.38Y26.2
X164.92Y74.46
X164.92Y26.2
T5
X7.75Y32.5
X7.75Y27.5
X20.25Y32.5
X20.25Y27.5
X23.75Y32.5
X23.75Y27.5
X36.25Y32.5
X36.25Y27.5
X39.75Y32.5
X39.75Y27.5
X52.25Y32.5
X52.25Y27.5
X55.75Y32.5
X55.75Y27.5
X68.25Y32.5
X68.25Y27.5
T6
X150.0Y8.0
X155.08Y8.0
T7
X9.3Y11.0
X14.0Y11.0
X18.7Y11.0
M30
