%TF.GenerationSoftware,KiCad,Pcbnew,10.0.6*%
%TF.CreationDate,2026-10-06T22:04:52+02:00*%
%TF.ProjectId,radio-usb-controller,72616469-6f2d-4757-9362-2d636f6e7472,R01.3*%
%TF.SameCoordinates,Original*%
%TF.FileFunction,Copper,L2,Inr*%
%TF.FilePolarity,Positive*%
%FSLAX46Y46*%
G04 Gerber Fmt 4.6, Leading zero omitted, Abs format (unit mm)*
G04 Created by KiCad (PCBNEW 10.0.6) date 2026-10-06 22:04:52*
%MOMM*%
%LPD*%
G01*
G04 APERTURE LIST*
G04 Aperture macros list*
%AMRoundRect*
0 Rectangle with rounded corners*
0 $1 Rounding radius*
0 $2 $3 $4 $5 $6 $7 $8 $9 X,Y pos of 4 corners*
0 Add a 4 corners polygon primitive as box body*
4,1,4,$2,$3,$4,$5,$6,$7,$8,$9,$2,$3,0*
0 Add four circle primitives for the rounded corners*
1,1,$1+$1,$2,$3*
1,1,$1+$1,$4,$5*
1,1,$1+$1,$6,$7*
1,1,$1+$1,$8,$9*
0 Add four rect primitives between the rounded corners*
20,1,$1+$1,$2,$3,$4,$5,0*
20,1,$1+$1,$4,$5,$6,$7,0*
20,1,$1+$1,$6,$7,$8,$9,0*
20,1,$1+$1,$8,$9,$2,$3,0*%
G04 Aperture macros list end*
%TA.AperFunction,ComponentPad*%
%ADD10RoundRect,0.250000X-0.600000X-0.600000X0.600000X-0.600000X0.600000X0.600000X-0.600000X0.600000X0*%
%TD*%
%TA.AperFunction,ComponentPad*%
%ADD11C,1.700000*%
%TD*%
%TA.AperFunction,ComponentPad*%
%ADD12R,1.500000X1.500000*%
%TD*%
%TA.AperFunction,ComponentPad*%
%ADD13C,1.500000*%
%TD*%
%TA.AperFunction,ComponentPad*%
%ADD14C,3.600000*%
%TD*%
%TA.AperFunction,ComponentPad*%
%ADD15R,1.700000X1.700000*%
%TD*%
%TA.AperFunction,ComponentPad*%
%ADD16C,2.000000*%
%TD*%
%TA.AperFunction,ViaPad*%
%ADD17C,0.600000*%
%TD*%
G04 APERTURE END LIST*
D10*
%TO.N,/GND*%
%TO.C,J2*%
X12000000Y18000000D03*
D11*
%TO.N,/V3*%
X14540000Y18000000D03*
%TO.N,/SCK*%
X12000000Y15460000D03*
%TO.N,/GND*%
X14540000Y15460000D03*
%TO.N,/MOSI*%
X12000000Y12920000D03*
%TO.N,/MISO*%
X14540000Y12920000D03*
%TO.N,/CS_N*%
X12000000Y10380000D03*
%TO.N,/RF_RESET_N*%
X14540000Y10380000D03*
%TO.N,/IRQ0*%
X12000000Y7840000D03*
%TO.N,/IRQ2*%
X14540000Y7840000D03*
%TD*%
D12*
%TO.N,/VBUS_USB*%
%TO.C,J1*%
X53000000Y30000000D03*
D13*
%TO.N,/USB_DM*%
X53000000Y27500000D03*
%TO.N,/USB_DP*%
X55000000Y27500000D03*
%TO.N,/GND*%
X55000000Y30000000D03*
D14*
X57710000Y34770000D03*
X57710000Y22730000D03*
%TD*%
D15*
%TO.N,/GND*%
%TO.C,J4*%
X39000000Y15000000D03*
D11*
%TO.N,/UART_TX*%
X39000000Y12460000D03*
%TO.N,/UART_RX*%
X39000000Y9920000D03*
%TD*%
D16*
%TO.N,/NRST*%
%TO.C,SW1*%
X28000000Y10000000D03*
X34500000Y10000000D03*
%TO.N,/GND*%
X28000000Y5500000D03*
X34500000Y5500000D03*
%TD*%
D15*
%TO.N,/V3*%
%TO.C,J3*%
X46000000Y49000000D03*
D11*
%TO.N,/SWDIO*%
X48540000Y49000000D03*
%TO.N,/GND*%
X51080000Y49000000D03*
%TO.N,/SWCLK*%
X53620000Y49000000D03*
%TO.N,/NRST*%
X56160000Y49000000D03*
%TD*%
D17*
%TO.N,/V3*%
X38050000Y23000000D03*
X35800000Y21750000D03*
X25450000Y27300000D03*
X42000000Y45000000D03*
X18400000Y27925000D03*
X18050000Y33000000D03*
X21500000Y19050000D03*
X43350000Y41000000D03*
X18400000Y29575000D03*
X38000000Y43087500D03*
X43800000Y39400000D03*
X22100000Y20000000D03*
X30050000Y45000000D03*
X37550000Y34000000D03*
X35500000Y42905000D03*
X25450000Y32250000D03*
X28250000Y34550000D03*
X41100000Y33050000D03*
X38000000Y39087500D03*
X25450000Y22500000D03*
X21050000Y14500000D03*
X41100000Y37000000D03*
%TO.N,/GND*%
X19200000Y20950000D03*
X22550000Y26250000D03*
X35500000Y41635000D03*
X45900000Y29000000D03*
X40950000Y24000000D03*
X54000000Y40000000D03*
X34750000Y18850000D03*
X32800000Y22200000D03*
X39550000Y41000000D03*
X52449999Y41000000D03*
X28550000Y42905000D03*
X28550000Y39095000D03*
X22950000Y12000000D03*
X24950000Y15900000D03*
X22550000Y23500000D03*
X21950000Y33000000D03*
X46250000Y41000000D03*
X28550000Y40365000D03*
X29250000Y37450000D03*
X30700000Y33850000D03*
X50949999Y37000000D03*
X33950000Y45000000D03*
X37850000Y30950000D03*
X39450000Y31900000D03*
X28550000Y41635000D03*
X26400000Y28250000D03*
X22500000Y27925000D03*
X56062500Y13000000D03*
X22550000Y31250000D03*
%TO.N,/STATUS_LED*%
X37672700Y18784500D03*
X34900600Y25678800D03*
%TO.N,/SCK*%
X31526500Y26400000D03*
%TO.N,/MOSI*%
X27999000Y20807500D03*
%TO.N,/MISO*%
X28969300Y21281100D03*
%TO.N,/RF_RESET_N*%
X28389700Y19165400D03*
X30612300Y26952300D03*
%TO.N,/IRQ0*%
X31750000Y25091900D03*
%TO.N,/SDA*%
X35756400Y39730600D03*
X39037500Y44936200D03*
%TO.N,/VBUS_USB*%
X61400000Y43000000D03*
X47050000Y37000000D03*
X50199999Y29000000D03*
%TO.N,/BOOT1*%
X32954600Y25716900D03*
X36075000Y22582000D03*
%TO.N,/NRST*%
X30207000Y25690400D03*
%TO.N,/UART_TX*%
X34892300Y27750000D03*
%TO.N,/SWDIO*%
X34292200Y29660800D03*
%TD*%
%TA.AperFunction,Conductor*%
%TO.N,/GND*%
G36*
X69458691Y54480593D02*
G01*
X69494655Y54431093D01*
X69499500Y54400500D01*
X69499500Y599500D01*
X69480593Y541309D01*
X69431093Y505345D01*
X69400500Y500500D01*
X599500Y500500D01*
X541309Y519407D01*
X505345Y568907D01*
X500500Y599500D01*
X500500Y4000001D01*
X800000Y4000001D01*
X815407Y3686347D01*
X815407Y3686344D01*
X861483Y3375729D01*
X861489Y3375699D01*
X937789Y3071091D01*
X1043583Y2775418D01*
X1043588Y2775407D01*
X1177853Y2491525D01*
X1339290Y2222186D01*
X1339295Y2222179D01*
X1339297Y2222176D01*
X1526366Y1969942D01*
X1737258Y1737259D01*
X1969941Y1526367D01*
X2222175Y1339298D01*
X2222179Y1339296D01*
X2222184Y1339292D01*
X2491523Y1177855D01*
X2658897Y1098694D01*
X2775413Y1043586D01*
X3071089Y937791D01*
X3071088Y937791D01*
X3375697Y861491D01*
X3375702Y861490D01*
X3375710Y861488D01*
X3375717Y861487D01*
X3375727Y861485D01*
X3588487Y829926D01*
X3686345Y815409D01*
X4000000Y800000D01*
X4313654Y815409D01*
X4313667Y815411D01*
X4624271Y861485D01*
X4624277Y861487D01*
X4624289Y861488D01*
X4928910Y937791D01*
X5224586Y1043586D01*
X5508469Y1177852D01*
X5508470Y1177853D01*
X5508475Y1177855D01*
X5777814Y1339292D01*
X5777814Y1339293D01*
X5777824Y1339298D01*
X6030058Y1526367D01*
X6262741Y1737259D01*
X6473633Y1969942D01*
X6660702Y2222176D01*
X6660708Y2222186D01*
X6822145Y2491525D01*
X6822148Y2491531D01*
X6956414Y2775414D01*
X7062209Y3071090D01*
X7138512Y3375711D01*
X7184591Y3686346D01*
X7200000Y4000000D01*
X7200000Y4000001D01*
X62800000Y4000001D01*
X62815407Y3686347D01*
X62815407Y3686344D01*
X62861483Y3375729D01*
X62861489Y3375699D01*
X62937789Y3071091D01*
X63043583Y2775418D01*
X63043588Y2775407D01*
X63177853Y2491525D01*
X63339290Y2222186D01*
X63339295Y2222179D01*
X63339297Y2222176D01*
X63526366Y1969942D01*
X63737258Y1737259D01*
X63969941Y1526367D01*
X64222175Y1339298D01*
X64222179Y1339296D01*
X64222184Y1339292D01*
X64491523Y1177855D01*
X64658897Y1098694D01*
X64775413Y1043586D01*
X65071089Y937791D01*
X65071088Y937791D01*
X65375697Y861491D01*
X65375702Y861490D01*
X65375710Y861488D01*
X65375717Y861487D01*
X65375727Y861485D01*
X65588487Y829926D01*
X65686345Y815409D01*
X66000000Y800000D01*
X66313654Y815409D01*
X66313667Y815411D01*
X66624271Y861485D01*
X66624277Y861487D01*
X66624289Y861488D01*
X66928910Y937791D01*
X67224586Y1043586D01*
X67508469Y1177852D01*
X67508470Y1177853D01*
X67508475Y1177855D01*
X67777814Y1339292D01*
X67777814Y1339293D01*
X67777824Y1339298D01*
X68030058Y1526367D01*
X68262741Y1737259D01*
X68473633Y1969942D01*
X68660702Y2222176D01*
X68660708Y2222186D01*
X68822145Y2491525D01*
X68822148Y2491531D01*
X68956414Y2775414D01*
X69062209Y3071090D01*
X69138512Y3375711D01*
X69184591Y3686346D01*
X69200000Y4000000D01*
X69184591Y4313655D01*
X69138512Y4624290D01*
X69062209Y4928911D01*
X68956414Y5224587D01*
X68822148Y5508470D01*
X68822145Y5508477D01*
X68660708Y5777816D01*
X68660704Y5777821D01*
X68660702Y5777825D01*
X68473633Y6030059D01*
X68262741Y6262742D01*
X68030058Y6473634D01*
X67777824Y6660703D01*
X67777821Y6660705D01*
X67777814Y6660710D01*
X67508475Y6822147D01*
X67224593Y6956412D01*
X67224582Y6956417D01*
X66928908Y7062211D01*
X66928910Y7062211D01*
X66624301Y7138511D01*
X66624271Y7138517D01*
X66313655Y7184593D01*
X66014028Y7199311D01*
X66000000Y7200000D01*
X65999999Y7200000D01*
X65686345Y7184593D01*
X65686342Y7184593D01*
X65375727Y7138517D01*
X65375697Y7138511D01*
X65071089Y7062211D01*
X64775416Y6956417D01*
X64775405Y6956412D01*
X64491523Y6822147D01*
X64222184Y6660710D01*
X63969939Y6473633D01*
X63969932Y6473627D01*
X63737272Y6262756D01*
X63737244Y6262728D01*
X63526373Y6030068D01*
X63526367Y6030061D01*
X63339290Y5777816D01*
X63177853Y5508477D01*
X63043588Y5224595D01*
X63043583Y5224584D01*
X62937789Y4928911D01*
X62861489Y4624303D01*
X62861483Y4624273D01*
X62815407Y4313658D01*
X62815407Y4313655D01*
X62800000Y4000001D01*
X7200000Y4000001D01*
X7184591Y4313655D01*
X7138512Y4624290D01*
X7062209Y4928911D01*
X6956414Y5224587D01*
X6822148Y5508470D01*
X6822145Y5508477D01*
X6660708Y5777816D01*
X6660704Y5777821D01*
X6660702Y5777825D01*
X6473633Y6030059D01*
X6262741Y6262742D01*
X6030058Y6473634D01*
X5777824Y6660703D01*
X5777821Y6660705D01*
X5777814Y6660710D01*
X5508475Y6822147D01*
X5224593Y6956412D01*
X5224582Y6956417D01*
X4928908Y7062211D01*
X4928910Y7062211D01*
X4624301Y7138511D01*
X4624271Y7138517D01*
X4313655Y7184593D01*
X4014028Y7199311D01*
X4000000Y7200000D01*
X3999999Y7200000D01*
X3686345Y7184593D01*
X3686342Y7184593D01*
X3375727Y7138517D01*
X3375697Y7138511D01*
X3071089Y7062211D01*
X2775416Y6956417D01*
X2775405Y6956412D01*
X2491523Y6822147D01*
X2222184Y6660710D01*
X1969939Y6473633D01*
X1969932Y6473627D01*
X1737272Y6262756D01*
X1737244Y6262728D01*
X1526373Y6030068D01*
X1526367Y6030061D01*
X1339290Y5777816D01*
X1177853Y5508477D01*
X1043588Y5224595D01*
X1043583Y5224584D01*
X937789Y4928911D01*
X861489Y4624303D01*
X861483Y4624273D01*
X815407Y4313658D01*
X815407Y4313655D01*
X800000Y4000001D01*
X500500Y4000001D01*
X500500Y7943468D01*
X10949500Y7943468D01*
X10949500Y7736533D01*
X10989869Y7533582D01*
X11069058Y7342403D01*
X11184020Y7170349D01*
X11184023Y7170345D01*
X11330345Y7024023D01*
X11502402Y6909059D01*
X11693580Y6829870D01*
X11896535Y6789500D01*
X11896536Y6789500D01*
X12103464Y6789500D01*
X12103465Y6789500D01*
X12306420Y6829870D01*
X12497598Y6909059D01*
X12669655Y7024023D01*
X12815977Y7170345D01*
X12930941Y7342402D01*
X13010130Y7533580D01*
X13050500Y7736535D01*
X13050500Y7943465D01*
X13050499Y7943468D01*
X13489500Y7943468D01*
X13489500Y7736533D01*
X13529869Y7533582D01*
X13609058Y7342403D01*
X13724020Y7170349D01*
X13724023Y7170345D01*
X13870345Y7024023D01*
X14042402Y6909059D01*
X14233580Y6829870D01*
X14436535Y6789500D01*
X14436536Y6789500D01*
X14643464Y6789500D01*
X14643465Y6789500D01*
X14846420Y6829870D01*
X15037598Y6909059D01*
X15209655Y7024023D01*
X15355977Y7170345D01*
X15470941Y7342402D01*
X15550130Y7533580D01*
X15590500Y7736535D01*
X15590500Y7943465D01*
X15550130Y8146420D01*
X15470941Y8337598D01*
X15355977Y8509655D01*
X15209655Y8655977D01*
X15037598Y8770941D01*
X15037599Y8770941D01*
X15037597Y8770942D01*
X14846418Y8850131D01*
X14643467Y8890500D01*
X14643465Y8890500D01*
X14436535Y8890500D01*
X14436532Y8890500D01*
X14233581Y8850131D01*
X14042402Y8770942D01*
X13870348Y8655980D01*
X13724020Y8509652D01*
X13609058Y8337598D01*
X13529869Y8146419D01*
X13489500Y7943468D01*
X13050499Y7943468D01*
X13010130Y8146420D01*
X12930941Y8337598D01*
X12815977Y8509655D01*
X12669655Y8655977D01*
X12497598Y8770941D01*
X12497599Y8770941D01*
X12497597Y8770942D01*
X12306418Y8850131D01*
X12103467Y8890500D01*
X12103465Y8890500D01*
X11896535Y8890500D01*
X11896532Y8890500D01*
X11693581Y8850131D01*
X11502402Y8770942D01*
X11330348Y8655980D01*
X11184020Y8509652D01*
X11069058Y8337598D01*
X10989869Y8146419D01*
X10949500Y7943468D01*
X500500Y7943468D01*
X500500Y10483468D01*
X10949500Y10483468D01*
X10949500Y10276533D01*
X10989869Y10073582D01*
X11069058Y9882403D01*
X11184020Y9710349D01*
X11184023Y9710345D01*
X11330345Y9564023D01*
X11502402Y9449059D01*
X11693580Y9369870D01*
X11896535Y9329500D01*
X11896536Y9329500D01*
X12103464Y9329500D01*
X12103465Y9329500D01*
X12306420Y9369870D01*
X12497598Y9449059D01*
X12669655Y9564023D01*
X12815977Y9710345D01*
X12930941Y9882402D01*
X13010130Y10073580D01*
X13050500Y10276535D01*
X13050500Y10483465D01*
X13050499Y10483468D01*
X13489500Y10483468D01*
X13489500Y10276533D01*
X13529869Y10073582D01*
X13609058Y9882403D01*
X13724020Y9710349D01*
X13724023Y9710345D01*
X13870345Y9564023D01*
X14042402Y9449059D01*
X14233580Y9369870D01*
X14436535Y9329500D01*
X14436536Y9329500D01*
X14643464Y9329500D01*
X14643465Y9329500D01*
X14846420Y9369870D01*
X15037598Y9449059D01*
X15209655Y9564023D01*
X15355977Y9710345D01*
X15470941Y9882402D01*
X15550130Y10073580D01*
X15554288Y10094485D01*
X26799500Y10094485D01*
X26799500Y9905516D01*
X26829058Y9718887D01*
X26887453Y9539168D01*
X26946947Y9422403D01*
X26973240Y9370801D01*
X27084310Y9217927D01*
X27217927Y9084310D01*
X27370801Y8973240D01*
X27539168Y8887453D01*
X27718882Y8829060D01*
X27718883Y8829060D01*
X27718886Y8829059D01*
X27905516Y8799500D01*
X27905519Y8799500D01*
X28094484Y8799500D01*
X28281113Y8829059D01*
X28281114Y8829060D01*
X28281118Y8829060D01*
X28460832Y8887453D01*
X28629199Y8973240D01*
X28782073Y9084310D01*
X28915690Y9217927D01*
X29026760Y9370801D01*
X29112547Y9539168D01*
X29170940Y9718882D01*
X29170941Y9718887D01*
X29200500Y9905516D01*
X29200500Y10094485D01*
X33299500Y10094485D01*
X33299500Y9905516D01*
X33329058Y9718887D01*
X33387453Y9539168D01*
X33446947Y9422403D01*
X33473240Y9370801D01*
X33584310Y9217927D01*
X33717927Y9084310D01*
X33870801Y8973240D01*
X34039168Y8887453D01*
X34218882Y8829060D01*
X34218883Y8829060D01*
X34218886Y8829059D01*
X34405516Y8799500D01*
X34405519Y8799500D01*
X34594484Y8799500D01*
X34781113Y8829059D01*
X34781114Y8829060D01*
X34781118Y8829060D01*
X34960832Y8887453D01*
X35129199Y8973240D01*
X35282073Y9084310D01*
X35415690Y9217927D01*
X35526760Y9370801D01*
X35612547Y9539168D01*
X35670940Y9718882D01*
X35670941Y9718887D01*
X35700500Y9905516D01*
X35700500Y10023468D01*
X37949500Y10023468D01*
X37949500Y9816533D01*
X37989869Y9613582D01*
X38069058Y9422403D01*
X38184020Y9250349D01*
X38184023Y9250345D01*
X38330345Y9104023D01*
X38502402Y8989059D01*
X38693580Y8909870D01*
X38896535Y8869500D01*
X38896536Y8869500D01*
X39103464Y8869500D01*
X39103465Y8869500D01*
X39306420Y8909870D01*
X39497598Y8989059D01*
X39669655Y9104023D01*
X39815977Y9250345D01*
X39930941Y9422402D01*
X40010130Y9613580D01*
X40050500Y9816535D01*
X40050500Y10023465D01*
X40010130Y10226420D01*
X39930941Y10417598D01*
X39815977Y10589655D01*
X39669655Y10735977D01*
X39669651Y10735980D01*
X39497597Y10850942D01*
X39306418Y10930131D01*
X39103467Y10970500D01*
X39103465Y10970500D01*
X38896535Y10970500D01*
X38896532Y10970500D01*
X38693581Y10930131D01*
X38502402Y10850942D01*
X38330348Y10735980D01*
X38184020Y10589652D01*
X38069058Y10417598D01*
X37989869Y10226419D01*
X37949500Y10023468D01*
X35700500Y10023468D01*
X35700500Y10094485D01*
X35670941Y10281114D01*
X35670940Y10281118D01*
X35612547Y10460832D01*
X35526760Y10629199D01*
X35415690Y10782073D01*
X35282073Y10915690D01*
X35129199Y11026760D01*
X35129198Y11026761D01*
X35129196Y11026762D01*
X34960832Y11112547D01*
X34781113Y11170942D01*
X34594484Y11200500D01*
X34594481Y11200500D01*
X34405519Y11200500D01*
X34405516Y11200500D01*
X34218886Y11170942D01*
X34039167Y11112547D01*
X33870803Y11026762D01*
X33717928Y10915691D01*
X33584309Y10782072D01*
X33473238Y10629197D01*
X33387453Y10460833D01*
X33329058Y10281114D01*
X33299500Y10094485D01*
X29200500Y10094485D01*
X29170941Y10281114D01*
X29170940Y10281118D01*
X29112547Y10460832D01*
X29026760Y10629199D01*
X28915690Y10782073D01*
X28782073Y10915690D01*
X28629199Y11026760D01*
X28629198Y11026761D01*
X28629196Y11026762D01*
X28460832Y11112547D01*
X28281113Y11170942D01*
X28094484Y11200500D01*
X28094481Y11200500D01*
X27905519Y11200500D01*
X27905516Y11200500D01*
X27718886Y11170942D01*
X27539167Y11112547D01*
X27370803Y11026762D01*
X27217928Y10915691D01*
X27084309Y10782072D01*
X26973238Y10629197D01*
X26887453Y10460833D01*
X26829058Y10281114D01*
X26799500Y10094485D01*
X15554288Y10094485D01*
X15590500Y10276535D01*
X15590500Y10483465D01*
X15550130Y10686420D01*
X15470941Y10877598D01*
X15355977Y11049655D01*
X15209655Y11195977D01*
X15037598Y11310941D01*
X15037599Y11310941D01*
X15037597Y11310942D01*
X14846418Y11390131D01*
X14643467Y11430500D01*
X14643465Y11430500D01*
X14436535Y11430500D01*
X14436532Y11430500D01*
X14233581Y11390131D01*
X14042402Y11310942D01*
X13870348Y11195980D01*
X13724020Y11049652D01*
X13609058Y10877598D01*
X13529869Y10686419D01*
X13489500Y10483468D01*
X13050499Y10483468D01*
X13010130Y10686420D01*
X12930941Y10877598D01*
X12815977Y11049655D01*
X12669655Y11195977D01*
X12497598Y11310941D01*
X12497599Y11310941D01*
X12497597Y11310942D01*
X12306418Y11390131D01*
X12103467Y11430500D01*
X12103465Y11430500D01*
X11896535Y11430500D01*
X11896532Y11430500D01*
X11693581Y11390131D01*
X11502402Y11310942D01*
X11330348Y11195980D01*
X11184020Y11049652D01*
X11069058Y10877598D01*
X10989869Y10686419D01*
X10949500Y10483468D01*
X500500Y10483468D01*
X500500Y13023468D01*
X10949500Y13023468D01*
X10949500Y12816533D01*
X10989869Y12613582D01*
X11069058Y12422403D01*
X11113071Y12356533D01*
X11184023Y12250345D01*
X11330345Y12104023D01*
X11502402Y11989059D01*
X11693580Y11909870D01*
X11896535Y11869500D01*
X11896536Y11869500D01*
X12103464Y11869500D01*
X12103465Y11869500D01*
X12306420Y11909870D01*
X12497598Y11989059D01*
X12669655Y12104023D01*
X12815977Y12250345D01*
X12930941Y12422402D01*
X13010130Y12613580D01*
X13050500Y12816535D01*
X13050500Y13023465D01*
X13050499Y13023468D01*
X13489500Y13023468D01*
X13489500Y12816533D01*
X13529869Y12613582D01*
X13609058Y12422403D01*
X13653071Y12356533D01*
X13724023Y12250345D01*
X13870345Y12104023D01*
X14042402Y11989059D01*
X14233580Y11909870D01*
X14436535Y11869500D01*
X14436536Y11869500D01*
X14643464Y11869500D01*
X14643465Y11869500D01*
X14846420Y11909870D01*
X15037598Y11989059D01*
X15209655Y12104023D01*
X15355977Y12250345D01*
X15470941Y12422402D01*
X15529373Y12563468D01*
X37949500Y12563468D01*
X37949500Y12356533D01*
X37989869Y12153582D01*
X38069058Y11962403D01*
X38184020Y11790349D01*
X38184023Y11790345D01*
X38330345Y11644023D01*
X38502402Y11529059D01*
X38693580Y11449870D01*
X38896535Y11409500D01*
X38896536Y11409500D01*
X39103464Y11409500D01*
X39103465Y11409500D01*
X39306420Y11449870D01*
X39497598Y11529059D01*
X39669655Y11644023D01*
X39815977Y11790345D01*
X39930941Y11962402D01*
X40010130Y12153580D01*
X40050500Y12356535D01*
X40050500Y12563465D01*
X40010130Y12766420D01*
X39930941Y12957598D01*
X39815977Y13129655D01*
X39669655Y13275977D01*
X39497598Y13390941D01*
X39497599Y13390941D01*
X39497597Y13390942D01*
X39306418Y13470131D01*
X39103467Y13510500D01*
X39103465Y13510500D01*
X38896535Y13510500D01*
X38896532Y13510500D01*
X38693581Y13470131D01*
X38502402Y13390942D01*
X38330348Y13275980D01*
X38184020Y13129652D01*
X38069058Y12957598D01*
X37989869Y12766419D01*
X37949500Y12563468D01*
X15529373Y12563468D01*
X15550130Y12613580D01*
X15590500Y12816535D01*
X15590500Y13023465D01*
X15550130Y13226420D01*
X15470941Y13417598D01*
X15355977Y13589655D01*
X15209655Y13735977D01*
X15037598Y13850941D01*
X15037599Y13850941D01*
X15037597Y13850942D01*
X14846418Y13930131D01*
X14643467Y13970500D01*
X14643465Y13970500D01*
X14436535Y13970500D01*
X14436532Y13970500D01*
X14233581Y13930131D01*
X14042402Y13850942D01*
X13870348Y13735980D01*
X13724020Y13589652D01*
X13609058Y13417598D01*
X13529869Y13226419D01*
X13489500Y13023468D01*
X13050499Y13023468D01*
X13010130Y13226420D01*
X12930941Y13417598D01*
X12815977Y13589655D01*
X12669655Y13735977D01*
X12497598Y13850941D01*
X12497599Y13850941D01*
X12497597Y13850942D01*
X12306418Y13930131D01*
X12103467Y13970500D01*
X12103465Y13970500D01*
X11896535Y13970500D01*
X11896532Y13970500D01*
X11693581Y13930131D01*
X11502402Y13850942D01*
X11330348Y13735980D01*
X11184020Y13589652D01*
X11069058Y13417598D01*
X10989869Y13226419D01*
X10949500Y13023468D01*
X500500Y13023468D01*
X500500Y15563468D01*
X10949500Y15563468D01*
X10949500Y15356533D01*
X10989869Y15153582D01*
X11069058Y14962403D01*
X11172687Y14807310D01*
X11184023Y14790345D01*
X11330345Y14644023D01*
X11502402Y14529059D01*
X11693580Y14449870D01*
X11896535Y14409500D01*
X11896536Y14409500D01*
X12103464Y14409500D01*
X12103465Y14409500D01*
X12306420Y14449870D01*
X12497598Y14529059D01*
X12552723Y14565892D01*
X20549500Y14565892D01*
X20549500Y14434108D01*
X20556094Y14409500D01*
X20583609Y14306810D01*
X20649496Y14192691D01*
X20649498Y14192689D01*
X20649500Y14192686D01*
X20742686Y14099500D01*
X20742688Y14099499D01*
X20742690Y14099497D01*
X20856810Y14033610D01*
X20856808Y14033610D01*
X20856812Y14033609D01*
X20856814Y14033608D01*
X20984108Y13999500D01*
X20984110Y13999500D01*
X21115890Y13999500D01*
X21115892Y13999500D01*
X21243186Y14033608D01*
X21243188Y14033610D01*
X21243190Y14033610D01*
X21357309Y14099497D01*
X21357309Y14099498D01*
X21357314Y14099500D01*
X21450500Y14192686D01*
X21516392Y14306814D01*
X21550500Y14434108D01*
X21550500Y14565892D01*
X21516392Y14693186D01*
X21516390Y14693189D01*
X21516390Y14693191D01*
X21450503Y14807310D01*
X21450501Y14807312D01*
X21450500Y14807314D01*
X21357314Y14900500D01*
X21357311Y14900502D01*
X21357309Y14900504D01*
X21243189Y14966391D01*
X21243191Y14966391D01*
X21193799Y14979625D01*
X21115892Y15000500D01*
X20984108Y15000500D01*
X20906200Y14979625D01*
X20856809Y14966391D01*
X20742690Y14900504D01*
X20649496Y14807310D01*
X20583609Y14693191D01*
X20583608Y14693186D01*
X20549500Y14565892D01*
X12552723Y14565892D01*
X12669655Y14644023D01*
X12815977Y14790345D01*
X12930941Y14962402D01*
X13010130Y15153580D01*
X13050500Y15356535D01*
X13050500Y15563465D01*
X13010130Y15766420D01*
X12930941Y15957598D01*
X12815977Y16129655D01*
X12669655Y16275977D01*
X12497598Y16390941D01*
X12497599Y16390941D01*
X12497597Y16390942D01*
X12306418Y16470131D01*
X12103467Y16510500D01*
X12103465Y16510500D01*
X11896535Y16510500D01*
X11896532Y16510500D01*
X11693581Y16470131D01*
X11502402Y16390942D01*
X11330348Y16275980D01*
X11184020Y16129652D01*
X11069058Y15957598D01*
X10989869Y15766419D01*
X10949500Y15563468D01*
X500500Y15563468D01*
X500500Y18103468D01*
X13489500Y18103468D01*
X13489500Y17896533D01*
X13529869Y17693582D01*
X13609058Y17502403D01*
X13609059Y17502402D01*
X13724023Y17330345D01*
X13870345Y17184023D01*
X14042402Y17069059D01*
X14233580Y16989870D01*
X14436535Y16949500D01*
X14436536Y16949500D01*
X14643464Y16949500D01*
X14643465Y16949500D01*
X14846420Y16989870D01*
X15037598Y17069059D01*
X15209655Y17184023D01*
X15355977Y17330345D01*
X15470941Y17502402D01*
X15550130Y17693580D01*
X15590500Y17896535D01*
X15590500Y18103465D01*
X15550130Y18306420D01*
X15470941Y18497598D01*
X15355977Y18669655D01*
X15209655Y18815977D01*
X15209651Y18815980D01*
X15037597Y18930942D01*
X14846418Y19010131D01*
X14770240Y19025283D01*
X14643467Y19050500D01*
X14643465Y19050500D01*
X14436535Y19050500D01*
X14436532Y19050500D01*
X14233581Y19010131D01*
X14042402Y18930942D01*
X13870348Y18815980D01*
X13724020Y18669652D01*
X13609058Y18497598D01*
X13529869Y18306419D01*
X13489500Y18103468D01*
X500500Y18103468D01*
X500500Y19115892D01*
X20999500Y19115892D01*
X20999500Y18984108D01*
X21013746Y18930942D01*
X21033609Y18856810D01*
X21099496Y18742691D01*
X21099498Y18742689D01*
X21099500Y18742686D01*
X21192686Y18649500D01*
X21192688Y18649499D01*
X21192690Y18649497D01*
X21306810Y18583610D01*
X21306808Y18583610D01*
X21306812Y18583609D01*
X21306814Y18583608D01*
X21434108Y18549500D01*
X21434110Y18549500D01*
X21565890Y18549500D01*
X21565892Y18549500D01*
X21693186Y18583608D01*
X21693188Y18583610D01*
X21693190Y18583610D01*
X21807309Y18649497D01*
X21807309Y18649498D01*
X21807314Y18649500D01*
X21900500Y18742686D01*
X21942815Y18815977D01*
X21966390Y18856810D01*
X21966390Y18856812D01*
X21966392Y18856814D01*
X22000500Y18984108D01*
X22000500Y19115892D01*
X21969579Y19231292D01*
X27889200Y19231292D01*
X27889200Y19099508D01*
X27913148Y19010131D01*
X27923309Y18972210D01*
X27989196Y18858091D01*
X27989198Y18858089D01*
X27989200Y18858086D01*
X28082386Y18764900D01*
X28082388Y18764899D01*
X28082390Y18764897D01*
X28196510Y18699010D01*
X28196508Y18699010D01*
X28196512Y18699009D01*
X28196514Y18699008D01*
X28323808Y18664900D01*
X28323810Y18664900D01*
X28455590Y18664900D01*
X28455592Y18664900D01*
X28582886Y18699008D01*
X28582888Y18699010D01*
X28582890Y18699010D01*
X28697009Y18764897D01*
X28697009Y18764898D01*
X28697014Y18764900D01*
X28782506Y18850392D01*
X37172200Y18850392D01*
X37172200Y18718608D01*
X37177452Y18699008D01*
X37206309Y18591310D01*
X37272196Y18477191D01*
X37272198Y18477189D01*
X37272200Y18477186D01*
X37365386Y18384000D01*
X37365388Y18383999D01*
X37365390Y18383997D01*
X37479510Y18318110D01*
X37479508Y18318110D01*
X37479512Y18318109D01*
X37479514Y18318108D01*
X37606808Y18284000D01*
X37606810Y18284000D01*
X37738590Y18284000D01*
X37738592Y18284000D01*
X37865886Y18318108D01*
X37865888Y18318110D01*
X37865890Y18318110D01*
X37980009Y18383997D01*
X37980009Y18383998D01*
X37980014Y18384000D01*
X38073200Y18477186D01*
X38139092Y18591314D01*
X38173200Y18718608D01*
X38173200Y18850392D01*
X38139092Y18977686D01*
X38139090Y18977689D01*
X38139090Y18977691D01*
X38073203Y19091810D01*
X38073201Y19091812D01*
X38073200Y19091814D01*
X37980014Y19185000D01*
X37980011Y19185002D01*
X37980009Y19185004D01*
X37865889Y19250891D01*
X37865891Y19250891D01*
X37816499Y19264125D01*
X37738592Y19285000D01*
X37606808Y19285000D01*
X37528900Y19264125D01*
X37479509Y19250891D01*
X37365390Y19185004D01*
X37272196Y19091810D01*
X37206309Y18977691D01*
X37193783Y18930942D01*
X37172200Y18850392D01*
X28782506Y18850392D01*
X28790200Y18858086D01*
X28790203Y18858091D01*
X28818084Y18906381D01*
X28856090Y18972210D01*
X28856090Y18972212D01*
X28856092Y18972214D01*
X28890200Y19099508D01*
X28890200Y19231292D01*
X28856092Y19358586D01*
X28856090Y19358589D01*
X28856090Y19358591D01*
X28790203Y19472710D01*
X28790201Y19472712D01*
X28790200Y19472714D01*
X28697014Y19565900D01*
X28697011Y19565902D01*
X28697009Y19565904D01*
X28582889Y19631791D01*
X28582891Y19631791D01*
X28533499Y19645025D01*
X28455592Y19665900D01*
X28323808Y19665900D01*
X28245900Y19645025D01*
X28196509Y19631791D01*
X28082390Y19565904D01*
X27989196Y19472710D01*
X27923309Y19358591D01*
X27923308Y19358586D01*
X27889200Y19231292D01*
X21969579Y19231292D01*
X21966392Y19243186D01*
X21900500Y19357314D01*
X21899535Y19358279D01*
X21895595Y19366173D01*
X21891481Y19393607D01*
X21885715Y19420736D01*
X21886986Y19423592D01*
X21886523Y19426682D01*
X21899316Y19451286D01*
X21910601Y19476632D01*
X21913308Y19478196D01*
X21914750Y19480967D01*
X21939558Y19493352D01*
X21963589Y19507225D01*
X21967164Y19507132D01*
X21969494Y19508294D01*
X21978191Y19506843D01*
X22009793Y19506016D01*
X22034108Y19499500D01*
X22034110Y19499500D01*
X22165890Y19499500D01*
X22165892Y19499500D01*
X22293186Y19533608D01*
X22293188Y19533610D01*
X22293190Y19533610D01*
X22407309Y19599497D01*
X22407309Y19599498D01*
X22407314Y19599500D01*
X22500500Y19692686D01*
X22566392Y19806814D01*
X22600500Y19934108D01*
X22600500Y20065892D01*
X22566392Y20193186D01*
X22566390Y20193189D01*
X22566390Y20193191D01*
X22500503Y20307310D01*
X22500501Y20307312D01*
X22500500Y20307314D01*
X22407314Y20400500D01*
X22407311Y20400502D01*
X22407309Y20400504D01*
X22293189Y20466391D01*
X22293191Y20466391D01*
X22243799Y20479625D01*
X22165892Y20500500D01*
X22034108Y20500500D01*
X21956200Y20479625D01*
X21906809Y20466391D01*
X21792690Y20400504D01*
X21699496Y20307310D01*
X21633609Y20193191D01*
X21633608Y20193186D01*
X21599500Y20065892D01*
X21599500Y19934108D01*
X21629579Y19821849D01*
X21633609Y19806810D01*
X21701562Y19689113D01*
X21714284Y19629265D01*
X21689397Y19573369D01*
X21636409Y19542776D01*
X21590205Y19543986D01*
X21565894Y19550500D01*
X21565892Y19550500D01*
X21434108Y19550500D01*
X21371073Y19533610D01*
X21306809Y19516391D01*
X21192690Y19450504D01*
X21099496Y19357310D01*
X21033609Y19243191D01*
X21022708Y19202507D01*
X20999500Y19115892D01*
X500500Y19115892D01*
X500500Y20873392D01*
X27498500Y20873392D01*
X27498500Y20741608D01*
X27528579Y20629349D01*
X27532609Y20614310D01*
X27598496Y20500191D01*
X27598498Y20500189D01*
X27598500Y20500186D01*
X27691686Y20407000D01*
X27691688Y20406999D01*
X27691690Y20406997D01*
X27805810Y20341110D01*
X27805808Y20341110D01*
X27805812Y20341109D01*
X27805814Y20341108D01*
X27933108Y20307000D01*
X27933110Y20307000D01*
X28064890Y20307000D01*
X28064892Y20307000D01*
X28192186Y20341108D01*
X28192188Y20341110D01*
X28192190Y20341110D01*
X28306309Y20406997D01*
X28306309Y20406998D01*
X28306314Y20407000D01*
X28399500Y20500186D01*
X28465392Y20614314D01*
X28499500Y20741608D01*
X28499500Y20804528D01*
X28518407Y20862719D01*
X28567907Y20898683D01*
X28629093Y20898683D01*
X28658771Y20883068D01*
X28661981Y20880605D01*
X28661986Y20880600D01*
X28661991Y20880597D01*
X28661994Y20880595D01*
X28776110Y20814710D01*
X28776108Y20814710D01*
X28776112Y20814709D01*
X28776114Y20814708D01*
X28903408Y20780600D01*
X28903410Y20780600D01*
X29035190Y20780600D01*
X29035192Y20780600D01*
X29162486Y20814708D01*
X29162488Y20814710D01*
X29162490Y20814710D01*
X29276609Y20880597D01*
X29276609Y20880598D01*
X29276614Y20880600D01*
X29369800Y20973786D01*
X29435692Y21087914D01*
X29469800Y21215208D01*
X29469800Y21346992D01*
X29435692Y21474286D01*
X29435690Y21474289D01*
X29435690Y21474291D01*
X29369803Y21588410D01*
X29369801Y21588412D01*
X29369800Y21588414D01*
X29276614Y21681600D01*
X29276611Y21681602D01*
X29276609Y21681604D01*
X29181275Y21736645D01*
X29162489Y21747491D01*
X29162491Y21747491D01*
X29113099Y21760725D01*
X29035192Y21781600D01*
X28903408Y21781600D01*
X28825500Y21760725D01*
X28776109Y21747491D01*
X28661990Y21681604D01*
X28568796Y21588410D01*
X28502909Y21474291D01*
X28468800Y21346991D01*
X28468800Y21284073D01*
X28449893Y21225882D01*
X28400393Y21189918D01*
X28339207Y21189918D01*
X28309535Y21205529D01*
X28306312Y21208002D01*
X28192189Y21273891D01*
X28192191Y21273891D01*
X28142799Y21287125D01*
X28064892Y21308000D01*
X27933108Y21308000D01*
X27855200Y21287125D01*
X27805809Y21273891D01*
X27691690Y21208004D01*
X27598496Y21114810D01*
X27532609Y21000691D01*
X27525400Y20973786D01*
X27498500Y20873392D01*
X500500Y20873392D01*
X500500Y21815892D01*
X35299500Y21815892D01*
X35299500Y21684108D01*
X35325141Y21588414D01*
X35333609Y21556810D01*
X35399496Y21442691D01*
X35399498Y21442689D01*
X35399500Y21442686D01*
X35492686Y21349500D01*
X35492688Y21349499D01*
X35492690Y21349497D01*
X35606810Y21283610D01*
X35606808Y21283610D01*
X35606812Y21283609D01*
X35606814Y21283608D01*
X35734108Y21249500D01*
X35734110Y21249500D01*
X35865890Y21249500D01*
X35865892Y21249500D01*
X35993186Y21283608D01*
X35993188Y21283610D01*
X35993190Y21283610D01*
X36107309Y21349497D01*
X36107309Y21349498D01*
X36107314Y21349500D01*
X36200500Y21442686D01*
X36266392Y21556814D01*
X36300500Y21684108D01*
X36300500Y21815892D01*
X36266392Y21943186D01*
X36241678Y21985991D01*
X36228958Y22045838D01*
X36253845Y22101734D01*
X36277913Y22121225D01*
X36382314Y22181500D01*
X36475500Y22274686D01*
X36541392Y22388814D01*
X36575500Y22516108D01*
X36575500Y22647892D01*
X36541392Y22775186D01*
X36541390Y22775189D01*
X36541390Y22775191D01*
X36475503Y22889310D01*
X36475501Y22889312D01*
X36475500Y22889314D01*
X36382314Y22982500D01*
X36382311Y22982502D01*
X36382309Y22982504D01*
X36375136Y22986645D01*
X36268189Y23048391D01*
X36268191Y23048391D01*
X36202874Y23065892D01*
X37549500Y23065892D01*
X37549500Y22934108D01*
X37579579Y22821849D01*
X37583609Y22806810D01*
X37649496Y22692691D01*
X37649498Y22692689D01*
X37649500Y22692686D01*
X37742686Y22599500D01*
X37742688Y22599499D01*
X37742690Y22599497D01*
X37856810Y22533610D01*
X37856808Y22533610D01*
X37856812Y22533609D01*
X37856814Y22533608D01*
X37984108Y22499500D01*
X37984110Y22499500D01*
X38115890Y22499500D01*
X38115892Y22499500D01*
X38243186Y22533608D01*
X38243188Y22533610D01*
X38243190Y22533610D01*
X38357309Y22599497D01*
X38357309Y22599498D01*
X38357314Y22599500D01*
X38450500Y22692686D01*
X38498132Y22775186D01*
X38516390Y22806810D01*
X38516390Y22806812D01*
X38516392Y22806814D01*
X38550500Y22934108D01*
X38550500Y23065892D01*
X38516392Y23193186D01*
X38516390Y23193189D01*
X38516390Y23193191D01*
X38450503Y23307310D01*
X38450501Y23307312D01*
X38450500Y23307314D01*
X38357314Y23400500D01*
X38357311Y23400502D01*
X38357309Y23400504D01*
X38243189Y23466391D01*
X38243191Y23466391D01*
X38193799Y23479625D01*
X38115892Y23500500D01*
X37984108Y23500500D01*
X37906200Y23479625D01*
X37856809Y23466391D01*
X37742690Y23400504D01*
X37649496Y23307310D01*
X37583609Y23193191D01*
X37583608Y23193186D01*
X37549500Y23065892D01*
X36202874Y23065892D01*
X36140892Y23082500D01*
X36009108Y23082500D01*
X35947126Y23065892D01*
X35881809Y23048391D01*
X35767690Y22982504D01*
X35674496Y22889310D01*
X35608609Y22775191D01*
X35608608Y22775186D01*
X35574500Y22647892D01*
X35574500Y22516108D01*
X35596471Y22434110D01*
X35608609Y22388811D01*
X35633320Y22346010D01*
X35646041Y22286162D01*
X35621154Y22230267D01*
X35597083Y22210775D01*
X35492690Y22150504D01*
X35399496Y22057310D01*
X35333609Y21943191D01*
X35333608Y21943186D01*
X35299500Y21815892D01*
X500500Y21815892D01*
X500500Y22565892D01*
X24949500Y22565892D01*
X24949500Y22434108D01*
X24973106Y22346010D01*
X24983609Y22306810D01*
X25049496Y22192691D01*
X25049498Y22192689D01*
X25049500Y22192686D01*
X25142686Y22099500D01*
X25142688Y22099499D01*
X25142690Y22099497D01*
X25256810Y22033610D01*
X25256808Y22033610D01*
X25256812Y22033609D01*
X25256814Y22033608D01*
X25384108Y21999500D01*
X25384110Y21999500D01*
X25515890Y21999500D01*
X25515892Y21999500D01*
X25643186Y22033608D01*
X25643188Y22033610D01*
X25643190Y22033610D01*
X25757309Y22099497D01*
X25757309Y22099498D01*
X25757314Y22099500D01*
X25850500Y22192686D01*
X25864187Y22216392D01*
X25916390Y22306810D01*
X25916390Y22306812D01*
X25916392Y22306814D01*
X25950500Y22434108D01*
X25950500Y22565892D01*
X25916392Y22693186D01*
X25916390Y22693189D01*
X25916390Y22693191D01*
X25850503Y22807310D01*
X25850501Y22807312D01*
X25850500Y22807314D01*
X25757314Y22900500D01*
X25757311Y22900502D01*
X25757309Y22900504D01*
X25643189Y22966391D01*
X25643191Y22966391D01*
X25593799Y22979625D01*
X25515892Y23000500D01*
X25384108Y23000500D01*
X25306200Y22979625D01*
X25256809Y22966391D01*
X25142690Y22900504D01*
X25049496Y22807310D01*
X24983609Y22693191D01*
X24983608Y22693186D01*
X24949500Y22565892D01*
X500500Y22565892D01*
X500500Y25157792D01*
X31249500Y25157792D01*
X31249500Y25026008D01*
X31279579Y24913749D01*
X31283609Y24898710D01*
X31349496Y24784591D01*
X31349498Y24784589D01*
X31349500Y24784586D01*
X31442686Y24691400D01*
X31442688Y24691399D01*
X31442690Y24691397D01*
X31556810Y24625510D01*
X31556808Y24625510D01*
X31556812Y24625509D01*
X31556814Y24625508D01*
X31684108Y24591400D01*
X31684110Y24591400D01*
X31815890Y24591400D01*
X31815892Y24591400D01*
X31943186Y24625508D01*
X31943188Y24625510D01*
X31943190Y24625510D01*
X32057309Y24691397D01*
X32057309Y24691398D01*
X32057314Y24691400D01*
X32150500Y24784586D01*
X32216392Y24898714D01*
X32250500Y25026008D01*
X32250500Y25157792D01*
X32216392Y25285086D01*
X32216390Y25285089D01*
X32216390Y25285091D01*
X32150503Y25399210D01*
X32150501Y25399212D01*
X32150500Y25399214D01*
X32057314Y25492400D01*
X32057311Y25492402D01*
X32057309Y25492404D01*
X31943189Y25558291D01*
X31943191Y25558291D01*
X31893799Y25571525D01*
X31815892Y25592400D01*
X31684108Y25592400D01*
X31606200Y25571525D01*
X31556809Y25558291D01*
X31442690Y25492404D01*
X31349496Y25399210D01*
X31283609Y25285091D01*
X31281789Y25278297D01*
X31249500Y25157792D01*
X500500Y25157792D01*
X500500Y25756292D01*
X29706500Y25756292D01*
X29706500Y25624508D01*
X29736579Y25512249D01*
X29740609Y25497210D01*
X29806496Y25383091D01*
X29806498Y25383089D01*
X29806500Y25383086D01*
X29899686Y25289900D01*
X29899688Y25289899D01*
X29899690Y25289897D01*
X30013810Y25224010D01*
X30013808Y25224010D01*
X30013812Y25224009D01*
X30013814Y25224008D01*
X30141108Y25189900D01*
X30141110Y25189900D01*
X30272890Y25189900D01*
X30272892Y25189900D01*
X30400186Y25224008D01*
X30400188Y25224010D01*
X30400190Y25224010D01*
X30445236Y25250017D01*
X30514309Y25289897D01*
X30514309Y25289898D01*
X30514314Y25289900D01*
X30607500Y25383086D01*
X30622803Y25409591D01*
X30673390Y25497210D01*
X30673390Y25497212D01*
X30673392Y25497214D01*
X30707500Y25624508D01*
X30707500Y25756292D01*
X30700399Y25782792D01*
X32454100Y25782792D01*
X32454100Y25651008D01*
X32464309Y25612908D01*
X32488209Y25523710D01*
X32554096Y25409591D01*
X32554098Y25409589D01*
X32554100Y25409586D01*
X32647286Y25316400D01*
X32647288Y25316399D01*
X32647290Y25316397D01*
X32761410Y25250510D01*
X32761408Y25250510D01*
X32761412Y25250509D01*
X32761414Y25250508D01*
X32888708Y25216400D01*
X32888710Y25216400D01*
X33020490Y25216400D01*
X33020492Y25216400D01*
X33147786Y25250508D01*
X33147788Y25250510D01*
X33147790Y25250510D01*
X33261909Y25316397D01*
X33261909Y25316398D01*
X33261914Y25316400D01*
X33355100Y25409586D01*
X33420992Y25523714D01*
X33455100Y25651008D01*
X33455100Y25744692D01*
X34400100Y25744692D01*
X34400100Y25612908D01*
X34423999Y25523714D01*
X34434209Y25485610D01*
X34500096Y25371491D01*
X34500098Y25371489D01*
X34500100Y25371486D01*
X34593286Y25278300D01*
X34593288Y25278299D01*
X34593290Y25278297D01*
X34707410Y25212410D01*
X34707408Y25212410D01*
X34707412Y25212409D01*
X34707414Y25212408D01*
X34834708Y25178300D01*
X34834710Y25178300D01*
X34966490Y25178300D01*
X34966492Y25178300D01*
X35093786Y25212408D01*
X35093788Y25212410D01*
X35093790Y25212410D01*
X35207909Y25278297D01*
X35207909Y25278298D01*
X35207914Y25278300D01*
X35301100Y25371486D01*
X35307800Y25383091D01*
X35366990Y25485610D01*
X35366990Y25485612D01*
X35366992Y25485614D01*
X35401100Y25612908D01*
X35401100Y25744692D01*
X35366992Y25871986D01*
X35366990Y25871989D01*
X35366990Y25871991D01*
X35301103Y25986110D01*
X35301101Y25986112D01*
X35301100Y25986114D01*
X35207914Y26079300D01*
X35207911Y26079302D01*
X35207909Y26079304D01*
X35093789Y26145191D01*
X35093791Y26145191D01*
X35044399Y26158425D01*
X34966492Y26179300D01*
X34834708Y26179300D01*
X34756800Y26158425D01*
X34707409Y26145191D01*
X34593290Y26079304D01*
X34500096Y25986110D01*
X34434209Y25871991D01*
X34434208Y25871986D01*
X34400100Y25744692D01*
X33455100Y25744692D01*
X33455100Y25782792D01*
X33420992Y25910086D01*
X33420990Y25910089D01*
X33420990Y25910091D01*
X33355103Y26024210D01*
X33355101Y26024212D01*
X33355100Y26024214D01*
X33261914Y26117400D01*
X33261911Y26117402D01*
X33261909Y26117404D01*
X33147789Y26183291D01*
X33147791Y26183291D01*
X33098399Y26196525D01*
X33020492Y26217400D01*
X32888708Y26217400D01*
X32810800Y26196525D01*
X32761409Y26183291D01*
X32647290Y26117404D01*
X32554096Y26024210D01*
X32488209Y25910091D01*
X32477999Y25871986D01*
X32454100Y25782792D01*
X30700399Y25782792D01*
X30673392Y25883586D01*
X30673390Y25883589D01*
X30673390Y25883591D01*
X30607503Y25997710D01*
X30607501Y25997712D01*
X30607500Y25997714D01*
X30514314Y26090900D01*
X30514311Y26090902D01*
X30514309Y26090904D01*
X30400189Y26156791D01*
X30400191Y26156791D01*
X30350799Y26170025D01*
X30272892Y26190900D01*
X30141108Y26190900D01*
X30063200Y26170025D01*
X30013809Y26156791D01*
X29899690Y26090904D01*
X29806496Y25997710D01*
X29740609Y25883591D01*
X29740608Y25883586D01*
X29706500Y25756292D01*
X500500Y25756292D01*
X500500Y27365892D01*
X24949500Y27365892D01*
X24949500Y27234108D01*
X24973245Y27145491D01*
X24983609Y27106810D01*
X25049496Y26992691D01*
X25049498Y26992689D01*
X25049500Y26992686D01*
X25142686Y26899500D01*
X25142688Y26899499D01*
X25142690Y26899497D01*
X25256810Y26833610D01*
X25256808Y26833610D01*
X25256812Y26833609D01*
X25256814Y26833608D01*
X25384108Y26799500D01*
X25384110Y26799500D01*
X25515890Y26799500D01*
X25515892Y26799500D01*
X25643186Y26833608D01*
X25643188Y26833610D01*
X25643190Y26833610D01*
X25757309Y26899497D01*
X25757309Y26899498D01*
X25757314Y26899500D01*
X25850500Y26992686D01*
X25850503Y26992691D01*
X25865226Y27018192D01*
X30111800Y27018192D01*
X30111800Y26886408D01*
X30125044Y26836981D01*
X30145909Y26759110D01*
X30211796Y26644991D01*
X30211798Y26644989D01*
X30211800Y26644986D01*
X30304986Y26551800D01*
X30304988Y26551799D01*
X30304990Y26551797D01*
X30419110Y26485910D01*
X30419108Y26485910D01*
X30419112Y26485909D01*
X30419114Y26485908D01*
X30546408Y26451800D01*
X30546410Y26451800D01*
X30678190Y26451800D01*
X30678192Y26451800D01*
X30805486Y26485908D01*
X30805488Y26485910D01*
X30805490Y26485910D01*
X30877500Y26527485D01*
X30937348Y26540207D01*
X30993244Y26515321D01*
X31023836Y26462333D01*
X31026000Y26441749D01*
X31026000Y26334108D01*
X31056079Y26221849D01*
X31060109Y26206810D01*
X31125996Y26092691D01*
X31125998Y26092689D01*
X31126000Y26092686D01*
X31219186Y25999500D01*
X31219188Y25999499D01*
X31219190Y25999497D01*
X31333310Y25933610D01*
X31333308Y25933610D01*
X31333312Y25933609D01*
X31333314Y25933608D01*
X31460608Y25899500D01*
X31460610Y25899500D01*
X31592390Y25899500D01*
X31592392Y25899500D01*
X31719686Y25933608D01*
X31719688Y25933610D01*
X31719690Y25933610D01*
X31833809Y25999497D01*
X31833809Y25999498D01*
X31833814Y25999500D01*
X31927000Y26092686D01*
X31957314Y26145191D01*
X31992890Y26206810D01*
X31992890Y26206812D01*
X31992892Y26206814D01*
X32027000Y26334108D01*
X32027000Y26465892D01*
X31992892Y26593186D01*
X31992890Y26593189D01*
X31992890Y26593191D01*
X31927003Y26707310D01*
X31927001Y26707312D01*
X31927000Y26707314D01*
X31833814Y26800500D01*
X31833811Y26800502D01*
X31833809Y26800504D01*
X31719689Y26866391D01*
X31719691Y26866391D01*
X31670299Y26879625D01*
X31592392Y26900500D01*
X31460608Y26900500D01*
X31396961Y26883446D01*
X31333312Y26866392D01*
X31261300Y26824815D01*
X31201451Y26812094D01*
X31145556Y26836981D01*
X31114963Y26889969D01*
X31112800Y26910552D01*
X31112800Y27018191D01*
X31104339Y27049769D01*
X31078692Y27145486D01*
X31078690Y27145489D01*
X31078690Y27145491D01*
X31012803Y27259610D01*
X31012801Y27259612D01*
X31012800Y27259614D01*
X30919614Y27352800D01*
X30919611Y27352802D01*
X30919609Y27352804D01*
X30805489Y27418691D01*
X30805491Y27418691D01*
X30756099Y27431925D01*
X30678192Y27452800D01*
X30546408Y27452800D01*
X30468500Y27431925D01*
X30419109Y27418691D01*
X30304990Y27352804D01*
X30211796Y27259610D01*
X30145909Y27145491D01*
X30145908Y27145486D01*
X30111800Y27018192D01*
X25865226Y27018192D01*
X25897552Y27074181D01*
X25916390Y27106810D01*
X25916390Y27106812D01*
X25916392Y27106814D01*
X25950500Y27234108D01*
X25950500Y27365892D01*
X25916392Y27493186D01*
X25916390Y27493189D01*
X25916390Y27493191D01*
X25850503Y27607310D01*
X25850501Y27607312D01*
X25850500Y27607314D01*
X25757314Y27700500D01*
X25757311Y27700502D01*
X25757309Y27700504D01*
X25694714Y27736644D01*
X25694711Y27736644D01*
X25643187Y27766392D01*
X25600754Y27777762D01*
X25515892Y27800500D01*
X25384108Y27800500D01*
X25306200Y27779625D01*
X25256809Y27766391D01*
X25142690Y27700504D01*
X25049496Y27607310D01*
X24983609Y27493191D01*
X24983608Y27493186D01*
X24949500Y27365892D01*
X500500Y27365892D01*
X500500Y27990892D01*
X17899500Y27990892D01*
X17899500Y27859108D01*
X17911080Y27815892D01*
X17933609Y27731810D01*
X17999496Y27617691D01*
X17999498Y27617689D01*
X17999500Y27617686D01*
X18092686Y27524500D01*
X18092688Y27524499D01*
X18092690Y27524497D01*
X18206810Y27458610D01*
X18206808Y27458610D01*
X18206812Y27458609D01*
X18206814Y27458608D01*
X18334108Y27424500D01*
X18334110Y27424500D01*
X18465890Y27424500D01*
X18465892Y27424500D01*
X18593186Y27458608D01*
X18593188Y27458610D01*
X18593190Y27458610D01*
X18707309Y27524497D01*
X18707309Y27524498D01*
X18707314Y27524500D01*
X18800500Y27617686D01*
X18866392Y27731814D01*
X18888920Y27815892D01*
X34391800Y27815892D01*
X34391800Y27684108D01*
X34409596Y27617691D01*
X34425909Y27556810D01*
X34491796Y27442691D01*
X34491798Y27442689D01*
X34491800Y27442686D01*
X34584986Y27349500D01*
X34584988Y27349499D01*
X34584990Y27349497D01*
X34699110Y27283610D01*
X34699108Y27283610D01*
X34699112Y27283609D01*
X34699114Y27283608D01*
X34826408Y27249500D01*
X34826410Y27249500D01*
X34958190Y27249500D01*
X34958192Y27249500D01*
X35085486Y27283608D01*
X35085488Y27283610D01*
X35085490Y27283610D01*
X35199609Y27349497D01*
X35199609Y27349498D01*
X35199614Y27349500D01*
X35292800Y27442686D01*
X35358692Y27556814D01*
X35368554Y27593619D01*
X52049500Y27593619D01*
X52049500Y27406382D01*
X52086026Y27222751D01*
X52157677Y27049771D01*
X52157681Y27049762D01*
X52232065Y26938441D01*
X52261698Y26894092D01*
X52394092Y26761698D01*
X52460463Y26717351D01*
X52549761Y26657682D01*
X52549767Y26657680D01*
X52549769Y26657678D01*
X52722749Y26586027D01*
X52906384Y26549500D01*
X52906385Y26549500D01*
X53093615Y26549500D01*
X53093616Y26549500D01*
X53277251Y26586027D01*
X53450231Y26657678D01*
X53450234Y26657681D01*
X53450238Y26657682D01*
X53495187Y26687718D01*
X53605908Y26761698D01*
X53738302Y26894092D01*
X53821223Y27018192D01*
X53842318Y27049762D01*
X53842323Y27049771D01*
X53908536Y27209625D01*
X53948272Y27256150D01*
X54007767Y27270434D01*
X54064295Y27247019D01*
X54091464Y27209624D01*
X54157675Y27049774D01*
X54157681Y27049762D01*
X54232065Y26938441D01*
X54261698Y26894092D01*
X54394092Y26761698D01*
X54460463Y26717351D01*
X54549761Y26657682D01*
X54549767Y26657680D01*
X54549769Y26657678D01*
X54722749Y26586027D01*
X54906384Y26549500D01*
X54906385Y26549500D01*
X55093615Y26549500D01*
X55093616Y26549500D01*
X55277251Y26586027D01*
X55450231Y26657678D01*
X55450234Y26657681D01*
X55450238Y26657682D01*
X55495187Y26687718D01*
X55605908Y26761698D01*
X55738302Y26894092D01*
X55821223Y27018192D01*
X55842318Y27049762D01*
X55842319Y27049766D01*
X55842322Y27049769D01*
X55913973Y27222749D01*
X55950500Y27406384D01*
X55950500Y27593616D01*
X55913973Y27777251D01*
X55842322Y27950231D01*
X55842320Y27950233D01*
X55842318Y27950239D01*
X55770771Y28057314D01*
X55738302Y28105908D01*
X55605908Y28238302D01*
X55561559Y28267935D01*
X55450238Y28342319D01*
X55450229Y28342323D01*
X55277249Y28413974D01*
X55093618Y28450500D01*
X55093616Y28450500D01*
X54906384Y28450500D01*
X54906381Y28450500D01*
X54722750Y28413974D01*
X54549770Y28342323D01*
X54549761Y28342319D01*
X54394092Y28238302D01*
X54394088Y28238299D01*
X54261701Y28105912D01*
X54261698Y28105908D01*
X54157681Y27950239D01*
X54157677Y27950230D01*
X54119934Y27859110D01*
X54102033Y27815891D01*
X54091464Y27790376D01*
X54051727Y27743851D01*
X53992233Y27729567D01*
X53935705Y27752982D01*
X53908536Y27790376D01*
X53904342Y27800500D01*
X53842322Y27950231D01*
X53842320Y27950233D01*
X53842318Y27950239D01*
X53770771Y28057314D01*
X53738302Y28105908D01*
X53605908Y28238302D01*
X53561559Y28267935D01*
X53450238Y28342319D01*
X53450229Y28342323D01*
X53277249Y28413974D01*
X53093618Y28450500D01*
X53093616Y28450500D01*
X52906384Y28450500D01*
X52906381Y28450500D01*
X52722750Y28413974D01*
X52549770Y28342323D01*
X52549761Y28342319D01*
X52394092Y28238302D01*
X52394088Y28238299D01*
X52261701Y28105912D01*
X52261698Y28105908D01*
X52157681Y27950239D01*
X52157677Y27950230D01*
X52086026Y27777250D01*
X52049500Y27593619D01*
X35368554Y27593619D01*
X35392800Y27684108D01*
X35392800Y27815892D01*
X35358692Y27943186D01*
X35358690Y27943189D01*
X35358690Y27943191D01*
X35292803Y28057310D01*
X35292801Y28057312D01*
X35292800Y28057314D01*
X35199614Y28150500D01*
X35199611Y28150502D01*
X35199609Y28150504D01*
X35085489Y28216391D01*
X35085491Y28216391D01*
X35036099Y28229625D01*
X34958192Y28250500D01*
X34826408Y28250500D01*
X34748500Y28229625D01*
X34699109Y28216391D01*
X34584990Y28150504D01*
X34491796Y28057310D01*
X34425909Y27943191D01*
X34425908Y27943186D01*
X34391800Y27815892D01*
X18888920Y27815892D01*
X18900500Y27859108D01*
X18900500Y27990892D01*
X18866392Y28118186D01*
X18866390Y28118189D01*
X18866390Y28118191D01*
X18800503Y28232310D01*
X18800501Y28232312D01*
X18800500Y28232314D01*
X18707314Y28325500D01*
X18707311Y28325502D01*
X18707309Y28325504D01*
X18593189Y28391391D01*
X18593191Y28391391D01*
X18543799Y28404625D01*
X18465892Y28425500D01*
X18334108Y28425500D01*
X18256200Y28404625D01*
X18206809Y28391391D01*
X18092690Y28325504D01*
X17999496Y28232310D01*
X17933609Y28118191D01*
X17933608Y28118186D01*
X17899500Y27990892D01*
X500500Y27990892D01*
X500500Y29065892D01*
X49699499Y29065892D01*
X49699499Y28934108D01*
X49729578Y28821849D01*
X49733608Y28806810D01*
X49799495Y28692691D01*
X49799497Y28692689D01*
X49799499Y28692686D01*
X49892685Y28599500D01*
X49892687Y28599499D01*
X49892689Y28599497D01*
X50006809Y28533610D01*
X50006807Y28533610D01*
X50006811Y28533609D01*
X50006813Y28533608D01*
X50134107Y28499500D01*
X50134109Y28499500D01*
X50265889Y28499500D01*
X50265891Y28499500D01*
X50393185Y28533608D01*
X50393187Y28533610D01*
X50393189Y28533610D01*
X50507308Y28599497D01*
X50507308Y28599498D01*
X50507313Y28599500D01*
X50600499Y28692686D01*
X50666391Y28806814D01*
X50700499Y28934108D01*
X50700499Y29065892D01*
X50666391Y29193186D01*
X50666389Y29193189D01*
X50666389Y29193191D01*
X50600502Y29307310D01*
X50600500Y29307312D01*
X50600499Y29307314D01*
X50507313Y29400500D01*
X50507310Y29400502D01*
X50507308Y29400504D01*
X50393188Y29466391D01*
X50393190Y29466391D01*
X50343798Y29479625D01*
X50265891Y29500500D01*
X50134107Y29500500D01*
X50056199Y29479625D01*
X50006808Y29466391D01*
X49892689Y29400504D01*
X49799495Y29307310D01*
X49733608Y29193191D01*
X49724795Y29160300D01*
X49699499Y29065892D01*
X500500Y29065892D01*
X500500Y29640892D01*
X17899500Y29640892D01*
X17899500Y29509108D01*
X17910946Y29466392D01*
X17933609Y29381810D01*
X17999496Y29267691D01*
X17999498Y29267689D01*
X17999500Y29267686D01*
X18092686Y29174500D01*
X18092688Y29174499D01*
X18092690Y29174497D01*
X18206810Y29108610D01*
X18206808Y29108610D01*
X18206812Y29108609D01*
X18206814Y29108608D01*
X18334108Y29074500D01*
X18334110Y29074500D01*
X18465890Y29074500D01*
X18465892Y29074500D01*
X18593186Y29108608D01*
X18593188Y29108610D01*
X18593190Y29108610D01*
X18707309Y29174497D01*
X18707309Y29174498D01*
X18707314Y29174500D01*
X18800500Y29267686D01*
X18866392Y29381814D01*
X18900500Y29509108D01*
X18900500Y29640892D01*
X18877510Y29726692D01*
X33791700Y29726692D01*
X33791700Y29594908D01*
X33814689Y29509110D01*
X33825809Y29467610D01*
X33891696Y29353491D01*
X33891698Y29353489D01*
X33891700Y29353486D01*
X33984886Y29260300D01*
X33984888Y29260299D01*
X33984890Y29260297D01*
X34099010Y29194410D01*
X34099008Y29194410D01*
X34099012Y29194409D01*
X34099014Y29194408D01*
X34226308Y29160300D01*
X34226310Y29160300D01*
X34358090Y29160300D01*
X34358092Y29160300D01*
X34485386Y29194408D01*
X34485388Y29194410D01*
X34485390Y29194410D01*
X34599509Y29260297D01*
X34599509Y29260298D01*
X34599514Y29260300D01*
X34692700Y29353486D01*
X34757886Y29466391D01*
X34758590Y29467610D01*
X34758590Y29467612D01*
X34758592Y29467614D01*
X34792700Y29594908D01*
X34792700Y29726692D01*
X34758592Y29853986D01*
X34758590Y29853989D01*
X34758590Y29853991D01*
X34692703Y29968110D01*
X34692701Y29968112D01*
X34692700Y29968114D01*
X34599514Y30061300D01*
X34599511Y30061302D01*
X34599509Y30061304D01*
X34485389Y30127191D01*
X34485391Y30127191D01*
X34435999Y30140425D01*
X34358092Y30161300D01*
X34226308Y30161300D01*
X34148400Y30140425D01*
X34099009Y30127191D01*
X33984890Y30061304D01*
X33891696Y29968110D01*
X33825809Y29853991D01*
X33825808Y29853986D01*
X33791700Y29726692D01*
X18877510Y29726692D01*
X18866392Y29768186D01*
X18866390Y29768189D01*
X18866390Y29768191D01*
X18800503Y29882310D01*
X18800501Y29882312D01*
X18800500Y29882314D01*
X18707314Y29975500D01*
X18707311Y29975502D01*
X18707309Y29975504D01*
X18593189Y30041391D01*
X18593191Y30041391D01*
X18543799Y30054625D01*
X18465892Y30075500D01*
X18334108Y30075500D01*
X18256200Y30054625D01*
X18206809Y30041391D01*
X18092690Y29975504D01*
X17999496Y29882310D01*
X17933609Y29768191D01*
X17917363Y29707559D01*
X17899500Y29640892D01*
X500500Y29640892D01*
X500500Y30769747D01*
X52049500Y30769747D01*
X52049500Y29230254D01*
X52049501Y29230242D01*
X52061132Y29171773D01*
X52061134Y29171767D01*
X52105445Y29105452D01*
X52105448Y29105448D01*
X52171769Y29061133D01*
X52216231Y29052289D01*
X52230241Y29049502D01*
X52230246Y29049502D01*
X52230252Y29049500D01*
X52230253Y29049500D01*
X53769747Y29049500D01*
X53769748Y29049500D01*
X53828231Y29061133D01*
X53894552Y29105448D01*
X53938867Y29171769D01*
X53950500Y29230252D01*
X53950500Y30769748D01*
X53938867Y30828231D01*
X53894552Y30894552D01*
X53894548Y30894555D01*
X53828233Y30938866D01*
X53828231Y30938867D01*
X53828228Y30938868D01*
X53828227Y30938868D01*
X53769758Y30950499D01*
X53769748Y30950500D01*
X52230252Y30950500D01*
X52230251Y30950500D01*
X52230241Y30950499D01*
X52171772Y30938868D01*
X52171766Y30938866D01*
X52105451Y30894555D01*
X52105445Y30894549D01*
X52061134Y30828234D01*
X52061132Y30828228D01*
X52049501Y30769759D01*
X52049500Y30769747D01*
X500500Y30769747D01*
X500500Y32315892D01*
X24949500Y32315892D01*
X24949500Y32184108D01*
X24979579Y32071849D01*
X24983609Y32056810D01*
X25049496Y31942691D01*
X25049498Y31942689D01*
X25049500Y31942686D01*
X25142686Y31849500D01*
X25142688Y31849499D01*
X25142690Y31849497D01*
X25256810Y31783610D01*
X25256808Y31783610D01*
X25256812Y31783609D01*
X25256814Y31783608D01*
X25384108Y31749500D01*
X25384110Y31749500D01*
X25515890Y31749500D01*
X25515892Y31749500D01*
X25643186Y31783608D01*
X25643188Y31783610D01*
X25643190Y31783610D01*
X25757309Y31849497D01*
X25757309Y31849498D01*
X25757314Y31849500D01*
X25850500Y31942686D01*
X25916392Y32056814D01*
X25950500Y32184108D01*
X25950500Y32315892D01*
X25916392Y32443186D01*
X25916390Y32443189D01*
X25916390Y32443191D01*
X25850503Y32557310D01*
X25850501Y32557312D01*
X25850500Y32557314D01*
X25757314Y32650500D01*
X25757311Y32650502D01*
X25757309Y32650504D01*
X25643189Y32716391D01*
X25643191Y32716391D01*
X25593799Y32729625D01*
X25515892Y32750500D01*
X25384108Y32750500D01*
X25306200Y32729625D01*
X25256809Y32716391D01*
X25142690Y32650504D01*
X25049496Y32557310D01*
X24983609Y32443191D01*
X24983608Y32443186D01*
X24949500Y32315892D01*
X500500Y32315892D01*
X500500Y33065892D01*
X17549500Y33065892D01*
X17549500Y32934108D01*
X17570211Y32856814D01*
X17583609Y32806810D01*
X17649496Y32692691D01*
X17649498Y32692689D01*
X17649500Y32692686D01*
X17742686Y32599500D01*
X17742688Y32599499D01*
X17742690Y32599497D01*
X17856810Y32533610D01*
X17856808Y32533610D01*
X17856812Y32533609D01*
X17856814Y32533608D01*
X17984108Y32499500D01*
X17984110Y32499500D01*
X18115890Y32499500D01*
X18115892Y32499500D01*
X18243186Y32533608D01*
X18243188Y32533610D01*
X18243190Y32533610D01*
X18357309Y32599497D01*
X18357309Y32599498D01*
X18357314Y32599500D01*
X18450500Y32692686D01*
X18479368Y32742686D01*
X18516390Y32806810D01*
X18516390Y32806812D01*
X18516392Y32806814D01*
X18550500Y32934108D01*
X18550500Y33065892D01*
X18537103Y33115892D01*
X40599500Y33115892D01*
X40599500Y32984108D01*
X40629579Y32871849D01*
X40633609Y32856810D01*
X40699496Y32742691D01*
X40699498Y32742689D01*
X40699500Y32742686D01*
X40792686Y32649500D01*
X40792688Y32649499D01*
X40792690Y32649497D01*
X40906810Y32583610D01*
X40906808Y32583610D01*
X40906812Y32583609D01*
X40906814Y32583608D01*
X41034108Y32549500D01*
X41034110Y32549500D01*
X41165890Y32549500D01*
X41165892Y32549500D01*
X41293186Y32583608D01*
X41293188Y32583610D01*
X41293190Y32583610D01*
X41407309Y32649497D01*
X41407309Y32649498D01*
X41407314Y32649500D01*
X41500500Y32742686D01*
X41500503Y32742691D01*
X41566390Y32856810D01*
X41566390Y32856812D01*
X41566392Y32856814D01*
X41600500Y32984108D01*
X41600500Y33115892D01*
X41566392Y33243186D01*
X41566390Y33243189D01*
X41566390Y33243191D01*
X41500503Y33357310D01*
X41500501Y33357312D01*
X41500500Y33357314D01*
X41407314Y33450500D01*
X41407311Y33450502D01*
X41407309Y33450504D01*
X41293189Y33516391D01*
X41293191Y33516391D01*
X41228927Y33533610D01*
X41165892Y33550500D01*
X41034108Y33550500D01*
X40971073Y33533610D01*
X40906809Y33516391D01*
X40792690Y33450504D01*
X40699496Y33357310D01*
X40633609Y33243191D01*
X40633608Y33243186D01*
X40599500Y33115892D01*
X18537103Y33115892D01*
X18516392Y33193186D01*
X18516390Y33193189D01*
X18516390Y33193191D01*
X18450503Y33307310D01*
X18450501Y33307312D01*
X18450500Y33307314D01*
X18357314Y33400500D01*
X18357311Y33400502D01*
X18357309Y33400504D01*
X18243189Y33466391D01*
X18243191Y33466391D01*
X18193799Y33479625D01*
X18115892Y33500500D01*
X17984108Y33500500D01*
X17906200Y33479625D01*
X17856809Y33466391D01*
X17742690Y33400504D01*
X17649496Y33307310D01*
X17583609Y33193191D01*
X17583608Y33193186D01*
X17549500Y33065892D01*
X500500Y33065892D01*
X500500Y34615892D01*
X27749500Y34615892D01*
X27749500Y34484108D01*
X27779579Y34371849D01*
X27783609Y34356810D01*
X27849496Y34242691D01*
X27849498Y34242689D01*
X27849500Y34242686D01*
X27942686Y34149500D01*
X27942688Y34149499D01*
X27942690Y34149497D01*
X28056810Y34083610D01*
X28056808Y34083610D01*
X28056812Y34083609D01*
X28056814Y34083608D01*
X28184108Y34049500D01*
X28184110Y34049500D01*
X28315890Y34049500D01*
X28315892Y34049500D01*
X28377068Y34065892D01*
X37049500Y34065892D01*
X37049500Y33934108D01*
X37079579Y33821849D01*
X37083609Y33806810D01*
X37149496Y33692691D01*
X37149498Y33692689D01*
X37149500Y33692686D01*
X37242686Y33599500D01*
X37242688Y33599499D01*
X37242690Y33599497D01*
X37356810Y33533610D01*
X37356808Y33533610D01*
X37356812Y33533609D01*
X37356814Y33533608D01*
X37484108Y33499500D01*
X37484110Y33499500D01*
X37615890Y33499500D01*
X37615892Y33499500D01*
X37743186Y33533608D01*
X37743188Y33533610D01*
X37743190Y33533610D01*
X37857309Y33599497D01*
X37857309Y33599498D01*
X37857314Y33599500D01*
X37950500Y33692686D01*
X38016392Y33806814D01*
X38050500Y33934108D01*
X38050500Y34065892D01*
X38016392Y34193186D01*
X38016390Y34193189D01*
X38016390Y34193191D01*
X37950503Y34307310D01*
X37950501Y34307312D01*
X37950500Y34307314D01*
X37857314Y34400500D01*
X37857311Y34400502D01*
X37857309Y34400504D01*
X37743189Y34466391D01*
X37743191Y34466391D01*
X37677068Y34484108D01*
X37615892Y34500500D01*
X37484108Y34500500D01*
X37422932Y34484108D01*
X37356809Y34466391D01*
X37242690Y34400504D01*
X37149496Y34307310D01*
X37083609Y34193191D01*
X37083608Y34193186D01*
X37049500Y34065892D01*
X28377068Y34065892D01*
X28443186Y34083608D01*
X28443188Y34083610D01*
X28443190Y34083610D01*
X28557309Y34149497D01*
X28557309Y34149498D01*
X28557314Y34149500D01*
X28650500Y34242686D01*
X28716392Y34356814D01*
X28750500Y34484108D01*
X28750500Y34615892D01*
X28716392Y34743186D01*
X28716390Y34743189D01*
X28716390Y34743191D01*
X28650503Y34857310D01*
X28650501Y34857312D01*
X28650500Y34857314D01*
X28557314Y34950500D01*
X28557311Y34950502D01*
X28557309Y34950504D01*
X28443189Y35016391D01*
X28443191Y35016391D01*
X28393799Y35029625D01*
X28315892Y35050500D01*
X28184108Y35050500D01*
X28106200Y35029625D01*
X28056809Y35016391D01*
X27942690Y34950504D01*
X27849496Y34857310D01*
X27783609Y34743191D01*
X27783608Y34743186D01*
X27749500Y34615892D01*
X500500Y34615892D01*
X500500Y37065892D01*
X40599500Y37065892D01*
X40599500Y36934108D01*
X40629579Y36821849D01*
X40633609Y36806810D01*
X40699496Y36692691D01*
X40699498Y36692689D01*
X40699500Y36692686D01*
X40792686Y36599500D01*
X40792688Y36599499D01*
X40792690Y36599497D01*
X40906810Y36533610D01*
X40906808Y36533610D01*
X40906812Y36533609D01*
X40906814Y36533608D01*
X41034108Y36499500D01*
X41034110Y36499500D01*
X41165890Y36499500D01*
X41165892Y36499500D01*
X41293186Y36533608D01*
X41293188Y36533610D01*
X41293190Y36533610D01*
X41407309Y36599497D01*
X41407309Y36599498D01*
X41407314Y36599500D01*
X41500500Y36692686D01*
X41566392Y36806814D01*
X41600500Y36934108D01*
X41600500Y37065892D01*
X46549500Y37065892D01*
X46549500Y36934108D01*
X46579579Y36821849D01*
X46583609Y36806810D01*
X46649496Y36692691D01*
X46649498Y36692689D01*
X46649500Y36692686D01*
X46742686Y36599500D01*
X46742688Y36599499D01*
X46742690Y36599497D01*
X46856810Y36533610D01*
X46856808Y36533610D01*
X46856812Y36533609D01*
X46856814Y36533608D01*
X46984108Y36499500D01*
X46984110Y36499500D01*
X47115890Y36499500D01*
X47115892Y36499500D01*
X47243186Y36533608D01*
X47243188Y36533610D01*
X47243190Y36533610D01*
X47357309Y36599497D01*
X47357309Y36599498D01*
X47357314Y36599500D01*
X47450500Y36692686D01*
X47516392Y36806814D01*
X47550500Y36934108D01*
X47550500Y37065892D01*
X47516392Y37193186D01*
X47516390Y37193189D01*
X47516390Y37193191D01*
X47450503Y37307310D01*
X47450501Y37307312D01*
X47450500Y37307314D01*
X47357314Y37400500D01*
X47357311Y37400502D01*
X47357309Y37400504D01*
X47243189Y37466391D01*
X47243191Y37466391D01*
X47193799Y37479625D01*
X47115892Y37500500D01*
X46984108Y37500500D01*
X46906200Y37479625D01*
X46856809Y37466391D01*
X46742690Y37400504D01*
X46649496Y37307310D01*
X46583609Y37193191D01*
X46583608Y37193186D01*
X46549500Y37065892D01*
X41600500Y37065892D01*
X41566392Y37193186D01*
X41566390Y37193189D01*
X41566390Y37193191D01*
X41500503Y37307310D01*
X41500501Y37307312D01*
X41500500Y37307314D01*
X41407314Y37400500D01*
X41407311Y37400502D01*
X41407309Y37400504D01*
X41293189Y37466391D01*
X41293191Y37466391D01*
X41243799Y37479625D01*
X41165892Y37500500D01*
X41034108Y37500500D01*
X40956200Y37479625D01*
X40906809Y37466391D01*
X40792690Y37400504D01*
X40699496Y37307310D01*
X40633609Y37193191D01*
X40633608Y37193186D01*
X40599500Y37065892D01*
X500500Y37065892D01*
X500500Y39153392D01*
X37499500Y39153392D01*
X37499500Y39021608D01*
X37505424Y38999500D01*
X37533609Y38894310D01*
X37599496Y38780191D01*
X37599498Y38780189D01*
X37599500Y38780186D01*
X37692686Y38687000D01*
X37692688Y38686999D01*
X37692690Y38686997D01*
X37806810Y38621110D01*
X37806808Y38621110D01*
X37806812Y38621109D01*
X37806814Y38621108D01*
X37934108Y38587000D01*
X37934110Y38587000D01*
X38065890Y38587000D01*
X38065892Y38587000D01*
X38193186Y38621108D01*
X38193188Y38621110D01*
X38193190Y38621110D01*
X38307309Y38686997D01*
X38307309Y38686998D01*
X38307314Y38687000D01*
X38400500Y38780186D01*
X38466392Y38894314D01*
X38500500Y39021608D01*
X38500500Y39153392D01*
X38466392Y39280686D01*
X38466390Y39280689D01*
X38466390Y39280691D01*
X38400503Y39394810D01*
X38400501Y39394812D01*
X38400500Y39394814D01*
X38329422Y39465892D01*
X43299500Y39465892D01*
X43299500Y39334108D01*
X43320561Y39255508D01*
X43333609Y39206810D01*
X43399496Y39092691D01*
X43399498Y39092689D01*
X43399500Y39092686D01*
X43492686Y38999500D01*
X43492688Y38999499D01*
X43492690Y38999497D01*
X43606810Y38933610D01*
X43606808Y38933610D01*
X43606812Y38933609D01*
X43606814Y38933608D01*
X43734108Y38899500D01*
X43734110Y38899500D01*
X43865890Y38899500D01*
X43865892Y38899500D01*
X43993186Y38933608D01*
X43993188Y38933610D01*
X43993190Y38933610D01*
X44107309Y38999497D01*
X44107309Y38999498D01*
X44107314Y38999500D01*
X44200500Y39092686D01*
X44266392Y39206814D01*
X44300500Y39334108D01*
X44300500Y39465892D01*
X44266392Y39593186D01*
X44266390Y39593189D01*
X44266390Y39593191D01*
X44200503Y39707310D01*
X44200501Y39707312D01*
X44200500Y39707314D01*
X44107314Y39800500D01*
X44107311Y39800502D01*
X44107309Y39800504D01*
X43993189Y39866391D01*
X43993191Y39866391D01*
X43943799Y39879625D01*
X43865892Y39900500D01*
X43734108Y39900500D01*
X43656200Y39879625D01*
X43606809Y39866391D01*
X43492690Y39800504D01*
X43399496Y39707310D01*
X43333609Y39593191D01*
X43333608Y39593186D01*
X43299500Y39465892D01*
X38329422Y39465892D01*
X38307314Y39488000D01*
X38307311Y39488002D01*
X38307309Y39488004D01*
X38193189Y39553891D01*
X38193191Y39553891D01*
X38143799Y39567125D01*
X38065892Y39588000D01*
X37934108Y39588000D01*
X37856200Y39567125D01*
X37806809Y39553891D01*
X37692690Y39488004D01*
X37599496Y39394810D01*
X37533609Y39280691D01*
X37520054Y39230100D01*
X37499500Y39153392D01*
X500500Y39153392D01*
X500500Y39796492D01*
X35255900Y39796492D01*
X35255900Y39664708D01*
X35275063Y39593191D01*
X35290009Y39537410D01*
X35355896Y39423291D01*
X35355898Y39423289D01*
X35355900Y39423286D01*
X35449086Y39330100D01*
X35449088Y39330099D01*
X35449090Y39330097D01*
X35563210Y39264210D01*
X35563208Y39264210D01*
X35563212Y39264209D01*
X35563214Y39264208D01*
X35690508Y39230100D01*
X35690510Y39230100D01*
X35822290Y39230100D01*
X35822292Y39230100D01*
X35949586Y39264208D01*
X35949588Y39264210D01*
X35949590Y39264210D01*
X36063709Y39330097D01*
X36063709Y39330098D01*
X36063714Y39330100D01*
X36156900Y39423286D01*
X36222792Y39537414D01*
X36256900Y39664708D01*
X36256900Y39796492D01*
X36222792Y39923786D01*
X36222790Y39923789D01*
X36222790Y39923791D01*
X36156903Y40037910D01*
X36156901Y40037912D01*
X36156900Y40037914D01*
X36063714Y40131100D01*
X36063711Y40131102D01*
X36063709Y40131104D01*
X35949589Y40196991D01*
X35949591Y40196991D01*
X35900199Y40210225D01*
X35822292Y40231100D01*
X35690508Y40231100D01*
X35612600Y40210225D01*
X35563209Y40196991D01*
X35449090Y40131104D01*
X35355896Y40037910D01*
X35290009Y39923791D01*
X35274629Y39866392D01*
X35255900Y39796492D01*
X500500Y39796492D01*
X500500Y41065892D01*
X42849500Y41065892D01*
X42849500Y40934108D01*
X42879579Y40821849D01*
X42883609Y40806810D01*
X42949496Y40692691D01*
X42949498Y40692689D01*
X42949500Y40692686D01*
X43042686Y40599500D01*
X43042688Y40599499D01*
X43042690Y40599497D01*
X43156810Y40533610D01*
X43156808Y40533610D01*
X43156812Y40533609D01*
X43156814Y40533608D01*
X43284108Y40499500D01*
X43284110Y40499500D01*
X43415890Y40499500D01*
X43415892Y40499500D01*
X43543186Y40533608D01*
X43543188Y40533610D01*
X43543190Y40533610D01*
X43657309Y40599497D01*
X43657309Y40599498D01*
X43657314Y40599500D01*
X43750500Y40692686D01*
X43816392Y40806814D01*
X43850500Y40934108D01*
X43850500Y41065892D01*
X43816392Y41193186D01*
X43816390Y41193189D01*
X43816390Y41193191D01*
X43750503Y41307310D01*
X43750501Y41307312D01*
X43750500Y41307314D01*
X43657314Y41400500D01*
X43657311Y41400502D01*
X43657309Y41400504D01*
X43543189Y41466391D01*
X43543191Y41466391D01*
X43493799Y41479625D01*
X43415892Y41500500D01*
X43284108Y41500500D01*
X43206200Y41479625D01*
X43156809Y41466391D01*
X43042690Y41400504D01*
X42949496Y41307310D01*
X42883609Y41193191D01*
X42883608Y41193186D01*
X42849500Y41065892D01*
X500500Y41065892D01*
X500500Y42970892D01*
X34999500Y42970892D01*
X34999500Y42839108D01*
X35015287Y42780191D01*
X35033609Y42711810D01*
X35099496Y42597691D01*
X35099498Y42597689D01*
X35099500Y42597686D01*
X35192686Y42504500D01*
X35192688Y42504499D01*
X35192690Y42504497D01*
X35306810Y42438610D01*
X35306808Y42438610D01*
X35306812Y42438609D01*
X35306814Y42438608D01*
X35434108Y42404500D01*
X35434110Y42404500D01*
X35565890Y42404500D01*
X35565892Y42404500D01*
X35693186Y42438608D01*
X35693188Y42438610D01*
X35693190Y42438610D01*
X35807309Y42504497D01*
X35807309Y42504498D01*
X35807314Y42504500D01*
X35900500Y42597686D01*
X35952066Y42687000D01*
X35966390Y42711810D01*
X35966390Y42711812D01*
X35966392Y42711814D01*
X36000500Y42839108D01*
X36000500Y42970892D01*
X35966392Y43098186D01*
X35966390Y43098189D01*
X35966390Y43098191D01*
X35959352Y43110381D01*
X35934519Y43153392D01*
X37499500Y43153392D01*
X37499500Y43021608D01*
X37522945Y42934110D01*
X37533609Y42894310D01*
X37599496Y42780191D01*
X37599498Y42780189D01*
X37599500Y42780186D01*
X37692686Y42687000D01*
X37692688Y42686999D01*
X37692690Y42686997D01*
X37806810Y42621110D01*
X37806808Y42621110D01*
X37806812Y42621109D01*
X37806814Y42621108D01*
X37934108Y42587000D01*
X37934110Y42587000D01*
X38065890Y42587000D01*
X38065892Y42587000D01*
X38193186Y42621108D01*
X38193188Y42621110D01*
X38193190Y42621110D01*
X38307309Y42686997D01*
X38307309Y42686998D01*
X38307314Y42687000D01*
X38400500Y42780186D01*
X38400503Y42780191D01*
X38466390Y42894310D01*
X38466390Y42894312D01*
X38466392Y42894314D01*
X38500500Y43021608D01*
X38500500Y43065892D01*
X60899500Y43065892D01*
X60899500Y42934108D01*
X60910163Y42894314D01*
X60933609Y42806810D01*
X60999496Y42692691D01*
X60999498Y42692689D01*
X60999500Y42692686D01*
X61092686Y42599500D01*
X61092688Y42599499D01*
X61092690Y42599497D01*
X61206810Y42533610D01*
X61206808Y42533610D01*
X61206812Y42533609D01*
X61206814Y42533608D01*
X61334108Y42499500D01*
X61334110Y42499500D01*
X61465890Y42499500D01*
X61465892Y42499500D01*
X61593186Y42533608D01*
X61593188Y42533610D01*
X61593190Y42533610D01*
X61707309Y42599497D01*
X61707309Y42599498D01*
X61707314Y42599500D01*
X61800500Y42692686D01*
X61811544Y42711814D01*
X61866390Y42806810D01*
X61866390Y42806812D01*
X61866392Y42806814D01*
X61900500Y42934108D01*
X61900500Y43065892D01*
X61866392Y43193186D01*
X61866390Y43193189D01*
X61866390Y43193191D01*
X61800503Y43307310D01*
X61800501Y43307312D01*
X61800500Y43307314D01*
X61707314Y43400500D01*
X61707311Y43400502D01*
X61707309Y43400504D01*
X61593189Y43466391D01*
X61593191Y43466391D01*
X61543799Y43479625D01*
X61465892Y43500500D01*
X61334108Y43500500D01*
X61256200Y43479625D01*
X61206809Y43466391D01*
X61092690Y43400504D01*
X60999496Y43307310D01*
X60933609Y43193191D01*
X60933608Y43193186D01*
X60899500Y43065892D01*
X38500500Y43065892D01*
X38500500Y43153392D01*
X38466392Y43280686D01*
X38466390Y43280689D01*
X38466390Y43280691D01*
X38400503Y43394810D01*
X38400501Y43394812D01*
X38400500Y43394814D01*
X38307314Y43488000D01*
X38307311Y43488002D01*
X38307309Y43488004D01*
X38193189Y43553891D01*
X38193191Y43553891D01*
X38143799Y43567125D01*
X38065892Y43588000D01*
X37934108Y43588000D01*
X37856200Y43567125D01*
X37806809Y43553891D01*
X37692690Y43488004D01*
X37599496Y43394810D01*
X37533609Y43280691D01*
X37533608Y43280686D01*
X37499500Y43153392D01*
X35934519Y43153392D01*
X35900503Y43212310D01*
X35900501Y43212312D01*
X35900500Y43212314D01*
X35807314Y43305500D01*
X35807311Y43305502D01*
X35807309Y43305504D01*
X35693189Y43371391D01*
X35693191Y43371391D01*
X35643799Y43384625D01*
X35565892Y43405500D01*
X35434108Y43405500D01*
X35356200Y43384625D01*
X35306809Y43371391D01*
X35192690Y43305504D01*
X35099496Y43212310D01*
X35033609Y43098191D01*
X35014539Y43027022D01*
X34999500Y42970892D01*
X500500Y42970892D01*
X500500Y45065892D01*
X29549500Y45065892D01*
X29549500Y44934108D01*
X29566595Y44870308D01*
X29583609Y44806810D01*
X29649496Y44692691D01*
X29649498Y44692689D01*
X29649500Y44692686D01*
X29742686Y44599500D01*
X29742688Y44599499D01*
X29742690Y44599497D01*
X29856810Y44533610D01*
X29856808Y44533610D01*
X29856812Y44533609D01*
X29856814Y44533608D01*
X29984108Y44499500D01*
X29984110Y44499500D01*
X30115890Y44499500D01*
X30115892Y44499500D01*
X30243186Y44533608D01*
X30243188Y44533610D01*
X30243190Y44533610D01*
X30357309Y44599497D01*
X30357309Y44599498D01*
X30357314Y44599500D01*
X30450500Y44692686D01*
X30516392Y44806814D01*
X30550500Y44934108D01*
X30550500Y45002092D01*
X38537000Y45002092D01*
X38537000Y44870308D01*
X38554013Y44806814D01*
X38571109Y44743010D01*
X38636996Y44628891D01*
X38636998Y44628889D01*
X38637000Y44628886D01*
X38730186Y44535700D01*
X38730188Y44535699D01*
X38730190Y44535697D01*
X38844310Y44469810D01*
X38844308Y44469810D01*
X38844312Y44469809D01*
X38844314Y44469808D01*
X38971608Y44435700D01*
X38971610Y44435700D01*
X39103390Y44435700D01*
X39103392Y44435700D01*
X39230686Y44469808D01*
X39230688Y44469810D01*
X39230690Y44469810D01*
X39344809Y44535697D01*
X39344809Y44535698D01*
X39344814Y44535700D01*
X39438000Y44628886D01*
X39503892Y44743014D01*
X39538000Y44870308D01*
X39538000Y45002092D01*
X39520905Y45065892D01*
X41499500Y45065892D01*
X41499500Y44934108D01*
X41516595Y44870308D01*
X41533609Y44806810D01*
X41599496Y44692691D01*
X41599498Y44692689D01*
X41599500Y44692686D01*
X41692686Y44599500D01*
X41692688Y44599499D01*
X41692690Y44599497D01*
X41806810Y44533610D01*
X41806808Y44533610D01*
X41806812Y44533609D01*
X41806814Y44533608D01*
X41934108Y44499500D01*
X41934110Y44499500D01*
X42065890Y44499500D01*
X42065892Y44499500D01*
X42193186Y44533608D01*
X42193188Y44533610D01*
X42193190Y44533610D01*
X42307309Y44599497D01*
X42307309Y44599498D01*
X42307314Y44599500D01*
X42400500Y44692686D01*
X42466392Y44806814D01*
X42500500Y44934108D01*
X42500500Y45065892D01*
X42466392Y45193186D01*
X42466390Y45193189D01*
X42466390Y45193191D01*
X42400503Y45307310D01*
X42400501Y45307312D01*
X42400500Y45307314D01*
X42307314Y45400500D01*
X42307311Y45400502D01*
X42307309Y45400504D01*
X42193189Y45466391D01*
X42193191Y45466391D01*
X42143799Y45479625D01*
X42065892Y45500500D01*
X41934108Y45500500D01*
X41856200Y45479625D01*
X41806809Y45466391D01*
X41692690Y45400504D01*
X41599496Y45307310D01*
X41533609Y45193191D01*
X41533608Y45193186D01*
X41499500Y45065892D01*
X39520905Y45065892D01*
X39503892Y45129386D01*
X39467057Y45193186D01*
X39438003Y45243510D01*
X39438001Y45243512D01*
X39438000Y45243514D01*
X39344814Y45336700D01*
X39344811Y45336702D01*
X39344809Y45336704D01*
X39230689Y45402591D01*
X39230691Y45402591D01*
X39181299Y45415825D01*
X39103392Y45436700D01*
X38971608Y45436700D01*
X38893700Y45415825D01*
X38844309Y45402591D01*
X38730190Y45336704D01*
X38636996Y45243510D01*
X38571109Y45129391D01*
X38571108Y45129386D01*
X38537000Y45002092D01*
X30550500Y45002092D01*
X30550500Y45065892D01*
X30516392Y45193186D01*
X30516390Y45193189D01*
X30516390Y45193191D01*
X30450503Y45307310D01*
X30450501Y45307312D01*
X30450500Y45307314D01*
X30357314Y45400500D01*
X30357311Y45400502D01*
X30357309Y45400504D01*
X30243189Y45466391D01*
X30243191Y45466391D01*
X30193799Y45479625D01*
X30115892Y45500500D01*
X29984108Y45500500D01*
X29906200Y45479625D01*
X29856809Y45466391D01*
X29742690Y45400504D01*
X29649496Y45307310D01*
X29583609Y45193191D01*
X29583608Y45193186D01*
X29549500Y45065892D01*
X500500Y45065892D01*
X500500Y51000001D01*
X800000Y51000001D01*
X815407Y50686347D01*
X815407Y50686344D01*
X861483Y50375729D01*
X861489Y50375699D01*
X937789Y50071091D01*
X1043583Y49775418D01*
X1043588Y49775407D01*
X1177853Y49491525D01*
X1339290Y49222186D01*
X1526367Y48969941D01*
X1526373Y48969934D01*
X1592896Y48896537D01*
X1737258Y48737259D01*
X1969941Y48526367D01*
X2222175Y48339298D01*
X2222179Y48339296D01*
X2222184Y48339292D01*
X2491523Y48177855D01*
X2592168Y48130254D01*
X2775413Y48043586D01*
X3071089Y47937791D01*
X3071088Y47937791D01*
X3375697Y47861491D01*
X3375702Y47861490D01*
X3375710Y47861488D01*
X3375717Y47861487D01*
X3375727Y47861485D01*
X3588487Y47829926D01*
X3686345Y47815409D01*
X4000000Y47800000D01*
X4313654Y47815409D01*
X4313667Y47815411D01*
X4624271Y47861485D01*
X4624277Y47861487D01*
X4624289Y47861488D01*
X4928910Y47937791D01*
X5224586Y48043586D01*
X5508469Y48177852D01*
X5508470Y48177853D01*
X5508475Y48177855D01*
X5777814Y48339292D01*
X5777814Y48339293D01*
X5777824Y48339298D01*
X6030058Y48526367D01*
X6262741Y48737259D01*
X6473633Y48969942D01*
X6660702Y49222176D01*
X6711196Y49306420D01*
X6822145Y49491525D01*
X6825017Y49497598D01*
X6956414Y49775414D01*
X6990167Y49869747D01*
X44949500Y49869747D01*
X44949500Y48130254D01*
X44949501Y48130242D01*
X44961132Y48071773D01*
X44961134Y48071767D01*
X44979965Y48043585D01*
X45005448Y48005448D01*
X45071769Y47961133D01*
X45116231Y47952289D01*
X45130241Y47949502D01*
X45130246Y47949502D01*
X45130252Y47949500D01*
X45130253Y47949500D01*
X46869747Y47949500D01*
X46869748Y47949500D01*
X46928231Y47961133D01*
X46994552Y48005448D01*
X47038867Y48071769D01*
X47050500Y48130252D01*
X47050500Y49103468D01*
X47489500Y49103468D01*
X47489500Y48896533D01*
X47529869Y48693582D01*
X47609058Y48502403D01*
X47609059Y48502402D01*
X47724023Y48330345D01*
X47870345Y48184023D01*
X48042402Y48069059D01*
X48233580Y47989870D01*
X48436535Y47949500D01*
X48436536Y47949500D01*
X48643464Y47949500D01*
X48643465Y47949500D01*
X48846420Y47989870D01*
X49037598Y48069059D01*
X49209655Y48184023D01*
X49355977Y48330345D01*
X49470941Y48502402D01*
X49550130Y48693580D01*
X49590500Y48896535D01*
X49590500Y49103465D01*
X49590499Y49103468D01*
X52569500Y49103468D01*
X52569500Y48896533D01*
X52609869Y48693582D01*
X52689058Y48502403D01*
X52689059Y48502402D01*
X52804023Y48330345D01*
X52950345Y48184023D01*
X53122402Y48069059D01*
X53313580Y47989870D01*
X53516535Y47949500D01*
X53516536Y47949500D01*
X53723464Y47949500D01*
X53723465Y47949500D01*
X53926420Y47989870D01*
X54117598Y48069059D01*
X54289655Y48184023D01*
X54435977Y48330345D01*
X54550941Y48502402D01*
X54630130Y48693580D01*
X54670500Y48896535D01*
X54670500Y49103465D01*
X54670499Y49103468D01*
X55109500Y49103468D01*
X55109500Y48896533D01*
X55149869Y48693582D01*
X55229058Y48502403D01*
X55229059Y48502402D01*
X55344023Y48330345D01*
X55490345Y48184023D01*
X55662402Y48069059D01*
X55853580Y47989870D01*
X56056535Y47949500D01*
X56056536Y47949500D01*
X56263464Y47949500D01*
X56263465Y47949500D01*
X56466420Y47989870D01*
X56657598Y48069059D01*
X56829655Y48184023D01*
X56975977Y48330345D01*
X57090941Y48502402D01*
X57170130Y48693580D01*
X57210500Y48896535D01*
X57210500Y49103465D01*
X57170130Y49306420D01*
X57090941Y49497598D01*
X56975977Y49669655D01*
X56829655Y49815977D01*
X56749182Y49869747D01*
X56657597Y49930942D01*
X56466418Y50010131D01*
X56263467Y50050500D01*
X56263465Y50050500D01*
X56056535Y50050500D01*
X56056532Y50050500D01*
X55853581Y50010131D01*
X55662402Y49930942D01*
X55490348Y49815980D01*
X55344020Y49669652D01*
X55229058Y49497598D01*
X55149869Y49306419D01*
X55109500Y49103468D01*
X54670499Y49103468D01*
X54630130Y49306420D01*
X54550941Y49497598D01*
X54435977Y49669655D01*
X54289655Y49815977D01*
X54209182Y49869747D01*
X54117597Y49930942D01*
X53926418Y50010131D01*
X53723467Y50050500D01*
X53723465Y50050500D01*
X53516535Y50050500D01*
X53516532Y50050500D01*
X53313581Y50010131D01*
X53122402Y49930942D01*
X52950348Y49815980D01*
X52804020Y49669652D01*
X52689058Y49497598D01*
X52609869Y49306419D01*
X52569500Y49103468D01*
X49590499Y49103468D01*
X49550130Y49306420D01*
X49470941Y49497598D01*
X49355977Y49669655D01*
X49209655Y49815977D01*
X49129182Y49869747D01*
X49037597Y49930942D01*
X48846418Y50010131D01*
X48643467Y50050500D01*
X48643465Y50050500D01*
X48436535Y50050500D01*
X48436532Y50050500D01*
X48233581Y50010131D01*
X48042402Y49930942D01*
X47870348Y49815980D01*
X47724020Y49669652D01*
X47609058Y49497598D01*
X47529869Y49306419D01*
X47489500Y49103468D01*
X47050500Y49103468D01*
X47050500Y49869748D01*
X47038867Y49928231D01*
X46994552Y49994552D01*
X46994548Y49994555D01*
X46928233Y50038866D01*
X46928231Y50038867D01*
X46928228Y50038868D01*
X46928227Y50038868D01*
X46869758Y50050499D01*
X46869748Y50050500D01*
X45130252Y50050500D01*
X45130251Y50050500D01*
X45130241Y50050499D01*
X45071772Y50038868D01*
X45071766Y50038866D01*
X45005451Y49994555D01*
X45005445Y49994549D01*
X44961134Y49928234D01*
X44961132Y49928228D01*
X44949501Y49869759D01*
X44949500Y49869747D01*
X6990167Y49869747D01*
X7062209Y50071090D01*
X7138512Y50375711D01*
X7184591Y50686346D01*
X7200000Y51000000D01*
X7200000Y51000001D01*
X62800000Y51000001D01*
X62815407Y50686347D01*
X62815407Y50686344D01*
X62861483Y50375729D01*
X62861489Y50375699D01*
X62937789Y50071091D01*
X63043583Y49775418D01*
X63043588Y49775407D01*
X63177853Y49491525D01*
X63339290Y49222186D01*
X63526367Y48969941D01*
X63526373Y48969934D01*
X63592896Y48896537D01*
X63737258Y48737259D01*
X63969941Y48526367D01*
X64222175Y48339298D01*
X64222179Y48339296D01*
X64222184Y48339292D01*
X64491523Y48177855D01*
X64592168Y48130254D01*
X64775413Y48043586D01*
X65071089Y47937791D01*
X65071088Y47937791D01*
X65375697Y47861491D01*
X65375702Y47861490D01*
X65375710Y47861488D01*
X65375717Y47861487D01*
X65375727Y47861485D01*
X65588487Y47829926D01*
X65686345Y47815409D01*
X66000000Y47800000D01*
X66313654Y47815409D01*
X66313667Y47815411D01*
X66624271Y47861485D01*
X66624277Y47861487D01*
X66624289Y47861488D01*
X66928910Y47937791D01*
X67224586Y48043586D01*
X67508469Y48177852D01*
X67508470Y48177853D01*
X67508475Y48177855D01*
X67777814Y48339292D01*
X67777814Y48339293D01*
X67777824Y48339298D01*
X68030058Y48526367D01*
X68262741Y48737259D01*
X68473633Y48969942D01*
X68660702Y49222176D01*
X68711196Y49306420D01*
X68822145Y49491525D01*
X68825017Y49497598D01*
X68956414Y49775414D01*
X69062209Y50071090D01*
X69138512Y50375711D01*
X69184591Y50686346D01*
X69200000Y51000000D01*
X69184591Y51313655D01*
X69138512Y51624290D01*
X69062209Y51928911D01*
X68956414Y52224587D01*
X68822148Y52508470D01*
X68822145Y52508477D01*
X68660708Y52777816D01*
X68660704Y52777821D01*
X68660702Y52777825D01*
X68473633Y53030059D01*
X68262741Y53262742D01*
X68030058Y53473634D01*
X67777824Y53660703D01*
X67777821Y53660705D01*
X67777814Y53660710D01*
X67508475Y53822147D01*
X67224593Y53956412D01*
X67224582Y53956417D01*
X66928908Y54062211D01*
X66928910Y54062211D01*
X66624301Y54138511D01*
X66624271Y54138517D01*
X66313655Y54184593D01*
X66014028Y54199311D01*
X66000000Y54200000D01*
X65999999Y54200000D01*
X65686345Y54184593D01*
X65686342Y54184593D01*
X65375727Y54138517D01*
X65375697Y54138511D01*
X65071089Y54062211D01*
X64775416Y53956417D01*
X64775405Y53956412D01*
X64491523Y53822147D01*
X64222184Y53660710D01*
X63969939Y53473633D01*
X63969932Y53473627D01*
X63737272Y53262756D01*
X63737244Y53262728D01*
X63526373Y53030068D01*
X63526367Y53030061D01*
X63339290Y52777816D01*
X63177853Y52508477D01*
X63043588Y52224595D01*
X63043583Y52224584D01*
X62937789Y51928911D01*
X62861489Y51624303D01*
X62861483Y51624273D01*
X62815407Y51313658D01*
X62815407Y51313655D01*
X62800000Y51000001D01*
X7200000Y51000001D01*
X7184591Y51313655D01*
X7138512Y51624290D01*
X7062209Y51928911D01*
X6956414Y52224587D01*
X6822148Y52508470D01*
X6822145Y52508477D01*
X6660708Y52777816D01*
X6660704Y52777821D01*
X6660702Y52777825D01*
X6473633Y53030059D01*
X6262741Y53262742D01*
X6030058Y53473634D01*
X5777824Y53660703D01*
X5777821Y53660705D01*
X5777814Y53660710D01*
X5508475Y53822147D01*
X5224593Y53956412D01*
X5224582Y53956417D01*
X4928908Y54062211D01*
X4928910Y54062211D01*
X4624301Y54138511D01*
X4624271Y54138517D01*
X4313655Y54184593D01*
X4014028Y54199311D01*
X4000000Y54200000D01*
X3999999Y54200000D01*
X3686345Y54184593D01*
X3686342Y54184593D01*
X3375727Y54138517D01*
X3375697Y54138511D01*
X3071089Y54062211D01*
X2775416Y53956417D01*
X2775405Y53956412D01*
X2491523Y53822147D01*
X2222184Y53660710D01*
X1969939Y53473633D01*
X1969932Y53473627D01*
X1737272Y53262756D01*
X1737244Y53262728D01*
X1526373Y53030068D01*
X1526367Y53030061D01*
X1339290Y52777816D01*
X1177853Y52508477D01*
X1043588Y52224595D01*
X1043583Y52224584D01*
X937789Y51928911D01*
X861489Y51624303D01*
X861483Y51624273D01*
X815407Y51313658D01*
X815407Y51313655D01*
X800000Y51000001D01*
X500500Y51000001D01*
X500500Y54400500D01*
X519407Y54458691D01*
X568907Y54494655D01*
X599500Y54499500D01*
X69400500Y54499500D01*
X69458691Y54480593D01*
G37*
%TD.AperFunction*%
%TD*%
M02*
