%TF.GenerationSoftware,KiCad,Pcbnew,10.0.6*%
%TF.CreationDate,2026-10-06T22:04:52+02:00*%
%TF.ProjectId,radio-usb-controller,72616469-6f2d-4757-9362-2d636f6e7472,R01.3*%
%TF.SameCoordinates,Original*%
%TF.FileFunction,Legend,Top*%
%TF.FilePolarity,Positive*%
%FSLAX46Y46*%
G04 Gerber Fmt 4.6, Leading zero omitted, Abs format (unit mm)*
G04 Created by KiCad (PCBNEW 10.0.6) date 2026-10-06 22:04:52*
%MOMM*%
%LPD*%
G01*
G04 APERTURE LIST*
G04 Aperture macros list*
%AMRoundRect*
0 Rectangle with rounded corners*
0 $1 Rounding radius*
0 $2 $3 $4 $5 $6 $7 $8 $9 X,Y pos of 4 corners*
0 Add a 4 corners polygon primitive as box body*
4,1,4,$2,$3,$4,$5,$6,$7,$8,$9,$2,$3,0*
0 Add four circle primitives for the rounded corners*
1,1,$1+$1,$2,$3*
1,1,$1+$1,$4,$5*
1,1,$1+$1,$6,$7*
1,1,$1+$1,$8,$9*
0 Add four rect primitives between the rounded corners*
20,1,$1+$1,$2,$3,$4,$5,0*
20,1,$1+$1,$4,$5,$6,$7,0*
20,1,$1+$1,$6,$7,$8,$9,0*
20,1,$1+$1,$8,$9,$2,$3,0*%
G04 Aperture macros list end*
%ADD10C,0.150000*%
%ADD11C,0.120000*%
%ADD12RoundRect,0.250000X-0.250000X-0.475000X0.250000X-0.475000X0.250000X0.475000X-0.250000X0.475000X0*%
%ADD13C,1.500000*%
%ADD14RoundRect,0.250000X0.250000X0.475000X-0.250000X0.475000X-0.250000X-0.475000X0.250000X-0.475000X0*%
%ADD15RoundRect,0.250000X0.450000X-0.262500X0.450000X0.262500X-0.450000X0.262500X-0.450000X-0.262500X0*%
%ADD16RoundRect,0.250000X-0.262500X-0.450000X0.262500X-0.450000X0.262500X0.450000X-0.262500X0.450000X0*%
%ADD17RoundRect,0.250000X-0.600000X-0.600000X0.600000X-0.600000X0.600000X0.600000X-0.600000X0.600000X0*%
%ADD18C,1.700000*%
%ADD19R,1.500000X1.500000*%
%ADD20C,3.600000*%
%ADD21RoundRect,0.250000X0.475000X-0.250000X0.475000X0.250000X-0.475000X0.250000X-0.475000X-0.250000X0*%
%ADD22C,3.200000*%
%ADD23RoundRect,0.250000X-0.400000X-0.300000X0.400000X-0.300000X0.400000X0.300000X-0.400000X0.300000X0*%
%ADD24R,1.700000X1.700000*%
%ADD25RoundRect,0.250000X-0.475000X0.250000X-0.475000X-0.250000X0.475000X-0.250000X0.475000X0.250000X0*%
%ADD26RoundRect,0.150000X0.512500X0.150000X-0.512500X0.150000X-0.512500X-0.150000X0.512500X-0.150000X0*%
%ADD27C,2.000000*%
%ADD28RoundRect,0.075000X-0.662500X-0.075000X0.662500X-0.075000X0.662500X0.075000X-0.662500X0.075000X0*%
%ADD29RoundRect,0.075000X-0.075000X-0.662500X0.075000X-0.662500X0.075000X0.662500X-0.075000X0.662500X0*%
%ADD30RoundRect,0.250000X0.262500X0.450000X-0.262500X0.450000X-0.262500X-0.450000X0.262500X-0.450000X0*%
%ADD31RoundRect,0.150000X-0.825000X-0.150000X0.825000X-0.150000X0.825000X0.150000X-0.825000X0.150000X0*%
%ADD32RoundRect,0.243750X-0.243750X-0.456250X0.243750X-0.456250X0.243750X0.456250X-0.243750X0.456250X0*%
%ADD33RoundRect,0.150000X-0.512500X-0.150000X0.512500X-0.150000X0.512500X0.150000X-0.512500X0.150000X0*%
%ADD34RoundRect,0.250000X-0.450000X0.262500X-0.450000X-0.262500X0.450000X-0.262500X0.450000X0.262500X0*%
%ADD35RoundRect,0.150000X-0.587500X-0.150000X0.587500X-0.150000X0.587500X0.150000X-0.587500X0.150000X0*%
%ADD36RoundRect,0.270000X0.630000X0.630000X-0.630000X0.630000X-0.630000X-0.630000X0.630000X-0.630000X0*%
G04 APERTURE END LIST*
D10*
X7357142Y23545181D02*
X7023809Y24021372D01*
X6785714Y23545181D02*
X6785714Y24545181D01*
X6785714Y24545181D02*
X7166666Y24545181D01*
X7166666Y24545181D02*
X7261904Y24497562D01*
X7261904Y24497562D02*
X7309523Y24449943D01*
X7309523Y24449943D02*
X7357142Y24354705D01*
X7357142Y24354705D02*
X7357142Y24211848D01*
X7357142Y24211848D02*
X7309523Y24116610D01*
X7309523Y24116610D02*
X7261904Y24068991D01*
X7261904Y24068991D02*
X7166666Y24021372D01*
X7166666Y24021372D02*
X6785714Y24021372D01*
X7738095Y23830896D02*
X8214285Y23830896D01*
X7642857Y23545181D02*
X7976190Y24545181D01*
X7976190Y24545181D02*
X8309523Y23545181D01*
X8642857Y23545181D02*
X8642857Y24545181D01*
X8642857Y24545181D02*
X8880952Y24545181D01*
X8880952Y24545181D02*
X9023809Y24497562D01*
X9023809Y24497562D02*
X9119047Y24402324D01*
X9119047Y24402324D02*
X9166666Y24307086D01*
X9166666Y24307086D02*
X9214285Y24116610D01*
X9214285Y24116610D02*
X9214285Y23973753D01*
X9214285Y23973753D02*
X9166666Y23783277D01*
X9166666Y23783277D02*
X9119047Y23688039D01*
X9119047Y23688039D02*
X9023809Y23592800D01*
X9023809Y23592800D02*
X8880952Y23545181D01*
X8880952Y23545181D02*
X8642857Y23545181D01*
X9642857Y23545181D02*
X9642857Y24545181D01*
X10309523Y24545181D02*
X10499999Y24545181D01*
X10499999Y24545181D02*
X10595237Y24497562D01*
X10595237Y24497562D02*
X10690475Y24402324D01*
X10690475Y24402324D02*
X10738094Y24211848D01*
X10738094Y24211848D02*
X10738094Y23878515D01*
X10738094Y23878515D02*
X10690475Y23688039D01*
X10690475Y23688039D02*
X10595237Y23592800D01*
X10595237Y23592800D02*
X10499999Y23545181D01*
X10499999Y23545181D02*
X10309523Y23545181D01*
X10309523Y23545181D02*
X10214285Y23592800D01*
X10214285Y23592800D02*
X10119047Y23688039D01*
X10119047Y23688039D02*
X10071428Y23878515D01*
X10071428Y23878515D02*
X10071428Y24211848D01*
X10071428Y24211848D02*
X10119047Y24402324D01*
X10119047Y24402324D02*
X10214285Y24497562D01*
X10214285Y24497562D02*
X10309523Y24545181D01*
X11166666Y23640420D02*
X11214285Y23592800D01*
X11214285Y23592800D02*
X11166666Y23545181D01*
X11166666Y23545181D02*
X11119047Y23592800D01*
X11119047Y23592800D02*
X11166666Y23640420D01*
X11166666Y23640420D02*
X11166666Y23545181D01*
X11166666Y24164229D02*
X11214285Y24116610D01*
X11214285Y24116610D02*
X11166666Y24068991D01*
X11166666Y24068991D02*
X11119047Y24116610D01*
X11119047Y24116610D02*
X11166666Y24164229D01*
X11166666Y24164229D02*
X11166666Y24068991D01*
X12309523Y24545181D02*
X12928570Y24545181D01*
X12928570Y24545181D02*
X12595237Y24164229D01*
X12595237Y24164229D02*
X12738094Y24164229D01*
X12738094Y24164229D02*
X12833332Y24116610D01*
X12833332Y24116610D02*
X12880951Y24068991D01*
X12880951Y24068991D02*
X12928570Y23973753D01*
X12928570Y23973753D02*
X12928570Y23735658D01*
X12928570Y23735658D02*
X12880951Y23640420D01*
X12880951Y23640420D02*
X12833332Y23592800D01*
X12833332Y23592800D02*
X12738094Y23545181D01*
X12738094Y23545181D02*
X12452380Y23545181D01*
X12452380Y23545181D02*
X12357142Y23592800D01*
X12357142Y23592800D02*
X12309523Y23640420D01*
X13214285Y24545181D02*
X13547618Y23545181D01*
X13547618Y23545181D02*
X13880951Y24545181D01*
X14119047Y24545181D02*
X14738094Y24545181D01*
X14738094Y24545181D02*
X14404761Y24164229D01*
X14404761Y24164229D02*
X14547618Y24164229D01*
X14547618Y24164229D02*
X14642856Y24116610D01*
X14642856Y24116610D02*
X14690475Y24068991D01*
X14690475Y24068991D02*
X14738094Y23973753D01*
X14738094Y23973753D02*
X14738094Y23735658D01*
X14738094Y23735658D02*
X14690475Y23640420D01*
X14690475Y23640420D02*
X14642856Y23592800D01*
X14642856Y23592800D02*
X14547618Y23545181D01*
X14547618Y23545181D02*
X14261904Y23545181D01*
X14261904Y23545181D02*
X14166666Y23592800D01*
X14166666Y23592800D02*
X14119047Y23640420D01*
X16119047Y24545181D02*
X16309523Y24545181D01*
X16309523Y24545181D02*
X16404761Y24497562D01*
X16404761Y24497562D02*
X16499999Y24402324D01*
X16499999Y24402324D02*
X16547618Y24211848D01*
X16547618Y24211848D02*
X16547618Y23878515D01*
X16547618Y23878515D02*
X16499999Y23688039D01*
X16499999Y23688039D02*
X16404761Y23592800D01*
X16404761Y23592800D02*
X16309523Y23545181D01*
X16309523Y23545181D02*
X16119047Y23545181D01*
X16119047Y23545181D02*
X16023809Y23592800D01*
X16023809Y23592800D02*
X15928571Y23688039D01*
X15928571Y23688039D02*
X15880952Y23878515D01*
X15880952Y23878515D02*
X15880952Y24211848D01*
X15880952Y24211848D02*
X15928571Y24402324D01*
X15928571Y24402324D02*
X16023809Y24497562D01*
X16023809Y24497562D02*
X16119047Y24545181D01*
X16976190Y23545181D02*
X16976190Y24545181D01*
X16976190Y24545181D02*
X17547618Y23545181D01*
X17547618Y23545181D02*
X17547618Y24545181D01*
X18499999Y23545181D02*
X18023809Y23545181D01*
X18023809Y23545181D02*
X18023809Y24545181D01*
X19023809Y24021372D02*
X19023809Y23545181D01*
X18690476Y24545181D02*
X19023809Y24021372D01*
X19023809Y24021372D02*
X19357142Y24545181D01*
X31047620Y2545181D02*
X31285715Y1545181D01*
X31285715Y1545181D02*
X31476191Y2259467D01*
X31476191Y2259467D02*
X31666667Y1545181D01*
X31666667Y1545181D02*
X31904763Y2545181D01*
X32285715Y1545181D02*
X32285715Y2545181D01*
X33333333Y1640420D02*
X33285714Y1592800D01*
X33285714Y1592800D02*
X33142857Y1545181D01*
X33142857Y1545181D02*
X33047619Y1545181D01*
X33047619Y1545181D02*
X32904762Y1592800D01*
X32904762Y1592800D02*
X32809524Y1688039D01*
X32809524Y1688039D02*
X32761905Y1783277D01*
X32761905Y1783277D02*
X32714286Y1973753D01*
X32714286Y1973753D02*
X32714286Y2116610D01*
X32714286Y2116610D02*
X32761905Y2307086D01*
X32761905Y2307086D02*
X32809524Y2402324D01*
X32809524Y2402324D02*
X32904762Y2497562D01*
X32904762Y2497562D02*
X33047619Y2545181D01*
X33047619Y2545181D02*
X33142857Y2545181D01*
X33142857Y2545181D02*
X33285714Y2497562D01*
X33285714Y2497562D02*
X33333333Y2449943D01*
X33761905Y1545181D02*
X33761905Y2545181D01*
X35571428Y1545181D02*
X35238095Y2021372D01*
X35000000Y1545181D02*
X35000000Y2545181D01*
X35000000Y2545181D02*
X35380952Y2545181D01*
X35380952Y2545181D02*
X35476190Y2497562D01*
X35476190Y2497562D02*
X35523809Y2449943D01*
X35523809Y2449943D02*
X35571428Y2354705D01*
X35571428Y2354705D02*
X35571428Y2211848D01*
X35571428Y2211848D02*
X35523809Y2116610D01*
X35523809Y2116610D02*
X35476190Y2068991D01*
X35476190Y2068991D02*
X35380952Y2021372D01*
X35380952Y2021372D02*
X35000000Y2021372D01*
X36190476Y2545181D02*
X36285714Y2545181D01*
X36285714Y2545181D02*
X36380952Y2497562D01*
X36380952Y2497562D02*
X36428571Y2449943D01*
X36428571Y2449943D02*
X36476190Y2354705D01*
X36476190Y2354705D02*
X36523809Y2164229D01*
X36523809Y2164229D02*
X36523809Y1926134D01*
X36523809Y1926134D02*
X36476190Y1735658D01*
X36476190Y1735658D02*
X36428571Y1640420D01*
X36428571Y1640420D02*
X36380952Y1592800D01*
X36380952Y1592800D02*
X36285714Y1545181D01*
X36285714Y1545181D02*
X36190476Y1545181D01*
X36190476Y1545181D02*
X36095238Y1592800D01*
X36095238Y1592800D02*
X36047619Y1640420D01*
X36047619Y1640420D02*
X36000000Y1735658D01*
X36000000Y1735658D02*
X35952381Y1926134D01*
X35952381Y1926134D02*
X35952381Y2164229D01*
X35952381Y2164229D02*
X36000000Y2354705D01*
X36000000Y2354705D02*
X36047619Y2449943D01*
X36047619Y2449943D02*
X36095238Y2497562D01*
X36095238Y2497562D02*
X36190476Y2545181D01*
X37476190Y1545181D02*
X36904762Y1545181D01*
X37190476Y1545181D02*
X37190476Y2545181D01*
X37190476Y2545181D02*
X37095238Y2402324D01*
X37095238Y2402324D02*
X37000000Y2307086D01*
X37000000Y2307086D02*
X36904762Y2259467D01*
X37904762Y1640420D02*
X37952381Y1592800D01*
X37952381Y1592800D02*
X37904762Y1545181D01*
X37904762Y1545181D02*
X37857143Y1592800D01*
X37857143Y1592800D02*
X37904762Y1640420D01*
X37904762Y1640420D02*
X37904762Y1545181D01*
X38285714Y2545181D02*
X38904761Y2545181D01*
X38904761Y2545181D02*
X38571428Y2164229D01*
X38571428Y2164229D02*
X38714285Y2164229D01*
X38714285Y2164229D02*
X38809523Y2116610D01*
X38809523Y2116610D02*
X38857142Y2068991D01*
X38857142Y2068991D02*
X38904761Y1973753D01*
X38904761Y1973753D02*
X38904761Y1735658D01*
X38904761Y1735658D02*
X38857142Y1640420D01*
X38857142Y1640420D02*
X38809523Y1592800D01*
X38809523Y1592800D02*
X38714285Y1545181D01*
X38714285Y1545181D02*
X38428571Y1545181D01*
X38428571Y1545181D02*
X38333333Y1592800D01*
X38333333Y1592800D02*
X38285714Y1640420D01*
X40380952Y51592800D02*
X40523809Y51545181D01*
X40523809Y51545181D02*
X40761904Y51545181D01*
X40761904Y51545181D02*
X40857142Y51592800D01*
X40857142Y51592800D02*
X40904761Y51640420D01*
X40904761Y51640420D02*
X40952380Y51735658D01*
X40952380Y51735658D02*
X40952380Y51830896D01*
X40952380Y51830896D02*
X40904761Y51926134D01*
X40904761Y51926134D02*
X40857142Y51973753D01*
X40857142Y51973753D02*
X40761904Y52021372D01*
X40761904Y52021372D02*
X40571428Y52068991D01*
X40571428Y52068991D02*
X40476190Y52116610D01*
X40476190Y52116610D02*
X40428571Y52164229D01*
X40428571Y52164229D02*
X40380952Y52259467D01*
X40380952Y52259467D02*
X40380952Y52354705D01*
X40380952Y52354705D02*
X40428571Y52449943D01*
X40428571Y52449943D02*
X40476190Y52497562D01*
X40476190Y52497562D02*
X40571428Y52545181D01*
X40571428Y52545181D02*
X40809523Y52545181D01*
X40809523Y52545181D02*
X40952380Y52497562D01*
X41285714Y52545181D02*
X41523809Y51545181D01*
X41523809Y51545181D02*
X41714285Y52259467D01*
X41714285Y52259467D02*
X41904761Y51545181D01*
X41904761Y51545181D02*
X42142857Y52545181D01*
X42523809Y51545181D02*
X42523809Y52545181D01*
X42523809Y52545181D02*
X42761904Y52545181D01*
X42761904Y52545181D02*
X42904761Y52497562D01*
X42904761Y52497562D02*
X42999999Y52402324D01*
X42999999Y52402324D02*
X43047618Y52307086D01*
X43047618Y52307086D02*
X43095237Y52116610D01*
X43095237Y52116610D02*
X43095237Y51973753D01*
X43095237Y51973753D02*
X43047618Y51783277D01*
X43047618Y51783277D02*
X42999999Y51688039D01*
X42999999Y51688039D02*
X42904761Y51592800D01*
X42904761Y51592800D02*
X42761904Y51545181D01*
X42761904Y51545181D02*
X42523809Y51545181D01*
X43523809Y51640420D02*
X43571428Y51592800D01*
X43571428Y51592800D02*
X43523809Y51545181D01*
X43523809Y51545181D02*
X43476190Y51592800D01*
X43476190Y51592800D02*
X43523809Y51640420D01*
X43523809Y51640420D02*
X43523809Y51545181D01*
X43523809Y52164229D02*
X43571428Y52116610D01*
X43571428Y52116610D02*
X43523809Y52068991D01*
X43523809Y52068991D02*
X43476190Y52116610D01*
X43476190Y52116610D02*
X43523809Y52164229D01*
X43523809Y52164229D02*
X43523809Y52068991D01*
X44714285Y51592800D02*
X44857142Y51545181D01*
X44857142Y51545181D02*
X45095237Y51545181D01*
X45095237Y51545181D02*
X45190475Y51592800D01*
X45190475Y51592800D02*
X45238094Y51640420D01*
X45238094Y51640420D02*
X45285713Y51735658D01*
X45285713Y51735658D02*
X45285713Y51830896D01*
X45285713Y51830896D02*
X45238094Y51926134D01*
X45238094Y51926134D02*
X45190475Y51973753D01*
X45190475Y51973753D02*
X45095237Y52021372D01*
X45095237Y52021372D02*
X44904761Y52068991D01*
X44904761Y52068991D02*
X44809523Y52116610D01*
X44809523Y52116610D02*
X44761904Y52164229D01*
X44761904Y52164229D02*
X44714285Y52259467D01*
X44714285Y52259467D02*
X44714285Y52354705D01*
X44714285Y52354705D02*
X44761904Y52449943D01*
X44761904Y52449943D02*
X44809523Y52497562D01*
X44809523Y52497562D02*
X44904761Y52545181D01*
X44904761Y52545181D02*
X45142856Y52545181D01*
X45142856Y52545181D02*
X45285713Y52497562D01*
X45714285Y52068991D02*
X46047618Y52068991D01*
X46190475Y51545181D02*
X45714285Y51545181D01*
X45714285Y51545181D02*
X45714285Y52545181D01*
X45714285Y52545181D02*
X46190475Y52545181D01*
X46619047Y51545181D02*
X46619047Y52545181D01*
X46619047Y52545181D02*
X47190475Y51545181D01*
X47190475Y51545181D02*
X47190475Y52545181D01*
X47619047Y51592800D02*
X47761904Y51545181D01*
X47761904Y51545181D02*
X47999999Y51545181D01*
X47999999Y51545181D02*
X48095237Y51592800D01*
X48095237Y51592800D02*
X48142856Y51640420D01*
X48142856Y51640420D02*
X48190475Y51735658D01*
X48190475Y51735658D02*
X48190475Y51830896D01*
X48190475Y51830896D02*
X48142856Y51926134D01*
X48142856Y51926134D02*
X48095237Y51973753D01*
X48095237Y51973753D02*
X47999999Y52021372D01*
X47999999Y52021372D02*
X47809523Y52068991D01*
X47809523Y52068991D02*
X47714285Y52116610D01*
X47714285Y52116610D02*
X47666666Y52164229D01*
X47666666Y52164229D02*
X47619047Y52259467D01*
X47619047Y52259467D02*
X47619047Y52354705D01*
X47619047Y52354705D02*
X47666666Y52449943D01*
X47666666Y52449943D02*
X47714285Y52497562D01*
X47714285Y52497562D02*
X47809523Y52545181D01*
X47809523Y52545181D02*
X48047618Y52545181D01*
X48047618Y52545181D02*
X48190475Y52497562D01*
X48619047Y52068991D02*
X48952380Y52068991D01*
X49095237Y51545181D02*
X48619047Y51545181D01*
X48619047Y51545181D02*
X48619047Y52545181D01*
X48619047Y52545181D02*
X49095237Y52545181D01*
X50476190Y52545181D02*
X50666666Y52545181D01*
X50666666Y52545181D02*
X50761904Y52497562D01*
X50761904Y52497562D02*
X50857142Y52402324D01*
X50857142Y52402324D02*
X50904761Y52211848D01*
X50904761Y52211848D02*
X50904761Y51878515D01*
X50904761Y51878515D02*
X50857142Y51688039D01*
X50857142Y51688039D02*
X50761904Y51592800D01*
X50761904Y51592800D02*
X50666666Y51545181D01*
X50666666Y51545181D02*
X50476190Y51545181D01*
X50476190Y51545181D02*
X50380952Y51592800D01*
X50380952Y51592800D02*
X50285714Y51688039D01*
X50285714Y51688039D02*
X50238095Y51878515D01*
X50238095Y51878515D02*
X50238095Y52211848D01*
X50238095Y52211848D02*
X50285714Y52402324D01*
X50285714Y52402324D02*
X50380952Y52497562D01*
X50380952Y52497562D02*
X50476190Y52545181D01*
X51333333Y51545181D02*
X51333333Y52545181D01*
X51333333Y52545181D02*
X51904761Y51545181D01*
X51904761Y51545181D02*
X51904761Y52545181D01*
X52857142Y51545181D02*
X52380952Y51545181D01*
X52380952Y51545181D02*
X52380952Y52545181D01*
X53380952Y52021372D02*
X53380952Y51545181D01*
X53047619Y52545181D02*
X53380952Y52021372D01*
X53380952Y52021372D02*
X53714285Y52545181D01*
X62738095Y17545181D02*
X62738095Y16735658D01*
X62738095Y16735658D02*
X62785714Y16640420D01*
X62785714Y16640420D02*
X62833333Y16592800D01*
X62833333Y16592800D02*
X62928571Y16545181D01*
X62928571Y16545181D02*
X63119047Y16545181D01*
X63119047Y16545181D02*
X63214285Y16592800D01*
X63214285Y16592800D02*
X63261904Y16640420D01*
X63261904Y16640420D02*
X63309523Y16735658D01*
X63309523Y16735658D02*
X63309523Y17545181D01*
X63738095Y16592800D02*
X63880952Y16545181D01*
X63880952Y16545181D02*
X64119047Y16545181D01*
X64119047Y16545181D02*
X64214285Y16592800D01*
X64214285Y16592800D02*
X64261904Y16640420D01*
X64261904Y16640420D02*
X64309523Y16735658D01*
X64309523Y16735658D02*
X64309523Y16830896D01*
X64309523Y16830896D02*
X64261904Y16926134D01*
X64261904Y16926134D02*
X64214285Y16973753D01*
X64214285Y16973753D02*
X64119047Y17021372D01*
X64119047Y17021372D02*
X63928571Y17068991D01*
X63928571Y17068991D02*
X63833333Y17116610D01*
X63833333Y17116610D02*
X63785714Y17164229D01*
X63785714Y17164229D02*
X63738095Y17259467D01*
X63738095Y17259467D02*
X63738095Y17354705D01*
X63738095Y17354705D02*
X63785714Y17449943D01*
X63785714Y17449943D02*
X63833333Y17497562D01*
X63833333Y17497562D02*
X63928571Y17545181D01*
X63928571Y17545181D02*
X64166666Y17545181D01*
X64166666Y17545181D02*
X64309523Y17497562D01*
X65071428Y17068991D02*
X65214285Y17021372D01*
X65214285Y17021372D02*
X65261904Y16973753D01*
X65261904Y16973753D02*
X65309523Y16878515D01*
X65309523Y16878515D02*
X65309523Y16735658D01*
X65309523Y16735658D02*
X65261904Y16640420D01*
X65261904Y16640420D02*
X65214285Y16592800D01*
X65214285Y16592800D02*
X65119047Y16545181D01*
X65119047Y16545181D02*
X64738095Y16545181D01*
X64738095Y16545181D02*
X64738095Y17545181D01*
X64738095Y17545181D02*
X65071428Y17545181D01*
X65071428Y17545181D02*
X65166666Y17497562D01*
X65166666Y17497562D02*
X65214285Y17449943D01*
X65214285Y17449943D02*
X65261904Y17354705D01*
X65261904Y17354705D02*
X65261904Y17259467D01*
X65261904Y17259467D02*
X65214285Y17164229D01*
X65214285Y17164229D02*
X65166666Y17116610D01*
X65166666Y17116610D02*
X65071428Y17068991D01*
X65071428Y17068991D02*
X64738095Y17068991D01*
D11*
X38366667Y34712336D02*
X38328571Y34674240D01*
X38328571Y34674240D02*
X38214286Y34636145D01*
X38214286Y34636145D02*
X38138095Y34636145D01*
X38138095Y34636145D02*
X38023809Y34674240D01*
X38023809Y34674240D02*
X37947619Y34750431D01*
X37947619Y34750431D02*
X37909524Y34826621D01*
X37909524Y34826621D02*
X37871428Y34979002D01*
X37871428Y34979002D02*
X37871428Y35093288D01*
X37871428Y35093288D02*
X37909524Y35245669D01*
X37909524Y35245669D02*
X37947619Y35321860D01*
X37947619Y35321860D02*
X38023809Y35398050D01*
X38023809Y35398050D02*
X38138095Y35436145D01*
X38138095Y35436145D02*
X38214286Y35436145D01*
X38214286Y35436145D02*
X38328571Y35398050D01*
X38328571Y35398050D02*
X38366667Y35359955D01*
X39052381Y35169479D02*
X39052381Y34636145D01*
X38861905Y35474240D02*
X38671428Y34902812D01*
X38671428Y34902812D02*
X39166667Y34902812D01*
X39990476Y47436145D02*
X40447619Y47436145D01*
X40219047Y46636145D02*
X40219047Y47436145D01*
X40714286Y46636145D02*
X40714286Y47436145D01*
X40714286Y47436145D02*
X41019048Y47436145D01*
X41019048Y47436145D02*
X41095238Y47398050D01*
X41095238Y47398050D02*
X41133333Y47359955D01*
X41133333Y47359955D02*
X41171429Y47283764D01*
X41171429Y47283764D02*
X41171429Y47169479D01*
X41171429Y47169479D02*
X41133333Y47093288D01*
X41133333Y47093288D02*
X41095238Y47055193D01*
X41095238Y47055193D02*
X41019048Y47017098D01*
X41019048Y47017098D02*
X40714286Y47017098D01*
X41476190Y47359955D02*
X41514286Y47398050D01*
X41514286Y47398050D02*
X41590476Y47436145D01*
X41590476Y47436145D02*
X41780952Y47436145D01*
X41780952Y47436145D02*
X41857143Y47398050D01*
X41857143Y47398050D02*
X41895238Y47359955D01*
X41895238Y47359955D02*
X41933333Y47283764D01*
X41933333Y47283764D02*
X41933333Y47207574D01*
X41933333Y47207574D02*
X41895238Y47093288D01*
X41895238Y47093288D02*
X41438095Y46636145D01*
X41438095Y46636145D02*
X41933333Y46636145D01*
X21366667Y25962336D02*
X21328571Y25924240D01*
X21328571Y25924240D02*
X21214286Y25886145D01*
X21214286Y25886145D02*
X21138095Y25886145D01*
X21138095Y25886145D02*
X21023809Y25924240D01*
X21023809Y25924240D02*
X20947619Y26000431D01*
X20947619Y26000431D02*
X20909524Y26076621D01*
X20909524Y26076621D02*
X20871428Y26229002D01*
X20871428Y26229002D02*
X20871428Y26343288D01*
X20871428Y26343288D02*
X20909524Y26495669D01*
X20909524Y26495669D02*
X20947619Y26571860D01*
X20947619Y26571860D02*
X21023809Y26648050D01*
X21023809Y26648050D02*
X21138095Y26686145D01*
X21138095Y26686145D02*
X21214286Y26686145D01*
X21214286Y26686145D02*
X21328571Y26648050D01*
X21328571Y26648050D02*
X21366667Y26609955D01*
X21633333Y26686145D02*
X22166667Y26686145D01*
X22166667Y26686145D02*
X21823809Y25886145D01*
X36485714Y37136145D02*
X36219047Y37517098D01*
X36028571Y37136145D02*
X36028571Y37936145D01*
X36028571Y37936145D02*
X36333333Y37936145D01*
X36333333Y37936145D02*
X36409523Y37898050D01*
X36409523Y37898050D02*
X36447618Y37859955D01*
X36447618Y37859955D02*
X36485714Y37783764D01*
X36485714Y37783764D02*
X36485714Y37669479D01*
X36485714Y37669479D02*
X36447618Y37593288D01*
X36447618Y37593288D02*
X36409523Y37555193D01*
X36409523Y37555193D02*
X36333333Y37517098D01*
X36333333Y37517098D02*
X36028571Y37517098D01*
X37247618Y37136145D02*
X36790475Y37136145D01*
X37019047Y37136145D02*
X37019047Y37936145D01*
X37019047Y37936145D02*
X36942856Y37821860D01*
X36942856Y37821860D02*
X36866666Y37745669D01*
X36866666Y37745669D02*
X36790475Y37707574D01*
X37742857Y37936145D02*
X37819047Y37936145D01*
X37819047Y37936145D02*
X37895238Y37898050D01*
X37895238Y37898050D02*
X37933333Y37859955D01*
X37933333Y37859955D02*
X37971428Y37783764D01*
X37971428Y37783764D02*
X38009523Y37631383D01*
X38009523Y37631383D02*
X38009523Y37440907D01*
X38009523Y37440907D02*
X37971428Y37288526D01*
X37971428Y37288526D02*
X37933333Y37212336D01*
X37933333Y37212336D02*
X37895238Y37174240D01*
X37895238Y37174240D02*
X37819047Y37136145D01*
X37819047Y37136145D02*
X37742857Y37136145D01*
X37742857Y37136145D02*
X37666666Y37174240D01*
X37666666Y37174240D02*
X37628571Y37212336D01*
X37628571Y37212336D02*
X37590476Y37288526D01*
X37590476Y37288526D02*
X37552380Y37440907D01*
X37552380Y37440907D02*
X37552380Y37631383D01*
X37552380Y37631383D02*
X37590476Y37783764D01*
X37590476Y37783764D02*
X37628571Y37859955D01*
X37628571Y37859955D02*
X37666666Y37898050D01*
X37666666Y37898050D02*
X37742857Y37936145D01*
X51485714Y13636145D02*
X51219047Y14017098D01*
X51028571Y13636145D02*
X51028571Y14436145D01*
X51028571Y14436145D02*
X51333333Y14436145D01*
X51333333Y14436145D02*
X51409523Y14398050D01*
X51409523Y14398050D02*
X51447618Y14359955D01*
X51447618Y14359955D02*
X51485714Y14283764D01*
X51485714Y14283764D02*
X51485714Y14169479D01*
X51485714Y14169479D02*
X51447618Y14093288D01*
X51447618Y14093288D02*
X51409523Y14055193D01*
X51409523Y14055193D02*
X51333333Y14017098D01*
X51333333Y14017098D02*
X51028571Y14017098D01*
X52247618Y13636145D02*
X51790475Y13636145D01*
X52019047Y13636145D02*
X52019047Y14436145D01*
X52019047Y14436145D02*
X51942856Y14321860D01*
X51942856Y14321860D02*
X51866666Y14245669D01*
X51866666Y14245669D02*
X51790475Y14207574D01*
X52552380Y14359955D02*
X52590476Y14398050D01*
X52590476Y14398050D02*
X52666666Y14436145D01*
X52666666Y14436145D02*
X52857142Y14436145D01*
X52857142Y14436145D02*
X52933333Y14398050D01*
X52933333Y14398050D02*
X52971428Y14359955D01*
X52971428Y14359955D02*
X53009523Y14283764D01*
X53009523Y14283764D02*
X53009523Y14207574D01*
X53009523Y14207574D02*
X52971428Y14093288D01*
X52971428Y14093288D02*
X52514285Y13636145D01*
X52514285Y13636145D02*
X53009523Y13636145D01*
X5733333Y18436145D02*
X5733333Y17864717D01*
X5733333Y17864717D02*
X5695238Y17750431D01*
X5695238Y17750431D02*
X5619047Y17674240D01*
X5619047Y17674240D02*
X5504762Y17636145D01*
X5504762Y17636145D02*
X5428571Y17636145D01*
X6076190Y18359955D02*
X6114286Y18398050D01*
X6114286Y18398050D02*
X6190476Y18436145D01*
X6190476Y18436145D02*
X6380952Y18436145D01*
X6380952Y18436145D02*
X6457143Y18398050D01*
X6457143Y18398050D02*
X6495238Y18359955D01*
X6495238Y18359955D02*
X6533333Y18283764D01*
X6533333Y18283764D02*
X6533333Y18207574D01*
X6533333Y18207574D02*
X6495238Y18093288D01*
X6495238Y18093288D02*
X6038095Y17636145D01*
X6038095Y17636145D02*
X6533333Y17636145D01*
X54490476Y45436145D02*
X54947619Y45436145D01*
X54719047Y44636145D02*
X54719047Y45436145D01*
X55214286Y44636145D02*
X55214286Y45436145D01*
X55214286Y45436145D02*
X55519048Y45436145D01*
X55519048Y45436145D02*
X55595238Y45398050D01*
X55595238Y45398050D02*
X55633333Y45359955D01*
X55633333Y45359955D02*
X55671429Y45283764D01*
X55671429Y45283764D02*
X55671429Y45169479D01*
X55671429Y45169479D02*
X55633333Y45093288D01*
X55633333Y45093288D02*
X55595238Y45055193D01*
X55595238Y45055193D02*
X55519048Y45017098D01*
X55519048Y45017098D02*
X55214286Y45017098D01*
X56433333Y44636145D02*
X55976190Y44636145D01*
X56204762Y44636145D02*
X56204762Y45436145D01*
X56204762Y45436145D02*
X56128571Y45321860D01*
X56128571Y45321860D02*
X56052381Y45245669D01*
X56052381Y45245669D02*
X55976190Y45207574D01*
X36485714Y46136145D02*
X36219047Y46517098D01*
X36028571Y46136145D02*
X36028571Y46936145D01*
X36028571Y46936145D02*
X36333333Y46936145D01*
X36333333Y46936145D02*
X36409523Y46898050D01*
X36409523Y46898050D02*
X36447618Y46859955D01*
X36447618Y46859955D02*
X36485714Y46783764D01*
X36485714Y46783764D02*
X36485714Y46669479D01*
X36485714Y46669479D02*
X36447618Y46593288D01*
X36447618Y46593288D02*
X36409523Y46555193D01*
X36409523Y46555193D02*
X36333333Y46517098D01*
X36333333Y46517098D02*
X36028571Y46517098D01*
X37247618Y46136145D02*
X36790475Y46136145D01*
X37019047Y46136145D02*
X37019047Y46936145D01*
X37019047Y46936145D02*
X36942856Y46821860D01*
X36942856Y46821860D02*
X36866666Y46745669D01*
X36866666Y46745669D02*
X36790475Y46707574D01*
X38009523Y46136145D02*
X37552380Y46136145D01*
X37780952Y46136145D02*
X37780952Y46936145D01*
X37780952Y46936145D02*
X37704761Y46821860D01*
X37704761Y46821860D02*
X37628571Y46745669D01*
X37628571Y46745669D02*
X37552380Y46707574D01*
X49233333Y32436145D02*
X49233333Y31864717D01*
X49233333Y31864717D02*
X49195238Y31750431D01*
X49195238Y31750431D02*
X49119047Y31674240D01*
X49119047Y31674240D02*
X49004762Y31636145D01*
X49004762Y31636145D02*
X48928571Y31636145D01*
X50033333Y31636145D02*
X49576190Y31636145D01*
X49804762Y31636145D02*
X49804762Y32436145D01*
X49804762Y32436145D02*
X49728571Y32321860D01*
X49728571Y32321860D02*
X49652381Y32245669D01*
X49652381Y32245669D02*
X49576190Y32207574D01*
X30066667Y20636145D02*
X29800000Y21017098D01*
X29609524Y20636145D02*
X29609524Y21436145D01*
X29609524Y21436145D02*
X29914286Y21436145D01*
X29914286Y21436145D02*
X29990476Y21398050D01*
X29990476Y21398050D02*
X30028571Y21359955D01*
X30028571Y21359955D02*
X30066667Y21283764D01*
X30066667Y21283764D02*
X30066667Y21169479D01*
X30066667Y21169479D02*
X30028571Y21093288D01*
X30028571Y21093288D02*
X29990476Y21055193D01*
X29990476Y21055193D02*
X29914286Y21017098D01*
X29914286Y21017098D02*
X29609524Y21017098D01*
X30333333Y21436145D02*
X30866667Y21436145D01*
X30866667Y21436145D02*
X30523809Y20636145D01*
X19985714Y17212336D02*
X19947618Y17174240D01*
X19947618Y17174240D02*
X19833333Y17136145D01*
X19833333Y17136145D02*
X19757142Y17136145D01*
X19757142Y17136145D02*
X19642856Y17174240D01*
X19642856Y17174240D02*
X19566666Y17250431D01*
X19566666Y17250431D02*
X19528571Y17326621D01*
X19528571Y17326621D02*
X19490475Y17479002D01*
X19490475Y17479002D02*
X19490475Y17593288D01*
X19490475Y17593288D02*
X19528571Y17745669D01*
X19528571Y17745669D02*
X19566666Y17821860D01*
X19566666Y17821860D02*
X19642856Y17898050D01*
X19642856Y17898050D02*
X19757142Y17936145D01*
X19757142Y17936145D02*
X19833333Y17936145D01*
X19833333Y17936145D02*
X19947618Y17898050D01*
X19947618Y17898050D02*
X19985714Y17859955D01*
X20747618Y17136145D02*
X20290475Y17136145D01*
X20519047Y17136145D02*
X20519047Y17936145D01*
X20519047Y17936145D02*
X20442856Y17821860D01*
X20442856Y17821860D02*
X20366666Y17745669D01*
X20366666Y17745669D02*
X20290475Y17707574D01*
X21014285Y17936145D02*
X21509523Y17936145D01*
X21509523Y17936145D02*
X21242857Y17631383D01*
X21242857Y17631383D02*
X21357142Y17631383D01*
X21357142Y17631383D02*
X21433333Y17593288D01*
X21433333Y17593288D02*
X21471428Y17555193D01*
X21471428Y17555193D02*
X21509523Y17479002D01*
X21509523Y17479002D02*
X21509523Y17288526D01*
X21509523Y17288526D02*
X21471428Y17212336D01*
X21471428Y17212336D02*
X21433333Y17174240D01*
X21433333Y17174240D02*
X21357142Y17136145D01*
X21357142Y17136145D02*
X21128571Y17136145D01*
X21128571Y17136145D02*
X21052380Y17174240D01*
X21052380Y17174240D02*
X21014285Y17212336D01*
X65390476Y7636145D02*
X65390476Y8436145D01*
X65390476Y8055193D02*
X65847619Y8055193D01*
X65847619Y7636145D02*
X65847619Y8436145D01*
X66571428Y8169479D02*
X66571428Y7636145D01*
X66380952Y8474240D02*
X66190475Y7902812D01*
X66190475Y7902812D02*
X66685714Y7902812D01*
X24866667Y38636145D02*
X24600000Y39017098D01*
X24409524Y38636145D02*
X24409524Y39436145D01*
X24409524Y39436145D02*
X24714286Y39436145D01*
X24714286Y39436145D02*
X24790476Y39398050D01*
X24790476Y39398050D02*
X24828571Y39359955D01*
X24828571Y39359955D02*
X24866667Y39283764D01*
X24866667Y39283764D02*
X24866667Y39169479D01*
X24866667Y39169479D02*
X24828571Y39093288D01*
X24828571Y39093288D02*
X24790476Y39055193D01*
X24790476Y39055193D02*
X24714286Y39017098D01*
X24714286Y39017098D02*
X24409524Y39017098D01*
X25552381Y39436145D02*
X25400000Y39436145D01*
X25400000Y39436145D02*
X25323809Y39398050D01*
X25323809Y39398050D02*
X25285714Y39359955D01*
X25285714Y39359955D02*
X25209524Y39245669D01*
X25209524Y39245669D02*
X25171428Y39093288D01*
X25171428Y39093288D02*
X25171428Y38788526D01*
X25171428Y38788526D02*
X25209524Y38712336D01*
X25209524Y38712336D02*
X25247619Y38674240D01*
X25247619Y38674240D02*
X25323809Y38636145D01*
X25323809Y38636145D02*
X25476190Y38636145D01*
X25476190Y38636145D02*
X25552381Y38674240D01*
X25552381Y38674240D02*
X25590476Y38712336D01*
X25590476Y38712336D02*
X25628571Y38788526D01*
X25628571Y38788526D02*
X25628571Y38979002D01*
X25628571Y38979002D02*
X25590476Y39055193D01*
X25590476Y39055193D02*
X25552381Y39093288D01*
X25552381Y39093288D02*
X25476190Y39131383D01*
X25476190Y39131383D02*
X25323809Y39131383D01*
X25323809Y39131383D02*
X25247619Y39093288D01*
X25247619Y39093288D02*
X25209524Y39055193D01*
X25209524Y39055193D02*
X25171428Y38979002D01*
X17490476Y25936145D02*
X17947619Y25936145D01*
X17719047Y25136145D02*
X17719047Y25936145D01*
X18214286Y25136145D02*
X18214286Y25936145D01*
X18214286Y25936145D02*
X18519048Y25936145D01*
X18519048Y25936145D02*
X18595238Y25898050D01*
X18595238Y25898050D02*
X18633333Y25859955D01*
X18633333Y25859955D02*
X18671429Y25783764D01*
X18671429Y25783764D02*
X18671429Y25669479D01*
X18671429Y25669479D02*
X18633333Y25593288D01*
X18633333Y25593288D02*
X18595238Y25555193D01*
X18595238Y25555193D02*
X18519048Y25517098D01*
X18519048Y25517098D02*
X18214286Y25517098D01*
X19357143Y25669479D02*
X19357143Y25136145D01*
X19166667Y25974240D02*
X18976190Y25402812D01*
X18976190Y25402812D02*
X19471429Y25402812D01*
X38866667Y21712336D02*
X38828571Y21674240D01*
X38828571Y21674240D02*
X38714286Y21636145D01*
X38714286Y21636145D02*
X38638095Y21636145D01*
X38638095Y21636145D02*
X38523809Y21674240D01*
X38523809Y21674240D02*
X38447619Y21750431D01*
X38447619Y21750431D02*
X38409524Y21826621D01*
X38409524Y21826621D02*
X38371428Y21979002D01*
X38371428Y21979002D02*
X38371428Y22093288D01*
X38371428Y22093288D02*
X38409524Y22245669D01*
X38409524Y22245669D02*
X38447619Y22321860D01*
X38447619Y22321860D02*
X38523809Y22398050D01*
X38523809Y22398050D02*
X38638095Y22436145D01*
X38638095Y22436145D02*
X38714286Y22436145D01*
X38714286Y22436145D02*
X38828571Y22398050D01*
X38828571Y22398050D02*
X38866667Y22359955D01*
X39247619Y21636145D02*
X39400000Y21636145D01*
X39400000Y21636145D02*
X39476190Y21674240D01*
X39476190Y21674240D02*
X39514286Y21712336D01*
X39514286Y21712336D02*
X39590476Y21826621D01*
X39590476Y21826621D02*
X39628571Y21979002D01*
X39628571Y21979002D02*
X39628571Y22283764D01*
X39628571Y22283764D02*
X39590476Y22359955D01*
X39590476Y22359955D02*
X39552381Y22398050D01*
X39552381Y22398050D02*
X39476190Y22436145D01*
X39476190Y22436145D02*
X39323809Y22436145D01*
X39323809Y22436145D02*
X39247619Y22398050D01*
X39247619Y22398050D02*
X39209524Y22359955D01*
X39209524Y22359955D02*
X39171428Y22283764D01*
X39171428Y22283764D02*
X39171428Y22093288D01*
X39171428Y22093288D02*
X39209524Y22017098D01*
X39209524Y22017098D02*
X39247619Y21979002D01*
X39247619Y21979002D02*
X39323809Y21940907D01*
X39323809Y21940907D02*
X39476190Y21940907D01*
X39476190Y21940907D02*
X39552381Y21979002D01*
X39552381Y21979002D02*
X39590476Y22017098D01*
X39590476Y22017098D02*
X39628571Y22093288D01*
X20119048Y31267098D02*
X20119048Y30886145D01*
X19852381Y31686145D02*
X20119048Y31267098D01*
X20119048Y31267098D02*
X20385714Y31686145D01*
X21071428Y30886145D02*
X20614285Y30886145D01*
X20842857Y30886145D02*
X20842857Y31686145D01*
X20842857Y31686145D02*
X20766666Y31571860D01*
X20766666Y31571860D02*
X20690476Y31495669D01*
X20690476Y31495669D02*
X20614285Y31457574D01*
X38733333Y17936145D02*
X38733333Y17364717D01*
X38733333Y17364717D02*
X38695238Y17250431D01*
X38695238Y17250431D02*
X38619047Y17174240D01*
X38619047Y17174240D02*
X38504762Y17136145D01*
X38504762Y17136145D02*
X38428571Y17136145D01*
X39457143Y17669479D02*
X39457143Y17136145D01*
X39266667Y17974240D02*
X39076190Y17402812D01*
X39076190Y17402812D02*
X39571429Y17402812D01*
X34616667Y18012336D02*
X34578571Y17974240D01*
X34578571Y17974240D02*
X34464286Y17936145D01*
X34464286Y17936145D02*
X34388095Y17936145D01*
X34388095Y17936145D02*
X34273809Y17974240D01*
X34273809Y17974240D02*
X34197619Y18050431D01*
X34197619Y18050431D02*
X34159524Y18126621D01*
X34159524Y18126621D02*
X34121428Y18279002D01*
X34121428Y18279002D02*
X34121428Y18393288D01*
X34121428Y18393288D02*
X34159524Y18545669D01*
X34159524Y18545669D02*
X34197619Y18621860D01*
X34197619Y18621860D02*
X34273809Y18698050D01*
X34273809Y18698050D02*
X34388095Y18736145D01*
X34388095Y18736145D02*
X34464286Y18736145D01*
X34464286Y18736145D02*
X34578571Y18698050D01*
X34578571Y18698050D02*
X34616667Y18659955D01*
X34883333Y18736145D02*
X35378571Y18736145D01*
X35378571Y18736145D02*
X35111905Y18431383D01*
X35111905Y18431383D02*
X35226190Y18431383D01*
X35226190Y18431383D02*
X35302381Y18393288D01*
X35302381Y18393288D02*
X35340476Y18355193D01*
X35340476Y18355193D02*
X35378571Y18279002D01*
X35378571Y18279002D02*
X35378571Y18088526D01*
X35378571Y18088526D02*
X35340476Y18012336D01*
X35340476Y18012336D02*
X35302381Y17974240D01*
X35302381Y17974240D02*
X35226190Y17936145D01*
X35226190Y17936145D02*
X34997619Y17936145D01*
X34997619Y17936145D02*
X34921428Y17974240D01*
X34921428Y17974240D02*
X34883333Y18012336D01*
X24366667Y32962336D02*
X24328571Y32924240D01*
X24328571Y32924240D02*
X24214286Y32886145D01*
X24214286Y32886145D02*
X24138095Y32886145D01*
X24138095Y32886145D02*
X24023809Y32924240D01*
X24023809Y32924240D02*
X23947619Y33000431D01*
X23947619Y33000431D02*
X23909524Y33076621D01*
X23909524Y33076621D02*
X23871428Y33229002D01*
X23871428Y33229002D02*
X23871428Y33343288D01*
X23871428Y33343288D02*
X23909524Y33495669D01*
X23909524Y33495669D02*
X23947619Y33571860D01*
X23947619Y33571860D02*
X24023809Y33648050D01*
X24023809Y33648050D02*
X24138095Y33686145D01*
X24138095Y33686145D02*
X24214286Y33686145D01*
X24214286Y33686145D02*
X24328571Y33648050D01*
X24328571Y33648050D02*
X24366667Y33609955D01*
X25052381Y33686145D02*
X24900000Y33686145D01*
X24900000Y33686145D02*
X24823809Y33648050D01*
X24823809Y33648050D02*
X24785714Y33609955D01*
X24785714Y33609955D02*
X24709524Y33495669D01*
X24709524Y33495669D02*
X24671428Y33343288D01*
X24671428Y33343288D02*
X24671428Y33038526D01*
X24671428Y33038526D02*
X24709524Y32962336D01*
X24709524Y32962336D02*
X24747619Y32924240D01*
X24747619Y32924240D02*
X24823809Y32886145D01*
X24823809Y32886145D02*
X24976190Y32886145D01*
X24976190Y32886145D02*
X25052381Y32924240D01*
X25052381Y32924240D02*
X25090476Y32962336D01*
X25090476Y32962336D02*
X25128571Y33038526D01*
X25128571Y33038526D02*
X25128571Y33229002D01*
X25128571Y33229002D02*
X25090476Y33305193D01*
X25090476Y33305193D02*
X25052381Y33343288D01*
X25052381Y33343288D02*
X24976190Y33381383D01*
X24976190Y33381383D02*
X24823809Y33381383D01*
X24823809Y33381383D02*
X24747619Y33343288D01*
X24747619Y33343288D02*
X24709524Y33305193D01*
X24709524Y33305193D02*
X24671428Y33229002D01*
X45390476Y43936145D02*
X45390476Y43288526D01*
X45390476Y43288526D02*
X45428571Y43212336D01*
X45428571Y43212336D02*
X45466666Y43174240D01*
X45466666Y43174240D02*
X45542857Y43136145D01*
X45542857Y43136145D02*
X45695238Y43136145D01*
X45695238Y43136145D02*
X45771428Y43174240D01*
X45771428Y43174240D02*
X45809523Y43212336D01*
X45809523Y43212336D02*
X45847619Y43288526D01*
X45847619Y43288526D02*
X45847619Y43936145D01*
X46190475Y43859955D02*
X46228571Y43898050D01*
X46228571Y43898050D02*
X46304761Y43936145D01*
X46304761Y43936145D02*
X46495237Y43936145D01*
X46495237Y43936145D02*
X46571428Y43898050D01*
X46571428Y43898050D02*
X46609523Y43859955D01*
X46609523Y43859955D02*
X46647618Y43783764D01*
X46647618Y43783764D02*
X46647618Y43707574D01*
X46647618Y43707574D02*
X46609523Y43593288D01*
X46609523Y43593288D02*
X46152380Y43136145D01*
X46152380Y43136145D02*
X46647618Y43136145D01*
X3390476Y46636145D02*
X3390476Y47436145D01*
X3390476Y47055193D02*
X3847619Y47055193D01*
X3847619Y46636145D02*
X3847619Y47436145D01*
X4647618Y46636145D02*
X4190475Y46636145D01*
X4419047Y46636145D02*
X4419047Y47436145D01*
X4419047Y47436145D02*
X4342856Y47321860D01*
X4342856Y47321860D02*
X4266666Y47245669D01*
X4266666Y47245669D02*
X4190475Y47207574D01*
X31485714Y46712336D02*
X31447618Y46674240D01*
X31447618Y46674240D02*
X31333333Y46636145D01*
X31333333Y46636145D02*
X31257142Y46636145D01*
X31257142Y46636145D02*
X31142856Y46674240D01*
X31142856Y46674240D02*
X31066666Y46750431D01*
X31066666Y46750431D02*
X31028571Y46826621D01*
X31028571Y46826621D02*
X30990475Y46979002D01*
X30990475Y46979002D02*
X30990475Y47093288D01*
X30990475Y47093288D02*
X31028571Y47245669D01*
X31028571Y47245669D02*
X31066666Y47321860D01*
X31066666Y47321860D02*
X31142856Y47398050D01*
X31142856Y47398050D02*
X31257142Y47436145D01*
X31257142Y47436145D02*
X31333333Y47436145D01*
X31333333Y47436145D02*
X31447618Y47398050D01*
X31447618Y47398050D02*
X31485714Y47359955D01*
X32247618Y46636145D02*
X31790475Y46636145D01*
X32019047Y46636145D02*
X32019047Y47436145D01*
X32019047Y47436145D02*
X31942856Y47321860D01*
X31942856Y47321860D02*
X31866666Y47245669D01*
X31866666Y47245669D02*
X31790475Y47207574D01*
X33009523Y46636145D02*
X32552380Y46636145D01*
X32780952Y46636145D02*
X32780952Y47436145D01*
X32780952Y47436145D02*
X32704761Y47321860D01*
X32704761Y47321860D02*
X32628571Y47245669D01*
X32628571Y47245669D02*
X32552380Y47207574D01*
X28933332Y12174240D02*
X29047618Y12136145D01*
X29047618Y12136145D02*
X29238094Y12136145D01*
X29238094Y12136145D02*
X29314285Y12174240D01*
X29314285Y12174240D02*
X29352380Y12212336D01*
X29352380Y12212336D02*
X29390475Y12288526D01*
X29390475Y12288526D02*
X29390475Y12364717D01*
X29390475Y12364717D02*
X29352380Y12440907D01*
X29352380Y12440907D02*
X29314285Y12479002D01*
X29314285Y12479002D02*
X29238094Y12517098D01*
X29238094Y12517098D02*
X29085713Y12555193D01*
X29085713Y12555193D02*
X29009523Y12593288D01*
X29009523Y12593288D02*
X28971428Y12631383D01*
X28971428Y12631383D02*
X28933332Y12707574D01*
X28933332Y12707574D02*
X28933332Y12783764D01*
X28933332Y12783764D02*
X28971428Y12859955D01*
X28971428Y12859955D02*
X29009523Y12898050D01*
X29009523Y12898050D02*
X29085713Y12936145D01*
X29085713Y12936145D02*
X29276190Y12936145D01*
X29276190Y12936145D02*
X29390475Y12898050D01*
X29657142Y12936145D02*
X29847618Y12136145D01*
X29847618Y12136145D02*
X29999999Y12707574D01*
X29999999Y12707574D02*
X30152380Y12136145D01*
X30152380Y12136145D02*
X30342857Y12936145D01*
X31066666Y12136145D02*
X30609523Y12136145D01*
X30838095Y12136145D02*
X30838095Y12936145D01*
X30838095Y12936145D02*
X30761904Y12821860D01*
X30761904Y12821860D02*
X30685714Y12745669D01*
X30685714Y12745669D02*
X30609523Y12707574D01*
X19866667Y13636145D02*
X19600000Y14017098D01*
X19409524Y13636145D02*
X19409524Y14436145D01*
X19409524Y14436145D02*
X19714286Y14436145D01*
X19714286Y14436145D02*
X19790476Y14398050D01*
X19790476Y14398050D02*
X19828571Y14359955D01*
X19828571Y14359955D02*
X19866667Y14283764D01*
X19866667Y14283764D02*
X19866667Y14169479D01*
X19866667Y14169479D02*
X19828571Y14093288D01*
X19828571Y14093288D02*
X19790476Y14055193D01*
X19790476Y14055193D02*
X19714286Y14017098D01*
X19714286Y14017098D02*
X19409524Y14017098D01*
X20247619Y13636145D02*
X20400000Y13636145D01*
X20400000Y13636145D02*
X20476190Y13674240D01*
X20476190Y13674240D02*
X20514286Y13712336D01*
X20514286Y13712336D02*
X20590476Y13826621D01*
X20590476Y13826621D02*
X20628571Y13979002D01*
X20628571Y13979002D02*
X20628571Y14283764D01*
X20628571Y14283764D02*
X20590476Y14359955D01*
X20590476Y14359955D02*
X20552381Y14398050D01*
X20552381Y14398050D02*
X20476190Y14436145D01*
X20476190Y14436145D02*
X20323809Y14436145D01*
X20323809Y14436145D02*
X20247619Y14398050D01*
X20247619Y14398050D02*
X20209524Y14359955D01*
X20209524Y14359955D02*
X20171428Y14283764D01*
X20171428Y14283764D02*
X20171428Y14093288D01*
X20171428Y14093288D02*
X20209524Y14017098D01*
X20209524Y14017098D02*
X20247619Y13979002D01*
X20247619Y13979002D02*
X20323809Y13940907D01*
X20323809Y13940907D02*
X20476190Y13940907D01*
X20476190Y13940907D02*
X20552381Y13979002D01*
X20552381Y13979002D02*
X20590476Y14017098D01*
X20590476Y14017098D02*
X20628571Y14093288D01*
X31390476Y34436145D02*
X31390476Y33788526D01*
X31390476Y33788526D02*
X31428571Y33712336D01*
X31428571Y33712336D02*
X31466666Y33674240D01*
X31466666Y33674240D02*
X31542857Y33636145D01*
X31542857Y33636145D02*
X31695238Y33636145D01*
X31695238Y33636145D02*
X31771428Y33674240D01*
X31771428Y33674240D02*
X31809523Y33712336D01*
X31809523Y33712336D02*
X31847619Y33788526D01*
X31847619Y33788526D02*
X31847619Y34436145D01*
X32647618Y33636145D02*
X32190475Y33636145D01*
X32419047Y33636145D02*
X32419047Y34436145D01*
X32419047Y34436145D02*
X32342856Y34321860D01*
X32342856Y34321860D02*
X32266666Y34245669D01*
X32266666Y34245669D02*
X32190475Y34207574D01*
X39866667Y25636145D02*
X39600000Y26017098D01*
X39409524Y25636145D02*
X39409524Y26436145D01*
X39409524Y26436145D02*
X39714286Y26436145D01*
X39714286Y26436145D02*
X39790476Y26398050D01*
X39790476Y26398050D02*
X39828571Y26359955D01*
X39828571Y26359955D02*
X39866667Y26283764D01*
X39866667Y26283764D02*
X39866667Y26169479D01*
X39866667Y26169479D02*
X39828571Y26093288D01*
X39828571Y26093288D02*
X39790476Y26055193D01*
X39790476Y26055193D02*
X39714286Y26017098D01*
X39714286Y26017098D02*
X39409524Y26017098D01*
X40171428Y26359955D02*
X40209524Y26398050D01*
X40209524Y26398050D02*
X40285714Y26436145D01*
X40285714Y26436145D02*
X40476190Y26436145D01*
X40476190Y26436145D02*
X40552381Y26398050D01*
X40552381Y26398050D02*
X40590476Y26359955D01*
X40590476Y26359955D02*
X40628571Y26283764D01*
X40628571Y26283764D02*
X40628571Y26207574D01*
X40628571Y26207574D02*
X40590476Y26093288D01*
X40590476Y26093288D02*
X40133333Y25636145D01*
X40133333Y25636145D02*
X40628571Y25636145D01*
X49485714Y38712336D02*
X49447618Y38674240D01*
X49447618Y38674240D02*
X49333333Y38636145D01*
X49333333Y38636145D02*
X49257142Y38636145D01*
X49257142Y38636145D02*
X49142856Y38674240D01*
X49142856Y38674240D02*
X49066666Y38750431D01*
X49066666Y38750431D02*
X49028571Y38826621D01*
X49028571Y38826621D02*
X48990475Y38979002D01*
X48990475Y38979002D02*
X48990475Y39093288D01*
X48990475Y39093288D02*
X49028571Y39245669D01*
X49028571Y39245669D02*
X49066666Y39321860D01*
X49066666Y39321860D02*
X49142856Y39398050D01*
X49142856Y39398050D02*
X49257142Y39436145D01*
X49257142Y39436145D02*
X49333333Y39436145D01*
X49333333Y39436145D02*
X49447618Y39398050D01*
X49447618Y39398050D02*
X49485714Y39359955D01*
X50247618Y38636145D02*
X49790475Y38636145D01*
X50019047Y38636145D02*
X50019047Y39436145D01*
X50019047Y39436145D02*
X49942856Y39321860D01*
X49942856Y39321860D02*
X49866666Y39245669D01*
X49866666Y39245669D02*
X49790475Y39207574D01*
X50933333Y39169479D02*
X50933333Y38636145D01*
X50742857Y39474240D02*
X50552380Y38902812D01*
X50552380Y38902812D02*
X51047619Y38902812D01*
X42366667Y38636145D02*
X42100000Y39017098D01*
X41909524Y38636145D02*
X41909524Y39436145D01*
X41909524Y39436145D02*
X42214286Y39436145D01*
X42214286Y39436145D02*
X42290476Y39398050D01*
X42290476Y39398050D02*
X42328571Y39359955D01*
X42328571Y39359955D02*
X42366667Y39283764D01*
X42366667Y39283764D02*
X42366667Y39169479D01*
X42366667Y39169479D02*
X42328571Y39093288D01*
X42328571Y39093288D02*
X42290476Y39055193D01*
X42290476Y39055193D02*
X42214286Y39017098D01*
X42214286Y39017098D02*
X41909524Y39017098D01*
X43052381Y39169479D02*
X43052381Y38636145D01*
X42861905Y39474240D02*
X42671428Y38902812D01*
X42671428Y38902812D02*
X43166667Y38902812D01*
X53990476Y38436145D02*
X54447619Y38436145D01*
X54219047Y37636145D02*
X54219047Y38436145D01*
X54714286Y37636145D02*
X54714286Y38436145D01*
X54714286Y38436145D02*
X55019048Y38436145D01*
X55019048Y38436145D02*
X55095238Y38398050D01*
X55095238Y38398050D02*
X55133333Y38359955D01*
X55133333Y38359955D02*
X55171429Y38283764D01*
X55171429Y38283764D02*
X55171429Y38169479D01*
X55171429Y38169479D02*
X55133333Y38093288D01*
X55133333Y38093288D02*
X55095238Y38055193D01*
X55095238Y38055193D02*
X55019048Y38017098D01*
X55019048Y38017098D02*
X54714286Y38017098D01*
X55438095Y38436145D02*
X55933333Y38436145D01*
X55933333Y38436145D02*
X55666667Y38131383D01*
X55666667Y38131383D02*
X55780952Y38131383D01*
X55780952Y38131383D02*
X55857143Y38093288D01*
X55857143Y38093288D02*
X55895238Y38055193D01*
X55895238Y38055193D02*
X55933333Y37979002D01*
X55933333Y37979002D02*
X55933333Y37788526D01*
X55933333Y37788526D02*
X55895238Y37712336D01*
X55895238Y37712336D02*
X55857143Y37674240D01*
X55857143Y37674240D02*
X55780952Y37636145D01*
X55780952Y37636145D02*
X55552381Y37636145D01*
X55552381Y37636145D02*
X55476190Y37674240D01*
X55476190Y37674240D02*
X55438095Y37712336D01*
X22990476Y35186145D02*
X23447619Y35186145D01*
X23219047Y34386145D02*
X23219047Y35186145D01*
X23714286Y34386145D02*
X23714286Y35186145D01*
X23714286Y35186145D02*
X24019048Y35186145D01*
X24019048Y35186145D02*
X24095238Y35148050D01*
X24095238Y35148050D02*
X24133333Y35109955D01*
X24133333Y35109955D02*
X24171429Y35033764D01*
X24171429Y35033764D02*
X24171429Y34919479D01*
X24171429Y34919479D02*
X24133333Y34843288D01*
X24133333Y34843288D02*
X24095238Y34805193D01*
X24095238Y34805193D02*
X24019048Y34767098D01*
X24019048Y34767098D02*
X23714286Y34767098D01*
X24895238Y35186145D02*
X24514286Y35186145D01*
X24514286Y35186145D02*
X24476190Y34805193D01*
X24476190Y34805193D02*
X24514286Y34843288D01*
X24514286Y34843288D02*
X24590476Y34881383D01*
X24590476Y34881383D02*
X24780952Y34881383D01*
X24780952Y34881383D02*
X24857143Y34843288D01*
X24857143Y34843288D02*
X24895238Y34805193D01*
X24895238Y34805193D02*
X24933333Y34729002D01*
X24933333Y34729002D02*
X24933333Y34538526D01*
X24933333Y34538526D02*
X24895238Y34462336D01*
X24895238Y34462336D02*
X24857143Y34424240D01*
X24857143Y34424240D02*
X24780952Y34386145D01*
X24780952Y34386145D02*
X24590476Y34386145D01*
X24590476Y34386145D02*
X24514286Y34424240D01*
X24514286Y34424240D02*
X24476190Y34462336D01*
X42866667Y29636145D02*
X42600000Y30017098D01*
X42409524Y29636145D02*
X42409524Y30436145D01*
X42409524Y30436145D02*
X42714286Y30436145D01*
X42714286Y30436145D02*
X42790476Y30398050D01*
X42790476Y30398050D02*
X42828571Y30359955D01*
X42828571Y30359955D02*
X42866667Y30283764D01*
X42866667Y30283764D02*
X42866667Y30169479D01*
X42866667Y30169479D02*
X42828571Y30093288D01*
X42828571Y30093288D02*
X42790476Y30055193D01*
X42790476Y30055193D02*
X42714286Y30017098D01*
X42714286Y30017098D02*
X42409524Y30017098D01*
X43628571Y29636145D02*
X43171428Y29636145D01*
X43400000Y29636145D02*
X43400000Y30436145D01*
X43400000Y30436145D02*
X43323809Y30321860D01*
X43323809Y30321860D02*
X43247619Y30245669D01*
X43247619Y30245669D02*
X43171428Y30207574D01*
X31390476Y37936145D02*
X31390476Y37288526D01*
X31390476Y37288526D02*
X31428571Y37212336D01*
X31428571Y37212336D02*
X31466666Y37174240D01*
X31466666Y37174240D02*
X31542857Y37136145D01*
X31542857Y37136145D02*
X31695238Y37136145D01*
X31695238Y37136145D02*
X31771428Y37174240D01*
X31771428Y37174240D02*
X31809523Y37212336D01*
X31809523Y37212336D02*
X31847619Y37288526D01*
X31847619Y37288526D02*
X31847619Y37936145D01*
X32571428Y37669479D02*
X32571428Y37136145D01*
X32380952Y37974240D02*
X32190475Y37402812D01*
X32190475Y37402812D02*
X32685714Y37402812D01*
X56409524Y13636145D02*
X56409524Y14436145D01*
X56409524Y14436145D02*
X56600000Y14436145D01*
X56600000Y14436145D02*
X56714286Y14398050D01*
X56714286Y14398050D02*
X56790476Y14321860D01*
X56790476Y14321860D02*
X56828571Y14245669D01*
X56828571Y14245669D02*
X56866667Y14093288D01*
X56866667Y14093288D02*
X56866667Y13979002D01*
X56866667Y13979002D02*
X56828571Y13826621D01*
X56828571Y13826621D02*
X56790476Y13750431D01*
X56790476Y13750431D02*
X56714286Y13674240D01*
X56714286Y13674240D02*
X56600000Y13636145D01*
X56600000Y13636145D02*
X56409524Y13636145D01*
X57628571Y13636145D02*
X57171428Y13636145D01*
X57400000Y13636145D02*
X57400000Y14436145D01*
X57400000Y14436145D02*
X57323809Y14321860D01*
X57323809Y14321860D02*
X57247619Y14245669D01*
X57247619Y14245669D02*
X57171428Y14207574D01*
X26616667Y35212336D02*
X26578571Y35174240D01*
X26578571Y35174240D02*
X26464286Y35136145D01*
X26464286Y35136145D02*
X26388095Y35136145D01*
X26388095Y35136145D02*
X26273809Y35174240D01*
X26273809Y35174240D02*
X26197619Y35250431D01*
X26197619Y35250431D02*
X26159524Y35326621D01*
X26159524Y35326621D02*
X26121428Y35479002D01*
X26121428Y35479002D02*
X26121428Y35593288D01*
X26121428Y35593288D02*
X26159524Y35745669D01*
X26159524Y35745669D02*
X26197619Y35821860D01*
X26197619Y35821860D02*
X26273809Y35898050D01*
X26273809Y35898050D02*
X26388095Y35936145D01*
X26388095Y35936145D02*
X26464286Y35936145D01*
X26464286Y35936145D02*
X26578571Y35898050D01*
X26578571Y35898050D02*
X26616667Y35859955D01*
X27340476Y35936145D02*
X26959524Y35936145D01*
X26959524Y35936145D02*
X26921428Y35555193D01*
X26921428Y35555193D02*
X26959524Y35593288D01*
X26959524Y35593288D02*
X27035714Y35631383D01*
X27035714Y35631383D02*
X27226190Y35631383D01*
X27226190Y35631383D02*
X27302381Y35593288D01*
X27302381Y35593288D02*
X27340476Y35555193D01*
X27340476Y35555193D02*
X27378571Y35479002D01*
X27378571Y35479002D02*
X27378571Y35288526D01*
X27378571Y35288526D02*
X27340476Y35212336D01*
X27340476Y35212336D02*
X27302381Y35174240D01*
X27302381Y35174240D02*
X27226190Y35136145D01*
X27226190Y35136145D02*
X27035714Y35136145D01*
X27035714Y35136145D02*
X26959524Y35174240D01*
X26959524Y35174240D02*
X26921428Y35212336D01*
X25985714Y14712336D02*
X25947618Y14674240D01*
X25947618Y14674240D02*
X25833333Y14636145D01*
X25833333Y14636145D02*
X25757142Y14636145D01*
X25757142Y14636145D02*
X25642856Y14674240D01*
X25642856Y14674240D02*
X25566666Y14750431D01*
X25566666Y14750431D02*
X25528571Y14826621D01*
X25528571Y14826621D02*
X25490475Y14979002D01*
X25490475Y14979002D02*
X25490475Y15093288D01*
X25490475Y15093288D02*
X25528571Y15245669D01*
X25528571Y15245669D02*
X25566666Y15321860D01*
X25566666Y15321860D02*
X25642856Y15398050D01*
X25642856Y15398050D02*
X25757142Y15436145D01*
X25757142Y15436145D02*
X25833333Y15436145D01*
X25833333Y15436145D02*
X25947618Y15398050D01*
X25947618Y15398050D02*
X25985714Y15359955D01*
X26747618Y14636145D02*
X26290475Y14636145D01*
X26519047Y14636145D02*
X26519047Y15436145D01*
X26519047Y15436145D02*
X26442856Y15321860D01*
X26442856Y15321860D02*
X26366666Y15245669D01*
X26366666Y15245669D02*
X26290475Y15207574D01*
X27052380Y15359955D02*
X27090476Y15398050D01*
X27090476Y15398050D02*
X27166666Y15436145D01*
X27166666Y15436145D02*
X27357142Y15436145D01*
X27357142Y15436145D02*
X27433333Y15398050D01*
X27433333Y15398050D02*
X27471428Y15359955D01*
X27471428Y15359955D02*
X27509523Y15283764D01*
X27509523Y15283764D02*
X27509523Y15207574D01*
X27509523Y15207574D02*
X27471428Y15093288D01*
X27471428Y15093288D02*
X27014285Y14636145D01*
X27014285Y14636145D02*
X27509523Y14636145D01*
X50366667Y42712336D02*
X50328571Y42674240D01*
X50328571Y42674240D02*
X50214286Y42636145D01*
X50214286Y42636145D02*
X50138095Y42636145D01*
X50138095Y42636145D02*
X50023809Y42674240D01*
X50023809Y42674240D02*
X49947619Y42750431D01*
X49947619Y42750431D02*
X49909524Y42826621D01*
X49909524Y42826621D02*
X49871428Y42979002D01*
X49871428Y42979002D02*
X49871428Y43093288D01*
X49871428Y43093288D02*
X49909524Y43245669D01*
X49909524Y43245669D02*
X49947619Y43321860D01*
X49947619Y43321860D02*
X50023809Y43398050D01*
X50023809Y43398050D02*
X50138095Y43436145D01*
X50138095Y43436145D02*
X50214286Y43436145D01*
X50214286Y43436145D02*
X50328571Y43398050D01*
X50328571Y43398050D02*
X50366667Y43359955D01*
X51128571Y42636145D02*
X50671428Y42636145D01*
X50900000Y42636145D02*
X50900000Y43436145D01*
X50900000Y43436145D02*
X50823809Y43321860D01*
X50823809Y43321860D02*
X50747619Y43245669D01*
X50747619Y43245669D02*
X50671428Y43207574D01*
X65390476Y46636145D02*
X65390476Y47436145D01*
X65390476Y47055193D02*
X65847619Y47055193D01*
X65847619Y46636145D02*
X65847619Y47436145D01*
X66190475Y47359955D02*
X66228571Y47398050D01*
X66228571Y47398050D02*
X66304761Y47436145D01*
X66304761Y47436145D02*
X66495237Y47436145D01*
X66495237Y47436145D02*
X66571428Y47398050D01*
X66571428Y47398050D02*
X66609523Y47359955D01*
X66609523Y47359955D02*
X66647618Y47283764D01*
X66647618Y47283764D02*
X66647618Y47207574D01*
X66647618Y47207574D02*
X66609523Y47093288D01*
X66609523Y47093288D02*
X66152380Y46636145D01*
X66152380Y46636145D02*
X66647618Y46636145D01*
X47390476Y26936145D02*
X47390476Y26288526D01*
X47390476Y26288526D02*
X47428571Y26212336D01*
X47428571Y26212336D02*
X47466666Y26174240D01*
X47466666Y26174240D02*
X47542857Y26136145D01*
X47542857Y26136145D02*
X47695238Y26136145D01*
X47695238Y26136145D02*
X47771428Y26174240D01*
X47771428Y26174240D02*
X47809523Y26212336D01*
X47809523Y26212336D02*
X47847619Y26288526D01*
X47847619Y26288526D02*
X47847619Y26936145D01*
X48152380Y26936145D02*
X48647618Y26936145D01*
X48647618Y26936145D02*
X48380952Y26631383D01*
X48380952Y26631383D02*
X48495237Y26631383D01*
X48495237Y26631383D02*
X48571428Y26593288D01*
X48571428Y26593288D02*
X48609523Y26555193D01*
X48609523Y26555193D02*
X48647618Y26479002D01*
X48647618Y26479002D02*
X48647618Y26288526D01*
X48647618Y26288526D02*
X48609523Y26212336D01*
X48609523Y26212336D02*
X48571428Y26174240D01*
X48571428Y26174240D02*
X48495237Y26136145D01*
X48495237Y26136145D02*
X48266666Y26136145D01*
X48266666Y26136145D02*
X48190475Y26174240D01*
X48190475Y26174240D02*
X48152380Y26212336D01*
X23866667Y12136145D02*
X23600000Y12517098D01*
X23409524Y12136145D02*
X23409524Y12936145D01*
X23409524Y12936145D02*
X23714286Y12936145D01*
X23714286Y12936145D02*
X23790476Y12898050D01*
X23790476Y12898050D02*
X23828571Y12859955D01*
X23828571Y12859955D02*
X23866667Y12783764D01*
X23866667Y12783764D02*
X23866667Y12669479D01*
X23866667Y12669479D02*
X23828571Y12593288D01*
X23828571Y12593288D02*
X23790476Y12555193D01*
X23790476Y12555193D02*
X23714286Y12517098D01*
X23714286Y12517098D02*
X23409524Y12517098D01*
X24323809Y12593288D02*
X24247619Y12631383D01*
X24247619Y12631383D02*
X24209524Y12669479D01*
X24209524Y12669479D02*
X24171428Y12745669D01*
X24171428Y12745669D02*
X24171428Y12783764D01*
X24171428Y12783764D02*
X24209524Y12859955D01*
X24209524Y12859955D02*
X24247619Y12898050D01*
X24247619Y12898050D02*
X24323809Y12936145D01*
X24323809Y12936145D02*
X24476190Y12936145D01*
X24476190Y12936145D02*
X24552381Y12898050D01*
X24552381Y12898050D02*
X24590476Y12859955D01*
X24590476Y12859955D02*
X24628571Y12783764D01*
X24628571Y12783764D02*
X24628571Y12745669D01*
X24628571Y12745669D02*
X24590476Y12669479D01*
X24590476Y12669479D02*
X24552381Y12631383D01*
X24552381Y12631383D02*
X24476190Y12593288D01*
X24476190Y12593288D02*
X24323809Y12593288D01*
X24323809Y12593288D02*
X24247619Y12555193D01*
X24247619Y12555193D02*
X24209524Y12517098D01*
X24209524Y12517098D02*
X24171428Y12440907D01*
X24171428Y12440907D02*
X24171428Y12288526D01*
X24171428Y12288526D02*
X24209524Y12212336D01*
X24209524Y12212336D02*
X24247619Y12174240D01*
X24247619Y12174240D02*
X24323809Y12136145D01*
X24323809Y12136145D02*
X24476190Y12136145D01*
X24476190Y12136145D02*
X24552381Y12174240D01*
X24552381Y12174240D02*
X24590476Y12212336D01*
X24590476Y12212336D02*
X24628571Y12288526D01*
X24628571Y12288526D02*
X24628571Y12440907D01*
X24628571Y12440907D02*
X24590476Y12517098D01*
X24590476Y12517098D02*
X24552381Y12555193D01*
X24552381Y12555193D02*
X24476190Y12593288D01*
X19485714Y34712336D02*
X19447618Y34674240D01*
X19447618Y34674240D02*
X19333333Y34636145D01*
X19333333Y34636145D02*
X19257142Y34636145D01*
X19257142Y34636145D02*
X19142856Y34674240D01*
X19142856Y34674240D02*
X19066666Y34750431D01*
X19066666Y34750431D02*
X19028571Y34826621D01*
X19028571Y34826621D02*
X18990475Y34979002D01*
X18990475Y34979002D02*
X18990475Y35093288D01*
X18990475Y35093288D02*
X19028571Y35245669D01*
X19028571Y35245669D02*
X19066666Y35321860D01*
X19066666Y35321860D02*
X19142856Y35398050D01*
X19142856Y35398050D02*
X19257142Y35436145D01*
X19257142Y35436145D02*
X19333333Y35436145D01*
X19333333Y35436145D02*
X19447618Y35398050D01*
X19447618Y35398050D02*
X19485714Y35359955D01*
X20247618Y34636145D02*
X19790475Y34636145D01*
X20019047Y34636145D02*
X20019047Y35436145D01*
X20019047Y35436145D02*
X19942856Y35321860D01*
X19942856Y35321860D02*
X19866666Y35245669D01*
X19866666Y35245669D02*
X19790475Y35207574D01*
X20742857Y35436145D02*
X20819047Y35436145D01*
X20819047Y35436145D02*
X20895238Y35398050D01*
X20895238Y35398050D02*
X20933333Y35359955D01*
X20933333Y35359955D02*
X20971428Y35283764D01*
X20971428Y35283764D02*
X21009523Y35131383D01*
X21009523Y35131383D02*
X21009523Y34940907D01*
X21009523Y34940907D02*
X20971428Y34788526D01*
X20971428Y34788526D02*
X20933333Y34712336D01*
X20933333Y34712336D02*
X20895238Y34674240D01*
X20895238Y34674240D02*
X20819047Y34636145D01*
X20819047Y34636145D02*
X20742857Y34636145D01*
X20742857Y34636145D02*
X20666666Y34674240D01*
X20666666Y34674240D02*
X20628571Y34712336D01*
X20628571Y34712336D02*
X20590476Y34788526D01*
X20590476Y34788526D02*
X20552380Y34940907D01*
X20552380Y34940907D02*
X20552380Y35131383D01*
X20552380Y35131383D02*
X20590476Y35283764D01*
X20590476Y35283764D02*
X20628571Y35359955D01*
X20628571Y35359955D02*
X20666666Y35398050D01*
X20666666Y35398050D02*
X20742857Y35436145D01*
X46366667Y34636145D02*
X46100000Y35017098D01*
X45909524Y34636145D02*
X45909524Y35436145D01*
X45909524Y35436145D02*
X46214286Y35436145D01*
X46214286Y35436145D02*
X46290476Y35398050D01*
X46290476Y35398050D02*
X46328571Y35359955D01*
X46328571Y35359955D02*
X46366667Y35283764D01*
X46366667Y35283764D02*
X46366667Y35169479D01*
X46366667Y35169479D02*
X46328571Y35093288D01*
X46328571Y35093288D02*
X46290476Y35055193D01*
X46290476Y35055193D02*
X46214286Y35017098D01*
X46214286Y35017098D02*
X45909524Y35017098D01*
X46633333Y35436145D02*
X47128571Y35436145D01*
X47128571Y35436145D02*
X46861905Y35131383D01*
X46861905Y35131383D02*
X46976190Y35131383D01*
X46976190Y35131383D02*
X47052381Y35093288D01*
X47052381Y35093288D02*
X47090476Y35055193D01*
X47090476Y35055193D02*
X47128571Y34979002D01*
X47128571Y34979002D02*
X47128571Y34788526D01*
X47128571Y34788526D02*
X47090476Y34712336D01*
X47090476Y34712336D02*
X47052381Y34674240D01*
X47052381Y34674240D02*
X46976190Y34636145D01*
X46976190Y34636145D02*
X46747619Y34636145D01*
X46747619Y34636145D02*
X46671428Y34674240D01*
X46671428Y34674240D02*
X46633333Y34712336D01*
X28990476Y17436145D02*
X29447619Y17436145D01*
X29219047Y16636145D02*
X29219047Y17436145D01*
X29714286Y16636145D02*
X29714286Y17436145D01*
X29714286Y17436145D02*
X30019048Y17436145D01*
X30019048Y17436145D02*
X30095238Y17398050D01*
X30095238Y17398050D02*
X30133333Y17359955D01*
X30133333Y17359955D02*
X30171429Y17283764D01*
X30171429Y17283764D02*
X30171429Y17169479D01*
X30171429Y17169479D02*
X30133333Y17093288D01*
X30133333Y17093288D02*
X30095238Y17055193D01*
X30095238Y17055193D02*
X30019048Y17017098D01*
X30019048Y17017098D02*
X29714286Y17017098D01*
X30438095Y17436145D02*
X30971429Y17436145D01*
X30971429Y17436145D02*
X30628571Y16636145D01*
X41366667Y42712336D02*
X41328571Y42674240D01*
X41328571Y42674240D02*
X41214286Y42636145D01*
X41214286Y42636145D02*
X41138095Y42636145D01*
X41138095Y42636145D02*
X41023809Y42674240D01*
X41023809Y42674240D02*
X40947619Y42750431D01*
X40947619Y42750431D02*
X40909524Y42826621D01*
X40909524Y42826621D02*
X40871428Y42979002D01*
X40871428Y42979002D02*
X40871428Y43093288D01*
X40871428Y43093288D02*
X40909524Y43245669D01*
X40909524Y43245669D02*
X40947619Y43321860D01*
X40947619Y43321860D02*
X41023809Y43398050D01*
X41023809Y43398050D02*
X41138095Y43436145D01*
X41138095Y43436145D02*
X41214286Y43436145D01*
X41214286Y43436145D02*
X41328571Y43398050D01*
X41328571Y43398050D02*
X41366667Y43359955D01*
X41671428Y43359955D02*
X41709524Y43398050D01*
X41709524Y43398050D02*
X41785714Y43436145D01*
X41785714Y43436145D02*
X41976190Y43436145D01*
X41976190Y43436145D02*
X42052381Y43398050D01*
X42052381Y43398050D02*
X42090476Y43359955D01*
X42090476Y43359955D02*
X42128571Y43283764D01*
X42128571Y43283764D02*
X42128571Y43207574D01*
X42128571Y43207574D02*
X42090476Y43093288D01*
X42090476Y43093288D02*
X41633333Y42636145D01*
X41633333Y42636145D02*
X42128571Y42636145D01*
X45733333Y46936145D02*
X45733333Y46364717D01*
X45733333Y46364717D02*
X45695238Y46250431D01*
X45695238Y46250431D02*
X45619047Y46174240D01*
X45619047Y46174240D02*
X45504762Y46136145D01*
X45504762Y46136145D02*
X45428571Y46136145D01*
X46038095Y46936145D02*
X46533333Y46936145D01*
X46533333Y46936145D02*
X46266667Y46631383D01*
X46266667Y46631383D02*
X46380952Y46631383D01*
X46380952Y46631383D02*
X46457143Y46593288D01*
X46457143Y46593288D02*
X46495238Y46555193D01*
X46495238Y46555193D02*
X46533333Y46479002D01*
X46533333Y46479002D02*
X46533333Y46288526D01*
X46533333Y46288526D02*
X46495238Y46212336D01*
X46495238Y46212336D02*
X46457143Y46174240D01*
X46457143Y46174240D02*
X46380952Y46136145D01*
X46380952Y46136145D02*
X46152381Y46136145D01*
X46152381Y46136145D02*
X46076190Y46174240D01*
X46076190Y46174240D02*
X46038095Y46212336D01*
X26866667Y19636145D02*
X26600000Y20017098D01*
X26409524Y19636145D02*
X26409524Y20436145D01*
X26409524Y20436145D02*
X26714286Y20436145D01*
X26714286Y20436145D02*
X26790476Y20398050D01*
X26790476Y20398050D02*
X26828571Y20359955D01*
X26828571Y20359955D02*
X26866667Y20283764D01*
X26866667Y20283764D02*
X26866667Y20169479D01*
X26866667Y20169479D02*
X26828571Y20093288D01*
X26828571Y20093288D02*
X26790476Y20055193D01*
X26790476Y20055193D02*
X26714286Y20017098D01*
X26714286Y20017098D02*
X26409524Y20017098D01*
X27590476Y20436145D02*
X27209524Y20436145D01*
X27209524Y20436145D02*
X27171428Y20055193D01*
X27171428Y20055193D02*
X27209524Y20093288D01*
X27209524Y20093288D02*
X27285714Y20131383D01*
X27285714Y20131383D02*
X27476190Y20131383D01*
X27476190Y20131383D02*
X27552381Y20093288D01*
X27552381Y20093288D02*
X27590476Y20055193D01*
X27590476Y20055193D02*
X27628571Y19979002D01*
X27628571Y19979002D02*
X27628571Y19788526D01*
X27628571Y19788526D02*
X27590476Y19712336D01*
X27590476Y19712336D02*
X27552381Y19674240D01*
X27552381Y19674240D02*
X27476190Y19636145D01*
X27476190Y19636145D02*
X27285714Y19636145D01*
X27285714Y19636145D02*
X27209524Y19674240D01*
X27209524Y19674240D02*
X27171428Y19712336D01*
X42923809Y31059955D02*
X42847619Y31098050D01*
X42847619Y31098050D02*
X42771428Y31174240D01*
X42771428Y31174240D02*
X42657142Y31288526D01*
X42657142Y31288526D02*
X42580952Y31326621D01*
X42580952Y31326621D02*
X42504761Y31326621D01*
X42542857Y31136145D02*
X42466666Y31174240D01*
X42466666Y31174240D02*
X42390476Y31250431D01*
X42390476Y31250431D02*
X42352380Y31402812D01*
X42352380Y31402812D02*
X42352380Y31669479D01*
X42352380Y31669479D02*
X42390476Y31821860D01*
X42390476Y31821860D02*
X42466666Y31898050D01*
X42466666Y31898050D02*
X42542857Y31936145D01*
X42542857Y31936145D02*
X42695238Y31936145D01*
X42695238Y31936145D02*
X42771428Y31898050D01*
X42771428Y31898050D02*
X42847619Y31821860D01*
X42847619Y31821860D02*
X42885714Y31669479D01*
X42885714Y31669479D02*
X42885714Y31402812D01*
X42885714Y31402812D02*
X42847619Y31250431D01*
X42847619Y31250431D02*
X42771428Y31174240D01*
X42771428Y31174240D02*
X42695238Y31136145D01*
X42695238Y31136145D02*
X42542857Y31136145D01*
X43647618Y31136145D02*
X43190475Y31136145D01*
X43419047Y31136145D02*
X43419047Y31936145D01*
X43419047Y31936145D02*
X43342856Y31821860D01*
X43342856Y31821860D02*
X43266666Y31745669D01*
X43266666Y31745669D02*
X43190475Y31707574D01*
X26866667Y21212336D02*
X26828571Y21174240D01*
X26828571Y21174240D02*
X26714286Y21136145D01*
X26714286Y21136145D02*
X26638095Y21136145D01*
X26638095Y21136145D02*
X26523809Y21174240D01*
X26523809Y21174240D02*
X26447619Y21250431D01*
X26447619Y21250431D02*
X26409524Y21326621D01*
X26409524Y21326621D02*
X26371428Y21479002D01*
X26371428Y21479002D02*
X26371428Y21593288D01*
X26371428Y21593288D02*
X26409524Y21745669D01*
X26409524Y21745669D02*
X26447619Y21821860D01*
X26447619Y21821860D02*
X26523809Y21898050D01*
X26523809Y21898050D02*
X26638095Y21936145D01*
X26638095Y21936145D02*
X26714286Y21936145D01*
X26714286Y21936145D02*
X26828571Y21898050D01*
X26828571Y21898050D02*
X26866667Y21859955D01*
X27323809Y21593288D02*
X27247619Y21631383D01*
X27247619Y21631383D02*
X27209524Y21669479D01*
X27209524Y21669479D02*
X27171428Y21745669D01*
X27171428Y21745669D02*
X27171428Y21783764D01*
X27171428Y21783764D02*
X27209524Y21859955D01*
X27209524Y21859955D02*
X27247619Y21898050D01*
X27247619Y21898050D02*
X27323809Y21936145D01*
X27323809Y21936145D02*
X27476190Y21936145D01*
X27476190Y21936145D02*
X27552381Y21898050D01*
X27552381Y21898050D02*
X27590476Y21859955D01*
X27590476Y21859955D02*
X27628571Y21783764D01*
X27628571Y21783764D02*
X27628571Y21745669D01*
X27628571Y21745669D02*
X27590476Y21669479D01*
X27590476Y21669479D02*
X27552381Y21631383D01*
X27552381Y21631383D02*
X27476190Y21593288D01*
X27476190Y21593288D02*
X27323809Y21593288D01*
X27323809Y21593288D02*
X27247619Y21555193D01*
X27247619Y21555193D02*
X27209524Y21517098D01*
X27209524Y21517098D02*
X27171428Y21440907D01*
X27171428Y21440907D02*
X27171428Y21288526D01*
X27171428Y21288526D02*
X27209524Y21212336D01*
X27209524Y21212336D02*
X27247619Y21174240D01*
X27247619Y21174240D02*
X27323809Y21136145D01*
X27323809Y21136145D02*
X27476190Y21136145D01*
X27476190Y21136145D02*
X27552381Y21174240D01*
X27552381Y21174240D02*
X27590476Y21212336D01*
X27590476Y21212336D02*
X27628571Y21288526D01*
X27628571Y21288526D02*
X27628571Y21440907D01*
X27628571Y21440907D02*
X27590476Y21517098D01*
X27590476Y21517098D02*
X27552381Y21555193D01*
X27552381Y21555193D02*
X27476190Y21593288D01*
X59733333Y45055193D02*
X59466667Y45055193D01*
X59466667Y44636145D02*
X59466667Y45436145D01*
X59466667Y45436145D02*
X59847619Y45436145D01*
X60571428Y44636145D02*
X60114285Y44636145D01*
X60342857Y44636145D02*
X60342857Y45436145D01*
X60342857Y45436145D02*
X60266666Y45321860D01*
X60266666Y45321860D02*
X60190476Y45245669D01*
X60190476Y45245669D02*
X60114285Y45207574D01*
X3390476Y7636145D02*
X3390476Y8436145D01*
X3390476Y8055193D02*
X3847619Y8055193D01*
X3847619Y7636145D02*
X3847619Y8436145D01*
X4152380Y8436145D02*
X4647618Y8436145D01*
X4647618Y8436145D02*
X4380952Y8131383D01*
X4380952Y8131383D02*
X4495237Y8131383D01*
X4495237Y8131383D02*
X4571428Y8093288D01*
X4571428Y8093288D02*
X4609523Y8055193D01*
X4609523Y8055193D02*
X4647618Y7979002D01*
X4647618Y7979002D02*
X4647618Y7788526D01*
X4647618Y7788526D02*
X4609523Y7712336D01*
X4609523Y7712336D02*
X4571428Y7674240D01*
X4571428Y7674240D02*
X4495237Y7636145D01*
X4495237Y7636145D02*
X4266666Y7636145D01*
X4266666Y7636145D02*
X4190475Y7674240D01*
X4190475Y7674240D02*
X4152380Y7712336D01*
X19990476Y7436145D02*
X20447619Y7436145D01*
X20219047Y6636145D02*
X20219047Y7436145D01*
X20714286Y6636145D02*
X20714286Y7436145D01*
X20714286Y7436145D02*
X21019048Y7436145D01*
X21019048Y7436145D02*
X21095238Y7398050D01*
X21095238Y7398050D02*
X21133333Y7359955D01*
X21133333Y7359955D02*
X21171429Y7283764D01*
X21171429Y7283764D02*
X21171429Y7169479D01*
X21171429Y7169479D02*
X21133333Y7093288D01*
X21133333Y7093288D02*
X21095238Y7055193D01*
X21095238Y7055193D02*
X21019048Y7017098D01*
X21019048Y7017098D02*
X20714286Y7017098D01*
X21857143Y7436145D02*
X21704762Y7436145D01*
X21704762Y7436145D02*
X21628571Y7398050D01*
X21628571Y7398050D02*
X21590476Y7359955D01*
X21590476Y7359955D02*
X21514286Y7245669D01*
X21514286Y7245669D02*
X21476190Y7093288D01*
X21476190Y7093288D02*
X21476190Y6788526D01*
X21476190Y6788526D02*
X21514286Y6712336D01*
X21514286Y6712336D02*
X21552381Y6674240D01*
X21552381Y6674240D02*
X21628571Y6636145D01*
X21628571Y6636145D02*
X21780952Y6636145D01*
X21780952Y6636145D02*
X21857143Y6674240D01*
X21857143Y6674240D02*
X21895238Y6712336D01*
X21895238Y6712336D02*
X21933333Y6788526D01*
X21933333Y6788526D02*
X21933333Y6979002D01*
X21933333Y6979002D02*
X21895238Y7055193D01*
X21895238Y7055193D02*
X21857143Y7093288D01*
X21857143Y7093288D02*
X21780952Y7131383D01*
X21780952Y7131383D02*
X21628571Y7131383D01*
X21628571Y7131383D02*
X21552381Y7093288D01*
X21552381Y7093288D02*
X21514286Y7055193D01*
X21514286Y7055193D02*
X21476190Y6979002D01*
%TO.C,C4*%
X38238748Y33735000D02*
X38761252Y33735000D01*
X38238748Y32265000D02*
X38761252Y32265000D01*
%TO.C,TP2*%
X41950000Y45000000D02*
G75*
G02*
X40050000Y45000000I-950000J0D01*
G01*
X40050000Y45000000D02*
G75*
G02*
X41950000Y45000000I950000J0D01*
G01*
%TO.C,C7*%
X24761252Y26985000D02*
X24238748Y26985000D01*
X24761252Y25515000D02*
X24238748Y25515000D01*
%TO.C,R10*%
X36265000Y39772936D02*
X36265000Y40227064D01*
X37735000Y39772936D02*
X37735000Y40227064D01*
%TO.C,R12*%
X51772936Y12735000D02*
X52227064Y12735000D01*
X51772936Y11265000D02*
X52227064Y11265000D01*
%TO.C,J2*%
X7320000Y18500000D02*
X7320000Y17500000D01*
X7320000Y17500000D02*
X8320000Y18000000D01*
X8320000Y18000000D02*
X7320000Y18500000D01*
X8710000Y23210000D02*
X17830000Y23210000D01*
X8710000Y14970000D02*
X10020000Y14970000D01*
X8710000Y2630000D02*
X8710000Y23210000D01*
X10020000Y21910000D02*
X16520000Y21910000D01*
X10020000Y14970000D02*
X10020000Y21910000D01*
X10020000Y10870000D02*
X8710000Y10870000D01*
X10020000Y3930000D02*
X10020000Y10870000D01*
X16520000Y21910000D02*
X16520000Y3930000D01*
X16520000Y3930000D02*
X10020000Y3930000D01*
X17830000Y23210000D02*
X17830000Y2630000D01*
X17830000Y2630000D02*
X8710000Y2630000D01*
%TO.C,TP1*%
X56450000Y43000000D02*
G75*
G02*
X54550000Y43000000I-950000J0D01*
G01*
X54550000Y43000000D02*
G75*
G02*
X56450000Y43000000I950000J0D01*
G01*
%TO.C,R11*%
X36265000Y43772936D02*
X36265000Y44227064D01*
X37735000Y43772936D02*
X37735000Y44227064D01*
%TO.C,J1*%
X51350000Y34900000D02*
X51350000Y22600000D01*
X51350000Y34900000D02*
X55600000Y34900000D01*
X51350000Y22600000D02*
X55600000Y22600000D01*
%TO.C,R7*%
X31965000Y20772936D02*
X31965000Y21227064D01*
X33435000Y20772936D02*
X33435000Y21227064D01*
%TO.C,C13*%
X19765000Y19738748D02*
X19765000Y20261252D01*
X21235000Y19738748D02*
X21235000Y20261252D01*
%TO.C,R6*%
X24772936Y37735000D02*
X25227064Y37735000D01*
X24772936Y36265000D02*
X25227064Y36265000D01*
%TO.C,TP4*%
X20950000Y23000000D02*
G75*
G02*
X19050000Y23000000I-950000J0D01*
G01*
X19050000Y23000000D02*
G75*
G02*
X20950000Y23000000I950000J0D01*
G01*
%TO.C,C9*%
X38738748Y24735000D02*
X39261252Y24735000D01*
X38738748Y23265000D02*
X39261252Y23265000D01*
%TO.C,Y1*%
X18540000Y30385000D02*
X18540000Y27115000D01*
X18540000Y27115000D02*
X22460000Y27115000D01*
%TO.C,J4*%
X37620000Y16380000D02*
X39000000Y16380000D01*
X37620000Y15000000D02*
X37620000Y16380000D01*
X37620000Y13730000D02*
X37620000Y8540000D01*
X37620000Y13730000D02*
X40380000Y13730000D01*
X37620000Y8540000D02*
X40380000Y8540000D01*
X40380000Y13730000D02*
X40380000Y8540000D01*
%TO.C,C3*%
X34015000Y21061252D02*
X34015000Y20538748D01*
X35485000Y21061252D02*
X35485000Y20538748D01*
%TO.C,C6*%
X24761252Y31985000D02*
X24238748Y31985000D01*
X24761252Y30515000D02*
X24238748Y30515000D01*
%TO.C,U2*%
X45090000Y42560000D02*
X46910000Y42560000D01*
X45090000Y42510000D02*
X45090000Y42560000D01*
X45090000Y40610000D02*
X45090000Y41390000D01*
X45090000Y39440000D02*
X45090000Y39490000D01*
X46910000Y42560000D02*
X46910000Y42510000D01*
X46910000Y39490000D02*
X46910000Y39440000D01*
X46910000Y39440000D02*
X45090000Y39440000D01*
X47450000Y39490000D02*
X47690000Y39160000D01*
X47210000Y39160000D01*
X47450000Y39490000D01*
G36*
X47690000Y39160000D02*
G01*
X47210000Y39160000D01*
X47450000Y39490000D01*
X47690000Y39160000D01*
G37*
%TO.C,C11*%
X31738748Y45735000D02*
X32261252Y45735000D01*
X31738748Y44265000D02*
X32261252Y44265000D01*
%TO.C,SW1*%
X27750000Y8500000D02*
X27750000Y7000000D01*
X29000000Y4500000D02*
X33500000Y4500000D01*
X33500000Y11000000D02*
X29000000Y11000000D01*
X34750000Y7000000D02*
X34750000Y8500000D01*
%TO.C,R9*%
X20772936Y12735000D02*
X21227064Y12735000D01*
X20772936Y11265000D02*
X21227064Y11265000D01*
%TO.C,U1*%
X28390000Y31610000D02*
X28840000Y31610000D01*
X28390000Y31160000D02*
X28390000Y31610000D01*
X28390000Y24390000D02*
X28390000Y24840000D01*
X28840000Y24390000D02*
X28390000Y24390000D01*
X35160000Y31610000D02*
X35610000Y31610000D01*
X35610000Y31610000D02*
X35610000Y31160000D01*
X35610000Y24840000D02*
X35610000Y24390000D01*
X35610000Y24390000D02*
X35160000Y24390000D01*
X27750000Y31160000D02*
X27410000Y31630000D01*
X28090000Y31630000D01*
X27750000Y31160000D01*
G36*
X27750000Y31160000D02*
G01*
X27410000Y31630000D01*
X28090000Y31630000D01*
X27750000Y31160000D01*
G37*
%TO.C,R2*%
X40227064Y28735000D02*
X39772936Y28735000D01*
X40227064Y27265000D02*
X39772936Y27265000D01*
%TO.C,C14*%
X48738748Y37735000D02*
X49261252Y37735000D01*
X48738748Y36265000D02*
X49261252Y36265000D01*
%TO.C,R4*%
X42772936Y37735000D02*
X43227064Y37735000D01*
X42772936Y36265000D02*
X43227064Y36265000D01*
%TO.C,TP3*%
X55950000Y40000000D02*
G75*
G02*
X54050000Y40000000I-950000J0D01*
G01*
X54050000Y40000000D02*
G75*
G02*
X55950000Y40000000I950000J0D01*
G01*
%TO.C,TP5*%
X24950000Y28750000D02*
G75*
G02*
X23050000Y28750000I-950000J0D01*
G01*
X23050000Y28750000D02*
G75*
G02*
X24950000Y28750000I950000J0D01*
G01*
%TO.C,R1*%
X40227064Y30735000D02*
X39772936Y30735000D01*
X40227064Y29265000D02*
X39772936Y29265000D01*
%TO.C,U4*%
X29940000Y43560000D02*
X34060000Y43560000D01*
X29940000Y43465000D02*
X29940000Y43560000D01*
X29940000Y38440000D02*
X29940000Y38535000D01*
X34060000Y43560000D02*
X34060000Y43465000D01*
X34060000Y38535000D02*
X34060000Y38440000D01*
X34060000Y38440000D02*
X29940000Y38440000D01*
X29400000Y43470000D02*
X29160000Y43800000D01*
X29640000Y43800000D01*
X29400000Y43470000D01*
G36*
X29400000Y43470000D02*
G01*
X29160000Y43800000D01*
X29640000Y43800000D01*
X29400000Y43470000D01*
G37*
%TO.C,D1*%
X55315000Y12960000D02*
X55315000Y11040000D01*
X55315000Y11040000D02*
X58000000Y11040000D01*
X58000000Y12960000D02*
X55315000Y12960000D01*
%TO.C,C5*%
X28515000Y35238748D02*
X28515000Y35761252D01*
X29985000Y35238748D02*
X29985000Y35761252D01*
%TO.C,C12*%
X23738748Y17735000D02*
X24261252Y17735000D01*
X23738748Y16265000D02*
X24261252Y16265000D01*
%TO.C,C1*%
X50238748Y41735000D02*
X50761252Y41735000D01*
X50238748Y40265000D02*
X50761252Y40265000D01*
%TO.C,U3*%
X47090000Y30560000D02*
X48910000Y30560000D01*
X47090000Y30510000D02*
X47090000Y30560000D01*
X47090000Y27440000D02*
X47090000Y27490000D01*
X48910000Y30560000D02*
X48910000Y30510000D01*
X48910000Y27490000D02*
X48910000Y27440000D01*
X48910000Y27440000D02*
X47090000Y27440000D01*
X46550000Y30510000D02*
X46310000Y30840000D01*
X46790000Y30840000D01*
X46550000Y30510000D01*
G36*
X46550000Y30510000D02*
G01*
X46310000Y30840000D01*
X46790000Y30840000D01*
X46550000Y30510000D01*
G37*
%TO.C,R8*%
X22772936Y15235000D02*
X23227064Y15235000D01*
X22772936Y13765000D02*
X23227064Y13765000D01*
%TO.C,C10*%
X19738748Y33735000D02*
X20261252Y33735000D01*
X19738748Y32265000D02*
X20261252Y32265000D01*
%TO.C,R3*%
X45265000Y32727064D02*
X45265000Y32272936D01*
X46735000Y32727064D02*
X46735000Y32272936D01*
%TO.C,TP7*%
X27950000Y17000000D02*
G75*
G02*
X26050000Y17000000I-950000J0D01*
G01*
X26050000Y17000000D02*
G75*
G02*
X27950000Y17000000I950000J0D01*
G01*
%TO.C,C2*%
X41761252Y41735000D02*
X41238748Y41735000D01*
X41761252Y40265000D02*
X41238748Y40265000D01*
%TO.C,J3*%
X44620000Y47620000D02*
X44620000Y49000000D01*
X46000000Y47620000D02*
X44620000Y47620000D01*
X47270000Y50380000D02*
X57540000Y50380000D01*
X47270000Y47620000D02*
X47270000Y50380000D01*
X47270000Y47620000D02*
X57540000Y47620000D01*
X57540000Y47620000D02*
X57540000Y50380000D01*
%TO.C,R5*%
X23772936Y20735000D02*
X24227064Y20735000D01*
X23772936Y19265000D02*
X24227064Y19265000D01*
%TO.C,Q1*%
X42240000Y35560000D02*
X43760000Y35560000D01*
X42240000Y35510000D02*
X42240000Y35560000D01*
X42240000Y33610000D02*
X42240000Y34390000D01*
X42240000Y32440000D02*
X42240000Y32490000D01*
X43760000Y35560000D02*
X43760000Y34560000D01*
X43760000Y33440000D02*
X43760000Y32440000D01*
X43760000Y32440000D02*
X42240000Y32440000D01*
X41700000Y34380000D02*
X41940000Y34050000D01*
X41460000Y34050000D01*
X41700000Y34380000D01*
G36*
X41940000Y34050000D02*
G01*
X41460000Y34050000D01*
X41700000Y34380000D01*
X41940000Y34050000D01*
G37*
%TO.C,C8*%
X24761252Y24235000D02*
X24238748Y24235000D01*
X24761252Y22765000D02*
X24238748Y22765000D01*
%TO.C,TP6*%
X21950000Y9000000D02*
G75*
G02*
X20050000Y9000000I-950000J0D01*
G01*
X20050000Y9000000D02*
G75*
G02*
X21950000Y9000000I950000J0D01*
G01*
%TD*%
%LPC*%
D12*
%TO.C,C4*%
X37550000Y33000000D03*
X39450000Y33000000D03*
%TD*%
D13*
%TO.C,TP2*%
X41000000Y45000000D03*
%TD*%
D14*
%TO.C,C7*%
X25450000Y26250000D03*
X23550000Y26250000D03*
%TD*%
D15*
%TO.C,R10*%
X37000000Y39087500D03*
X37000000Y40912500D03*
%TD*%
D16*
%TO.C,R12*%
X51087500Y12000000D03*
X52912500Y12000000D03*
%TD*%
D17*
%TO.C,J2*%
X12000000Y18000000D03*
D18*
X14540000Y18000000D03*
X12000000Y15460000D03*
X14540000Y15460000D03*
X12000000Y12920000D03*
X14540000Y12920000D03*
X12000000Y10380000D03*
X14540000Y10380000D03*
X12000000Y7840000D03*
X14540000Y7840000D03*
%TD*%
D13*
%TO.C,TP1*%
X55500000Y43000000D03*
%TD*%
D15*
%TO.C,R11*%
X37000000Y43087500D03*
X37000000Y44912500D03*
%TD*%
D19*
%TO.C,J1*%
X53000000Y30000000D03*
D13*
X53000000Y27500000D03*
X55000000Y27500000D03*
X55000000Y30000000D03*
D20*
X57710000Y34770000D03*
X57710000Y22730000D03*
%TD*%
D15*
%TO.C,R7*%
X32700000Y20087500D03*
X32700000Y21912500D03*
%TD*%
D21*
%TO.C,C13*%
X20500000Y19050000D03*
X20500000Y20950000D03*
%TD*%
D22*
%TO.C,H4*%
X66000000Y4000000D03*
%TD*%
D16*
%TO.C,R6*%
X24087500Y37000000D03*
X25912500Y37000000D03*
%TD*%
D13*
%TO.C,TP4*%
X20000000Y23000000D03*
%TD*%
D12*
%TO.C,C9*%
X38050000Y24000000D03*
X39950000Y24000000D03*
%TD*%
D23*
%TO.C,Y1*%
X19450000Y27925000D03*
X21550000Y27925000D03*
X21550000Y29575000D03*
X19450000Y29575000D03*
%TD*%
D24*
%TO.C,J4*%
X39000000Y15000000D03*
D18*
X39000000Y12460000D03*
X39000000Y9920000D03*
%TD*%
D25*
%TO.C,C3*%
X34750000Y21750000D03*
X34750000Y19850000D03*
%TD*%
D14*
%TO.C,C6*%
X25450000Y31250000D03*
X23550000Y31250000D03*
%TD*%
D26*
%TO.C,U2*%
X47137500Y40050000D03*
X47137500Y41000000D03*
X47137500Y41950000D03*
X44862500Y41950000D03*
X44862500Y40050000D03*
%TD*%
D22*
%TO.C,H1*%
X4000000Y51000000D03*
%TD*%
D12*
%TO.C,C11*%
X31050000Y45000000D03*
X32950000Y45000000D03*
%TD*%
D27*
%TO.C,SW1*%
X28000000Y10000000D03*
X34500000Y10000000D03*
X28000000Y5500000D03*
X34500000Y5500000D03*
%TD*%
D16*
%TO.C,R9*%
X20087500Y12000000D03*
X21912500Y12000000D03*
%TD*%
D28*
%TO.C,U1*%
X27837500Y30750000D03*
X27837500Y30250000D03*
X27837500Y29750000D03*
X27837500Y29250000D03*
X27837500Y28750000D03*
X27837500Y28250000D03*
X27837500Y27750000D03*
X27837500Y27250000D03*
X27837500Y26750000D03*
X27837500Y26250000D03*
X27837500Y25750000D03*
X27837500Y25250000D03*
D29*
X29250000Y23837500D03*
X29750000Y23837500D03*
X30250000Y23837500D03*
X30750000Y23837500D03*
X31250000Y23837500D03*
X31750000Y23837500D03*
X32250000Y23837500D03*
X32750000Y23837500D03*
X33250000Y23837500D03*
X33750000Y23837500D03*
X34250000Y23837500D03*
X34750000Y23837500D03*
D28*
X36162500Y25250000D03*
X36162500Y25750000D03*
X36162500Y26250000D03*
X36162500Y26750000D03*
X36162500Y27250000D03*
X36162500Y27750000D03*
X36162500Y28250000D03*
X36162500Y28750000D03*
X36162500Y29250000D03*
X36162500Y29750000D03*
X36162500Y30250000D03*
X36162500Y30750000D03*
D29*
X34750000Y32162500D03*
X34250000Y32162500D03*
X33750000Y32162500D03*
X33250000Y32162500D03*
X32750000Y32162500D03*
X32250000Y32162500D03*
X31750000Y32162500D03*
X31250000Y32162500D03*
X30750000Y32162500D03*
X30250000Y32162500D03*
X29750000Y32162500D03*
X29250000Y32162500D03*
%TD*%
D30*
%TO.C,R2*%
X40912500Y28000000D03*
X39087500Y28000000D03*
%TD*%
D12*
%TO.C,C14*%
X48050000Y37000000D03*
X49950000Y37000000D03*
%TD*%
D16*
%TO.C,R4*%
X42087500Y37000000D03*
X43912500Y37000000D03*
%TD*%
D13*
%TO.C,TP3*%
X55000000Y40000000D03*
%TD*%
%TO.C,TP5*%
X24000000Y28750000D03*
%TD*%
D30*
%TO.C,R1*%
X40912500Y30000000D03*
X39087500Y30000000D03*
%TD*%
D31*
%TO.C,U4*%
X29525000Y42905000D03*
X29525000Y41635000D03*
X29525000Y40365000D03*
X29525000Y39095000D03*
X34475000Y39095000D03*
X34475000Y40365000D03*
X34475000Y41635000D03*
X34475000Y42905000D03*
%TD*%
D32*
%TO.C,D1*%
X56062500Y12000000D03*
X57937500Y12000000D03*
%TD*%
D21*
%TO.C,C5*%
X29250000Y34550000D03*
X29250000Y36450000D03*
%TD*%
D12*
%TO.C,C12*%
X23050000Y17000000D03*
X24950000Y17000000D03*
%TD*%
%TO.C,C1*%
X49550000Y41000000D03*
X51450000Y41000000D03*
%TD*%
D22*
%TO.C,H2*%
X66000000Y51000000D03*
%TD*%
D33*
%TO.C,U3*%
X46862500Y29950000D03*
X46862500Y29000000D03*
X46862500Y28050000D03*
X49137500Y28050000D03*
X49137500Y29000000D03*
X49137500Y29950000D03*
%TD*%
D16*
%TO.C,R8*%
X22087500Y14500000D03*
X23912500Y14500000D03*
%TD*%
D12*
%TO.C,C10*%
X19050000Y33000000D03*
X20950000Y33000000D03*
%TD*%
D34*
%TO.C,R3*%
X46000000Y33412500D03*
X46000000Y31587500D03*
%TD*%
D13*
%TO.C,TP7*%
X27000000Y17000000D03*
%TD*%
D14*
%TO.C,C2*%
X42450000Y41000000D03*
X40550000Y41000000D03*
%TD*%
D24*
%TO.C,J3*%
X46000000Y49000000D03*
D18*
X48540000Y49000000D03*
X51080000Y49000000D03*
X53620000Y49000000D03*
X56160000Y49000000D03*
%TD*%
D16*
%TO.C,R5*%
X23087500Y20000000D03*
X24912500Y20000000D03*
%TD*%
D35*
%TO.C,Q1*%
X42062500Y34950000D03*
X42062500Y33050000D03*
X43937500Y34000000D03*
%TD*%
D14*
%TO.C,C8*%
X25450000Y23500000D03*
X23550000Y23500000D03*
%TD*%
D36*
%TO.C,F1*%
X61400000Y43000000D03*
X58600000Y43000000D03*
%TD*%
D22*
%TO.C,H3*%
X4000000Y4000000D03*
%TD*%
D13*
%TO.C,TP6*%
X21000000Y9000000D03*
%TD*%
%LPD*%
M02*
