%TF.GenerationSoftware,KiCad,Pcbnew,10.0.6*%
%TF.CreationDate,2026-10-06T22:04:52+02:00*%
%TF.ProjectId,radio-usb-controller,72616469-6f2d-4757-9362-2d636f6e7472,R01.3*%
%TF.SameCoordinates,Original*%
%TF.FileFunction,Copper,L1,Top*%
%TF.FilePolarity,Positive*%
%FSLAX46Y46*%
G04 Gerber Fmt 4.6, Leading zero omitted, Abs format (unit mm)*
G04 Created by KiCad (PCBNEW 10.0.6) date 2026-10-06 22:04:52*
%MOMM*%
%LPD*%
G01*
G04 APERTURE LIST*
G04 Aperture macros list*
%AMRoundRect*
0 Rectangle with rounded corners*
0 $1 Rounding radius*
0 $2 $3 $4 $5 $6 $7 $8 $9 X,Y pos of 4 corners*
0 Add a 4 corners polygon primitive as box body*
4,1,4,$2,$3,$4,$5,$6,$7,$8,$9,$2,$3,0*
0 Add four circle primitives for the rounded corners*
1,1,$1+$1,$2,$3*
1,1,$1+$1,$4,$5*
1,1,$1+$1,$6,$7*
1,1,$1+$1,$8,$9*
0 Add four rect primitives between the rounded corners*
20,1,$1+$1,$2,$3,$4,$5,0*
20,1,$1+$1,$4,$5,$6,$7,0*
20,1,$1+$1,$6,$7,$8,$9,0*
20,1,$1+$1,$8,$9,$2,$3,0*%
G04 Aperture macros list end*
%TA.AperFunction,SMDPad,CuDef*%
%ADD10RoundRect,0.250000X-0.250000X-0.475000X0.250000X-0.475000X0.250000X0.475000X-0.250000X0.475000X0*%
%TD*%
%TA.AperFunction,SMDPad,CuDef*%
%ADD11C,1.500000*%
%TD*%
%TA.AperFunction,SMDPad,CuDef*%
%ADD12RoundRect,0.250000X0.250000X0.475000X-0.250000X0.475000X-0.250000X-0.475000X0.250000X-0.475000X0*%
%TD*%
%TA.AperFunction,SMDPad,CuDef*%
%ADD13RoundRect,0.250000X0.450000X-0.262500X0.450000X0.262500X-0.450000X0.262500X-0.450000X-0.262500X0*%
%TD*%
%TA.AperFunction,SMDPad,CuDef*%
%ADD14RoundRect,0.250000X-0.262500X-0.450000X0.262500X-0.450000X0.262500X0.450000X-0.262500X0.450000X0*%
%TD*%
%TA.AperFunction,ComponentPad*%
%ADD15RoundRect,0.250000X-0.600000X-0.600000X0.600000X-0.600000X0.600000X0.600000X-0.600000X0.600000X0*%
%TD*%
%TA.AperFunction,ComponentPad*%
%ADD16C,1.700000*%
%TD*%
%TA.AperFunction,ComponentPad*%
%ADD17R,1.500000X1.500000*%
%TD*%
%TA.AperFunction,ComponentPad*%
%ADD18C,1.500000*%
%TD*%
%TA.AperFunction,ComponentPad*%
%ADD19C,3.600000*%
%TD*%
%TA.AperFunction,SMDPad,CuDef*%
%ADD20RoundRect,0.250000X0.475000X-0.250000X0.475000X0.250000X-0.475000X0.250000X-0.475000X-0.250000X0*%
%TD*%
%TA.AperFunction,SMDPad,CuDef*%
%ADD21RoundRect,0.250000X-0.400000X-0.300000X0.400000X-0.300000X0.400000X0.300000X-0.400000X0.300000X0*%
%TD*%
%TA.AperFunction,ComponentPad*%
%ADD22R,1.700000X1.700000*%
%TD*%
%TA.AperFunction,SMDPad,CuDef*%
%ADD23RoundRect,0.250000X-0.475000X0.250000X-0.475000X-0.250000X0.475000X-0.250000X0.475000X0.250000X0*%
%TD*%
%TA.AperFunction,SMDPad,CuDef*%
%ADD24RoundRect,0.150000X0.512500X0.150000X-0.512500X0.150000X-0.512500X-0.150000X0.512500X-0.150000X0*%
%TD*%
%TA.AperFunction,ComponentPad*%
%ADD25C,2.000000*%
%TD*%
%TA.AperFunction,SMDPad,CuDef*%
%ADD26RoundRect,0.075000X-0.662500X-0.075000X0.662500X-0.075000X0.662500X0.075000X-0.662500X0.075000X0*%
%TD*%
%TA.AperFunction,SMDPad,CuDef*%
%ADD27RoundRect,0.075000X-0.075000X-0.662500X0.075000X-0.662500X0.075000X0.662500X-0.075000X0.662500X0*%
%TD*%
%TA.AperFunction,SMDPad,CuDef*%
%ADD28RoundRect,0.250000X0.262500X0.450000X-0.262500X0.450000X-0.262500X-0.450000X0.262500X-0.450000X0*%
%TD*%
%TA.AperFunction,SMDPad,CuDef*%
%ADD29RoundRect,0.150000X-0.825000X-0.150000X0.825000X-0.150000X0.825000X0.150000X-0.825000X0.150000X0*%
%TD*%
%TA.AperFunction,SMDPad,CuDef*%
%ADD30RoundRect,0.243750X-0.243750X-0.456250X0.243750X-0.456250X0.243750X0.456250X-0.243750X0.456250X0*%
%TD*%
%TA.AperFunction,SMDPad,CuDef*%
%ADD31RoundRect,0.150000X-0.512500X-0.150000X0.512500X-0.150000X0.512500X0.150000X-0.512500X0.150000X0*%
%TD*%
%TA.AperFunction,SMDPad,CuDef*%
%ADD32RoundRect,0.250000X-0.450000X0.262500X-0.450000X-0.262500X0.450000X-0.262500X0.450000X0.262500X0*%
%TD*%
%TA.AperFunction,SMDPad,CuDef*%
%ADD33RoundRect,0.150000X-0.587500X-0.150000X0.587500X-0.150000X0.587500X0.150000X-0.587500X0.150000X0*%
%TD*%
%TA.AperFunction,SMDPad,CuDef*%
%ADD34RoundRect,0.270000X0.630000X0.630000X-0.630000X0.630000X-0.630000X-0.630000X0.630000X-0.630000X0*%
%TD*%
%TA.AperFunction,ViaPad*%
%ADD35C,0.600000*%
%TD*%
%TA.AperFunction,Conductor*%
%ADD36C,0.500000*%
%TD*%
%TA.AperFunction,Conductor*%
%ADD37C,0.200000*%
%TD*%
%TA.AperFunction,Conductor*%
%ADD38C,0.400000*%
%TD*%
G04 APERTURE END LIST*
D10*
%TO.P,C4,1*%
%TO.N,/V3*%
X37550000Y33000000D03*
%TO.P,C4,2*%
%TO.N,/GND*%
X39450000Y33000000D03*
%TD*%
D11*
%TO.P,TP2,1*%
%TO.N,/V3*%
X41000000Y45000000D03*
%TD*%
D12*
%TO.P,C7,1*%
%TO.N,/V3*%
X25450000Y26250000D03*
%TO.P,C7,2*%
%TO.N,/GND*%
X23550000Y26250000D03*
%TD*%
D13*
%TO.P,R10,1*%
%TO.N,/V3*%
X37000000Y39087500D03*
%TO.P,R10,2*%
%TO.N,/SCL*%
X37000000Y40912500D03*
%TD*%
D14*
%TO.P,R12,1*%
%TO.N,/STATUS_LED*%
X51087500Y12000000D03*
%TO.P,R12,2*%
%TO.N,/LED_A*%
X52912500Y12000000D03*
%TD*%
D15*
%TO.P,J2,1*%
%TO.N,/GND*%
X12000000Y18000000D03*
D16*
%TO.P,J2,2*%
%TO.N,/V3*%
X14540000Y18000000D03*
%TO.P,J2,3*%
%TO.N,/SCK*%
X12000000Y15460000D03*
%TO.P,J2,4*%
%TO.N,/GND*%
X14540000Y15460000D03*
%TO.P,J2,5*%
%TO.N,/MOSI*%
X12000000Y12920000D03*
%TO.P,J2,6*%
%TO.N,/MISO*%
X14540000Y12920000D03*
%TO.P,J2,7*%
%TO.N,/CS_N*%
X12000000Y10380000D03*
%TO.P,J2,8*%
%TO.N,/RF_RESET_N*%
X14540000Y10380000D03*
%TO.P,J2,9*%
%TO.N,/IRQ0*%
X12000000Y7840000D03*
%TO.P,J2,10*%
%TO.N,/IRQ2*%
X14540000Y7840000D03*
%TD*%
D11*
%TO.P,TP1,1*%
%TO.N,/VBUS*%
X55500000Y43000000D03*
%TD*%
D13*
%TO.P,R11,1*%
%TO.N,/V3*%
X37000000Y43087500D03*
%TO.P,R11,2*%
%TO.N,/SDA*%
X37000000Y44912500D03*
%TD*%
D17*
%TO.P,J1,1*%
%TO.N,/VBUS_USB*%
X53000000Y30000000D03*
D18*
%TO.P,J1,2*%
%TO.N,/USB_DM*%
X53000000Y27500000D03*
%TO.P,J1,3*%
%TO.N,/USB_DP*%
X55000000Y27500000D03*
%TO.P,J1,4*%
%TO.N,/GND*%
X55000000Y30000000D03*
D19*
%TO.P,J1,5*%
X57710000Y34770000D03*
X57710000Y22730000D03*
%TD*%
D13*
%TO.P,R7,1*%
%TO.N,/BOOT1*%
X32700000Y20087500D03*
%TO.P,R7,2*%
%TO.N,/GND*%
X32700000Y21912500D03*
%TD*%
D20*
%TO.P,C13,1*%
%TO.N,/V3*%
X20500000Y19050000D03*
%TO.P,C13,2*%
%TO.N,/GND*%
X20500000Y20950000D03*
%TD*%
D14*
%TO.P,R6,1*%
%TO.N,/BOOT0*%
X24087500Y37000000D03*
%TO.P,R6,2*%
%TO.N,/GND*%
X25912500Y37000000D03*
%TD*%
D11*
%TO.P,TP4,1*%
%TO.N,/NRST*%
X20000000Y23000000D03*
%TD*%
D10*
%TO.P,C9,1*%
%TO.N,/V3*%
X38050000Y24000000D03*
%TO.P,C9,2*%
%TO.N,/GND*%
X39950000Y24000000D03*
%TD*%
D21*
%TO.P,Y1,1*%
%TO.N,/V3*%
X19450000Y27925000D03*
%TO.P,Y1,2*%
%TO.N,/GND*%
X21550000Y27925000D03*
%TO.P,Y1,3*%
%TO.N,/HSE8*%
X21550000Y29575000D03*
%TO.P,Y1,4*%
%TO.N,/V3*%
X19450000Y29575000D03*
%TD*%
D22*
%TO.P,J4,1*%
%TO.N,/GND*%
X39000000Y15000000D03*
D16*
%TO.P,J4,2*%
%TO.N,/UART_TX*%
X39000000Y12460000D03*
%TO.P,J4,3*%
%TO.N,/UART_RX*%
X39000000Y9920000D03*
%TD*%
D23*
%TO.P,C3,1*%
%TO.N,/V3*%
X34750000Y21750000D03*
%TO.P,C3,2*%
%TO.N,/GND*%
X34750000Y19850000D03*
%TD*%
D12*
%TO.P,C6,1*%
%TO.N,/V3*%
X25450000Y31250000D03*
%TO.P,C6,2*%
%TO.N,/GND*%
X23550000Y31250000D03*
%TD*%
D24*
%TO.P,U2,1*%
%TO.N,/VBUS*%
X47137500Y40050000D03*
%TO.P,U2,2*%
%TO.N,/GND*%
X47137500Y41000000D03*
%TO.P,U2,3*%
%TO.N,/VBUS*%
X47137500Y41950000D03*
%TO.P,U2,4*%
%TO.N,unconnected-(U2-NC-Pad4)*%
X44862500Y41950000D03*
%TO.P,U2,5*%
%TO.N,/V3*%
X44862500Y40050000D03*
%TD*%
D10*
%TO.P,C11,1*%
%TO.N,/V3*%
X31050000Y45000000D03*
%TO.P,C11,2*%
%TO.N,/GND*%
X32950000Y45000000D03*
%TD*%
D25*
%TO.P,SW1,1*%
%TO.N,/NRST*%
X28000000Y10000000D03*
X34500000Y10000000D03*
%TO.P,SW1,2*%
%TO.N,/GND*%
X28000000Y5500000D03*
X34500000Y5500000D03*
%TD*%
D14*
%TO.P,R9,1*%
%TO.N,/RF_RESET_N*%
X20087500Y12000000D03*
%TO.P,R9,2*%
%TO.N,/GND*%
X21912500Y12000000D03*
%TD*%
D26*
%TO.P,U1,1*%
%TO.N,/V3*%
X27837500Y30750000D03*
%TO.P,U1,2*%
%TO.N,unconnected-(U1-PC13-Pad2)*%
X27837500Y30250000D03*
%TO.P,U1,3*%
%TO.N,unconnected-(U1-PC14-Pad3)*%
X27837500Y29750000D03*
%TO.P,U1,4*%
%TO.N,unconnected-(U1-PC15-Pad4)*%
X27837500Y29250000D03*
%TO.P,U1,5*%
%TO.N,/HSE8*%
X27837500Y28750000D03*
%TO.P,U1,6*%
%TO.N,unconnected-(U1-PD1-Pad6)*%
X27837500Y28250000D03*
%TO.P,U1,7*%
%TO.N,/NRST*%
X27837500Y27750000D03*
%TO.P,U1,8*%
%TO.N,/GND*%
X27837500Y27250000D03*
%TO.P,U1,9*%
%TO.N,/V3*%
X27837500Y26750000D03*
%TO.P,U1,10*%
%TO.N,unconnected-(U1-PA0-Pad10)*%
X27837500Y26250000D03*
%TO.P,U1,11*%
%TO.N,unconnected-(U1-PA1-Pad11)*%
X27837500Y25750000D03*
%TO.P,U1,12*%
%TO.N,unconnected-(U1-PA2-Pad12)*%
X27837500Y25250000D03*
D27*
%TO.P,U1,13*%
%TO.N,unconnected-(U1-PA3-Pad13)*%
X29250000Y23837500D03*
%TO.P,U1,14*%
%TO.N,/CS_N*%
X29750000Y23837500D03*
%TO.P,U1,15*%
%TO.N,/SCK*%
X30250000Y23837500D03*
%TO.P,U1,16*%
%TO.N,/MISO*%
X30750000Y23837500D03*
%TO.P,U1,17*%
%TO.N,/MOSI*%
X31250000Y23837500D03*
%TO.P,U1,18*%
%TO.N,/IRQ0*%
X31750000Y23837500D03*
%TO.P,U1,19*%
%TO.N,/IRQ2*%
X32250000Y23837500D03*
%TO.P,U1,20*%
%TO.N,/BOOT1*%
X32750000Y23837500D03*
%TO.P,U1,21*%
%TO.N,/RF_RESET_N*%
X33250000Y23837500D03*
%TO.P,U1,22*%
%TO.N,unconnected-(U1-PB11-Pad22)*%
X33750000Y23837500D03*
%TO.P,U1,23*%
%TO.N,/GND*%
X34250000Y23837500D03*
%TO.P,U1,24*%
%TO.N,/V3*%
X34750000Y23837500D03*
D26*
%TO.P,U1,25*%
%TO.N,/USB_ATTACH_N*%
X36162500Y25250000D03*
%TO.P,U1,26*%
%TO.N,/STATUS_LED*%
X36162500Y25750000D03*
%TO.P,U1,27*%
%TO.N,unconnected-(U1-PB14-Pad27)*%
X36162500Y26250000D03*
%TO.P,U1,28*%
%TO.N,unconnected-(U1-PB15-Pad28)*%
X36162500Y26750000D03*
%TO.P,U1,29*%
%TO.N,unconnected-(U1-PA8-Pad29)*%
X36162500Y27250000D03*
%TO.P,U1,30*%
%TO.N,/UART_TX*%
X36162500Y27750000D03*
%TO.P,U1,31*%
%TO.N,/UART_RX*%
X36162500Y28250000D03*
%TO.P,U1,32*%
%TO.N,/USB_DM_MCU*%
X36162500Y28750000D03*
%TO.P,U1,33*%
%TO.N,/USB_DP_MCU*%
X36162500Y29250000D03*
%TO.P,U1,34*%
%TO.N,/SWDIO*%
X36162500Y29750000D03*
%TO.P,U1,35*%
%TO.N,/GND*%
X36162500Y30250000D03*
%TO.P,U1,36*%
%TO.N,/V3*%
X36162500Y30750000D03*
D27*
%TO.P,U1,37*%
%TO.N,/SWCLK*%
X34750000Y32162500D03*
%TO.P,U1,38*%
%TO.N,unconnected-(U1-PA15-Pad38)*%
X34250000Y32162500D03*
%TO.P,U1,39*%
%TO.N,unconnected-(U1-PB3-Pad39)*%
X33750000Y32162500D03*
%TO.P,U1,40*%
%TO.N,unconnected-(U1-PB4-Pad40)*%
X33250000Y32162500D03*
%TO.P,U1,41*%
%TO.N,unconnected-(U1-PB5-Pad41)*%
X32750000Y32162500D03*
%TO.P,U1,42*%
%TO.N,/SCL*%
X32250000Y32162500D03*
%TO.P,U1,43*%
%TO.N,/SDA*%
X31750000Y32162500D03*
%TO.P,U1,44*%
%TO.N,/BOOT0*%
X31250000Y32162500D03*
%TO.P,U1,45*%
%TO.N,unconnected-(U1-PB8-Pad45)*%
X30750000Y32162500D03*
%TO.P,U1,46*%
%TO.N,unconnected-(U1-PB9-Pad46)*%
X30250000Y32162500D03*
%TO.P,U1,47*%
%TO.N,/GND*%
X29750000Y32162500D03*
%TO.P,U1,48*%
%TO.N,/V3*%
X29250000Y32162500D03*
%TD*%
D28*
%TO.P,R2,1*%
%TO.N,/USB_DM*%
X40912500Y28000000D03*
%TO.P,R2,2*%
%TO.N,/USB_DM_MCU*%
X39087500Y28000000D03*
%TD*%
D10*
%TO.P,C14,1*%
%TO.N,/VBUS_USB*%
X48050000Y37000000D03*
%TO.P,C14,2*%
%TO.N,/GND*%
X49950000Y37000000D03*
%TD*%
D14*
%TO.P,R4,1*%
%TO.N,/V3*%
X42087500Y37000000D03*
%TO.P,R4,2*%
%TO.N,/USB_ATTACH_N*%
X43912500Y37000000D03*
%TD*%
D11*
%TO.P,TP3,1*%
%TO.N,/GND*%
X55000000Y40000000D03*
%TD*%
%TO.P,TP5,1*%
%TO.N,/HSE8*%
X24000000Y28750000D03*
%TD*%
D28*
%TO.P,R1,1*%
%TO.N,/USB_DP*%
X40912500Y30000000D03*
%TO.P,R1,2*%
%TO.N,/USB_DP_MCU*%
X39087500Y30000000D03*
%TD*%
D29*
%TO.P,U4,1*%
%TO.N,/GND*%
X29525000Y42905000D03*
%TO.P,U4,2*%
X29525000Y41635000D03*
%TO.P,U4,3*%
X29525000Y40365000D03*
%TO.P,U4,4*%
X29525000Y39095000D03*
%TO.P,U4,5*%
%TO.N,/SDA*%
X34475000Y39095000D03*
%TO.P,U4,6*%
%TO.N,/SCL*%
X34475000Y40365000D03*
%TO.P,U4,7*%
%TO.N,/GND*%
X34475000Y41635000D03*
%TO.P,U4,8*%
%TO.N,/V3*%
X34475000Y42905000D03*
%TD*%
D30*
%TO.P,D1,1*%
%TO.N,/GND*%
X56062500Y12000000D03*
%TO.P,D1,2*%
%TO.N,/LED_A*%
X57937500Y12000000D03*
%TD*%
D20*
%TO.P,C5,1*%
%TO.N,/V3*%
X29250000Y34550000D03*
%TO.P,C5,2*%
%TO.N,/GND*%
X29250000Y36450000D03*
%TD*%
D10*
%TO.P,C12,1*%
%TO.N,/NRST*%
X23050000Y17000000D03*
%TO.P,C12,2*%
%TO.N,/GND*%
X24950000Y17000000D03*
%TD*%
%TO.P,C1,1*%
%TO.N,/VBUS*%
X49550000Y41000000D03*
%TO.P,C1,2*%
%TO.N,/GND*%
X51450000Y41000000D03*
%TD*%
D31*
%TO.P,U3,1*%
%TO.N,/USB_DP*%
X46862500Y29950000D03*
%TO.P,U3,2*%
%TO.N,/GND*%
X46862500Y29000000D03*
%TO.P,U3,3*%
%TO.N,/USB_DM*%
X46862500Y28050000D03*
%TO.P,U3,4*%
X49137500Y28050000D03*
%TO.P,U3,5*%
%TO.N,/VBUS_USB*%
X49137500Y29000000D03*
%TO.P,U3,6*%
%TO.N,/USB_DP*%
X49137500Y29950000D03*
%TD*%
D14*
%TO.P,R8,1*%
%TO.N,/V3*%
X22087500Y14500000D03*
%TO.P,R8,2*%
%TO.N,/CS_N*%
X23912500Y14500000D03*
%TD*%
D10*
%TO.P,C10,1*%
%TO.N,/V3*%
X19050000Y33000000D03*
%TO.P,C10,2*%
%TO.N,/GND*%
X20950000Y33000000D03*
%TD*%
D32*
%TO.P,R3,1*%
%TO.N,/USB_PULLUP*%
X46000000Y33412500D03*
%TO.P,R3,2*%
%TO.N,/USB_DP*%
X46000000Y31587500D03*
%TD*%
D11*
%TO.P,TP7,1*%
%TO.N,/CS_N*%
X27000000Y17000000D03*
%TD*%
D12*
%TO.P,C2,1*%
%TO.N,/V3*%
X42450000Y41000000D03*
%TO.P,C2,2*%
%TO.N,/GND*%
X40550000Y41000000D03*
%TD*%
D22*
%TO.P,J3,1*%
%TO.N,/V3*%
X46000000Y49000000D03*
D16*
%TO.P,J3,2*%
%TO.N,/SWDIO*%
X48540000Y49000000D03*
%TO.P,J3,3*%
%TO.N,/GND*%
X51080000Y49000000D03*
%TO.P,J3,4*%
%TO.N,/SWCLK*%
X53620000Y49000000D03*
%TO.P,J3,5*%
%TO.N,/NRST*%
X56160000Y49000000D03*
%TD*%
D14*
%TO.P,R5,1*%
%TO.N,/V3*%
X23087500Y20000000D03*
%TO.P,R5,2*%
%TO.N,/NRST*%
X24912500Y20000000D03*
%TD*%
D33*
%TO.P,Q1,1*%
%TO.N,/USB_ATTACH_N*%
X42062500Y34950000D03*
%TO.P,Q1,2*%
%TO.N,/V3*%
X42062500Y33050000D03*
%TO.P,Q1,3*%
%TO.N,/USB_PULLUP*%
X43937500Y34000000D03*
%TD*%
D12*
%TO.P,C8,1*%
%TO.N,/V3*%
X25450000Y23500000D03*
%TO.P,C8,2*%
%TO.N,/GND*%
X23550000Y23500000D03*
%TD*%
D34*
%TO.P,F1,1*%
%TO.N,/VBUS_USB*%
X61400000Y43000000D03*
%TO.P,F1,2*%
%TO.N,/VBUS*%
X58600000Y43000000D03*
%TD*%
D11*
%TO.P,TP6,1*%
%TO.N,/RF_RESET_N*%
X21000000Y9000000D03*
%TD*%
D35*
%TO.N,/V3*%
X38050000Y23000000D03*
X35800000Y21750000D03*
X25450000Y27300000D03*
X42000000Y45000000D03*
X18400000Y27925000D03*
X18050000Y33000000D03*
X21500000Y19050000D03*
X43350000Y41000000D03*
X18400000Y29575000D03*
X38000000Y43087500D03*
X43800000Y39400000D03*
X22100000Y20000000D03*
X30050000Y45000000D03*
X37550000Y34000000D03*
X35500000Y42905000D03*
X25450000Y32250000D03*
X28250000Y34550000D03*
X41100000Y33050000D03*
X38000000Y39087500D03*
X25450000Y22500000D03*
X21050000Y14500000D03*
X41100000Y37000000D03*
%TO.N,/GND*%
X19200000Y20950000D03*
X22550000Y26250000D03*
X35500000Y41635000D03*
X45900000Y29000000D03*
X40950000Y24000000D03*
X54000000Y40000000D03*
X34750000Y18850000D03*
X32800000Y22200000D03*
X39550000Y41000000D03*
X52449999Y41000000D03*
X28550000Y42905000D03*
X28550000Y39095000D03*
X22950000Y12000000D03*
X24950000Y15900000D03*
X22550000Y23500000D03*
X21950000Y33000000D03*
X46250000Y41000000D03*
X28550000Y40365000D03*
X29250000Y37450000D03*
X30700000Y33850000D03*
X50949999Y37000000D03*
X33950000Y45000000D03*
X37850000Y30950000D03*
X39450000Y31900000D03*
X28550000Y41635000D03*
X26400000Y28250000D03*
X22500000Y27925000D03*
X56062500Y13000000D03*
X22550000Y31250000D03*
%TO.N,/STATUS_LED*%
X37672700Y18784500D03*
X34900600Y25678800D03*
%TO.N,/SCK*%
X31526500Y26400000D03*
%TO.N,/MOSI*%
X27999000Y20807500D03*
%TO.N,/MISO*%
X28969300Y21281100D03*
%TO.N,/RF_RESET_N*%
X28389700Y19165400D03*
X30612300Y26952300D03*
%TO.N,/IRQ0*%
X31750000Y25091900D03*
%TO.N,/SDA*%
X35756400Y39730600D03*
X39037500Y44936200D03*
%TO.N,/VBUS_USB*%
X61400000Y43000000D03*
X47050000Y37000000D03*
X50199999Y29000000D03*
%TO.N,/BOOT1*%
X32954600Y25716900D03*
X36075000Y22582000D03*
%TO.N,/NRST*%
X30207000Y25690400D03*
%TO.N,/UART_TX*%
X34892300Y27750000D03*
%TO.N,/SWDIO*%
X34292200Y29660800D03*
%TD*%
%TO.N,/V3*%
D36*
X31050000Y45000000D02*
X30050000Y45000000D01*
X19450000Y27925000D02*
X18400000Y27925000D01*
D37*
X36162500Y30750000D02*
X37000000Y30750000D01*
D36*
X42062000Y33050000D02*
X42062500Y33050000D01*
D37*
X27837500Y26750000D02*
X25950000Y26750000D01*
D36*
X23087500Y20000000D02*
X22100000Y20000000D01*
X42450000Y41000000D02*
X43350000Y41000000D01*
D37*
X29250000Y32162500D02*
X29250000Y33600000D01*
D36*
X41000000Y45000000D02*
X42000000Y45000000D01*
X37000000Y31800000D02*
X37550000Y33000000D01*
D37*
X27837500Y30750000D02*
X26600000Y30750000D01*
D36*
X25450000Y26250000D02*
X25450000Y26250000D01*
X37000000Y43087500D02*
X38000000Y43087500D01*
X38050000Y24000000D02*
X38050000Y23000000D01*
X42062500Y33050000D02*
X41100000Y33050000D01*
X25450000Y31250000D02*
X25450000Y32250000D01*
X44862500Y40050000D02*
X43500000Y40050000D01*
X26600000Y30750000D02*
X26100000Y31250000D01*
X37000000Y39087500D02*
X38000000Y39087500D01*
D37*
X37000000Y30750000D02*
X37000000Y31800000D01*
D36*
X20500000Y19050000D02*
X21500000Y19050000D01*
X44862500Y40050000D02*
X43800000Y39400000D01*
X29250000Y34550000D02*
X28250000Y34550000D01*
X44862000Y40050000D02*
X44862500Y40050000D01*
X43500000Y40050000D02*
X42450000Y41000000D01*
X34750000Y21750000D02*
X35800000Y21750000D01*
X19050000Y33000000D02*
X18050000Y33000000D01*
X37550000Y33000000D02*
X37550000Y34000000D01*
X19450000Y29575000D02*
X18400000Y29575000D01*
D37*
X34750000Y23837500D02*
X34750000Y22400000D01*
D36*
X22087500Y14500000D02*
X21050000Y14500000D01*
X29250000Y33600000D02*
X29250000Y34550000D01*
X26100000Y31250000D02*
X25450000Y31250000D01*
X25950000Y26750000D02*
X25450000Y26250000D01*
X34475000Y42905000D02*
X35500000Y42905000D01*
X25450000Y23500000D02*
X25450000Y22500000D01*
X25450000Y26250000D02*
X25450000Y27300000D01*
X34750000Y22400000D02*
X34750000Y21750000D01*
X42087500Y37000000D02*
X41100000Y37000000D01*
%TO.N,/GND*%
X23550000Y26250000D02*
X22550000Y26250000D01*
D37*
X46862000Y29000000D02*
X46862500Y29000000D01*
D36*
X29250000Y36450000D02*
X29250000Y37450000D01*
D37*
X28538400Y43540200D02*
X25912500Y40914300D01*
X30700000Y33250000D02*
X30700000Y33850000D01*
X29250000Y37450000D02*
X29250000Y43481800D01*
D38*
X56062500Y12000000D02*
X56062500Y13000000D01*
X29525000Y40365000D02*
X28550000Y40365000D01*
D36*
X23550000Y23500000D02*
X22550000Y23500000D01*
D38*
X47137500Y41000000D02*
X46250000Y41000000D01*
X21912500Y12000000D02*
X22950000Y12000000D01*
D37*
X36162500Y30250000D02*
X37150000Y30250000D01*
D36*
X32950000Y45000000D02*
X33950000Y45000000D01*
X24950000Y17000000D02*
X24950000Y15900000D01*
D38*
X34475000Y41635000D02*
X35500000Y41635000D01*
D37*
X26400000Y27250000D02*
X26400000Y28250000D01*
X29750000Y32162500D02*
X29750000Y33250000D01*
D38*
X55000000Y40000000D02*
X54000000Y40000000D01*
X46862500Y29000000D02*
X45900000Y29000000D01*
X21550000Y27925000D02*
X22500000Y27925000D01*
D36*
X23550000Y31250000D02*
X22550000Y31250000D01*
X39450000Y33000000D02*
X39450000Y31900000D01*
D38*
X29525000Y39095000D02*
X28550000Y39095000D01*
D37*
X29191600Y43540200D02*
X28538400Y43540200D01*
X27837500Y27250000D02*
X26400000Y27250000D01*
D36*
X20950000Y33000000D02*
X21950000Y33000000D01*
X20500000Y20950000D02*
X19200000Y20950000D01*
X34750000Y19850000D02*
X34750000Y18850000D01*
D37*
X37150000Y30250000D02*
X37850000Y30950000D01*
D38*
X29525000Y42905000D02*
X28550000Y42905000D01*
X29525000Y41635000D02*
X28550000Y41635000D01*
D36*
X51449999Y41000000D02*
X52449999Y41000000D01*
D37*
X32800000Y22750000D02*
X32800000Y22200000D01*
X29250000Y43481800D02*
X29191600Y43540200D01*
D36*
X40550000Y41000000D02*
X39550000Y41000000D01*
D37*
X25912500Y40914300D02*
X25912500Y37000000D01*
D36*
X49949999Y37000000D02*
X50949999Y37000000D01*
X39950000Y24000000D02*
X40950000Y24000000D01*
D37*
X34250000Y22750000D02*
X32800000Y22750000D01*
X29750000Y33250000D02*
X30700000Y33250000D01*
X34250000Y23837500D02*
X34250000Y22750000D01*
%TO.N,/SCL*%
X34071600Y40365000D02*
X32250000Y38543400D01*
X34475000Y40365000D02*
X34071600Y40365000D01*
X32250000Y38543400D02*
X32250000Y32162500D01*
X37000000Y40912500D02*
X35022500Y40912500D01*
X35022500Y40912500D02*
X34475000Y40365000D01*
%TO.N,/STATUS_LED*%
X34971800Y25750000D02*
X34900600Y25678800D01*
X44303000Y18784500D02*
X51087500Y12000000D01*
X37672700Y18784500D02*
X44303000Y18784500D01*
X36162500Y25750000D02*
X34971800Y25750000D01*
%TO.N,/LED_A*%
X53965400Y10947100D02*
X52912500Y12000000D01*
X56884600Y10947100D02*
X53965400Y10947100D01*
X57937500Y12000000D02*
X56884600Y10947100D01*
%TO.N,/SCK*%
X31526500Y25940700D02*
X30250000Y24664200D01*
X30250000Y24664200D02*
X30250000Y23837500D01*
X31526500Y26400000D02*
X31526500Y25940700D01*
%TO.N,/MOSI*%
X31250000Y23837500D02*
X31250000Y22679000D01*
X28162400Y20644100D02*
X27999000Y20807500D01*
X31250000Y22679000D02*
X29215100Y20644100D01*
X29215100Y20644100D02*
X28162400Y20644100D01*
%TO.N,/MISO*%
X28969300Y21281100D02*
X30750000Y23061800D01*
X30750000Y23061800D02*
X30750000Y23837500D01*
%TO.N,/CS_N*%
X29750000Y23837500D02*
X29750000Y23036800D01*
X21124500Y15517300D02*
X22895200Y15517300D01*
X13270000Y13338400D02*
X14012000Y14080400D01*
X27000000Y17000000D02*
X24500000Y14500000D01*
X24500000Y14500000D02*
X23912500Y14500000D01*
X14012000Y14080400D02*
X19687600Y14080400D01*
X19687600Y14080400D02*
X21124500Y15517300D01*
X27000000Y20659300D02*
X27000000Y17000000D01*
X27749900Y21409200D02*
X27000000Y20659300D01*
X13270000Y11650000D02*
X13270000Y13338400D01*
X22895200Y15517300D02*
X23912500Y14500000D01*
X12000000Y10380000D02*
X13270000Y11650000D01*
X29750000Y23036800D02*
X28122400Y21409200D01*
X28122400Y21409200D02*
X27749900Y21409200D01*
%TO.N,/RF_RESET_N*%
X32523600Y27001700D02*
X30661700Y27001700D01*
X24854800Y13341500D02*
X28389700Y16876400D01*
X14540000Y10380000D02*
X20087500Y10380000D01*
X33598300Y25291000D02*
X33598300Y25927000D01*
X20087500Y10380000D02*
X20087500Y12000000D01*
X33250000Y23837500D02*
X33250000Y24942700D01*
X28389700Y16876400D02*
X28389700Y19165400D01*
X20087500Y12000000D02*
X21429000Y13341500D01*
X21000000Y9000000D02*
X20087500Y9912500D01*
X21429000Y13341500D02*
X24854800Y13341500D01*
X20087500Y9912500D02*
X20087500Y10380000D01*
X30661700Y27001700D02*
X30612300Y26952300D01*
X33250000Y24942700D02*
X33598300Y25291000D01*
X33598300Y25927000D02*
X32523600Y27001700D01*
%TO.N,/IRQ0*%
X31750000Y23837500D02*
X31750000Y25091900D01*
%TO.N,/IRQ2*%
X30862500Y17245100D02*
X30862500Y21624300D01*
X32250000Y23011800D02*
X32250000Y23837500D01*
X30862500Y21624300D02*
X32250000Y23011800D01*
X21457400Y7840000D02*
X30862500Y17245100D01*
X14540000Y7840000D02*
X21457400Y7840000D01*
%TO.N,/VBUS*%
D36*
X47138000Y40050000D02*
X47137500Y40050000D01*
X47138000Y41950000D02*
X47137500Y41950000D01*
X56600000Y44000000D02*
X49550000Y44000000D01*
X47137500Y41950000D02*
X48300000Y41950000D01*
X58600000Y43000000D02*
X56600000Y44000000D01*
X48300000Y40050000D02*
X47137500Y40050000D01*
X49550000Y44000000D02*
X49550000Y41000000D01*
X48300000Y41950000D02*
X48300000Y41000000D01*
X49550000Y41000000D02*
X48300000Y41000000D01*
X58600000Y43000000D02*
X55500000Y43000000D01*
X48300000Y41000000D02*
X48300000Y40050000D01*
%TO.N,/SDA*%
D37*
X39037500Y44936200D02*
X37023700Y44936200D01*
X35120800Y39095000D02*
X35756400Y39730600D01*
X31750000Y41823800D02*
X31750000Y32162500D01*
X34838700Y44912500D02*
X31750000Y41823800D01*
X37000000Y44912500D02*
X34838700Y44912500D01*
X34475000Y39095000D02*
X35120800Y39095000D01*
X37023700Y44936200D02*
X37000000Y44912500D01*
%TO.N,/VBUS_USB*%
D36*
X48050000Y37000000D02*
X47050000Y37000000D01*
X49137499Y29000000D02*
X50199999Y29000000D01*
%TO.N,/USB_DM*%
D37*
X52449999Y28050000D02*
X53000000Y27500000D01*
X45000000Y28000000D02*
X46862500Y28050000D01*
X46862500Y28050000D02*
X46862000Y28050000D01*
X49137500Y28050000D02*
X52449999Y28050000D01*
X40912500Y28000000D02*
X45000000Y28000000D01*
X46862500Y28050000D02*
X49137500Y28050000D01*
%TO.N,/USB_DP*%
X50500000Y31300000D02*
X56400000Y31300000D01*
X57000000Y29500000D02*
X55000000Y27500000D01*
X46000000Y31587500D02*
X46000000Y31000000D01*
X56400000Y31300000D02*
X57000000Y30700000D01*
X46000000Y31000000D02*
X45000000Y30000000D01*
X49137500Y29950000D02*
X50500000Y31300000D01*
X57000000Y30700000D02*
X57000000Y29500000D01*
X46862500Y29950000D02*
X49137500Y29950000D01*
X46862500Y29950000D02*
X46862000Y29950000D01*
X40912500Y30000000D02*
X45000000Y30000000D01*
X45000000Y30000000D02*
X46862500Y29950000D01*
%TO.N,/BOOT1*%
X33412500Y20800000D02*
X35764200Y20800000D01*
X32750000Y25512300D02*
X32954600Y25716900D01*
X36412200Y21448000D02*
X36412200Y22244800D01*
X36412200Y22244800D02*
X36075000Y22582000D01*
X32750000Y23837500D02*
X32750000Y25512300D01*
X32700000Y20087500D02*
X33412500Y20800000D01*
X35764200Y20800000D02*
X36412200Y21448000D01*
%TO.N,/BOOT0*%
X30045600Y35362500D02*
X25725000Y35362500D01*
X31250000Y33349700D02*
X31302700Y33402400D01*
X31250000Y32162500D02*
X31250000Y33349700D01*
X31302700Y34105400D02*
X30045600Y35362500D01*
X31302700Y33402400D02*
X31302700Y34105400D01*
X25725000Y35362500D02*
X24087500Y37000000D01*
%TO.N,/NRST*%
X34500000Y10000000D02*
X28000000Y10000000D01*
X47262500Y47380700D02*
X41500000Y41618200D01*
X28877000Y27748500D02*
X28875500Y27750000D01*
X24912500Y18862500D02*
X23050000Y17000000D01*
X28875500Y27750000D02*
X27837500Y27750000D01*
X30207000Y25690400D02*
X28877000Y25690400D01*
X22189700Y23000000D02*
X20000000Y23000000D01*
X24531200Y20658500D02*
X22189700Y23000000D01*
X24531200Y20381300D02*
X24531200Y20658500D01*
X54540700Y47380700D02*
X47262500Y47380700D01*
X41500000Y39471400D02*
X36458900Y34430300D01*
X34139300Y30262500D02*
X31391000Y30262500D01*
X28877000Y25690400D02*
X28877000Y27748500D01*
X41500000Y41618200D02*
X41500000Y39471400D01*
X24912500Y20000000D02*
X24531200Y20381300D01*
X56160000Y49000000D02*
X54540700Y47380700D01*
X24912500Y20000000D02*
X24912500Y18862500D01*
X36458900Y34430300D02*
X36458900Y32582100D01*
X28877000Y25004300D02*
X28877000Y25690400D01*
X24531200Y20658500D02*
X28877000Y25004300D01*
X31391000Y30262500D02*
X28877000Y27748500D01*
X36458900Y32582100D02*
X34139300Y30262500D01*
%TO.N,/HSE8*%
X24000000Y28850200D02*
X26648600Y28850200D01*
X24000000Y28850200D02*
X22274800Y28850200D01*
X22274800Y28850200D02*
X21550000Y29575000D01*
X26748800Y28750000D02*
X27837500Y28750000D01*
X24000000Y28750000D02*
X24000000Y28850200D01*
X26648600Y28850200D02*
X26748800Y28750000D01*
%TO.N,/UART_TX*%
X34892300Y27750000D02*
X36162500Y27750000D01*
%TO.N,/UART_RX*%
X34605400Y25077000D02*
X34239400Y25443000D01*
X35391900Y28250000D02*
X36162500Y28250000D01*
X34672000Y28432900D02*
X35209000Y28432900D01*
X37028700Y11891300D02*
X37028700Y22895900D01*
X35209000Y28432900D02*
X35391900Y28250000D01*
X37028700Y22895900D02*
X34847600Y25077000D01*
X39000000Y9920000D02*
X37028700Y11891300D01*
X34847600Y25077000D02*
X34605400Y25077000D01*
X34239400Y25443000D02*
X34239400Y28000300D01*
X34239400Y28000300D02*
X34672000Y28432900D01*
%TO.N,/USB_ATTACH_N*%
X40492700Y33380200D02*
X42062500Y34950000D01*
X37901000Y25250000D02*
X40050200Y27399200D01*
X36162500Y25250000D02*
X37901000Y25250000D01*
X40050200Y30800200D02*
X40492700Y31242700D01*
X43912500Y37000000D02*
X42062500Y35150000D01*
X40050200Y27399200D02*
X40050200Y30800200D01*
X42062500Y35150000D02*
X42062500Y34950000D01*
X40492700Y31242700D02*
X40492700Y33380200D01*
%TO.N,/USB_DM_MCU*%
X37200000Y28750000D02*
X37950000Y28000000D01*
X36162500Y28750000D02*
X37200000Y28750000D01*
X37950000Y28000000D02*
X39087500Y28000000D01*
%TO.N,/USB_DP_MCU*%
X36162500Y29250000D02*
X37000000Y29250000D01*
X37000000Y29250000D02*
X37750000Y30000000D01*
X37750000Y30000000D02*
X39087500Y30000000D01*
%TO.N,/SWDIO*%
X34381400Y29750000D02*
X36162500Y29750000D01*
X34292200Y29660800D02*
X34381400Y29750000D01*
%TO.N,/SWCLK*%
X38938900Y38326900D02*
X34750000Y34138000D01*
X40319500Y42273800D02*
X39892100Y42273800D01*
X52402400Y47782400D02*
X45828100Y47782400D01*
X34750000Y34138000D02*
X34750000Y32162500D01*
X45828100Y47782400D02*
X40319500Y42273800D01*
X53620000Y49000000D02*
X52402400Y47782400D01*
X39892100Y42273800D02*
X38938900Y41320600D01*
X38938900Y41320600D02*
X38938900Y38326900D01*
%TO.N,/USB_PULLUP*%
X46000000Y33412500D02*
X44525000Y33412500D01*
X44525000Y33412500D02*
X43937500Y34000000D01*
%TD*%
M02*
