%TF.GenerationSoftware,KiCad,Pcbnew,10.0.6*%
%TF.CreationDate,2026-10-06T22:04:52+02:00*%
%TF.ProjectId,radio-usb-controller,72616469-6f2d-4757-9362-2d636f6e7472,R01.3*%
%TF.SameCoordinates,Original*%
%TF.FileFunction,Copper,L3,Inr*%
%TF.FilePolarity,Positive*%
%FSLAX46Y46*%
G04 Gerber Fmt 4.6, Leading zero omitted, Abs format (unit mm)*
G04 Created by KiCad (PCBNEW 10.0.6) date 2026-10-06 22:04:52*
%MOMM*%
%LPD*%
G01*
G04 APERTURE LIST*
G04 Aperture macros list*
%AMRoundRect*
0 Rectangle with rounded corners*
0 $1 Rounding radius*
0 $2 $3 $4 $5 $6 $7 $8 $9 X,Y pos of 4 corners*
0 Add a 4 corners polygon primitive as box body*
4,1,4,$2,$3,$4,$5,$6,$7,$8,$9,$2,$3,0*
0 Add four circle primitives for the rounded corners*
1,1,$1+$1,$2,$3*
1,1,$1+$1,$4,$5*
1,1,$1+$1,$6,$7*
1,1,$1+$1,$8,$9*
0 Add four rect primitives between the rounded corners*
20,1,$1+$1,$2,$3,$4,$5,0*
20,1,$1+$1,$4,$5,$6,$7,0*
20,1,$1+$1,$6,$7,$8,$9,0*
20,1,$1+$1,$8,$9,$2,$3,0*%
G04 Aperture macros list end*
%TA.AperFunction,ComponentPad*%
%ADD10RoundRect,0.250000X-0.600000X-0.600000X0.600000X-0.600000X0.600000X0.600000X-0.600000X0.600000X0*%
%TD*%
%TA.AperFunction,ComponentPad*%
%ADD11C,1.700000*%
%TD*%
%TA.AperFunction,ComponentPad*%
%ADD12R,1.500000X1.500000*%
%TD*%
%TA.AperFunction,ComponentPad*%
%ADD13C,1.500000*%
%TD*%
%TA.AperFunction,ComponentPad*%
%ADD14C,3.600000*%
%TD*%
%TA.AperFunction,ComponentPad*%
%ADD15R,1.700000X1.700000*%
%TD*%
%TA.AperFunction,ComponentPad*%
%ADD16C,2.000000*%
%TD*%
%TA.AperFunction,ViaPad*%
%ADD17C,0.600000*%
%TD*%
G04 APERTURE END LIST*
D10*
%TO.N,/GND*%
%TO.C,J2*%
X12000000Y18000000D03*
D11*
%TO.N,/V3*%
X14540000Y18000000D03*
%TO.N,/SCK*%
X12000000Y15460000D03*
%TO.N,/GND*%
X14540000Y15460000D03*
%TO.N,/MOSI*%
X12000000Y12920000D03*
%TO.N,/MISO*%
X14540000Y12920000D03*
%TO.N,/CS_N*%
X12000000Y10380000D03*
%TO.N,/RF_RESET_N*%
X14540000Y10380000D03*
%TO.N,/IRQ0*%
X12000000Y7840000D03*
%TO.N,/IRQ2*%
X14540000Y7840000D03*
%TD*%
D12*
%TO.N,/VBUS_USB*%
%TO.C,J1*%
X53000000Y30000000D03*
D13*
%TO.N,/USB_DM*%
X53000000Y27500000D03*
%TO.N,/USB_DP*%
X55000000Y27500000D03*
%TO.N,/GND*%
X55000000Y30000000D03*
D14*
X57710000Y34770000D03*
X57710000Y22730000D03*
%TD*%
D15*
%TO.N,/GND*%
%TO.C,J4*%
X39000000Y15000000D03*
D11*
%TO.N,/UART_TX*%
X39000000Y12460000D03*
%TO.N,/UART_RX*%
X39000000Y9920000D03*
%TD*%
D16*
%TO.N,/NRST*%
%TO.C,SW1*%
X28000000Y10000000D03*
X34500000Y10000000D03*
%TO.N,/GND*%
X28000000Y5500000D03*
X34500000Y5500000D03*
%TD*%
D15*
%TO.N,/V3*%
%TO.C,J3*%
X46000000Y49000000D03*
D11*
%TO.N,/SWDIO*%
X48540000Y49000000D03*
%TO.N,/GND*%
X51080000Y49000000D03*
%TO.N,/SWCLK*%
X53620000Y49000000D03*
%TO.N,/NRST*%
X56160000Y49000000D03*
%TD*%
D17*
%TO.N,/V3*%
X38050000Y23000000D03*
X35800000Y21750000D03*
X25450000Y27300000D03*
X42000000Y45000000D03*
X18400000Y27925000D03*
X18050000Y33000000D03*
X21500000Y19050000D03*
X43350000Y41000000D03*
X18400000Y29575000D03*
X38000000Y43087500D03*
X43800000Y39400000D03*
X22100000Y20000000D03*
X30050000Y45000000D03*
X37550000Y34000000D03*
X35500000Y42905000D03*
X25450000Y32250000D03*
X28250000Y34550000D03*
X41100000Y33050000D03*
X38000000Y39087500D03*
X25450000Y22500000D03*
X21050000Y14500000D03*
X41100000Y37000000D03*
%TO.N,/GND*%
X19200000Y20950000D03*
X22550000Y26250000D03*
X35500000Y41635000D03*
X45900000Y29000000D03*
X40950000Y24000000D03*
X54000000Y40000000D03*
X34750000Y18850000D03*
X32800000Y22200000D03*
X39550000Y41000000D03*
X52449999Y41000000D03*
X28550000Y42905000D03*
X28550000Y39095000D03*
X22950000Y12000000D03*
X24950000Y15900000D03*
X22550000Y23500000D03*
X21950000Y33000000D03*
X46250000Y41000000D03*
X28550000Y40365000D03*
X29250000Y37450000D03*
X30700000Y33850000D03*
X50949999Y37000000D03*
X33950000Y45000000D03*
X37850000Y30950000D03*
X39450000Y31900000D03*
X28550000Y41635000D03*
X26400000Y28250000D03*
X22500000Y27925000D03*
X56062500Y13000000D03*
X22550000Y31250000D03*
%TO.N,/STATUS_LED*%
X37672700Y18784500D03*
X34900600Y25678800D03*
%TO.N,/SCK*%
X31526500Y26400000D03*
%TO.N,/MOSI*%
X27999000Y20807500D03*
%TO.N,/MISO*%
X28969300Y21281100D03*
%TO.N,/RF_RESET_N*%
X28389700Y19165400D03*
X30612300Y26952300D03*
%TO.N,/IRQ0*%
X31750000Y25091900D03*
%TO.N,/SDA*%
X35756400Y39730600D03*
X39037500Y44936200D03*
%TO.N,/VBUS_USB*%
X61400000Y43000000D03*
X47050000Y37000000D03*
X50199999Y29000000D03*
%TO.N,/BOOT1*%
X32954600Y25716900D03*
X36075000Y22582000D03*
%TO.N,/NRST*%
X30207000Y25690400D03*
%TO.N,/UART_TX*%
X34892300Y27750000D03*
%TO.N,/SWDIO*%
X34292200Y29660800D03*
%TD*%
%TA.AperFunction,Conductor*%
%TO.N,/V3*%
G36*
X69458691Y54480593D02*
G01*
X69494655Y54431093D01*
X69499500Y54400500D01*
X69499500Y599500D01*
X69480593Y541309D01*
X69431093Y505345D01*
X69400500Y500500D01*
X599500Y500500D01*
X541309Y519407D01*
X505345Y568907D01*
X500500Y599500D01*
X500500Y4000001D01*
X800000Y4000001D01*
X815407Y3686347D01*
X815407Y3686344D01*
X861483Y3375729D01*
X861489Y3375699D01*
X937789Y3071091D01*
X1043583Y2775418D01*
X1043588Y2775407D01*
X1177853Y2491525D01*
X1339290Y2222186D01*
X1339295Y2222179D01*
X1339297Y2222176D01*
X1526366Y1969942D01*
X1737258Y1737259D01*
X1969941Y1526367D01*
X2222175Y1339298D01*
X2222179Y1339296D01*
X2222184Y1339292D01*
X2491523Y1177855D01*
X2658897Y1098694D01*
X2775413Y1043586D01*
X3071089Y937791D01*
X3071088Y937791D01*
X3375697Y861491D01*
X3375702Y861490D01*
X3375710Y861488D01*
X3375717Y861487D01*
X3375727Y861485D01*
X3588487Y829926D01*
X3686345Y815409D01*
X4000000Y800000D01*
X4313654Y815409D01*
X4313667Y815411D01*
X4624271Y861485D01*
X4624277Y861487D01*
X4624289Y861488D01*
X4928910Y937791D01*
X5224586Y1043586D01*
X5508469Y1177852D01*
X5508470Y1177853D01*
X5508475Y1177855D01*
X5777814Y1339292D01*
X5777814Y1339293D01*
X5777824Y1339298D01*
X6030058Y1526367D01*
X6262741Y1737259D01*
X6473633Y1969942D01*
X6660702Y2222176D01*
X6660708Y2222186D01*
X6822145Y2491525D01*
X6822148Y2491531D01*
X6956414Y2775414D01*
X7062209Y3071090D01*
X7138512Y3375711D01*
X7184591Y3686346D01*
X7200000Y4000000D01*
X7200000Y4000001D01*
X62800000Y4000001D01*
X62815407Y3686347D01*
X62815407Y3686344D01*
X62861483Y3375729D01*
X62861489Y3375699D01*
X62937789Y3071091D01*
X63043583Y2775418D01*
X63043588Y2775407D01*
X63177853Y2491525D01*
X63339290Y2222186D01*
X63339295Y2222179D01*
X63339297Y2222176D01*
X63526366Y1969942D01*
X63737258Y1737259D01*
X63969941Y1526367D01*
X64222175Y1339298D01*
X64222179Y1339296D01*
X64222184Y1339292D01*
X64491523Y1177855D01*
X64658897Y1098694D01*
X64775413Y1043586D01*
X65071089Y937791D01*
X65071088Y937791D01*
X65375697Y861491D01*
X65375702Y861490D01*
X65375710Y861488D01*
X65375717Y861487D01*
X65375727Y861485D01*
X65588487Y829926D01*
X65686345Y815409D01*
X66000000Y800000D01*
X66313654Y815409D01*
X66313667Y815411D01*
X66624271Y861485D01*
X66624277Y861487D01*
X66624289Y861488D01*
X66928910Y937791D01*
X67224586Y1043586D01*
X67508469Y1177852D01*
X67508470Y1177853D01*
X67508475Y1177855D01*
X67777814Y1339292D01*
X67777814Y1339293D01*
X67777824Y1339298D01*
X68030058Y1526367D01*
X68262741Y1737259D01*
X68473633Y1969942D01*
X68660702Y2222176D01*
X68660708Y2222186D01*
X68822145Y2491525D01*
X68822148Y2491531D01*
X68956414Y2775414D01*
X69062209Y3071090D01*
X69138512Y3375711D01*
X69184591Y3686346D01*
X69200000Y4000000D01*
X69184591Y4313655D01*
X69160919Y4473239D01*
X69138515Y4624273D01*
X69138509Y4624303D01*
X69062209Y4928911D01*
X68958455Y5218882D01*
X68956414Y5224587D01*
X68822148Y5508470D01*
X68822145Y5508477D01*
X68660708Y5777816D01*
X68660704Y5777821D01*
X68660702Y5777825D01*
X68473633Y6030059D01*
X68473625Y6030068D01*
X68262754Y6262728D01*
X68262750Y6262732D01*
X68262741Y6262742D01*
X68093989Y6415690D01*
X68030066Y6473627D01*
X68030059Y6473633D01*
X68030058Y6473634D01*
X67777824Y6660703D01*
X67777821Y6660705D01*
X67777814Y6660710D01*
X67508475Y6822147D01*
X67224593Y6956412D01*
X67224582Y6956417D01*
X66928908Y7062211D01*
X66928910Y7062211D01*
X66624301Y7138511D01*
X66624271Y7138517D01*
X66313655Y7184593D01*
X66014028Y7199311D01*
X66000000Y7200000D01*
X65999999Y7200000D01*
X65686345Y7184593D01*
X65686342Y7184593D01*
X65375727Y7138517D01*
X65375697Y7138511D01*
X65071089Y7062211D01*
X64775416Y6956417D01*
X64775405Y6956412D01*
X64491523Y6822147D01*
X64222184Y6660710D01*
X63969939Y6473633D01*
X63969932Y6473627D01*
X63737272Y6262756D01*
X63737244Y6262728D01*
X63526373Y6030068D01*
X63526367Y6030061D01*
X63339290Y5777816D01*
X63177853Y5508477D01*
X63043588Y5224595D01*
X63043583Y5224584D01*
X62937789Y4928911D01*
X62861489Y4624303D01*
X62861483Y4624273D01*
X62815407Y4313658D01*
X62815407Y4313655D01*
X62800000Y4000001D01*
X7200000Y4000001D01*
X7184591Y4313655D01*
X7160919Y4473239D01*
X7138515Y4624273D01*
X7138509Y4624303D01*
X7062209Y4928911D01*
X6958455Y5218882D01*
X6956414Y5224587D01*
X6822148Y5508470D01*
X6822145Y5508477D01*
X6798770Y5547475D01*
X6770593Y5594485D01*
X26799500Y5594485D01*
X26799500Y5405516D01*
X26829058Y5218887D01*
X26887453Y5039168D01*
X26943631Y4928911D01*
X26973240Y4870801D01*
X27084310Y4717927D01*
X27217927Y4584310D01*
X27370801Y4473240D01*
X27539168Y4387453D01*
X27718882Y4329060D01*
X27718883Y4329060D01*
X27718886Y4329059D01*
X27905516Y4299500D01*
X27905519Y4299500D01*
X28094484Y4299500D01*
X28281113Y4329059D01*
X28281114Y4329060D01*
X28281118Y4329060D01*
X28460832Y4387453D01*
X28629199Y4473240D01*
X28782073Y4584310D01*
X28915690Y4717927D01*
X29026760Y4870801D01*
X29112547Y5039168D01*
X29170940Y5218882D01*
X29200500Y5405519D01*
X29200500Y5594481D01*
X29200500Y5594485D01*
X33299500Y5594485D01*
X33299500Y5405516D01*
X33329058Y5218887D01*
X33387453Y5039168D01*
X33443631Y4928911D01*
X33473240Y4870801D01*
X33584310Y4717927D01*
X33717927Y4584310D01*
X33870801Y4473240D01*
X34039168Y4387453D01*
X34218882Y4329060D01*
X34218883Y4329060D01*
X34218886Y4329059D01*
X34405516Y4299500D01*
X34405519Y4299500D01*
X34594484Y4299500D01*
X34781113Y4329059D01*
X34781114Y4329060D01*
X34781118Y4329060D01*
X34960832Y4387453D01*
X35129199Y4473240D01*
X35282073Y4584310D01*
X35415690Y4717927D01*
X35526760Y4870801D01*
X35612547Y5039168D01*
X35670940Y5218882D01*
X35700500Y5405519D01*
X35700500Y5594481D01*
X35700500Y5594485D01*
X35670941Y5781114D01*
X35670940Y5781118D01*
X35612547Y5960832D01*
X35526760Y6129199D01*
X35415690Y6282073D01*
X35282073Y6415690D01*
X35129199Y6526760D01*
X35129198Y6526761D01*
X35129196Y6526762D01*
X34960832Y6612547D01*
X34781113Y6670942D01*
X34594484Y6700500D01*
X34594481Y6700500D01*
X34405519Y6700500D01*
X34405516Y6700500D01*
X34218886Y6670942D01*
X34039167Y6612547D01*
X33870803Y6526762D01*
X33717928Y6415691D01*
X33584309Y6282072D01*
X33473238Y6129197D01*
X33387453Y5960833D01*
X33329058Y5781114D01*
X33299500Y5594485D01*
X29200500Y5594485D01*
X29170941Y5781114D01*
X29170940Y5781118D01*
X29112547Y5960832D01*
X29026760Y6129199D01*
X28915690Y6282073D01*
X28782073Y6415690D01*
X28629199Y6526760D01*
X28629198Y6526761D01*
X28629196Y6526762D01*
X28460832Y6612547D01*
X28281113Y6670942D01*
X28094484Y6700500D01*
X28094481Y6700500D01*
X27905519Y6700500D01*
X27905516Y6700500D01*
X27718886Y6670942D01*
X27539167Y6612547D01*
X27370803Y6526762D01*
X27217928Y6415691D01*
X27084309Y6282072D01*
X26973238Y6129197D01*
X26887453Y5960833D01*
X26829058Y5781114D01*
X26799500Y5594485D01*
X6770593Y5594485D01*
X6660708Y5777816D01*
X6660704Y5777821D01*
X6660702Y5777825D01*
X6473633Y6030059D01*
X6473625Y6030068D01*
X6262754Y6262728D01*
X6262750Y6262732D01*
X6262741Y6262742D01*
X6093989Y6415690D01*
X6030066Y6473627D01*
X6030059Y6473633D01*
X6030058Y6473634D01*
X5777824Y6660703D01*
X5777821Y6660705D01*
X5777814Y6660710D01*
X5508475Y6822147D01*
X5224593Y6956412D01*
X5224582Y6956417D01*
X4928908Y7062211D01*
X4928910Y7062211D01*
X4624301Y7138511D01*
X4624271Y7138517D01*
X4313655Y7184593D01*
X4014028Y7199311D01*
X4000000Y7200000D01*
X3999999Y7200000D01*
X3686345Y7184593D01*
X3686342Y7184593D01*
X3375727Y7138517D01*
X3375697Y7138511D01*
X3071089Y7062211D01*
X2775416Y6956417D01*
X2775405Y6956412D01*
X2491523Y6822147D01*
X2222184Y6660710D01*
X1969939Y6473633D01*
X1969932Y6473627D01*
X1737272Y6262756D01*
X1737244Y6262728D01*
X1526373Y6030068D01*
X1526367Y6030061D01*
X1339290Y5777816D01*
X1177853Y5508477D01*
X1043588Y5224595D01*
X1043583Y5224584D01*
X937789Y4928911D01*
X861489Y4624303D01*
X861483Y4624273D01*
X815407Y4313658D01*
X815407Y4313655D01*
X800000Y4000001D01*
X500500Y4000001D01*
X500500Y7943468D01*
X10949500Y7943468D01*
X10949500Y7736533D01*
X10989869Y7533582D01*
X11069058Y7342403D01*
X11184020Y7170349D01*
X11184023Y7170345D01*
X11330345Y7024023D01*
X11502402Y6909059D01*
X11693580Y6829870D01*
X11896535Y6789500D01*
X11896536Y6789500D01*
X12103464Y6789500D01*
X12103465Y6789500D01*
X12306420Y6829870D01*
X12497598Y6909059D01*
X12669655Y7024023D01*
X12815977Y7170345D01*
X12930941Y7342402D01*
X13010130Y7533580D01*
X13050500Y7736535D01*
X13050500Y7943465D01*
X13050499Y7943468D01*
X13489500Y7943468D01*
X13489500Y7736533D01*
X13529869Y7533582D01*
X13609058Y7342403D01*
X13724020Y7170349D01*
X13724023Y7170345D01*
X13870345Y7024023D01*
X14042402Y6909059D01*
X14233580Y6829870D01*
X14436535Y6789500D01*
X14436536Y6789500D01*
X14643464Y6789500D01*
X14643465Y6789500D01*
X14846420Y6829870D01*
X15037598Y6909059D01*
X15209655Y7024023D01*
X15355977Y7170345D01*
X15470941Y7342402D01*
X15550130Y7533580D01*
X15590500Y7736535D01*
X15590500Y7943465D01*
X15550130Y8146420D01*
X15470941Y8337598D01*
X15355977Y8509655D01*
X15209655Y8655977D01*
X15037598Y8770941D01*
X15037599Y8770941D01*
X15037597Y8770942D01*
X14846418Y8850131D01*
X14643467Y8890500D01*
X14643465Y8890500D01*
X14436535Y8890500D01*
X14436532Y8890500D01*
X14233581Y8850131D01*
X14042402Y8770942D01*
X13870348Y8655980D01*
X13724020Y8509652D01*
X13609058Y8337598D01*
X13529869Y8146419D01*
X13489500Y7943468D01*
X13050499Y7943468D01*
X13010130Y8146420D01*
X12930941Y8337598D01*
X12815977Y8509655D01*
X12669655Y8655977D01*
X12497598Y8770941D01*
X12497599Y8770941D01*
X12497597Y8770942D01*
X12306418Y8850131D01*
X12103467Y8890500D01*
X12103465Y8890500D01*
X11896535Y8890500D01*
X11896532Y8890500D01*
X11693581Y8850131D01*
X11502402Y8770942D01*
X11330348Y8655980D01*
X11184020Y8509652D01*
X11069058Y8337598D01*
X10989869Y8146419D01*
X10949500Y7943468D01*
X500500Y7943468D01*
X500500Y10483468D01*
X10949500Y10483468D01*
X10949500Y10276533D01*
X10989869Y10073582D01*
X11069058Y9882403D01*
X11184020Y9710349D01*
X11184023Y9710345D01*
X11330345Y9564023D01*
X11502402Y9449059D01*
X11693580Y9369870D01*
X11896535Y9329500D01*
X11896536Y9329500D01*
X12103464Y9329500D01*
X12103465Y9329500D01*
X12306420Y9369870D01*
X12497598Y9449059D01*
X12669655Y9564023D01*
X12815977Y9710345D01*
X12930941Y9882402D01*
X13010130Y10073580D01*
X13050500Y10276535D01*
X13050500Y10483465D01*
X13050499Y10483468D01*
X13489500Y10483468D01*
X13489500Y10276533D01*
X13529869Y10073582D01*
X13609058Y9882403D01*
X13724020Y9710349D01*
X13724023Y9710345D01*
X13870345Y9564023D01*
X14042402Y9449059D01*
X14233580Y9369870D01*
X14436535Y9329500D01*
X14436536Y9329500D01*
X14643464Y9329500D01*
X14643465Y9329500D01*
X14846420Y9369870D01*
X15037598Y9449059D01*
X15209655Y9564023D01*
X15355977Y9710345D01*
X15470941Y9882402D01*
X15550130Y10073580D01*
X15554288Y10094485D01*
X26799500Y10094485D01*
X26799500Y9905516D01*
X26829058Y9718887D01*
X26887453Y9539168D01*
X26946947Y9422403D01*
X26973240Y9370801D01*
X27084310Y9217927D01*
X27217927Y9084310D01*
X27370801Y8973240D01*
X27539168Y8887453D01*
X27718882Y8829060D01*
X27718883Y8829060D01*
X27718886Y8829059D01*
X27905516Y8799500D01*
X27905519Y8799500D01*
X28094484Y8799500D01*
X28281113Y8829059D01*
X28281114Y8829060D01*
X28281118Y8829060D01*
X28460832Y8887453D01*
X28629199Y8973240D01*
X28782073Y9084310D01*
X28915690Y9217927D01*
X29026760Y9370801D01*
X29112547Y9539168D01*
X29170940Y9718882D01*
X29170941Y9718887D01*
X29200500Y9905516D01*
X29200500Y10094485D01*
X33299500Y10094485D01*
X33299500Y9905516D01*
X33329058Y9718887D01*
X33387453Y9539168D01*
X33446947Y9422403D01*
X33473240Y9370801D01*
X33584310Y9217927D01*
X33717927Y9084310D01*
X33870801Y8973240D01*
X34039168Y8887453D01*
X34218882Y8829060D01*
X34218883Y8829060D01*
X34218886Y8829059D01*
X34405516Y8799500D01*
X34405519Y8799500D01*
X34594484Y8799500D01*
X34781113Y8829059D01*
X34781114Y8829060D01*
X34781118Y8829060D01*
X34960832Y8887453D01*
X35129199Y8973240D01*
X35282073Y9084310D01*
X35415690Y9217927D01*
X35526760Y9370801D01*
X35612547Y9539168D01*
X35670940Y9718882D01*
X35670941Y9718887D01*
X35700500Y9905516D01*
X35700500Y10023468D01*
X37949500Y10023468D01*
X37949500Y9816533D01*
X37989869Y9613582D01*
X38069058Y9422403D01*
X38184020Y9250349D01*
X38184023Y9250345D01*
X38330345Y9104023D01*
X38502402Y8989059D01*
X38693580Y8909870D01*
X38896535Y8869500D01*
X38896536Y8869500D01*
X39103464Y8869500D01*
X39103465Y8869500D01*
X39306420Y8909870D01*
X39497598Y8989059D01*
X39669655Y9104023D01*
X39815977Y9250345D01*
X39930941Y9422402D01*
X40010130Y9613580D01*
X40050500Y9816535D01*
X40050500Y10023465D01*
X40010130Y10226420D01*
X39930941Y10417598D01*
X39815977Y10589655D01*
X39669655Y10735977D01*
X39669651Y10735980D01*
X39497597Y10850942D01*
X39306418Y10930131D01*
X39103467Y10970500D01*
X39103465Y10970500D01*
X38896535Y10970500D01*
X38896532Y10970500D01*
X38693581Y10930131D01*
X38502402Y10850942D01*
X38330348Y10735980D01*
X38184020Y10589652D01*
X38069058Y10417598D01*
X37989869Y10226419D01*
X37949500Y10023468D01*
X35700500Y10023468D01*
X35700500Y10094485D01*
X35670941Y10281114D01*
X35670940Y10281118D01*
X35612547Y10460832D01*
X35526760Y10629199D01*
X35415690Y10782073D01*
X35282073Y10915690D01*
X35129199Y11026760D01*
X35129198Y11026761D01*
X35129196Y11026762D01*
X34960832Y11112547D01*
X34781113Y11170942D01*
X34594484Y11200500D01*
X34594481Y11200500D01*
X34405519Y11200500D01*
X34405516Y11200500D01*
X34218886Y11170942D01*
X34039167Y11112547D01*
X33870803Y11026762D01*
X33717928Y10915691D01*
X33584309Y10782072D01*
X33473238Y10629197D01*
X33387453Y10460833D01*
X33329058Y10281114D01*
X33299500Y10094485D01*
X29200500Y10094485D01*
X29170941Y10281114D01*
X29170940Y10281118D01*
X29112547Y10460832D01*
X29026760Y10629199D01*
X28915690Y10782073D01*
X28782073Y10915690D01*
X28629199Y11026760D01*
X28629198Y11026761D01*
X28629196Y11026762D01*
X28460832Y11112547D01*
X28281113Y11170942D01*
X28094484Y11200500D01*
X28094481Y11200500D01*
X27905519Y11200500D01*
X27905516Y11200500D01*
X27718886Y11170942D01*
X27539167Y11112547D01*
X27370803Y11026762D01*
X27217928Y10915691D01*
X27084309Y10782072D01*
X26973238Y10629197D01*
X26887453Y10460833D01*
X26829058Y10281114D01*
X26799500Y10094485D01*
X15554288Y10094485D01*
X15590500Y10276535D01*
X15590500Y10483465D01*
X15550130Y10686420D01*
X15470941Y10877598D01*
X15355977Y11049655D01*
X15209655Y11195977D01*
X15037598Y11310941D01*
X15037599Y11310941D01*
X15037597Y11310942D01*
X14846418Y11390131D01*
X14643467Y11430500D01*
X14643465Y11430500D01*
X14436535Y11430500D01*
X14436532Y11430500D01*
X14233581Y11390131D01*
X14042402Y11310942D01*
X13870348Y11195980D01*
X13724020Y11049652D01*
X13609058Y10877598D01*
X13529869Y10686419D01*
X13489500Y10483468D01*
X13050499Y10483468D01*
X13010130Y10686420D01*
X12930941Y10877598D01*
X12815977Y11049655D01*
X12669655Y11195977D01*
X12497598Y11310941D01*
X12497599Y11310941D01*
X12497597Y11310942D01*
X12306418Y11390131D01*
X12103467Y11430500D01*
X12103465Y11430500D01*
X11896535Y11430500D01*
X11896532Y11430500D01*
X11693581Y11390131D01*
X11502402Y11310942D01*
X11330348Y11195980D01*
X11184020Y11049652D01*
X11069058Y10877598D01*
X10989869Y10686419D01*
X10949500Y10483468D01*
X500500Y10483468D01*
X500500Y13023468D01*
X10949500Y13023468D01*
X10949500Y12816533D01*
X10989869Y12613582D01*
X11069058Y12422403D01*
X11145960Y12307310D01*
X11184023Y12250345D01*
X11330345Y12104023D01*
X11502402Y11989059D01*
X11693580Y11909870D01*
X11896535Y11869500D01*
X11896536Y11869500D01*
X12103464Y11869500D01*
X12103465Y11869500D01*
X12306420Y11909870D01*
X12497598Y11989059D01*
X12669655Y12104023D01*
X12815977Y12250345D01*
X12930941Y12422402D01*
X13010130Y12613580D01*
X13050500Y12816535D01*
X13050500Y13023465D01*
X13050499Y13023468D01*
X13489500Y13023468D01*
X13489500Y12816533D01*
X13529869Y12613582D01*
X13609058Y12422403D01*
X13685960Y12307310D01*
X13724023Y12250345D01*
X13870345Y12104023D01*
X14042402Y11989059D01*
X14233580Y11909870D01*
X14436535Y11869500D01*
X14436536Y11869500D01*
X14643464Y11869500D01*
X14643465Y11869500D01*
X14846420Y11909870D01*
X15037598Y11989059D01*
X15152588Y12065892D01*
X22449500Y12065892D01*
X22449500Y11934108D01*
X22479579Y11821849D01*
X22483609Y11806810D01*
X22549496Y11692691D01*
X22549498Y11692689D01*
X22549500Y11692686D01*
X22642686Y11599500D01*
X22642688Y11599499D01*
X22642690Y11599497D01*
X22756810Y11533610D01*
X22756808Y11533610D01*
X22756812Y11533609D01*
X22756814Y11533608D01*
X22884108Y11499500D01*
X22884110Y11499500D01*
X23015890Y11499500D01*
X23015892Y11499500D01*
X23143186Y11533608D01*
X23143188Y11533610D01*
X23143190Y11533610D01*
X23257309Y11599497D01*
X23257309Y11599498D01*
X23257314Y11599500D01*
X23350500Y11692686D01*
X23416392Y11806814D01*
X23450500Y11934108D01*
X23450500Y12065892D01*
X23416392Y12193186D01*
X23416390Y12193189D01*
X23416390Y12193191D01*
X23350503Y12307310D01*
X23350501Y12307312D01*
X23350500Y12307314D01*
X23257314Y12400500D01*
X23257311Y12400502D01*
X23257309Y12400504D01*
X23143189Y12466391D01*
X23143191Y12466391D01*
X23132536Y12469246D01*
X23015892Y12500500D01*
X22884108Y12500500D01*
X22806200Y12479625D01*
X22756809Y12466391D01*
X22642690Y12400504D01*
X22549496Y12307310D01*
X22483609Y12193191D01*
X22483608Y12193186D01*
X22449500Y12065892D01*
X15152588Y12065892D01*
X15209655Y12104023D01*
X15355977Y12250345D01*
X15470941Y12422402D01*
X15529373Y12563468D01*
X37949500Y12563468D01*
X37949500Y12356533D01*
X37989869Y12153582D01*
X38069058Y11962403D01*
X38184020Y11790349D01*
X38184023Y11790345D01*
X38330345Y11644023D01*
X38502402Y11529059D01*
X38693580Y11449870D01*
X38896535Y11409500D01*
X38896536Y11409500D01*
X39103464Y11409500D01*
X39103465Y11409500D01*
X39306420Y11449870D01*
X39497598Y11529059D01*
X39669655Y11644023D01*
X39815977Y11790345D01*
X39930941Y11962402D01*
X40010130Y12153580D01*
X40050500Y12356535D01*
X40050500Y12563465D01*
X40010130Y12766420D01*
X39930941Y12957598D01*
X39858582Y13065892D01*
X55562000Y13065892D01*
X55562000Y12934108D01*
X55592079Y12821849D01*
X55596109Y12806810D01*
X55661996Y12692691D01*
X55661998Y12692689D01*
X55662000Y12692686D01*
X55755186Y12599500D01*
X55755188Y12599499D01*
X55755190Y12599497D01*
X55869310Y12533610D01*
X55869308Y12533610D01*
X55869312Y12533609D01*
X55869314Y12533608D01*
X55996608Y12499500D01*
X55996610Y12499500D01*
X56128390Y12499500D01*
X56128392Y12499500D01*
X56255686Y12533608D01*
X56255688Y12533610D01*
X56255690Y12533610D01*
X56369809Y12599497D01*
X56369809Y12599498D01*
X56369814Y12599500D01*
X56463000Y12692686D01*
X56505570Y12766419D01*
X56528890Y12806810D01*
X56528890Y12806812D01*
X56528892Y12806814D01*
X56563000Y12934108D01*
X56563000Y13065892D01*
X56528892Y13193186D01*
X56528890Y13193189D01*
X56528890Y13193191D01*
X56463003Y13307310D01*
X56463001Y13307312D01*
X56463000Y13307314D01*
X56369814Y13400500D01*
X56369811Y13400502D01*
X56369809Y13400504D01*
X56255689Y13466391D01*
X56255691Y13466391D01*
X56206299Y13479625D01*
X56128392Y13500500D01*
X55996608Y13500500D01*
X55918700Y13479625D01*
X55869309Y13466391D01*
X55755190Y13400504D01*
X55661996Y13307310D01*
X55596109Y13193191D01*
X55596108Y13193186D01*
X55562000Y13065892D01*
X39858582Y13065892D01*
X39815977Y13129655D01*
X39669655Y13275977D01*
X39497598Y13390941D01*
X39497599Y13390941D01*
X39497597Y13390942D01*
X39306418Y13470131D01*
X39103467Y13510500D01*
X39103465Y13510500D01*
X38896535Y13510500D01*
X38896532Y13510500D01*
X38693581Y13470131D01*
X38502402Y13390942D01*
X38330348Y13275980D01*
X38184020Y13129652D01*
X38069058Y12957598D01*
X37989869Y12766419D01*
X37949500Y12563468D01*
X15529373Y12563468D01*
X15550130Y12613580D01*
X15590500Y12816535D01*
X15590500Y13023465D01*
X15550130Y13226420D01*
X15470941Y13417598D01*
X15355977Y13589655D01*
X15209655Y13735977D01*
X15037598Y13850941D01*
X15037599Y13850941D01*
X15037597Y13850942D01*
X14846418Y13930131D01*
X14643467Y13970500D01*
X14643465Y13970500D01*
X14436535Y13970500D01*
X14436532Y13970500D01*
X14233581Y13930131D01*
X14042402Y13850942D01*
X13870348Y13735980D01*
X13724020Y13589652D01*
X13609058Y13417598D01*
X13529869Y13226419D01*
X13489500Y13023468D01*
X13050499Y13023468D01*
X13010130Y13226420D01*
X12930941Y13417598D01*
X12815977Y13589655D01*
X12669655Y13735977D01*
X12497598Y13850941D01*
X12497599Y13850941D01*
X12497597Y13850942D01*
X12306418Y13930131D01*
X12103467Y13970500D01*
X12103465Y13970500D01*
X11896535Y13970500D01*
X11896532Y13970500D01*
X11693581Y13930131D01*
X11502402Y13850942D01*
X11330348Y13735980D01*
X11184020Y13589652D01*
X11069058Y13417598D01*
X10989869Y13226419D01*
X10949500Y13023468D01*
X500500Y13023468D01*
X500500Y15563468D01*
X10949500Y15563468D01*
X10949500Y15356533D01*
X10989869Y15153582D01*
X11069058Y14962403D01*
X11069059Y14962402D01*
X11184023Y14790345D01*
X11330345Y14644023D01*
X11502402Y14529059D01*
X11693580Y14449870D01*
X11896535Y14409500D01*
X11896536Y14409500D01*
X12103464Y14409500D01*
X12103465Y14409500D01*
X12306420Y14449870D01*
X12497598Y14529059D01*
X12669655Y14644023D01*
X12815977Y14790345D01*
X12930941Y14962402D01*
X13010130Y15153580D01*
X13050500Y15356535D01*
X13050500Y15563465D01*
X13050499Y15563468D01*
X13489500Y15563468D01*
X13489500Y15356533D01*
X13529869Y15153582D01*
X13609058Y14962403D01*
X13609059Y14962402D01*
X13724023Y14790345D01*
X13870345Y14644023D01*
X14042402Y14529059D01*
X14233580Y14449870D01*
X14436535Y14409500D01*
X14436536Y14409500D01*
X14643464Y14409500D01*
X14643465Y14409500D01*
X14846420Y14449870D01*
X15037598Y14529059D01*
X15209655Y14644023D01*
X15355977Y14790345D01*
X15470941Y14962402D01*
X15550130Y15153580D01*
X15590500Y15356535D01*
X15590500Y15563465D01*
X15550130Y15766420D01*
X15470941Y15957598D01*
X15465399Y15965892D01*
X24449500Y15965892D01*
X24449500Y15834108D01*
X24467636Y15766422D01*
X24483609Y15706810D01*
X24549496Y15592691D01*
X24549498Y15592689D01*
X24549500Y15592686D01*
X24642686Y15499500D01*
X24642688Y15499499D01*
X24642690Y15499497D01*
X24756810Y15433610D01*
X24756808Y15433610D01*
X24756812Y15433609D01*
X24756814Y15433608D01*
X24884108Y15399500D01*
X24884110Y15399500D01*
X25015890Y15399500D01*
X25015892Y15399500D01*
X25143186Y15433608D01*
X25143188Y15433610D01*
X25143190Y15433610D01*
X25257309Y15499497D01*
X25257309Y15499498D01*
X25257314Y15499500D01*
X25350500Y15592686D01*
X25416392Y15706814D01*
X25450500Y15834108D01*
X25450500Y15869747D01*
X37949500Y15869747D01*
X37949500Y14130254D01*
X37949501Y14130242D01*
X37961132Y14071773D01*
X37961133Y14071769D01*
X38005448Y14005448D01*
X38071769Y13961133D01*
X38116231Y13952289D01*
X38130241Y13949502D01*
X38130246Y13949502D01*
X38130252Y13949500D01*
X38130253Y13949500D01*
X39869747Y13949500D01*
X39869748Y13949500D01*
X39928231Y13961133D01*
X39994552Y14005448D01*
X40038867Y14071769D01*
X40050500Y14130252D01*
X40050500Y15869748D01*
X40038867Y15928231D01*
X39994552Y15994552D01*
X39994548Y15994555D01*
X39928233Y16038866D01*
X39928231Y16038867D01*
X39928228Y16038868D01*
X39928227Y16038868D01*
X39869758Y16050499D01*
X39869748Y16050500D01*
X38130252Y16050500D01*
X38130251Y16050500D01*
X38130241Y16050499D01*
X38071772Y16038868D01*
X38071766Y16038866D01*
X38005451Y15994555D01*
X38005445Y15994549D01*
X37961134Y15928234D01*
X37961132Y15928228D01*
X37949501Y15869759D01*
X37949500Y15869747D01*
X25450500Y15869747D01*
X25450500Y15965892D01*
X25416392Y16093186D01*
X25416390Y16093189D01*
X25416390Y16093191D01*
X25350503Y16207310D01*
X25350501Y16207312D01*
X25350500Y16207314D01*
X25257314Y16300500D01*
X25257311Y16300502D01*
X25257309Y16300504D01*
X25143189Y16366391D01*
X25143191Y16366391D01*
X25093799Y16379625D01*
X25015892Y16400500D01*
X24884108Y16400500D01*
X24806200Y16379625D01*
X24756809Y16366391D01*
X24642690Y16300504D01*
X24549496Y16207310D01*
X24483609Y16093191D01*
X24483608Y16093186D01*
X24449500Y15965892D01*
X15465399Y15965892D01*
X15355977Y16129655D01*
X15209655Y16275977D01*
X15209651Y16275980D01*
X15037597Y16390942D01*
X14846418Y16470131D01*
X14643467Y16510500D01*
X14643465Y16510500D01*
X14436535Y16510500D01*
X14436532Y16510500D01*
X14233581Y16470131D01*
X14042402Y16390942D01*
X13870348Y16275980D01*
X13724020Y16129652D01*
X13609058Y15957598D01*
X13529869Y15766419D01*
X13489500Y15563468D01*
X13050499Y15563468D01*
X13010130Y15766420D01*
X12930941Y15957598D01*
X12815977Y16129655D01*
X12669655Y16275977D01*
X12669651Y16275980D01*
X12497597Y16390942D01*
X12306418Y16470131D01*
X12103467Y16510500D01*
X12103465Y16510500D01*
X11896535Y16510500D01*
X11896532Y16510500D01*
X11693581Y16470131D01*
X11502402Y16390942D01*
X11330348Y16275980D01*
X11184020Y16129652D01*
X11069058Y15957598D01*
X10989869Y15766419D01*
X10949500Y15563468D01*
X500500Y15563468D01*
X500500Y18654275D01*
X10949500Y18654275D01*
X10949500Y17345726D01*
X10952353Y17315306D01*
X10952355Y17315297D01*
X10997207Y17187117D01*
X11077845Y17077856D01*
X11077847Y17077854D01*
X11077850Y17077850D01*
X11077853Y17077848D01*
X11077855Y17077846D01*
X11187116Y16997208D01*
X11187117Y16997208D01*
X11187118Y16997207D01*
X11315301Y16952354D01*
X11345725Y16949501D01*
X11345727Y16949500D01*
X11345734Y16949500D01*
X12654273Y16949500D01*
X12654273Y16949501D01*
X12684699Y16952354D01*
X12812882Y16997207D01*
X12922150Y17077850D01*
X13002793Y17187118D01*
X13047646Y17315301D01*
X13050499Y17345727D01*
X13050500Y17345727D01*
X13050500Y18654273D01*
X13050499Y18654275D01*
X13047646Y18684695D01*
X13047646Y18684699D01*
X13002793Y18812882D01*
X12975110Y18850391D01*
X12922154Y18922145D01*
X12922152Y18922147D01*
X12922150Y18922150D01*
X12922146Y18922153D01*
X12922144Y18922155D01*
X12812883Y19002793D01*
X12684703Y19047645D01*
X12684694Y19047647D01*
X12654274Y19050500D01*
X12654266Y19050500D01*
X11345734Y19050500D01*
X11345725Y19050500D01*
X11315305Y19047647D01*
X11315296Y19047645D01*
X11187116Y19002793D01*
X11077855Y18922155D01*
X11077845Y18922145D01*
X10997207Y18812884D01*
X10952355Y18684704D01*
X10952353Y18684695D01*
X10949500Y18654275D01*
X500500Y18654275D01*
X500500Y19231292D01*
X27889200Y19231292D01*
X27889200Y19099508D01*
X27919279Y18987249D01*
X27923309Y18972210D01*
X27989196Y18858091D01*
X27989198Y18858089D01*
X27989200Y18858086D01*
X28082386Y18764900D01*
X28082388Y18764899D01*
X28082390Y18764897D01*
X28196510Y18699010D01*
X28196508Y18699010D01*
X28196512Y18699009D01*
X28196514Y18699008D01*
X28323808Y18664900D01*
X28323810Y18664900D01*
X28455590Y18664900D01*
X28455592Y18664900D01*
X28582886Y18699008D01*
X28582888Y18699010D01*
X28582890Y18699010D01*
X28697009Y18764897D01*
X28697009Y18764898D01*
X28697014Y18764900D01*
X28790200Y18858086D01*
X28823574Y18915891D01*
X28823575Y18915892D01*
X34249500Y18915892D01*
X34249500Y18784108D01*
X34254647Y18764900D01*
X34283609Y18656810D01*
X34349496Y18542691D01*
X34349498Y18542689D01*
X34349500Y18542686D01*
X34442686Y18449500D01*
X34442688Y18449499D01*
X34442690Y18449497D01*
X34556810Y18383610D01*
X34556808Y18383610D01*
X34556812Y18383609D01*
X34556814Y18383608D01*
X34684108Y18349500D01*
X34684110Y18349500D01*
X34815890Y18349500D01*
X34815892Y18349500D01*
X34943186Y18383608D01*
X34943188Y18383610D01*
X34943190Y18383610D01*
X35057309Y18449497D01*
X35057309Y18449498D01*
X35057314Y18449500D01*
X35150500Y18542686D01*
X35178573Y18591310D01*
X35216390Y18656810D01*
X35216390Y18656812D01*
X35216392Y18656814D01*
X35250500Y18784108D01*
X35250500Y18850392D01*
X37172200Y18850392D01*
X37172200Y18718608D01*
X37189440Y18654266D01*
X37206309Y18591310D01*
X37272196Y18477191D01*
X37272198Y18477189D01*
X37272200Y18477186D01*
X37365386Y18384000D01*
X37365388Y18383999D01*
X37365390Y18383997D01*
X37479510Y18318110D01*
X37479508Y18318110D01*
X37479512Y18318109D01*
X37479514Y18318108D01*
X37606808Y18284000D01*
X37606810Y18284000D01*
X37738590Y18284000D01*
X37738592Y18284000D01*
X37865886Y18318108D01*
X37865888Y18318110D01*
X37865890Y18318110D01*
X37980009Y18383997D01*
X37980009Y18383998D01*
X37980014Y18384000D01*
X38073200Y18477186D01*
X38111017Y18542686D01*
X38139090Y18591310D01*
X38139090Y18591312D01*
X38139092Y18591314D01*
X38173200Y18718608D01*
X38173200Y18850392D01*
X38139092Y18977686D01*
X38139090Y18977689D01*
X38139090Y18977691D01*
X38073203Y19091810D01*
X38073201Y19091812D01*
X38073200Y19091814D01*
X37980014Y19185000D01*
X37980011Y19185002D01*
X37980009Y19185004D01*
X37865889Y19250891D01*
X37865891Y19250891D01*
X37816499Y19264125D01*
X37738592Y19285000D01*
X37606808Y19285000D01*
X37528900Y19264125D01*
X37479509Y19250891D01*
X37365390Y19185004D01*
X37272196Y19091810D01*
X37206309Y18977691D01*
X37189750Y18915891D01*
X37172200Y18850392D01*
X35250500Y18850392D01*
X35250500Y18915892D01*
X35216392Y19043186D01*
X35216390Y19043189D01*
X35216390Y19043191D01*
X35150503Y19157310D01*
X35150501Y19157312D01*
X35150500Y19157314D01*
X35057314Y19250500D01*
X35057311Y19250502D01*
X35057309Y19250504D01*
X34943189Y19316391D01*
X34943191Y19316391D01*
X34893799Y19329625D01*
X34815892Y19350500D01*
X34684108Y19350500D01*
X34606200Y19329625D01*
X34556809Y19316391D01*
X34442690Y19250504D01*
X34349496Y19157310D01*
X34283609Y19043191D01*
X34283608Y19043186D01*
X34249500Y18915892D01*
X28823575Y18915892D01*
X28855895Y18971872D01*
X28855898Y18971877D01*
X28856028Y18972104D01*
X28856092Y18972214D01*
X28890200Y19099508D01*
X28890200Y19231292D01*
X28856092Y19358586D01*
X28856090Y19358589D01*
X28856090Y19358591D01*
X28790203Y19472710D01*
X28790201Y19472712D01*
X28790200Y19472714D01*
X28697014Y19565900D01*
X28697011Y19565902D01*
X28697009Y19565904D01*
X28582889Y19631791D01*
X28582891Y19631791D01*
X28533499Y19645025D01*
X28455592Y19665900D01*
X28323808Y19665900D01*
X28245900Y19645025D01*
X28196509Y19631791D01*
X28082390Y19565904D01*
X27989196Y19472710D01*
X27923309Y19358591D01*
X27923308Y19358586D01*
X27889200Y19231292D01*
X500500Y19231292D01*
X500500Y21015892D01*
X18699500Y21015892D01*
X18699500Y20884108D01*
X18720823Y20804528D01*
X18733609Y20756810D01*
X18799496Y20642691D01*
X18799498Y20642689D01*
X18799500Y20642686D01*
X18892686Y20549500D01*
X18892688Y20549499D01*
X18892690Y20549497D01*
X19006810Y20483610D01*
X19006808Y20483610D01*
X19006812Y20483609D01*
X19006814Y20483608D01*
X19134108Y20449500D01*
X19134110Y20449500D01*
X19265890Y20449500D01*
X19265892Y20449500D01*
X19393186Y20483608D01*
X19393188Y20483610D01*
X19393190Y20483610D01*
X19507309Y20549497D01*
X19507309Y20549498D01*
X19507314Y20549500D01*
X19600500Y20642686D01*
X19666392Y20756814D01*
X19697629Y20873392D01*
X27498500Y20873392D01*
X27498500Y20741608D01*
X27525006Y20642686D01*
X27532609Y20614310D01*
X27598496Y20500191D01*
X27598498Y20500189D01*
X27598500Y20500186D01*
X27691686Y20407000D01*
X27691688Y20406999D01*
X27691690Y20406997D01*
X27805810Y20341110D01*
X27805808Y20341110D01*
X27805812Y20341109D01*
X27805814Y20341108D01*
X27933108Y20307000D01*
X27933110Y20307000D01*
X28064890Y20307000D01*
X28064892Y20307000D01*
X28192186Y20341108D01*
X28192188Y20341110D01*
X28192190Y20341110D01*
X28306309Y20406997D01*
X28306309Y20406998D01*
X28306314Y20407000D01*
X28399500Y20500186D01*
X28465392Y20614314D01*
X28499500Y20741608D01*
X28499500Y20804528D01*
X28518407Y20862719D01*
X28567907Y20898683D01*
X28629093Y20898683D01*
X28658771Y20883068D01*
X28661981Y20880605D01*
X28661986Y20880600D01*
X28661991Y20880597D01*
X28661994Y20880595D01*
X28776110Y20814710D01*
X28776108Y20814710D01*
X28776112Y20814709D01*
X28776114Y20814708D01*
X28903408Y20780600D01*
X28903410Y20780600D01*
X29035190Y20780600D01*
X29035192Y20780600D01*
X29162486Y20814708D01*
X29162488Y20814710D01*
X29162490Y20814710D01*
X29276609Y20880597D01*
X29276609Y20880598D01*
X29276614Y20880600D01*
X29369800Y20973786D01*
X29385334Y21000691D01*
X29435690Y21087910D01*
X29435690Y21087912D01*
X29435692Y21087914D01*
X29469800Y21215208D01*
X29469800Y21346992D01*
X29435692Y21474286D01*
X29435690Y21474289D01*
X29435690Y21474291D01*
X29369803Y21588410D01*
X29369801Y21588412D01*
X29369800Y21588414D01*
X29276614Y21681600D01*
X29276611Y21681602D01*
X29276609Y21681604D01*
X29162489Y21747491D01*
X29162491Y21747491D01*
X29113099Y21760725D01*
X29035192Y21781600D01*
X28903408Y21781600D01*
X28825500Y21760725D01*
X28776109Y21747491D01*
X28661990Y21681604D01*
X28568796Y21588410D01*
X28502909Y21474291D01*
X28468800Y21346991D01*
X28468800Y21284073D01*
X28449893Y21225882D01*
X28400393Y21189918D01*
X28339207Y21189918D01*
X28309535Y21205529D01*
X28306312Y21208002D01*
X28192189Y21273891D01*
X28192191Y21273891D01*
X28142799Y21287125D01*
X28064892Y21308000D01*
X27933108Y21308000D01*
X27855200Y21287125D01*
X27805809Y21273891D01*
X27691690Y21208004D01*
X27598496Y21114810D01*
X27532609Y21000691D01*
X27525400Y20973786D01*
X27498500Y20873392D01*
X19697629Y20873392D01*
X19700500Y20884108D01*
X19700500Y21015892D01*
X19666392Y21143186D01*
X19666390Y21143189D01*
X19666390Y21143191D01*
X19600503Y21257310D01*
X19600501Y21257312D01*
X19600500Y21257314D01*
X19507314Y21350500D01*
X19507311Y21350502D01*
X19507309Y21350504D01*
X19393189Y21416391D01*
X19393191Y21416391D01*
X19343799Y21429625D01*
X19265892Y21450500D01*
X19134108Y21450500D01*
X19056200Y21429625D01*
X19006809Y21416391D01*
X18892690Y21350504D01*
X18799496Y21257310D01*
X18733609Y21143191D01*
X18733608Y21143186D01*
X18699500Y21015892D01*
X500500Y21015892D01*
X500500Y22265892D01*
X32299500Y22265892D01*
X32299500Y22134108D01*
X32304457Y22115608D01*
X32333609Y22006810D01*
X32399496Y21892691D01*
X32399498Y21892689D01*
X32399500Y21892686D01*
X32492686Y21799500D01*
X32492688Y21799499D01*
X32492690Y21799497D01*
X32606810Y21733610D01*
X32606808Y21733610D01*
X32606812Y21733609D01*
X32606814Y21733608D01*
X32734108Y21699500D01*
X32734110Y21699500D01*
X32865890Y21699500D01*
X32865892Y21699500D01*
X32993186Y21733608D01*
X32993188Y21733610D01*
X32993190Y21733610D01*
X33107309Y21799497D01*
X33107309Y21799498D01*
X33107314Y21799500D01*
X33200500Y21892686D01*
X33266392Y22006814D01*
X33300500Y22134108D01*
X33300500Y22265892D01*
X33266392Y22393186D01*
X33266390Y22393189D01*
X33266390Y22393191D01*
X33200503Y22507310D01*
X33200501Y22507312D01*
X33200500Y22507314D01*
X33107314Y22600500D01*
X33107311Y22600502D01*
X33107309Y22600504D01*
X33025230Y22647892D01*
X35574500Y22647892D01*
X35574500Y22516108D01*
X35604579Y22403849D01*
X35608609Y22388810D01*
X35674496Y22274691D01*
X35674498Y22274689D01*
X35674500Y22274686D01*
X35767686Y22181500D01*
X35767688Y22181499D01*
X35767690Y22181497D01*
X35881810Y22115610D01*
X35881808Y22115610D01*
X35881812Y22115609D01*
X35881814Y22115608D01*
X36009108Y22081500D01*
X36009110Y22081500D01*
X36140890Y22081500D01*
X36140892Y22081500D01*
X36268186Y22115608D01*
X36268188Y22115610D01*
X36268190Y22115610D01*
X36382309Y22181497D01*
X36382309Y22181498D01*
X36382314Y22181500D01*
X36475500Y22274686D01*
X36512565Y22338884D01*
X36541390Y22388810D01*
X36541390Y22388812D01*
X36541392Y22388814D01*
X36575500Y22516108D01*
X36575500Y22647892D01*
X36541392Y22775186D01*
X36491778Y22861120D01*
X55709500Y22861120D01*
X55709500Y22598880D01*
X55743730Y22338884D01*
X55811600Y22085589D01*
X55811604Y22085576D01*
X55911953Y21843311D01*
X55911955Y21843307D01*
X55911957Y21843303D01*
X56043076Y21616197D01*
X56202718Y21408149D01*
X56388149Y21222718D01*
X56596197Y21063076D01*
X56823303Y20931957D01*
X57065581Y20831602D01*
X57318884Y20763730D01*
X57578880Y20729500D01*
X57578881Y20729500D01*
X57841119Y20729500D01*
X57841120Y20729500D01*
X58101116Y20763730D01*
X58354419Y20831602D01*
X58596697Y20931957D01*
X58823803Y21063076D01*
X59031851Y21222718D01*
X59217282Y21408149D01*
X59376924Y21616197D01*
X59508043Y21843303D01*
X59608398Y22085581D01*
X59676270Y22338884D01*
X59710500Y22598880D01*
X59710500Y22861120D01*
X59676270Y23121116D01*
X59608398Y23374419D01*
X59524438Y23577115D01*
X59508046Y23616690D01*
X59508045Y23616691D01*
X59508043Y23616697D01*
X59376924Y23843803D01*
X59217282Y24051851D01*
X59031851Y24237282D01*
X58823803Y24396924D01*
X58823804Y24396924D01*
X58823802Y24396925D01*
X58703480Y24466392D01*
X58596697Y24528043D01*
X58596693Y24528045D01*
X58596689Y24528047D01*
X58354424Y24628396D01*
X58354423Y24628397D01*
X58354419Y24628398D01*
X58101116Y24696270D01*
X58101111Y24696271D01*
X58101110Y24696271D01*
X57841120Y24730500D01*
X57578880Y24730500D01*
X57578879Y24730500D01*
X57318889Y24696271D01*
X57318886Y24696271D01*
X57318884Y24696270D01*
X57133464Y24646588D01*
X57065588Y24628400D01*
X57065575Y24628396D01*
X56823310Y24528047D01*
X56596197Y24396925D01*
X56388152Y24237285D01*
X56202715Y24051848D01*
X56043075Y23843803D01*
X55911953Y23616690D01*
X55811604Y23374425D01*
X55811602Y23374419D01*
X55762909Y23192691D01*
X55743729Y23121111D01*
X55725481Y22982504D01*
X55709500Y22861120D01*
X36491778Y22861120D01*
X36475500Y22889314D01*
X36382314Y22982500D01*
X36382311Y22982502D01*
X36382309Y22982504D01*
X36268189Y23048391D01*
X36268191Y23048391D01*
X36218799Y23061625D01*
X36140892Y23082500D01*
X36009108Y23082500D01*
X35931200Y23061625D01*
X35881809Y23048391D01*
X35767690Y22982504D01*
X35674496Y22889310D01*
X35608609Y22775191D01*
X35608608Y22775186D01*
X35574500Y22647892D01*
X33025230Y22647892D01*
X32993189Y22666391D01*
X32993191Y22666391D01*
X32943799Y22679625D01*
X32865892Y22700500D01*
X32734108Y22700500D01*
X32656200Y22679625D01*
X32606809Y22666391D01*
X32492690Y22600504D01*
X32399496Y22507310D01*
X32333609Y22393191D01*
X32319058Y22338884D01*
X32299500Y22265892D01*
X500500Y22265892D01*
X500500Y23565892D01*
X22049500Y23565892D01*
X22049500Y23434108D01*
X22079579Y23321849D01*
X22083609Y23306810D01*
X22149496Y23192691D01*
X22149498Y23192689D01*
X22149500Y23192686D01*
X22242686Y23099500D01*
X22242688Y23099499D01*
X22242690Y23099497D01*
X22356810Y23033610D01*
X22356808Y23033610D01*
X22356812Y23033609D01*
X22356814Y23033608D01*
X22484108Y22999500D01*
X22484110Y22999500D01*
X22615890Y22999500D01*
X22615892Y22999500D01*
X22743186Y23033608D01*
X22743188Y23033610D01*
X22743190Y23033610D01*
X22857309Y23099497D01*
X22857309Y23099498D01*
X22857314Y23099500D01*
X22950500Y23192686D01*
X23016392Y23306814D01*
X23050500Y23434108D01*
X23050500Y23565892D01*
X23016392Y23693186D01*
X23016390Y23693189D01*
X23016390Y23693191D01*
X22950503Y23807310D01*
X22950501Y23807312D01*
X22950500Y23807314D01*
X22857314Y23900500D01*
X22857311Y23900502D01*
X22857309Y23900504D01*
X22743189Y23966391D01*
X22743191Y23966391D01*
X22728722Y23970268D01*
X22615892Y24000500D01*
X22484108Y24000500D01*
X22406200Y23979625D01*
X22356809Y23966391D01*
X22242690Y23900504D01*
X22149496Y23807310D01*
X22083609Y23693191D01*
X22083608Y23693186D01*
X22049500Y23565892D01*
X500500Y23565892D01*
X500500Y24065892D01*
X40449500Y24065892D01*
X40449500Y23934108D01*
X40473697Y23843803D01*
X40483609Y23806810D01*
X40549496Y23692691D01*
X40549498Y23692689D01*
X40549500Y23692686D01*
X40642686Y23599500D01*
X40642688Y23599499D01*
X40642690Y23599497D01*
X40756810Y23533610D01*
X40756808Y23533610D01*
X40756812Y23533609D01*
X40756814Y23533608D01*
X40884108Y23499500D01*
X40884110Y23499500D01*
X41015890Y23499500D01*
X41015892Y23499500D01*
X41143186Y23533608D01*
X41143188Y23533610D01*
X41143190Y23533610D01*
X41257309Y23599497D01*
X41257309Y23599498D01*
X41257314Y23599500D01*
X41350500Y23692686D01*
X41416392Y23806814D01*
X41450500Y23934108D01*
X41450500Y24065892D01*
X41416392Y24193186D01*
X41416390Y24193189D01*
X41416390Y24193191D01*
X41350503Y24307310D01*
X41350501Y24307312D01*
X41350500Y24307314D01*
X41257314Y24400500D01*
X41257311Y24400502D01*
X41257309Y24400504D01*
X41143189Y24466391D01*
X41143191Y24466391D01*
X41093799Y24479625D01*
X41015892Y24500500D01*
X40884108Y24500500D01*
X40806200Y24479625D01*
X40756809Y24466391D01*
X40642690Y24400504D01*
X40549496Y24307310D01*
X40483609Y24193191D01*
X40483608Y24193186D01*
X40449500Y24065892D01*
X500500Y24065892D01*
X500500Y25157792D01*
X31249500Y25157792D01*
X31249500Y25026008D01*
X31279579Y24913749D01*
X31283609Y24898710D01*
X31349496Y24784591D01*
X31349498Y24784589D01*
X31349500Y24784586D01*
X31442686Y24691400D01*
X31442688Y24691399D01*
X31442690Y24691397D01*
X31556810Y24625510D01*
X31556808Y24625510D01*
X31556812Y24625509D01*
X31556814Y24625508D01*
X31684108Y24591400D01*
X31684110Y24591400D01*
X31815890Y24591400D01*
X31815892Y24591400D01*
X31943186Y24625508D01*
X31943188Y24625510D01*
X31943190Y24625510D01*
X32057309Y24691397D01*
X32057309Y24691398D01*
X32057314Y24691400D01*
X32150500Y24784586D01*
X32216392Y24898714D01*
X32250500Y25026008D01*
X32250500Y25157792D01*
X32216392Y25285086D01*
X32216390Y25285089D01*
X32216390Y25285091D01*
X32150503Y25399210D01*
X32150501Y25399212D01*
X32150500Y25399214D01*
X32057314Y25492400D01*
X32057311Y25492402D01*
X32057309Y25492404D01*
X31943189Y25558291D01*
X31943191Y25558291D01*
X31893799Y25571525D01*
X31815892Y25592400D01*
X31684108Y25592400D01*
X31606200Y25571525D01*
X31556809Y25558291D01*
X31442690Y25492404D01*
X31349496Y25399210D01*
X31283609Y25285091D01*
X31281789Y25278297D01*
X31249500Y25157792D01*
X500500Y25157792D01*
X500500Y26315892D01*
X22049500Y26315892D01*
X22049500Y26184108D01*
X22059928Y26145191D01*
X22083609Y26056810D01*
X22149496Y25942691D01*
X22149498Y25942689D01*
X22149500Y25942686D01*
X22242686Y25849500D01*
X22242688Y25849499D01*
X22242690Y25849497D01*
X22356810Y25783610D01*
X22356808Y25783610D01*
X22356812Y25783609D01*
X22356814Y25783608D01*
X22484108Y25749500D01*
X22484110Y25749500D01*
X22615890Y25749500D01*
X22615892Y25749500D01*
X22641240Y25756292D01*
X29706500Y25756292D01*
X29706500Y25624508D01*
X29736579Y25512249D01*
X29740609Y25497210D01*
X29806496Y25383091D01*
X29806498Y25383089D01*
X29806500Y25383086D01*
X29899686Y25289900D01*
X29899688Y25289899D01*
X29899690Y25289897D01*
X30013810Y25224010D01*
X30013808Y25224010D01*
X30013812Y25224009D01*
X30013814Y25224008D01*
X30141108Y25189900D01*
X30141110Y25189900D01*
X30272890Y25189900D01*
X30272892Y25189900D01*
X30400186Y25224008D01*
X30400188Y25224010D01*
X30400190Y25224010D01*
X30445236Y25250017D01*
X30514309Y25289897D01*
X30514309Y25289898D01*
X30514314Y25289900D01*
X30607500Y25383086D01*
X30622803Y25409591D01*
X30673390Y25497210D01*
X30673390Y25497212D01*
X30673392Y25497214D01*
X30707500Y25624508D01*
X30707500Y25756292D01*
X30700399Y25782792D01*
X32454100Y25782792D01*
X32454100Y25651008D01*
X32464309Y25612908D01*
X32488209Y25523710D01*
X32554096Y25409591D01*
X32554098Y25409589D01*
X32554100Y25409586D01*
X32647286Y25316400D01*
X32647288Y25316399D01*
X32647290Y25316397D01*
X32761410Y25250510D01*
X32761408Y25250510D01*
X32761412Y25250509D01*
X32761414Y25250508D01*
X32888708Y25216400D01*
X32888710Y25216400D01*
X33020490Y25216400D01*
X33020492Y25216400D01*
X33147786Y25250508D01*
X33147788Y25250510D01*
X33147790Y25250510D01*
X33261909Y25316397D01*
X33261909Y25316398D01*
X33261914Y25316400D01*
X33355100Y25409586D01*
X33420992Y25523714D01*
X33455100Y25651008D01*
X33455100Y25744692D01*
X34400100Y25744692D01*
X34400100Y25612908D01*
X34423999Y25523714D01*
X34434209Y25485610D01*
X34500096Y25371491D01*
X34500098Y25371489D01*
X34500100Y25371486D01*
X34593286Y25278300D01*
X34593288Y25278299D01*
X34593290Y25278297D01*
X34707410Y25212410D01*
X34707408Y25212410D01*
X34707412Y25212409D01*
X34707414Y25212408D01*
X34834708Y25178300D01*
X34834710Y25178300D01*
X34966490Y25178300D01*
X34966492Y25178300D01*
X35093786Y25212408D01*
X35093788Y25212410D01*
X35093790Y25212410D01*
X35207909Y25278297D01*
X35207909Y25278298D01*
X35207914Y25278300D01*
X35301100Y25371486D01*
X35307800Y25383091D01*
X35366990Y25485610D01*
X35366990Y25485612D01*
X35366992Y25485614D01*
X35401100Y25612908D01*
X35401100Y25744692D01*
X35366992Y25871986D01*
X35366990Y25871989D01*
X35366990Y25871991D01*
X35301103Y25986110D01*
X35301101Y25986112D01*
X35301100Y25986114D01*
X35207914Y26079300D01*
X35207911Y26079302D01*
X35207909Y26079304D01*
X35093789Y26145191D01*
X35093791Y26145191D01*
X35044399Y26158425D01*
X34966492Y26179300D01*
X34834708Y26179300D01*
X34756800Y26158425D01*
X34707409Y26145191D01*
X34593290Y26079304D01*
X34500096Y25986110D01*
X34434209Y25871991D01*
X34415139Y25800822D01*
X34400100Y25744692D01*
X33455100Y25744692D01*
X33455100Y25782792D01*
X33420992Y25910086D01*
X33420990Y25910089D01*
X33420990Y25910091D01*
X33355103Y26024210D01*
X33355101Y26024212D01*
X33355100Y26024214D01*
X33261914Y26117400D01*
X33261911Y26117402D01*
X33261909Y26117404D01*
X33147789Y26183291D01*
X33147791Y26183291D01*
X33098399Y26196525D01*
X33020492Y26217400D01*
X32888708Y26217400D01*
X32810800Y26196525D01*
X32761409Y26183291D01*
X32647290Y26117404D01*
X32554096Y26024210D01*
X32488209Y25910091D01*
X32477999Y25871986D01*
X32454100Y25782792D01*
X30700399Y25782792D01*
X30673392Y25883586D01*
X30673390Y25883589D01*
X30673390Y25883591D01*
X30607503Y25997710D01*
X30607501Y25997712D01*
X30607500Y25997714D01*
X30514314Y26090900D01*
X30514311Y26090902D01*
X30514309Y26090904D01*
X30400189Y26156791D01*
X30400191Y26156791D01*
X30350799Y26170025D01*
X30272892Y26190900D01*
X30141108Y26190900D01*
X30063200Y26170025D01*
X30013809Y26156791D01*
X29899690Y26090904D01*
X29806496Y25997710D01*
X29740609Y25883591D01*
X29740608Y25883586D01*
X29706500Y25756292D01*
X22641240Y25756292D01*
X22743186Y25783608D01*
X22743188Y25783610D01*
X22743190Y25783610D01*
X22855613Y25848517D01*
X22857309Y25849497D01*
X22857309Y25849498D01*
X22857314Y25849500D01*
X22950500Y25942686D01*
X22997568Y26024210D01*
X23016390Y26056810D01*
X23016390Y26056812D01*
X23016392Y26056814D01*
X23050500Y26184108D01*
X23050500Y26315892D01*
X23016392Y26443186D01*
X23016390Y26443189D01*
X23016390Y26443191D01*
X22950503Y26557310D01*
X22950501Y26557312D01*
X22950500Y26557314D01*
X22857314Y26650500D01*
X22857311Y26650502D01*
X22857309Y26650504D01*
X22743189Y26716391D01*
X22743191Y26716391D01*
X22693799Y26729625D01*
X22615892Y26750500D01*
X22484108Y26750500D01*
X22406200Y26729625D01*
X22356809Y26716391D01*
X22242690Y26650504D01*
X22149496Y26557310D01*
X22083609Y26443191D01*
X22083608Y26443186D01*
X22049500Y26315892D01*
X500500Y26315892D01*
X500500Y27018192D01*
X30111800Y27018192D01*
X30111800Y26886408D01*
X30125044Y26836981D01*
X30145909Y26759110D01*
X30211796Y26644991D01*
X30211798Y26644989D01*
X30211800Y26644986D01*
X30304986Y26551800D01*
X30304988Y26551799D01*
X30304990Y26551797D01*
X30419110Y26485910D01*
X30419108Y26485910D01*
X30419112Y26485909D01*
X30419114Y26485908D01*
X30546408Y26451800D01*
X30546410Y26451800D01*
X30678190Y26451800D01*
X30678192Y26451800D01*
X30805486Y26485908D01*
X30805488Y26485910D01*
X30805490Y26485910D01*
X30877500Y26527485D01*
X30937348Y26540207D01*
X30993244Y26515321D01*
X31023836Y26462333D01*
X31026000Y26441749D01*
X31026000Y26334108D01*
X31056079Y26221849D01*
X31060109Y26206810D01*
X31125996Y26092691D01*
X31125998Y26092689D01*
X31126000Y26092686D01*
X31219186Y25999500D01*
X31219188Y25999499D01*
X31219190Y25999497D01*
X31333310Y25933610D01*
X31333308Y25933610D01*
X31333312Y25933609D01*
X31333314Y25933608D01*
X31460608Y25899500D01*
X31460610Y25899500D01*
X31592390Y25899500D01*
X31592392Y25899500D01*
X31719686Y25933608D01*
X31719688Y25933610D01*
X31719690Y25933610D01*
X31833809Y25999497D01*
X31833809Y25999498D01*
X31833814Y25999500D01*
X31927000Y26092686D01*
X31957314Y26145191D01*
X31992890Y26206810D01*
X31992890Y26206812D01*
X31992892Y26206814D01*
X32027000Y26334108D01*
X32027000Y26465892D01*
X31992892Y26593186D01*
X31992890Y26593189D01*
X31992890Y26593191D01*
X31927003Y26707310D01*
X31927001Y26707312D01*
X31927000Y26707314D01*
X31833814Y26800500D01*
X31833811Y26800502D01*
X31833809Y26800504D01*
X31719689Y26866391D01*
X31719691Y26866391D01*
X31670299Y26879625D01*
X31592392Y26900500D01*
X31460608Y26900500D01*
X31396961Y26883446D01*
X31333312Y26866392D01*
X31261300Y26824815D01*
X31201451Y26812094D01*
X31145556Y26836981D01*
X31114963Y26889969D01*
X31112800Y26910552D01*
X31112800Y27018191D01*
X31104339Y27049769D01*
X31078692Y27145486D01*
X31078690Y27145489D01*
X31078690Y27145491D01*
X31012803Y27259610D01*
X31012801Y27259612D01*
X31012800Y27259614D01*
X30919614Y27352800D01*
X30919611Y27352802D01*
X30919609Y27352804D01*
X30805489Y27418691D01*
X30805491Y27418691D01*
X30756099Y27431925D01*
X30678192Y27452800D01*
X30546408Y27452800D01*
X30468500Y27431925D01*
X30419109Y27418691D01*
X30304990Y27352804D01*
X30211796Y27259610D01*
X30145909Y27145491D01*
X30145908Y27145486D01*
X30111800Y27018192D01*
X500500Y27018192D01*
X500500Y27990892D01*
X21999500Y27990892D01*
X21999500Y27859108D01*
X22019730Y27783608D01*
X22033609Y27731810D01*
X22099496Y27617691D01*
X22099498Y27617689D01*
X22099500Y27617686D01*
X22192686Y27524500D01*
X22192688Y27524499D01*
X22192690Y27524497D01*
X22306810Y27458610D01*
X22306808Y27458610D01*
X22306812Y27458609D01*
X22306814Y27458608D01*
X22434108Y27424500D01*
X22434110Y27424500D01*
X22565890Y27424500D01*
X22565892Y27424500D01*
X22693186Y27458608D01*
X22693188Y27458610D01*
X22693190Y27458610D01*
X22807309Y27524497D01*
X22807309Y27524498D01*
X22807314Y27524500D01*
X22900500Y27617686D01*
X22966392Y27731814D01*
X23000500Y27859108D01*
X23000500Y27990892D01*
X22966392Y28118186D01*
X22966390Y28118189D01*
X22966390Y28118191D01*
X22900503Y28232310D01*
X22900501Y28232312D01*
X22900500Y28232314D01*
X22816922Y28315892D01*
X25899500Y28315892D01*
X25899500Y28184108D01*
X25929579Y28071849D01*
X25933609Y28056810D01*
X25999496Y27942691D01*
X25999498Y27942689D01*
X25999500Y27942686D01*
X26092686Y27849500D01*
X26092688Y27849499D01*
X26092690Y27849497D01*
X26206810Y27783610D01*
X26206808Y27783610D01*
X26206812Y27783609D01*
X26206814Y27783608D01*
X26334108Y27749500D01*
X26334110Y27749500D01*
X26465890Y27749500D01*
X26465892Y27749500D01*
X26593186Y27783608D01*
X26593188Y27783610D01*
X26593190Y27783610D01*
X26649104Y27815892D01*
X34391800Y27815892D01*
X34391800Y27684108D01*
X34409596Y27617691D01*
X34425909Y27556810D01*
X34491796Y27442691D01*
X34491798Y27442689D01*
X34491800Y27442686D01*
X34584986Y27349500D01*
X34584988Y27349499D01*
X34584990Y27349497D01*
X34699110Y27283610D01*
X34699108Y27283610D01*
X34699112Y27283609D01*
X34699114Y27283608D01*
X34826408Y27249500D01*
X34826410Y27249500D01*
X34958190Y27249500D01*
X34958192Y27249500D01*
X35085486Y27283608D01*
X35085488Y27283610D01*
X35085490Y27283610D01*
X35199609Y27349497D01*
X35199609Y27349498D01*
X35199614Y27349500D01*
X35292800Y27442686D01*
X35358692Y27556814D01*
X35368554Y27593619D01*
X52049500Y27593619D01*
X52049500Y27406382D01*
X52086026Y27222751D01*
X52157677Y27049771D01*
X52157681Y27049762D01*
X52232065Y26938441D01*
X52261698Y26894092D01*
X52394092Y26761698D01*
X52460463Y26717351D01*
X52549761Y26657682D01*
X52549767Y26657680D01*
X52549769Y26657678D01*
X52722749Y26586027D01*
X52906384Y26549500D01*
X52906385Y26549500D01*
X53093615Y26549500D01*
X53093616Y26549500D01*
X53277251Y26586027D01*
X53450231Y26657678D01*
X53450234Y26657681D01*
X53450238Y26657682D01*
X53495187Y26687718D01*
X53605908Y26761698D01*
X53738302Y26894092D01*
X53821223Y27018192D01*
X53842318Y27049762D01*
X53842323Y27049771D01*
X53908536Y27209625D01*
X53948272Y27256150D01*
X54007767Y27270434D01*
X54064295Y27247019D01*
X54091464Y27209624D01*
X54157675Y27049774D01*
X54157681Y27049762D01*
X54232065Y26938441D01*
X54261698Y26894092D01*
X54394092Y26761698D01*
X54460463Y26717351D01*
X54549761Y26657682D01*
X54549767Y26657680D01*
X54549769Y26657678D01*
X54722749Y26586027D01*
X54906384Y26549500D01*
X54906385Y26549500D01*
X55093615Y26549500D01*
X55093616Y26549500D01*
X55277251Y26586027D01*
X55450231Y26657678D01*
X55450234Y26657681D01*
X55450238Y26657682D01*
X55495187Y26687718D01*
X55605908Y26761698D01*
X55738302Y26894092D01*
X55821223Y27018192D01*
X55842318Y27049762D01*
X55842319Y27049766D01*
X55842322Y27049769D01*
X55913973Y27222749D01*
X55950500Y27406384D01*
X55950500Y27593616D01*
X55913973Y27777251D01*
X55842322Y27950231D01*
X55842320Y27950233D01*
X55842318Y27950239D01*
X55771108Y28056810D01*
X55738302Y28105908D01*
X55605908Y28238302D01*
X55561559Y28267935D01*
X55450238Y28342319D01*
X55450229Y28342323D01*
X55277249Y28413974D01*
X55093618Y28450500D01*
X55093616Y28450500D01*
X54906384Y28450500D01*
X54906381Y28450500D01*
X54722750Y28413974D01*
X54549770Y28342323D01*
X54549761Y28342319D01*
X54394092Y28238302D01*
X54394088Y28238299D01*
X54261701Y28105912D01*
X54261698Y28105908D01*
X54157681Y27950239D01*
X54157677Y27950230D01*
X54133717Y27892385D01*
X54102033Y27815891D01*
X54091464Y27790376D01*
X54051727Y27743851D01*
X53992233Y27729567D01*
X53935705Y27752982D01*
X53908536Y27790376D01*
X53897967Y27815891D01*
X53842322Y27950231D01*
X53842320Y27950233D01*
X53842318Y27950239D01*
X53771108Y28056810D01*
X53738302Y28105908D01*
X53605908Y28238302D01*
X53561559Y28267935D01*
X53450238Y28342319D01*
X53450229Y28342323D01*
X53277249Y28413974D01*
X53093618Y28450500D01*
X53093616Y28450500D01*
X52906384Y28450500D01*
X52906381Y28450500D01*
X52722750Y28413974D01*
X52549770Y28342323D01*
X52549761Y28342319D01*
X52394092Y28238302D01*
X52394088Y28238299D01*
X52261701Y28105912D01*
X52261698Y28105908D01*
X52157681Y27950239D01*
X52157677Y27950230D01*
X52086026Y27777250D01*
X52049500Y27593619D01*
X35368554Y27593619D01*
X35392800Y27684108D01*
X35392800Y27815892D01*
X35358692Y27943186D01*
X35358690Y27943189D01*
X35358690Y27943191D01*
X35292803Y28057310D01*
X35292801Y28057312D01*
X35292800Y28057314D01*
X35199614Y28150500D01*
X35199611Y28150502D01*
X35199609Y28150504D01*
X35085489Y28216391D01*
X35085491Y28216391D01*
X35036099Y28229625D01*
X34958192Y28250500D01*
X34826408Y28250500D01*
X34748500Y28229625D01*
X34699109Y28216391D01*
X34584990Y28150504D01*
X34491796Y28057310D01*
X34425909Y27943191D01*
X34425908Y27943186D01*
X34391800Y27815892D01*
X26649104Y27815892D01*
X26707309Y27849497D01*
X26707309Y27849498D01*
X26707314Y27849500D01*
X26800500Y27942686D01*
X26866392Y28056814D01*
X26900500Y28184108D01*
X26900500Y28315892D01*
X26866392Y28443186D01*
X26866390Y28443189D01*
X26866390Y28443191D01*
X26800503Y28557310D01*
X26800501Y28557312D01*
X26800500Y28557314D01*
X26707314Y28650500D01*
X26707311Y28650502D01*
X26707309Y28650504D01*
X26593189Y28716391D01*
X26593191Y28716391D01*
X26543799Y28729625D01*
X26465892Y28750500D01*
X26334108Y28750500D01*
X26256200Y28729625D01*
X26206809Y28716391D01*
X26092690Y28650504D01*
X25999496Y28557310D01*
X25933609Y28443191D01*
X25933608Y28443186D01*
X25899500Y28315892D01*
X22816922Y28315892D01*
X22807314Y28325500D01*
X22807311Y28325502D01*
X22807309Y28325504D01*
X22693189Y28391391D01*
X22693191Y28391391D01*
X22643799Y28404625D01*
X22565892Y28425500D01*
X22434108Y28425500D01*
X22356200Y28404625D01*
X22306809Y28391391D01*
X22192690Y28325504D01*
X22099496Y28232310D01*
X22033609Y28118191D01*
X22014539Y28047022D01*
X21999500Y27990892D01*
X500500Y27990892D01*
X500500Y29065892D01*
X45399500Y29065892D01*
X45399500Y28934108D01*
X45429579Y28821849D01*
X45433609Y28806810D01*
X45499496Y28692691D01*
X45499498Y28692689D01*
X45499500Y28692686D01*
X45592686Y28599500D01*
X45592688Y28599499D01*
X45592690Y28599497D01*
X45706810Y28533610D01*
X45706808Y28533610D01*
X45706812Y28533609D01*
X45706814Y28533608D01*
X45834108Y28499500D01*
X45834110Y28499500D01*
X45965890Y28499500D01*
X45965892Y28499500D01*
X46093186Y28533608D01*
X46093188Y28533610D01*
X46093190Y28533610D01*
X46207309Y28599497D01*
X46207309Y28599498D01*
X46207314Y28599500D01*
X46300500Y28692686D01*
X46366392Y28806814D01*
X46400500Y28934108D01*
X46400500Y29065892D01*
X49699499Y29065892D01*
X49699499Y28934108D01*
X49729578Y28821849D01*
X49733608Y28806810D01*
X49799495Y28692691D01*
X49799497Y28692689D01*
X49799499Y28692686D01*
X49892685Y28599500D01*
X49892687Y28599499D01*
X49892689Y28599497D01*
X50006809Y28533610D01*
X50006807Y28533610D01*
X50006811Y28533609D01*
X50006813Y28533608D01*
X50134107Y28499500D01*
X50134109Y28499500D01*
X50265889Y28499500D01*
X50265891Y28499500D01*
X50393185Y28533608D01*
X50393187Y28533610D01*
X50393189Y28533610D01*
X50507308Y28599497D01*
X50507308Y28599498D01*
X50507313Y28599500D01*
X50600499Y28692686D01*
X50666391Y28806814D01*
X50700499Y28934108D01*
X50700499Y29065892D01*
X50666391Y29193186D01*
X50666389Y29193189D01*
X50666389Y29193191D01*
X50600502Y29307310D01*
X50600500Y29307312D01*
X50600499Y29307314D01*
X50507313Y29400500D01*
X50507310Y29400502D01*
X50507308Y29400504D01*
X50393188Y29466391D01*
X50393190Y29466391D01*
X50343798Y29479625D01*
X50265891Y29500500D01*
X50134107Y29500500D01*
X50056199Y29479625D01*
X50006808Y29466391D01*
X49892689Y29400504D01*
X49799495Y29307310D01*
X49733608Y29193191D01*
X49724795Y29160300D01*
X49699499Y29065892D01*
X46400500Y29065892D01*
X46366392Y29193186D01*
X46366390Y29193189D01*
X46366390Y29193191D01*
X46300503Y29307310D01*
X46300501Y29307312D01*
X46300500Y29307314D01*
X46207314Y29400500D01*
X46207311Y29400502D01*
X46207309Y29400504D01*
X46093189Y29466391D01*
X46093191Y29466391D01*
X46043799Y29479625D01*
X45965892Y29500500D01*
X45834108Y29500500D01*
X45756200Y29479625D01*
X45706809Y29466391D01*
X45592690Y29400504D01*
X45499496Y29307310D01*
X45433609Y29193191D01*
X45424796Y29160300D01*
X45399500Y29065892D01*
X500500Y29065892D01*
X500500Y29726692D01*
X33791700Y29726692D01*
X33791700Y29594908D01*
X33803795Y29549769D01*
X33825809Y29467610D01*
X33891696Y29353491D01*
X33891698Y29353489D01*
X33891700Y29353486D01*
X33984886Y29260300D01*
X33984888Y29260299D01*
X33984890Y29260297D01*
X34099010Y29194410D01*
X34099008Y29194410D01*
X34099012Y29194409D01*
X34099014Y29194408D01*
X34226308Y29160300D01*
X34226310Y29160300D01*
X34358090Y29160300D01*
X34358092Y29160300D01*
X34485386Y29194408D01*
X34485388Y29194410D01*
X34485390Y29194410D01*
X34599509Y29260297D01*
X34599509Y29260298D01*
X34599514Y29260300D01*
X34692700Y29353486D01*
X34757886Y29466391D01*
X34758590Y29467610D01*
X34758590Y29467612D01*
X34758592Y29467614D01*
X34792700Y29594908D01*
X34792700Y29726692D01*
X34758592Y29853986D01*
X34758590Y29853989D01*
X34758590Y29853991D01*
X34692703Y29968110D01*
X34692701Y29968112D01*
X34692700Y29968114D01*
X34599514Y30061300D01*
X34599511Y30061302D01*
X34599509Y30061304D01*
X34485389Y30127191D01*
X34485391Y30127191D01*
X34435999Y30140425D01*
X34358092Y30161300D01*
X34226308Y30161300D01*
X34148400Y30140425D01*
X34099009Y30127191D01*
X33984890Y30061304D01*
X33891696Y29968110D01*
X33825809Y29853991D01*
X33825808Y29853986D01*
X33791700Y29726692D01*
X500500Y29726692D01*
X500500Y31315892D01*
X22049500Y31315892D01*
X22049500Y31184108D01*
X22060464Y31143191D01*
X22083609Y31056810D01*
X22149496Y30942691D01*
X22149498Y30942689D01*
X22149500Y30942686D01*
X22242686Y30849500D01*
X22242688Y30849499D01*
X22242690Y30849497D01*
X22356810Y30783610D01*
X22356808Y30783610D01*
X22356812Y30783609D01*
X22356814Y30783608D01*
X22484108Y30749500D01*
X22484110Y30749500D01*
X22615890Y30749500D01*
X22615892Y30749500D01*
X22743186Y30783608D01*
X22743188Y30783610D01*
X22743190Y30783610D01*
X22857309Y30849497D01*
X22857309Y30849498D01*
X22857314Y30849500D01*
X22950500Y30942686D01*
X22955012Y30950500D01*
X22992766Y31015892D01*
X37349500Y31015892D01*
X37349500Y30884108D01*
X37376428Y30783610D01*
X37383609Y30756810D01*
X37449496Y30642691D01*
X37449498Y30642689D01*
X37449500Y30642686D01*
X37542686Y30549500D01*
X37542688Y30549499D01*
X37542690Y30549497D01*
X37656810Y30483610D01*
X37656808Y30483610D01*
X37656812Y30483609D01*
X37656814Y30483608D01*
X37784108Y30449500D01*
X37784110Y30449500D01*
X37915890Y30449500D01*
X37915892Y30449500D01*
X38043186Y30483608D01*
X38043188Y30483610D01*
X38043190Y30483610D01*
X38157309Y30549497D01*
X38157309Y30549498D01*
X38157314Y30549500D01*
X38250500Y30642686D01*
X38250503Y30642691D01*
X38316390Y30756810D01*
X38316390Y30756812D01*
X38316392Y30756814D01*
X38319857Y30769747D01*
X52049500Y30769747D01*
X52049500Y29230254D01*
X52049501Y29230242D01*
X52061132Y29171773D01*
X52061134Y29171767D01*
X52070548Y29157678D01*
X52105448Y29105448D01*
X52171769Y29061133D01*
X52216231Y29052289D01*
X52230241Y29049502D01*
X52230246Y29049502D01*
X52230252Y29049500D01*
X52230253Y29049500D01*
X53769747Y29049500D01*
X53769748Y29049500D01*
X53828231Y29061133D01*
X53894552Y29105448D01*
X53938867Y29171769D01*
X53950500Y29230252D01*
X53950500Y29552235D01*
X53969407Y29610426D01*
X54018907Y29646390D01*
X54080093Y29646390D01*
X54129593Y29610426D01*
X54140964Y29590120D01*
X54157675Y29549774D01*
X54157681Y29549762D01*
X54213389Y29466391D01*
X54261698Y29394092D01*
X54394092Y29261698D01*
X54460463Y29217351D01*
X54549761Y29157682D01*
X54549767Y29157680D01*
X54549769Y29157678D01*
X54722749Y29086027D01*
X54906384Y29049500D01*
X54906385Y29049500D01*
X55093615Y29049500D01*
X55093616Y29049500D01*
X55277251Y29086027D01*
X55450231Y29157678D01*
X55450234Y29157681D01*
X55450238Y29157682D01*
X55495187Y29187718D01*
X55605908Y29261698D01*
X55738302Y29394092D01*
X55812282Y29504813D01*
X55842318Y29549762D01*
X55842319Y29549766D01*
X55842322Y29549769D01*
X55913973Y29722749D01*
X55950500Y29906384D01*
X55950500Y30093616D01*
X55913973Y30277251D01*
X55842322Y30450231D01*
X55842320Y30450233D01*
X55842318Y30450239D01*
X55782649Y30539537D01*
X55738302Y30605908D01*
X55605908Y30738302D01*
X55538100Y30783610D01*
X55450238Y30842319D01*
X55450229Y30842323D01*
X55277249Y30913974D01*
X55093618Y30950500D01*
X55093616Y30950500D01*
X54906384Y30950500D01*
X54906381Y30950500D01*
X54722750Y30913974D01*
X54549770Y30842323D01*
X54549761Y30842319D01*
X54394092Y30738302D01*
X54394088Y30738299D01*
X54261701Y30605912D01*
X54261698Y30605908D01*
X54157681Y30450239D01*
X54157677Y30450230D01*
X54140964Y30409880D01*
X54101227Y30363355D01*
X54041733Y30349071D01*
X53985205Y30372486D01*
X53953235Y30424655D01*
X53950500Y30447766D01*
X53950500Y30769747D01*
X53950498Y30769759D01*
X53944436Y30800235D01*
X53938867Y30828231D01*
X53894552Y30894552D01*
X53865487Y30913973D01*
X53828233Y30938866D01*
X53828231Y30938867D01*
X53828228Y30938868D01*
X53828227Y30938868D01*
X53769758Y30950499D01*
X53769748Y30950500D01*
X52230252Y30950500D01*
X52230251Y30950500D01*
X52230241Y30950499D01*
X52171772Y30938868D01*
X52171766Y30938866D01*
X52105451Y30894555D01*
X52105445Y30894549D01*
X52061134Y30828234D01*
X52061132Y30828228D01*
X52049501Y30769759D01*
X52049500Y30769747D01*
X38319857Y30769747D01*
X38350500Y30884108D01*
X38350500Y31015892D01*
X38316392Y31143186D01*
X38316390Y31143189D01*
X38316390Y31143191D01*
X38250503Y31257310D01*
X38250501Y31257312D01*
X38250500Y31257314D01*
X38157314Y31350500D01*
X38157311Y31350502D01*
X38157309Y31350504D01*
X38043189Y31416391D01*
X38043191Y31416391D01*
X37978927Y31433610D01*
X37915892Y31450500D01*
X37784108Y31450500D01*
X37721073Y31433610D01*
X37656809Y31416391D01*
X37542690Y31350504D01*
X37449496Y31257310D01*
X37383609Y31143191D01*
X37383608Y31143186D01*
X37349500Y31015892D01*
X22992766Y31015892D01*
X23016388Y31056807D01*
X23016388Y31056808D01*
X23016392Y31056814D01*
X23050500Y31184108D01*
X23050500Y31315892D01*
X23016392Y31443186D01*
X23016390Y31443189D01*
X23016390Y31443191D01*
X22950503Y31557310D01*
X22950501Y31557312D01*
X22950500Y31557314D01*
X22857314Y31650500D01*
X22857311Y31650502D01*
X22857309Y31650504D01*
X22743189Y31716391D01*
X22743191Y31716391D01*
X22693799Y31729625D01*
X22615892Y31750500D01*
X22484108Y31750500D01*
X22406200Y31729625D01*
X22356809Y31716391D01*
X22242690Y31650504D01*
X22149496Y31557310D01*
X22083609Y31443191D01*
X22076428Y31416391D01*
X22049500Y31315892D01*
X500500Y31315892D01*
X500500Y31965892D01*
X38949500Y31965892D01*
X38949500Y31834108D01*
X38979579Y31721849D01*
X38983609Y31706810D01*
X39049496Y31592691D01*
X39049498Y31592689D01*
X39049500Y31592686D01*
X39142686Y31499500D01*
X39142688Y31499499D01*
X39142690Y31499497D01*
X39256810Y31433610D01*
X39256808Y31433610D01*
X39256812Y31433609D01*
X39256814Y31433608D01*
X39384108Y31399500D01*
X39384110Y31399500D01*
X39515890Y31399500D01*
X39515892Y31399500D01*
X39643186Y31433608D01*
X39643188Y31433610D01*
X39643190Y31433610D01*
X39757309Y31499497D01*
X39757309Y31499498D01*
X39757314Y31499500D01*
X39850500Y31592686D01*
X39883879Y31650500D01*
X39916390Y31706810D01*
X39916390Y31706812D01*
X39916392Y31706814D01*
X39950500Y31834108D01*
X39950500Y31965892D01*
X39916392Y32093186D01*
X39916390Y32093189D01*
X39916390Y32093191D01*
X39850503Y32207310D01*
X39850501Y32207312D01*
X39850500Y32207314D01*
X39757314Y32300500D01*
X39757311Y32300502D01*
X39757309Y32300504D01*
X39643189Y32366391D01*
X39643191Y32366391D01*
X39593799Y32379625D01*
X39515892Y32400500D01*
X39384108Y32400500D01*
X39306200Y32379625D01*
X39256809Y32366391D01*
X39142690Y32300504D01*
X39049496Y32207310D01*
X38983609Y32093191D01*
X38983608Y32093186D01*
X38949500Y31965892D01*
X500500Y31965892D01*
X500500Y33065892D01*
X21449500Y33065892D01*
X21449500Y32934108D01*
X21466249Y32871601D01*
X21483609Y32806810D01*
X21549496Y32692691D01*
X21549498Y32692689D01*
X21549500Y32692686D01*
X21642686Y32599500D01*
X21642688Y32599499D01*
X21642690Y32599497D01*
X21756810Y32533610D01*
X21756808Y32533610D01*
X21756812Y32533609D01*
X21756814Y32533608D01*
X21884108Y32499500D01*
X21884110Y32499500D01*
X22015890Y32499500D01*
X22015892Y32499500D01*
X22143186Y32533608D01*
X22143188Y32533610D01*
X22143190Y32533610D01*
X22257309Y32599497D01*
X22257309Y32599498D01*
X22257314Y32599500D01*
X22350500Y32692686D01*
X22394849Y32769500D01*
X22416390Y32806810D01*
X22416390Y32806812D01*
X22416392Y32806814D01*
X22450500Y32934108D01*
X22450500Y33065892D01*
X22416392Y33193186D01*
X22416390Y33193189D01*
X22416390Y33193191D01*
X22350503Y33307310D01*
X22350501Y33307312D01*
X22350500Y33307314D01*
X22257314Y33400500D01*
X22257311Y33400502D01*
X22257309Y33400504D01*
X22143189Y33466391D01*
X22143191Y33466391D01*
X22093799Y33479625D01*
X22015892Y33500500D01*
X21884108Y33500500D01*
X21806200Y33479625D01*
X21756809Y33466391D01*
X21642690Y33400504D01*
X21549496Y33307310D01*
X21483609Y33193191D01*
X21483608Y33193186D01*
X21449500Y33065892D01*
X500500Y33065892D01*
X500500Y33915892D01*
X30199500Y33915892D01*
X30199500Y33784108D01*
X30229579Y33671849D01*
X30233609Y33656810D01*
X30299496Y33542691D01*
X30299498Y33542689D01*
X30299500Y33542686D01*
X30392686Y33449500D01*
X30392688Y33449499D01*
X30392690Y33449497D01*
X30506810Y33383610D01*
X30506808Y33383610D01*
X30506812Y33383609D01*
X30506814Y33383608D01*
X30634108Y33349500D01*
X30634110Y33349500D01*
X30765890Y33349500D01*
X30765892Y33349500D01*
X30893186Y33383608D01*
X30893188Y33383610D01*
X30893190Y33383610D01*
X31007309Y33449497D01*
X31007309Y33449498D01*
X31007314Y33449500D01*
X31100500Y33542686D01*
X31166036Y33656197D01*
X31166390Y33656810D01*
X31166390Y33656812D01*
X31166392Y33656814D01*
X31200500Y33784108D01*
X31200500Y33915892D01*
X31166392Y34043186D01*
X31166390Y34043189D01*
X31166390Y34043191D01*
X31100503Y34157310D01*
X31100501Y34157312D01*
X31100500Y34157314D01*
X31007314Y34250500D01*
X31007311Y34250502D01*
X31007309Y34250504D01*
X30893189Y34316391D01*
X30893191Y34316391D01*
X30843799Y34329625D01*
X30765892Y34350500D01*
X30634108Y34350500D01*
X30556200Y34329625D01*
X30506809Y34316391D01*
X30392690Y34250504D01*
X30299496Y34157310D01*
X30233609Y34043191D01*
X30233608Y34043186D01*
X30199500Y33915892D01*
X500500Y33915892D01*
X500500Y34901120D01*
X55709500Y34901120D01*
X55709500Y34638880D01*
X55743730Y34378884D01*
X55803099Y34157314D01*
X55811600Y34125589D01*
X55811604Y34125576D01*
X55911953Y33883311D01*
X55911955Y33883307D01*
X55911957Y33883303D01*
X55969226Y33784110D01*
X56042719Y33656814D01*
X56043076Y33656197D01*
X56202718Y33448149D01*
X56388149Y33262718D01*
X56596197Y33103076D01*
X56823303Y32971957D01*
X57065581Y32871602D01*
X57318884Y32803730D01*
X57578880Y32769500D01*
X57578881Y32769500D01*
X57841119Y32769500D01*
X57841120Y32769500D01*
X58101116Y32803730D01*
X58354419Y32871602D01*
X58596697Y32971957D01*
X58823803Y33103076D01*
X59031851Y33262718D01*
X59217282Y33448149D01*
X59376924Y33656197D01*
X59508043Y33883303D01*
X59608398Y34125581D01*
X59676270Y34378884D01*
X59710500Y34638880D01*
X59710500Y34901120D01*
X59676270Y35161116D01*
X59608398Y35414419D01*
X59508043Y35656697D01*
X59376924Y35883803D01*
X59217282Y36091851D01*
X59031851Y36277282D01*
X58823803Y36436924D01*
X58823804Y36436924D01*
X58823802Y36436925D01*
X58731630Y36490140D01*
X58596697Y36568043D01*
X58596693Y36568045D01*
X58596689Y36568047D01*
X58354424Y36668396D01*
X58354423Y36668397D01*
X58354419Y36668398D01*
X58101116Y36736270D01*
X58101111Y36736271D01*
X58101110Y36736271D01*
X57841120Y36770500D01*
X57578880Y36770500D01*
X57578879Y36770500D01*
X57318889Y36736271D01*
X57318886Y36736271D01*
X57318884Y36736270D01*
X57133464Y36686588D01*
X57065588Y36668400D01*
X57065575Y36668396D01*
X56823310Y36568047D01*
X56596197Y36436925D01*
X56388152Y36277285D01*
X56202715Y36091848D01*
X56043075Y35883803D01*
X55911953Y35656690D01*
X55811604Y35414425D01*
X55811602Y35414419D01*
X55743730Y35161116D01*
X55709500Y34901120D01*
X500500Y34901120D01*
X500500Y37515892D01*
X28749500Y37515892D01*
X28749500Y37384108D01*
X28770077Y37307314D01*
X28783609Y37256810D01*
X28849496Y37142691D01*
X28849498Y37142689D01*
X28849500Y37142686D01*
X28942686Y37049500D01*
X28942688Y37049499D01*
X28942690Y37049497D01*
X29056810Y36983610D01*
X29056808Y36983610D01*
X29056812Y36983609D01*
X29056814Y36983608D01*
X29184108Y36949500D01*
X29184110Y36949500D01*
X29315890Y36949500D01*
X29315892Y36949500D01*
X29443186Y36983608D01*
X29443188Y36983610D01*
X29443190Y36983610D01*
X29557309Y37049497D01*
X29557309Y37049498D01*
X29557314Y37049500D01*
X29573706Y37065892D01*
X46549500Y37065892D01*
X46549500Y36934108D01*
X46579579Y36821849D01*
X46583609Y36806810D01*
X46649496Y36692691D01*
X46649498Y36692689D01*
X46649500Y36692686D01*
X46742686Y36599500D01*
X46742688Y36599499D01*
X46742690Y36599497D01*
X46856810Y36533610D01*
X46856808Y36533610D01*
X46856812Y36533609D01*
X46856814Y36533608D01*
X46984108Y36499500D01*
X46984110Y36499500D01*
X47115890Y36499500D01*
X47115892Y36499500D01*
X47243186Y36533608D01*
X47243188Y36533610D01*
X47243190Y36533610D01*
X47357309Y36599497D01*
X47357309Y36599498D01*
X47357314Y36599500D01*
X47450500Y36692686D01*
X47516392Y36806814D01*
X47550500Y36934108D01*
X47550500Y37065892D01*
X50449499Y37065892D01*
X50449499Y36934108D01*
X50479578Y36821849D01*
X50483608Y36806810D01*
X50549495Y36692691D01*
X50549497Y36692689D01*
X50549499Y36692686D01*
X50642685Y36599500D01*
X50642687Y36599499D01*
X50642689Y36599497D01*
X50756809Y36533610D01*
X50756807Y36533610D01*
X50756811Y36533609D01*
X50756813Y36533608D01*
X50884107Y36499500D01*
X50884109Y36499500D01*
X51015889Y36499500D01*
X51015891Y36499500D01*
X51143185Y36533608D01*
X51143187Y36533610D01*
X51143189Y36533610D01*
X51257308Y36599497D01*
X51257308Y36599498D01*
X51257313Y36599500D01*
X51350499Y36692686D01*
X51416391Y36806814D01*
X51450499Y36934108D01*
X51450499Y37065892D01*
X51416391Y37193186D01*
X51416389Y37193189D01*
X51416389Y37193191D01*
X51350502Y37307310D01*
X51350500Y37307312D01*
X51350499Y37307314D01*
X51257313Y37400500D01*
X51257310Y37400502D01*
X51257308Y37400504D01*
X51143188Y37466391D01*
X51143190Y37466391D01*
X51093798Y37479625D01*
X51015891Y37500500D01*
X50884107Y37500500D01*
X50806199Y37479625D01*
X50756808Y37466391D01*
X50642689Y37400504D01*
X50549495Y37307310D01*
X50483608Y37193191D01*
X50483607Y37193186D01*
X50449499Y37065892D01*
X47550500Y37065892D01*
X47516392Y37193186D01*
X47516390Y37193189D01*
X47516390Y37193191D01*
X47450503Y37307310D01*
X47450501Y37307312D01*
X47450500Y37307314D01*
X47357314Y37400500D01*
X47357311Y37400502D01*
X47357309Y37400504D01*
X47243189Y37466391D01*
X47243191Y37466391D01*
X47193799Y37479625D01*
X47115892Y37500500D01*
X46984108Y37500500D01*
X46906200Y37479625D01*
X46856809Y37466391D01*
X46742690Y37400504D01*
X46649496Y37307310D01*
X46583609Y37193191D01*
X46583608Y37193186D01*
X46549500Y37065892D01*
X29573706Y37065892D01*
X29650500Y37142686D01*
X29716392Y37256814D01*
X29750500Y37384108D01*
X29750500Y37515892D01*
X29716392Y37643186D01*
X29716390Y37643189D01*
X29716390Y37643191D01*
X29650503Y37757310D01*
X29650501Y37757312D01*
X29650500Y37757314D01*
X29557314Y37850500D01*
X29557311Y37850502D01*
X29557309Y37850504D01*
X29443189Y37916391D01*
X29443191Y37916391D01*
X29393799Y37929625D01*
X29315892Y37950500D01*
X29184108Y37950500D01*
X29106200Y37929625D01*
X29056809Y37916391D01*
X28942690Y37850504D01*
X28849496Y37757310D01*
X28783609Y37643191D01*
X28783608Y37643186D01*
X28749500Y37515892D01*
X500500Y37515892D01*
X500500Y39160892D01*
X28049500Y39160892D01*
X28049500Y39029108D01*
X28079579Y38916849D01*
X28083609Y38901810D01*
X28149496Y38787691D01*
X28149498Y38787689D01*
X28149500Y38787686D01*
X28242686Y38694500D01*
X28242688Y38694499D01*
X28242690Y38694497D01*
X28356810Y38628610D01*
X28356808Y38628610D01*
X28356812Y38628609D01*
X28356814Y38628608D01*
X28484108Y38594500D01*
X28484110Y38594500D01*
X28615890Y38594500D01*
X28615892Y38594500D01*
X28743186Y38628608D01*
X28743188Y38628610D01*
X28743190Y38628610D01*
X28857309Y38694497D01*
X28857309Y38694498D01*
X28857314Y38694500D01*
X28950500Y38787686D01*
X29016392Y38901814D01*
X29050500Y39029108D01*
X29050500Y39160892D01*
X29016392Y39288186D01*
X29016390Y39288189D01*
X29016390Y39288191D01*
X28950503Y39402310D01*
X28950501Y39402312D01*
X28950500Y39402314D01*
X28857314Y39495500D01*
X28857311Y39495502D01*
X28857309Y39495504D01*
X28743189Y39561391D01*
X28743191Y39561391D01*
X28693799Y39574625D01*
X28615892Y39595500D01*
X28484108Y39595500D01*
X28406200Y39574625D01*
X28356809Y39561391D01*
X28242690Y39495504D01*
X28149496Y39402310D01*
X28083609Y39288191D01*
X28077183Y39264208D01*
X28049500Y39160892D01*
X500500Y39160892D01*
X500500Y39796492D01*
X35255900Y39796492D01*
X35255900Y39664708D01*
X35273372Y39599500D01*
X35290009Y39537410D01*
X35355896Y39423291D01*
X35355898Y39423289D01*
X35355900Y39423286D01*
X35449086Y39330100D01*
X35449088Y39330099D01*
X35449090Y39330097D01*
X35563210Y39264210D01*
X35563208Y39264210D01*
X35563212Y39264209D01*
X35563214Y39264208D01*
X35690508Y39230100D01*
X35690510Y39230100D01*
X35822290Y39230100D01*
X35822292Y39230100D01*
X35949586Y39264208D01*
X35949588Y39264210D01*
X35949590Y39264210D01*
X36063709Y39330097D01*
X36063709Y39330098D01*
X36063714Y39330100D01*
X36156900Y39423286D01*
X36198595Y39495504D01*
X36222790Y39537410D01*
X36222790Y39537412D01*
X36222792Y39537414D01*
X36256900Y39664708D01*
X36256900Y39796492D01*
X36222792Y39923786D01*
X36222790Y39923789D01*
X36222790Y39923791D01*
X36165581Y40022878D01*
X36165579Y40022881D01*
X36156902Y40037910D01*
X36156900Y40037914D01*
X36128922Y40065892D01*
X53499500Y40065892D01*
X53499500Y39934108D01*
X53502266Y39923786D01*
X53533609Y39806810D01*
X53599496Y39692691D01*
X53599498Y39692689D01*
X53599500Y39692686D01*
X53692686Y39599500D01*
X53692688Y39599499D01*
X53692690Y39599497D01*
X53806810Y39533610D01*
X53806808Y39533610D01*
X53806812Y39533609D01*
X53806814Y39533608D01*
X53934108Y39499500D01*
X53934110Y39499500D01*
X54065890Y39499500D01*
X54065892Y39499500D01*
X54193186Y39533608D01*
X54193188Y39533610D01*
X54193190Y39533610D01*
X54307309Y39599497D01*
X54307309Y39599498D01*
X54307314Y39599500D01*
X54400500Y39692686D01*
X54466392Y39806814D01*
X54500500Y39934108D01*
X54500500Y40065892D01*
X54466392Y40193186D01*
X54466390Y40193189D01*
X54466390Y40193191D01*
X54400503Y40307310D01*
X54400501Y40307312D01*
X54400500Y40307314D01*
X54307314Y40400500D01*
X54307311Y40400502D01*
X54307309Y40400504D01*
X54193189Y40466391D01*
X54193191Y40466391D01*
X54143799Y40479625D01*
X54065892Y40500500D01*
X53934108Y40500500D01*
X53856200Y40479625D01*
X53806809Y40466391D01*
X53692690Y40400504D01*
X53599496Y40307310D01*
X53533609Y40193191D01*
X53533608Y40193186D01*
X53499500Y40065892D01*
X36128922Y40065892D01*
X36063714Y40131100D01*
X36063711Y40131102D01*
X36063709Y40131104D01*
X35949589Y40196991D01*
X35949591Y40196991D01*
X35900199Y40210225D01*
X35822292Y40231100D01*
X35690508Y40231100D01*
X35612600Y40210225D01*
X35563209Y40196991D01*
X35449090Y40131104D01*
X35355896Y40037910D01*
X35290009Y39923791D01*
X35270939Y39852622D01*
X35255900Y39796492D01*
X500500Y39796492D01*
X500500Y40430892D01*
X28049500Y40430892D01*
X28049500Y40299108D01*
X28067723Y40231100D01*
X28083609Y40171810D01*
X28149496Y40057691D01*
X28149498Y40057689D01*
X28149500Y40057686D01*
X28242686Y39964500D01*
X28242688Y39964499D01*
X28242690Y39964497D01*
X28356810Y39898610D01*
X28356808Y39898610D01*
X28356812Y39898609D01*
X28356814Y39898608D01*
X28484108Y39864500D01*
X28484110Y39864500D01*
X28615890Y39864500D01*
X28615892Y39864500D01*
X28743186Y39898608D01*
X28857314Y39964500D01*
X28950500Y40057686D01*
X29016392Y40171814D01*
X29050500Y40299108D01*
X29050500Y40430892D01*
X29016392Y40558186D01*
X29016390Y40558189D01*
X29016390Y40558191D01*
X28950503Y40672310D01*
X28950501Y40672312D01*
X28950500Y40672314D01*
X28857314Y40765500D01*
X28857311Y40765502D01*
X28857309Y40765504D01*
X28743189Y40831391D01*
X28743191Y40831391D01*
X28693799Y40844625D01*
X28615892Y40865500D01*
X28484108Y40865500D01*
X28406200Y40844625D01*
X28356809Y40831391D01*
X28242690Y40765504D01*
X28149496Y40672310D01*
X28083609Y40558191D01*
X28083608Y40558186D01*
X28049500Y40430892D01*
X500500Y40430892D01*
X500500Y41065892D01*
X39049500Y41065892D01*
X39049500Y40934108D01*
X39067883Y40865500D01*
X39083609Y40806810D01*
X39149496Y40692691D01*
X39149498Y40692689D01*
X39149500Y40692686D01*
X39242686Y40599500D01*
X39242688Y40599499D01*
X39242690Y40599497D01*
X39356810Y40533610D01*
X39356808Y40533610D01*
X39356812Y40533609D01*
X39356814Y40533608D01*
X39484108Y40499500D01*
X39484110Y40499500D01*
X39615890Y40499500D01*
X39615892Y40499500D01*
X39743186Y40533608D01*
X39743188Y40533610D01*
X39743190Y40533610D01*
X39857309Y40599497D01*
X39857309Y40599498D01*
X39857314Y40599500D01*
X39950500Y40692686D01*
X39950503Y40692691D01*
X40016390Y40806810D01*
X40016390Y40806812D01*
X40016392Y40806814D01*
X40050500Y40934108D01*
X40050500Y41065892D01*
X45749500Y41065892D01*
X45749500Y40934108D01*
X45767883Y40865500D01*
X45783609Y40806810D01*
X45849496Y40692691D01*
X45849498Y40692689D01*
X45849500Y40692686D01*
X45942686Y40599500D01*
X45942688Y40599499D01*
X45942690Y40599497D01*
X46056810Y40533610D01*
X46056808Y40533610D01*
X46056812Y40533609D01*
X46056814Y40533608D01*
X46184108Y40499500D01*
X46184110Y40499500D01*
X46315890Y40499500D01*
X46315892Y40499500D01*
X46443186Y40533608D01*
X46443188Y40533610D01*
X46443190Y40533610D01*
X46557309Y40599497D01*
X46557309Y40599498D01*
X46557314Y40599500D01*
X46650500Y40692686D01*
X46650503Y40692691D01*
X46716390Y40806810D01*
X46716390Y40806812D01*
X46716392Y40806814D01*
X46750500Y40934108D01*
X46750500Y41065892D01*
X51949499Y41065892D01*
X51949499Y40934108D01*
X51967882Y40865500D01*
X51983608Y40806810D01*
X52049495Y40692691D01*
X52049497Y40692689D01*
X52049499Y40692686D01*
X52142685Y40599500D01*
X52142687Y40599499D01*
X52142689Y40599497D01*
X52256809Y40533610D01*
X52256807Y40533610D01*
X52256811Y40533609D01*
X52256813Y40533608D01*
X52384107Y40499500D01*
X52384109Y40499500D01*
X52515889Y40499500D01*
X52515891Y40499500D01*
X52643185Y40533608D01*
X52643187Y40533610D01*
X52643189Y40533610D01*
X52757308Y40599497D01*
X52757308Y40599498D01*
X52757313Y40599500D01*
X52850499Y40692686D01*
X52850502Y40692691D01*
X52916389Y40806810D01*
X52916389Y40806812D01*
X52916391Y40806814D01*
X52950499Y40934108D01*
X52950499Y41065892D01*
X52916391Y41193186D01*
X52916389Y41193189D01*
X52916389Y41193191D01*
X52850502Y41307310D01*
X52850500Y41307312D01*
X52850499Y41307314D01*
X52757313Y41400500D01*
X52757310Y41400502D01*
X52757308Y41400504D01*
X52643188Y41466391D01*
X52643190Y41466391D01*
X52593798Y41479625D01*
X52515891Y41500500D01*
X52384107Y41500500D01*
X52306199Y41479625D01*
X52256808Y41466391D01*
X52142689Y41400504D01*
X52049495Y41307310D01*
X51983608Y41193191D01*
X51967882Y41134500D01*
X51949499Y41065892D01*
X46750500Y41065892D01*
X46716392Y41193186D01*
X46716390Y41193189D01*
X46716390Y41193191D01*
X46650503Y41307310D01*
X46650501Y41307312D01*
X46650500Y41307314D01*
X46557314Y41400500D01*
X46557311Y41400502D01*
X46557309Y41400504D01*
X46443189Y41466391D01*
X46443191Y41466391D01*
X46393799Y41479625D01*
X46315892Y41500500D01*
X46184108Y41500500D01*
X46106200Y41479625D01*
X46056809Y41466391D01*
X45942690Y41400504D01*
X45849496Y41307310D01*
X45783609Y41193191D01*
X45767883Y41134500D01*
X45749500Y41065892D01*
X40050500Y41065892D01*
X40016392Y41193186D01*
X40016390Y41193189D01*
X40016390Y41193191D01*
X39950503Y41307310D01*
X39950501Y41307312D01*
X39950500Y41307314D01*
X39857314Y41400500D01*
X39857311Y41400502D01*
X39857309Y41400504D01*
X39743189Y41466391D01*
X39743191Y41466391D01*
X39693799Y41479625D01*
X39615892Y41500500D01*
X39484108Y41500500D01*
X39406200Y41479625D01*
X39356809Y41466391D01*
X39242690Y41400504D01*
X39149496Y41307310D01*
X39083609Y41193191D01*
X39067883Y41134500D01*
X39049500Y41065892D01*
X500500Y41065892D01*
X500500Y41700892D01*
X28049500Y41700892D01*
X28049500Y41569108D01*
X28067883Y41500500D01*
X28083609Y41441810D01*
X28149496Y41327691D01*
X28149498Y41327689D01*
X28149500Y41327686D01*
X28242686Y41234500D01*
X28242688Y41234499D01*
X28242690Y41234497D01*
X28356810Y41168610D01*
X28356808Y41168610D01*
X28356812Y41168609D01*
X28356814Y41168608D01*
X28484108Y41134500D01*
X28484110Y41134500D01*
X28615890Y41134500D01*
X28615892Y41134500D01*
X28743186Y41168608D01*
X28743188Y41168610D01*
X28743190Y41168610D01*
X28857309Y41234497D01*
X28857309Y41234498D01*
X28857314Y41234500D01*
X28950500Y41327686D01*
X28950503Y41327691D01*
X29016390Y41441810D01*
X29016390Y41441812D01*
X29016392Y41441814D01*
X29050500Y41569108D01*
X29050500Y41700892D01*
X34999500Y41700892D01*
X34999500Y41569108D01*
X35017883Y41500500D01*
X35033609Y41441810D01*
X35099496Y41327691D01*
X35099498Y41327689D01*
X35099500Y41327686D01*
X35192686Y41234500D01*
X35192688Y41234499D01*
X35192690Y41234497D01*
X35306810Y41168610D01*
X35306808Y41168610D01*
X35306812Y41168609D01*
X35306814Y41168608D01*
X35434108Y41134500D01*
X35434110Y41134500D01*
X35565890Y41134500D01*
X35565892Y41134500D01*
X35693186Y41168608D01*
X35693188Y41168610D01*
X35693190Y41168610D01*
X35807309Y41234497D01*
X35807309Y41234498D01*
X35807314Y41234500D01*
X35900500Y41327686D01*
X35900503Y41327691D01*
X35966390Y41441810D01*
X35966390Y41441812D01*
X35966392Y41441814D01*
X36000500Y41569108D01*
X36000500Y41700892D01*
X35966392Y41828186D01*
X35966390Y41828189D01*
X35966390Y41828191D01*
X35900503Y41942310D01*
X35900501Y41942312D01*
X35900500Y41942314D01*
X35807314Y42035500D01*
X35807311Y42035502D01*
X35807309Y42035504D01*
X35693189Y42101391D01*
X35693191Y42101391D01*
X35643799Y42114625D01*
X35565892Y42135500D01*
X35434108Y42135500D01*
X35356200Y42114625D01*
X35306809Y42101391D01*
X35192690Y42035504D01*
X35099496Y41942310D01*
X35033609Y41828191D01*
X35033608Y41828186D01*
X34999500Y41700892D01*
X29050500Y41700892D01*
X29016392Y41828186D01*
X29016390Y41828189D01*
X29016390Y41828191D01*
X28950503Y41942310D01*
X28950501Y41942312D01*
X28950500Y41942314D01*
X28857314Y42035500D01*
X28857311Y42035502D01*
X28857309Y42035504D01*
X28743189Y42101391D01*
X28743191Y42101391D01*
X28693799Y42114625D01*
X28615892Y42135500D01*
X28484108Y42135500D01*
X28406200Y42114625D01*
X28356809Y42101391D01*
X28242690Y42035504D01*
X28149496Y41942310D01*
X28083609Y41828191D01*
X28083608Y41828186D01*
X28049500Y41700892D01*
X500500Y41700892D01*
X500500Y42970892D01*
X28049500Y42970892D01*
X28049500Y42839108D01*
X28079579Y42726849D01*
X28083609Y42711810D01*
X28149496Y42597691D01*
X28149498Y42597689D01*
X28149500Y42597686D01*
X28242686Y42504500D01*
X28242688Y42504499D01*
X28242690Y42504497D01*
X28356810Y42438610D01*
X28356808Y42438610D01*
X28356812Y42438609D01*
X28356814Y42438608D01*
X28484108Y42404500D01*
X28484110Y42404500D01*
X28615890Y42404500D01*
X28615892Y42404500D01*
X28743186Y42438608D01*
X28743188Y42438610D01*
X28743190Y42438610D01*
X28857309Y42504497D01*
X28857309Y42504498D01*
X28857314Y42504500D01*
X28950500Y42597686D01*
X28951547Y42599500D01*
X29016390Y42711810D01*
X29016390Y42711812D01*
X29016392Y42711814D01*
X29050500Y42839108D01*
X29050500Y42970892D01*
X29025045Y43065892D01*
X60899500Y43065892D01*
X60899500Y42934108D01*
X60924954Y42839110D01*
X60933609Y42806810D01*
X60999496Y42692691D01*
X60999498Y42692689D01*
X60999500Y42692686D01*
X61092686Y42599500D01*
X61092688Y42599499D01*
X61092690Y42599497D01*
X61206810Y42533610D01*
X61206808Y42533610D01*
X61206812Y42533609D01*
X61206814Y42533608D01*
X61334108Y42499500D01*
X61334110Y42499500D01*
X61465890Y42499500D01*
X61465892Y42499500D01*
X61593186Y42533608D01*
X61593188Y42533610D01*
X61593190Y42533610D01*
X61707309Y42599497D01*
X61707309Y42599498D01*
X61707314Y42599500D01*
X61800500Y42692686D01*
X61866392Y42806814D01*
X61900500Y42934108D01*
X61900500Y43065892D01*
X61866392Y43193186D01*
X61866390Y43193189D01*
X61866390Y43193191D01*
X61800503Y43307310D01*
X61800501Y43307312D01*
X61800500Y43307314D01*
X61707314Y43400500D01*
X61707311Y43400502D01*
X61707309Y43400504D01*
X61593189Y43466391D01*
X61593191Y43466391D01*
X61543799Y43479625D01*
X61465892Y43500500D01*
X61334108Y43500500D01*
X61256200Y43479625D01*
X61206809Y43466391D01*
X61092690Y43400504D01*
X60999496Y43307310D01*
X60933609Y43193191D01*
X60933608Y43193186D01*
X60899500Y43065892D01*
X29025045Y43065892D01*
X29016392Y43098186D01*
X28961541Y43193191D01*
X28950503Y43212310D01*
X28950501Y43212312D01*
X28950500Y43212314D01*
X28857314Y43305500D01*
X28857311Y43305502D01*
X28857309Y43305504D01*
X28743189Y43371391D01*
X28743191Y43371391D01*
X28693799Y43384625D01*
X28615892Y43405500D01*
X28484108Y43405500D01*
X28406200Y43384625D01*
X28356809Y43371391D01*
X28242690Y43305504D01*
X28149496Y43212310D01*
X28083609Y43098191D01*
X28069828Y43046759D01*
X28049500Y42970892D01*
X500500Y42970892D01*
X500500Y45065892D01*
X33449500Y45065892D01*
X33449500Y44934108D01*
X33466595Y44870308D01*
X33483609Y44806810D01*
X33549496Y44692691D01*
X33549498Y44692689D01*
X33549500Y44692686D01*
X33642686Y44599500D01*
X33642688Y44599499D01*
X33642690Y44599497D01*
X33756810Y44533610D01*
X33756808Y44533610D01*
X33756812Y44533609D01*
X33756814Y44533608D01*
X33884108Y44499500D01*
X33884110Y44499500D01*
X34015890Y44499500D01*
X34015892Y44499500D01*
X34143186Y44533608D01*
X34143188Y44533610D01*
X34143190Y44533610D01*
X34257309Y44599497D01*
X34257309Y44599498D01*
X34257314Y44599500D01*
X34350500Y44692686D01*
X34416392Y44806814D01*
X34450500Y44934108D01*
X34450500Y45002092D01*
X38537000Y45002092D01*
X38537000Y44870308D01*
X38554013Y44806814D01*
X38571109Y44743010D01*
X38636996Y44628891D01*
X38636998Y44628889D01*
X38637000Y44628886D01*
X38730186Y44535700D01*
X38730188Y44535699D01*
X38730190Y44535697D01*
X38844310Y44469810D01*
X38844308Y44469810D01*
X38844312Y44469809D01*
X38844314Y44469808D01*
X38971608Y44435700D01*
X38971610Y44435700D01*
X39103390Y44435700D01*
X39103392Y44435700D01*
X39230686Y44469808D01*
X39230688Y44469810D01*
X39230690Y44469810D01*
X39344809Y44535697D01*
X39344809Y44535698D01*
X39344814Y44535700D01*
X39438000Y44628886D01*
X39503892Y44743014D01*
X39538000Y44870308D01*
X39538000Y45002092D01*
X39503892Y45129386D01*
X39503890Y45129389D01*
X39503890Y45129391D01*
X39438003Y45243510D01*
X39438001Y45243512D01*
X39438000Y45243514D01*
X39344814Y45336700D01*
X39344811Y45336702D01*
X39344809Y45336704D01*
X39230689Y45402591D01*
X39230691Y45402591D01*
X39181299Y45415825D01*
X39103392Y45436700D01*
X38971608Y45436700D01*
X38893700Y45415825D01*
X38844309Y45402591D01*
X38730190Y45336704D01*
X38636996Y45243510D01*
X38571109Y45129391D01*
X38571108Y45129386D01*
X38537000Y45002092D01*
X34450500Y45002092D01*
X34450500Y45065892D01*
X34416392Y45193186D01*
X34416390Y45193189D01*
X34416390Y45193191D01*
X34350503Y45307310D01*
X34350501Y45307312D01*
X34350500Y45307314D01*
X34257314Y45400500D01*
X34257311Y45400502D01*
X34257309Y45400504D01*
X34143189Y45466391D01*
X34143191Y45466391D01*
X34093799Y45479625D01*
X34015892Y45500500D01*
X33884108Y45500500D01*
X33806200Y45479625D01*
X33756809Y45466391D01*
X33642690Y45400504D01*
X33549496Y45307310D01*
X33483609Y45193191D01*
X33483608Y45193186D01*
X33449500Y45065892D01*
X500500Y45065892D01*
X500500Y51000001D01*
X800000Y51000001D01*
X815407Y50686347D01*
X815407Y50686344D01*
X861483Y50375729D01*
X861489Y50375699D01*
X937789Y50071091D01*
X1043583Y49775418D01*
X1043588Y49775407D01*
X1177853Y49491525D01*
X1339290Y49222186D01*
X1339295Y49222179D01*
X1339297Y49222176D01*
X1427337Y49103468D01*
X1526367Y48969941D01*
X1526373Y48969934D01*
X1592896Y48896537D01*
X1737258Y48737259D01*
X1969941Y48526367D01*
X2222175Y48339298D01*
X2222179Y48339296D01*
X2222184Y48339292D01*
X2491523Y48177855D01*
X2658897Y48098694D01*
X2775413Y48043586D01*
X3071089Y47937791D01*
X3071088Y47937791D01*
X3375697Y47861491D01*
X3375702Y47861490D01*
X3375710Y47861488D01*
X3375717Y47861487D01*
X3375727Y47861485D01*
X3588487Y47829926D01*
X3686345Y47815409D01*
X4000000Y47800000D01*
X4313654Y47815409D01*
X4313667Y47815411D01*
X4624271Y47861485D01*
X4624277Y47861487D01*
X4624289Y47861488D01*
X4928910Y47937791D01*
X5224586Y48043586D01*
X5508469Y48177852D01*
X5508470Y48177853D01*
X5508475Y48177855D01*
X5777814Y48339292D01*
X5777814Y48339293D01*
X5777824Y48339298D01*
X6030058Y48526367D01*
X6262741Y48737259D01*
X6473633Y48969942D01*
X6572662Y49103468D01*
X47489500Y49103468D01*
X47489500Y48896533D01*
X47529869Y48693582D01*
X47609058Y48502403D01*
X47609059Y48502402D01*
X47724023Y48330345D01*
X47870345Y48184023D01*
X48042402Y48069059D01*
X48233580Y47989870D01*
X48436535Y47949500D01*
X48436536Y47949500D01*
X48643464Y47949500D01*
X48643465Y47949500D01*
X48846420Y47989870D01*
X49037598Y48069059D01*
X49209655Y48184023D01*
X49355977Y48330345D01*
X49470941Y48502402D01*
X49550130Y48693580D01*
X49590500Y48896535D01*
X49590500Y49103465D01*
X49590499Y49103468D01*
X50029500Y49103468D01*
X50029500Y48896533D01*
X50069869Y48693582D01*
X50149058Y48502403D01*
X50149059Y48502402D01*
X50264023Y48330345D01*
X50410345Y48184023D01*
X50582402Y48069059D01*
X50773580Y47989870D01*
X50976535Y47949500D01*
X50976536Y47949500D01*
X51183464Y47949500D01*
X51183465Y47949500D01*
X51386420Y47989870D01*
X51577598Y48069059D01*
X51749655Y48184023D01*
X51895977Y48330345D01*
X52010941Y48502402D01*
X52090130Y48693580D01*
X52130500Y48896535D01*
X52130500Y49103465D01*
X52130499Y49103468D01*
X52569500Y49103468D01*
X52569500Y48896533D01*
X52609869Y48693582D01*
X52689058Y48502403D01*
X52689059Y48502402D01*
X52804023Y48330345D01*
X52950345Y48184023D01*
X53122402Y48069059D01*
X53313580Y47989870D01*
X53516535Y47949500D01*
X53516536Y47949500D01*
X53723464Y47949500D01*
X53723465Y47949500D01*
X53926420Y47989870D01*
X54117598Y48069059D01*
X54289655Y48184023D01*
X54435977Y48330345D01*
X54550941Y48502402D01*
X54630130Y48693580D01*
X54670500Y48896535D01*
X54670500Y49103465D01*
X54670499Y49103468D01*
X55109500Y49103468D01*
X55109500Y48896533D01*
X55149869Y48693582D01*
X55229058Y48502403D01*
X55229059Y48502402D01*
X55344023Y48330345D01*
X55490345Y48184023D01*
X55662402Y48069059D01*
X55853580Y47989870D01*
X56056535Y47949500D01*
X56056536Y47949500D01*
X56263464Y47949500D01*
X56263465Y47949500D01*
X56466420Y47989870D01*
X56657598Y48069059D01*
X56829655Y48184023D01*
X56975977Y48330345D01*
X57090941Y48502402D01*
X57170130Y48693580D01*
X57210500Y48896535D01*
X57210500Y49103465D01*
X57170130Y49306420D01*
X57090941Y49497598D01*
X56975977Y49669655D01*
X56829655Y49815977D01*
X56657598Y49930941D01*
X56657599Y49930941D01*
X56657597Y49930942D01*
X56466418Y50010131D01*
X56263467Y50050500D01*
X56263465Y50050500D01*
X56056535Y50050500D01*
X56056532Y50050500D01*
X55853581Y50010131D01*
X55662402Y49930942D01*
X55490348Y49815980D01*
X55344020Y49669652D01*
X55229058Y49497598D01*
X55149869Y49306419D01*
X55109500Y49103468D01*
X54670499Y49103468D01*
X54630130Y49306420D01*
X54550941Y49497598D01*
X54435977Y49669655D01*
X54289655Y49815977D01*
X54117598Y49930941D01*
X54117599Y49930941D01*
X54117597Y49930942D01*
X53926418Y50010131D01*
X53723467Y50050500D01*
X53723465Y50050500D01*
X53516535Y50050500D01*
X53516532Y50050500D01*
X53313581Y50010131D01*
X53122402Y49930942D01*
X52950348Y49815980D01*
X52804020Y49669652D01*
X52689058Y49497598D01*
X52609869Y49306419D01*
X52569500Y49103468D01*
X52130499Y49103468D01*
X52090130Y49306420D01*
X52010941Y49497598D01*
X51895977Y49669655D01*
X51749655Y49815977D01*
X51577598Y49930941D01*
X51577599Y49930941D01*
X51577597Y49930942D01*
X51386418Y50010131D01*
X51183467Y50050500D01*
X51183465Y50050500D01*
X50976535Y50050500D01*
X50976532Y50050500D01*
X50773581Y50010131D01*
X50582402Y49930942D01*
X50410348Y49815980D01*
X50264020Y49669652D01*
X50149058Y49497598D01*
X50069869Y49306419D01*
X50029500Y49103468D01*
X49590499Y49103468D01*
X49550130Y49306420D01*
X49470941Y49497598D01*
X49355977Y49669655D01*
X49209655Y49815977D01*
X49037598Y49930941D01*
X49037599Y49930941D01*
X49037597Y49930942D01*
X48846418Y50010131D01*
X48643467Y50050500D01*
X48643465Y50050500D01*
X48436535Y50050500D01*
X48436532Y50050500D01*
X48233581Y50010131D01*
X48042402Y49930942D01*
X47870348Y49815980D01*
X47724020Y49669652D01*
X47609058Y49497598D01*
X47529869Y49306419D01*
X47489500Y49103468D01*
X6572662Y49103468D01*
X6660702Y49222176D01*
X6711196Y49306420D01*
X6822145Y49491525D01*
X6825017Y49497598D01*
X6956414Y49775414D01*
X7062209Y50071090D01*
X7138512Y50375711D01*
X7184591Y50686346D01*
X7200000Y51000000D01*
X7200000Y51000001D01*
X62800000Y51000001D01*
X62815407Y50686347D01*
X62815407Y50686344D01*
X62861483Y50375729D01*
X62861489Y50375699D01*
X62937789Y50071091D01*
X63043583Y49775418D01*
X63043588Y49775407D01*
X63177853Y49491525D01*
X63339290Y49222186D01*
X63339295Y49222179D01*
X63339297Y49222176D01*
X63427337Y49103468D01*
X63526367Y48969941D01*
X63526373Y48969934D01*
X63592896Y48896537D01*
X63737258Y48737259D01*
X63969941Y48526367D01*
X64222175Y48339298D01*
X64222179Y48339296D01*
X64222184Y48339292D01*
X64491523Y48177855D01*
X64658897Y48098694D01*
X64775413Y48043586D01*
X65071089Y47937791D01*
X65071088Y47937791D01*
X65375697Y47861491D01*
X65375702Y47861490D01*
X65375710Y47861488D01*
X65375717Y47861487D01*
X65375727Y47861485D01*
X65588487Y47829926D01*
X65686345Y47815409D01*
X66000000Y47800000D01*
X66313654Y47815409D01*
X66313667Y47815411D01*
X66624271Y47861485D01*
X66624277Y47861487D01*
X66624289Y47861488D01*
X66928910Y47937791D01*
X67224586Y48043586D01*
X67508469Y48177852D01*
X67508470Y48177853D01*
X67508475Y48177855D01*
X67777814Y48339292D01*
X67777814Y48339293D01*
X67777824Y48339298D01*
X68030058Y48526367D01*
X68262741Y48737259D01*
X68473633Y48969942D01*
X68660702Y49222176D01*
X68711196Y49306420D01*
X68822145Y49491525D01*
X68825017Y49497598D01*
X68956414Y49775414D01*
X69062209Y50071090D01*
X69138512Y50375711D01*
X69184591Y50686346D01*
X69200000Y51000000D01*
X69184591Y51313655D01*
X69138512Y51624290D01*
X69062209Y51928911D01*
X68956414Y52224587D01*
X68822148Y52508470D01*
X68822145Y52508477D01*
X68660708Y52777816D01*
X68660704Y52777821D01*
X68660702Y52777825D01*
X68473633Y53030059D01*
X68262741Y53262742D01*
X68030058Y53473634D01*
X67777824Y53660703D01*
X67777821Y53660705D01*
X67777814Y53660710D01*
X67508475Y53822147D01*
X67224593Y53956412D01*
X67224582Y53956417D01*
X66928908Y54062211D01*
X66928910Y54062211D01*
X66624301Y54138511D01*
X66624271Y54138517D01*
X66313655Y54184593D01*
X66014028Y54199311D01*
X66000000Y54200000D01*
X65999999Y54200000D01*
X65686345Y54184593D01*
X65686342Y54184593D01*
X65375727Y54138517D01*
X65375697Y54138511D01*
X65071089Y54062211D01*
X64775416Y53956417D01*
X64775405Y53956412D01*
X64491523Y53822147D01*
X64222184Y53660710D01*
X63969939Y53473633D01*
X63969932Y53473627D01*
X63737272Y53262756D01*
X63737244Y53262728D01*
X63526373Y53030068D01*
X63526367Y53030061D01*
X63339290Y52777816D01*
X63177853Y52508477D01*
X63043588Y52224595D01*
X63043583Y52224584D01*
X62937789Y51928911D01*
X62861489Y51624303D01*
X62861483Y51624273D01*
X62815407Y51313658D01*
X62815407Y51313655D01*
X62800000Y51000001D01*
X7200000Y51000001D01*
X7184591Y51313655D01*
X7138512Y51624290D01*
X7062209Y51928911D01*
X6956414Y52224587D01*
X6822148Y52508470D01*
X6822145Y52508477D01*
X6660708Y52777816D01*
X6660704Y52777821D01*
X6660702Y52777825D01*
X6473633Y53030059D01*
X6262741Y53262742D01*
X6030058Y53473634D01*
X5777824Y53660703D01*
X5777821Y53660705D01*
X5777814Y53660710D01*
X5508475Y53822147D01*
X5224593Y53956412D01*
X5224582Y53956417D01*
X4928908Y54062211D01*
X4928910Y54062211D01*
X4624301Y54138511D01*
X4624271Y54138517D01*
X4313655Y54184593D01*
X4014028Y54199311D01*
X4000000Y54200000D01*
X3999999Y54200000D01*
X3686345Y54184593D01*
X3686342Y54184593D01*
X3375727Y54138517D01*
X3375697Y54138511D01*
X3071089Y54062211D01*
X2775416Y53956417D01*
X2775405Y53956412D01*
X2491523Y53822147D01*
X2222184Y53660710D01*
X1969939Y53473633D01*
X1969932Y53473627D01*
X1737272Y53262756D01*
X1737244Y53262728D01*
X1526373Y53030068D01*
X1526367Y53030061D01*
X1339290Y52777816D01*
X1177853Y52508477D01*
X1043588Y52224595D01*
X1043583Y52224584D01*
X937789Y51928911D01*
X861489Y51624303D01*
X861483Y51624273D01*
X815407Y51313658D01*
X815407Y51313655D01*
X800000Y51000001D01*
X500500Y51000001D01*
X500500Y54400500D01*
X519407Y54458691D01*
X568907Y54494655D01*
X599500Y54499500D01*
X69400500Y54499500D01*
X69458691Y54480593D01*
G37*
%TD.AperFunction*%
%TD*%
M02*
