%TF.GenerationSoftware,KiCad,Pcbnew,10.0.6*%
%TF.CreationDate,2026-10-06T22:04:52+02:00*%
%TF.ProjectId,radio-usb-controller,72616469-6f2d-4757-9362-2d636f6e7472,R01.3*%
%TF.SameCoordinates,Original*%
%TF.FileFunction,Copper,L4,Bot*%
%TF.FilePolarity,Positive*%
%FSLAX46Y46*%
G04 Gerber Fmt 4.6, Leading zero omitted, Abs format (unit mm)*
G04 Created by KiCad (PCBNEW 10.0.6) date 2026-10-06 22:04:52*
%MOMM*%
%LPD*%
G01*
G04 APERTURE LIST*
G04 Aperture macros list*
%AMRoundRect*
0 Rectangle with rounded corners*
0 $1 Rounding radius*
0 $2 $3 $4 $5 $6 $7 $8 $9 X,Y pos of 4 corners*
0 Add a 4 corners polygon primitive as box body*
4,1,4,$2,$3,$4,$5,$6,$7,$8,$9,$2,$3,0*
0 Add four circle primitives for the rounded corners*
1,1,$1+$1,$2,$3*
1,1,$1+$1,$4,$5*
1,1,$1+$1,$6,$7*
1,1,$1+$1,$8,$9*
0 Add four rect primitives between the rounded corners*
20,1,$1+$1,$2,$3,$4,$5,0*
20,1,$1+$1,$4,$5,$6,$7,0*
20,1,$1+$1,$6,$7,$8,$9,0*
20,1,$1+$1,$8,$9,$2,$3,0*%
G04 Aperture macros list end*
%TA.AperFunction,ComponentPad*%
%ADD10RoundRect,0.250000X-0.600000X-0.600000X0.600000X-0.600000X0.600000X0.600000X-0.600000X0.600000X0*%
%TD*%
%TA.AperFunction,ComponentPad*%
%ADD11C,1.700000*%
%TD*%
%TA.AperFunction,ComponentPad*%
%ADD12R,1.500000X1.500000*%
%TD*%
%TA.AperFunction,ComponentPad*%
%ADD13C,1.500000*%
%TD*%
%TA.AperFunction,ComponentPad*%
%ADD14C,3.600000*%
%TD*%
%TA.AperFunction,ComponentPad*%
%ADD15R,1.700000X1.700000*%
%TD*%
%TA.AperFunction,ComponentPad*%
%ADD16C,2.000000*%
%TD*%
%TA.AperFunction,ViaPad*%
%ADD17C,0.600000*%
%TD*%
%TA.AperFunction,Conductor*%
%ADD18C,0.200000*%
%TD*%
%TA.AperFunction,Conductor*%
%ADD19C,0.500000*%
%TD*%
G04 APERTURE END LIST*
D10*
%TO.P,J2,1*%
%TO.N,/GND*%
X12000000Y18000000D03*
D11*
%TO.P,J2,2*%
%TO.N,/V3*%
X14540000Y18000000D03*
%TO.P,J2,3*%
%TO.N,/SCK*%
X12000000Y15460000D03*
%TO.P,J2,4*%
%TO.N,/GND*%
X14540000Y15460000D03*
%TO.P,J2,5*%
%TO.N,/MOSI*%
X12000000Y12920000D03*
%TO.P,J2,6*%
%TO.N,/MISO*%
X14540000Y12920000D03*
%TO.P,J2,7*%
%TO.N,/CS_N*%
X12000000Y10380000D03*
%TO.P,J2,8*%
%TO.N,/RF_RESET_N*%
X14540000Y10380000D03*
%TO.P,J2,9*%
%TO.N,/IRQ0*%
X12000000Y7840000D03*
%TO.P,J2,10*%
%TO.N,/IRQ2*%
X14540000Y7840000D03*
%TD*%
D12*
%TO.P,J1,1*%
%TO.N,/VBUS_USB*%
X53000000Y30000000D03*
D13*
%TO.P,J1,2*%
%TO.N,/USB_DM*%
X53000000Y27500000D03*
%TO.P,J1,3*%
%TO.N,/USB_DP*%
X55000000Y27500000D03*
%TO.P,J1,4*%
%TO.N,/GND*%
X55000000Y30000000D03*
D14*
%TO.P,J1,5*%
X57710000Y34770000D03*
X57710000Y22730000D03*
%TD*%
D15*
%TO.P,J4,1*%
%TO.N,/GND*%
X39000000Y15000000D03*
D11*
%TO.P,J4,2*%
%TO.N,/UART_TX*%
X39000000Y12460000D03*
%TO.P,J4,3*%
%TO.N,/UART_RX*%
X39000000Y9920000D03*
%TD*%
D16*
%TO.P,SW1,1*%
%TO.N,/NRST*%
X28000000Y10000000D03*
X34500000Y10000000D03*
%TO.P,SW1,2*%
%TO.N,/GND*%
X28000000Y5500000D03*
X34500000Y5500000D03*
%TD*%
D15*
%TO.P,J3,1*%
%TO.N,/V3*%
X46000000Y49000000D03*
D11*
%TO.P,J3,2*%
%TO.N,/SWDIO*%
X48540000Y49000000D03*
%TO.P,J3,3*%
%TO.N,/GND*%
X51080000Y49000000D03*
%TO.P,J3,4*%
%TO.N,/SWCLK*%
X53620000Y49000000D03*
%TO.P,J3,5*%
%TO.N,/NRST*%
X56160000Y49000000D03*
%TD*%
D17*
%TO.N,/V3*%
X38050000Y23000000D03*
X35800000Y21750000D03*
X25450000Y27300000D03*
X42000000Y45000000D03*
X18400000Y27925000D03*
X18050000Y33000000D03*
X21500000Y19050000D03*
X43350000Y41000000D03*
X18400000Y29575000D03*
X38000000Y43087500D03*
X43800000Y39400000D03*
X22100000Y20000000D03*
X30050000Y45000000D03*
X37550000Y34000000D03*
X35500000Y42905000D03*
X25450000Y32250000D03*
X28250000Y34550000D03*
X41100000Y33050000D03*
X38000000Y39087500D03*
X25450000Y22500000D03*
X21050000Y14500000D03*
X41100000Y37000000D03*
%TO.N,/GND*%
X19200000Y20950000D03*
X22550000Y26250000D03*
X35500000Y41635000D03*
X45900000Y29000000D03*
X40950000Y24000000D03*
X54000000Y40000000D03*
X34750000Y18850000D03*
X32800000Y22200000D03*
X39550000Y41000000D03*
X52449999Y41000000D03*
X28550000Y42905000D03*
X28550000Y39095000D03*
X22950000Y12000000D03*
X24950000Y15900000D03*
X22550000Y23500000D03*
X21950000Y33000000D03*
X46250000Y41000000D03*
X28550000Y40365000D03*
X29250000Y37450000D03*
X30700000Y33850000D03*
X50949999Y37000000D03*
X33950000Y45000000D03*
X37850000Y30950000D03*
X39450000Y31900000D03*
X28550000Y41635000D03*
X26400000Y28250000D03*
X22500000Y27925000D03*
X56062500Y13000000D03*
X22550000Y31250000D03*
%TO.N,/STATUS_LED*%
X37672700Y18784500D03*
X34900600Y25678800D03*
%TO.N,/SCK*%
X31526500Y26400000D03*
%TO.N,/MOSI*%
X27999000Y20807500D03*
%TO.N,/MISO*%
X28969300Y21281100D03*
%TO.N,/RF_RESET_N*%
X28389700Y19165400D03*
X30612300Y26952300D03*
%TO.N,/IRQ0*%
X31750000Y25091900D03*
%TO.N,/SDA*%
X35756400Y39730600D03*
X39037500Y44936200D03*
%TO.N,/VBUS_USB*%
X61400000Y43000000D03*
X47050000Y37000000D03*
X50199999Y29000000D03*
%TO.N,/BOOT1*%
X32954600Y25716900D03*
X36075000Y22582000D03*
%TO.N,/NRST*%
X30207000Y25690400D03*
%TO.N,/UART_TX*%
X34892300Y27750000D03*
%TO.N,/SWDIO*%
X34292200Y29660800D03*
%TD*%
%TO.N,/STATUS_LED*%
D18*
X34900600Y21556600D02*
X34900600Y25678800D01*
X37672700Y18784500D02*
X34900600Y21556600D01*
%TO.N,/SCK*%
X17546700Y16848300D02*
X28301000Y27602600D01*
X31526500Y26928400D02*
X31526500Y26400000D01*
X13388300Y16848300D02*
X17546700Y16848300D01*
X30852300Y27602600D02*
X31526500Y26928400D01*
X12000000Y15460000D02*
X13388300Y16848300D01*
X28301000Y27602600D02*
X30852300Y27602600D01*
%TO.N,/MOSI*%
X24340300Y20807500D02*
X17642400Y14109600D01*
X13189600Y14109600D02*
X12000000Y12920000D01*
X27999000Y20807500D02*
X24340300Y20807500D01*
X17642400Y14109600D02*
X13189600Y14109600D01*
%TO.N,/MISO*%
X28969300Y20926900D02*
X28969300Y21281100D01*
X14540000Y12920000D02*
X20962400Y12920000D01*
X20962400Y12920000D02*
X28969300Y20926900D01*
%TO.N,/RF_RESET_N*%
X29590000Y20365700D02*
X28389700Y19165400D01*
X30612300Y26952300D02*
X29590000Y25930000D01*
X29590000Y25930000D02*
X29590000Y20365700D01*
%TO.N,/IRQ0*%
X21807200Y11727800D02*
X31750000Y21670600D01*
X12000000Y7840000D02*
X13233100Y9073100D01*
X31750000Y21670600D02*
X31750000Y25091900D01*
X14177000Y11727800D02*
X21807200Y11727800D01*
X13233100Y9073100D02*
X13233100Y10783900D01*
X13233100Y10783900D02*
X14177000Y11727800D01*
%TO.N,/SDA*%
X39037500Y43011700D02*
X35756400Y39730600D01*
X39037500Y44936200D02*
X39037500Y43011700D01*
%TO.N,/VBUS_USB*%
D19*
X50199999Y29000000D02*
X52000000Y31000000D01*
X47050000Y37000000D02*
X47050000Y35000000D01*
X47050000Y35000000D02*
X50000000Y32050000D01*
X53000000Y30000000D02*
X52000000Y31000000D01*
X52000000Y31000000D02*
X52000000Y35000000D01*
X52000000Y35000000D02*
X61400000Y44400000D01*
X61400000Y44400000D02*
X61400000Y43000000D01*
X50000000Y32050000D02*
X52000000Y31000000D01*
%TO.N,/BOOT1*%
D18*
X36075000Y22582000D02*
X35514200Y23142800D01*
X35514200Y25987800D02*
X35190400Y26311600D01*
X33549300Y26311600D02*
X32954600Y25716900D01*
X35514200Y23142800D02*
X35514200Y25987800D01*
X35190400Y26311600D02*
X33549300Y26311600D01*
%TO.N,/NRST*%
X34099700Y10400300D02*
X34099700Y23663500D01*
X31992000Y25771200D02*
X30287800Y25771200D01*
X34099700Y23663500D02*
X31992000Y25771200D01*
X30287800Y25771200D02*
X30207000Y25690400D01*
X34500000Y10000000D02*
X34099700Y10400300D01*
%TO.N,/UART_TX*%
X39000000Y12460000D02*
X37811500Y13648500D01*
X38298900Y21501100D02*
X36057300Y23742700D01*
X37811500Y18044800D02*
X38298900Y18532200D01*
X37811500Y13648500D02*
X37811500Y18044800D01*
X38298900Y18532200D02*
X38298900Y21501100D01*
X36057300Y26585000D02*
X34892300Y27750000D01*
X36057300Y23742700D02*
X36057300Y26585000D01*
%TO.N,/SWDIO*%
X38849800Y34218400D02*
X34292200Y29660800D01*
X48540000Y49000000D02*
X38849800Y39309800D01*
X38849800Y39309800D02*
X38849800Y34218400D01*
%TD*%
M02*
